M48
; DRILL file {KiCad (6.0.7)} date Tue Dec 20 14:52:26 2022
; FORMAT={-:-/ absolute / inch / decimal}
; #@! TF.CreationDate,2022-12-20T14:52:26+01:00
; #@! TF.GenerationSoftware,Kicad,Pcbnew,(6.0.7)
; #@! TF.FileFunction,MixedPlating,1,2
FMAT,2
INCH
; #@! TA.AperFunction,Plated,PTH,ViaDrill
T1C0.0197
; #@! TA.AperFunction,Plated,PTH,ComponentDrill
T2C0.0394
; #@! TA.AperFunction,NonPlated,NPTH,ComponentDrill
T3C0.1260
%
G90
G05
T1
X3.78Y-2.52
X3.84Y-1.79
X3.94Y-2.22
X4.025Y-1.9
X4.08Y-2.54
X4.1006Y-2.27
X4.1151Y-2.3501
X4.1195Y-1.9205
X4.15Y-1.73
X4.2108Y-1.7992
X4.26Y-1.67
X4.405Y-1.935
X4.45Y-1.825
X4.5149Y-2.1749
X4.525Y-1.775
X4.545Y-2.32
X4.55Y-2.43
X4.565Y-2.515
X4.67Y-2.55
X4.7Y-1.63
X4.835Y-2.22
X4.84Y-2.0
X4.85Y-1.73
X4.93Y-1.63
X4.94Y-1.71
X4.97Y-2.48
X4.98Y-2.13
X4.98Y-2.3
X5.0Y-1.68
X5.0Y-1.88
X5.0179Y-2.4363
X5.06Y-2.22
X5.19Y-2.48
X5.24Y-2.275
X5.44Y-2.3708
X5.46Y-2.455
X5.5Y-1.6
X5.5Y-2.5
X5.51Y-2.04
X5.53Y-1.81
X5.575Y-2.325
X5.58Y-2.1787
X5.5956Y-1.875
X5.6142Y-2.2813
X5.6181Y-2.5
X5.66Y-2.4087
X5.72Y-2.54
X5.78Y-2.45
X5.8Y-1.6
X5.8Y-1.7
X5.8487Y-1.45
X5.85Y-2.31
X5.91Y-2.22
X5.98Y-1.35
X6.01Y-1.45
X6.1Y-2.05
X6.16Y-1.46
X6.24Y-2.65
X6.26Y-2.23
T2
X3.775Y-2.325
X3.8Y-1.4
X3.8Y-1.5
X3.875Y-2.325
X3.875Y-2.6498
X3.9Y-1.4
X3.9Y-1.5
X3.975Y-2.325
X3.975Y-2.6498
X4.0Y-1.4
X4.0Y-1.5
X4.075Y-2.6498
X4.1Y-1.4
X4.1Y-1.5
X4.175Y-2.6498
X4.2Y-1.4
X4.2Y-1.5
X4.275Y-2.6498
X4.3Y-1.4
X4.3Y-1.5
X4.375Y-2.6498
X4.4Y-1.4
X4.4Y-1.5
X4.475Y-2.6498
X4.5Y-1.4
X4.5Y-1.5
X4.575Y-2.6498
X4.6Y-1.4
X4.6Y-1.5
X4.675Y-2.6498
X4.7Y-1.4
X4.7Y-1.5
X4.775Y-2.6498
X4.8Y-1.4
X4.8Y-1.5
X4.875Y-2.6498
X4.9Y-1.4
X4.9Y-1.5
X4.975Y-2.6498
X5.0Y-1.4
X5.0Y-1.5
X5.075Y-2.6498
X5.1Y-1.4
X5.1Y-1.5
X5.175Y-2.6498
X5.2Y-1.4
X5.2Y-1.5
X5.275Y-2.6498
X5.3Y-1.4
X5.3Y-1.5
X5.375Y-2.6498
X5.4Y-1.4
X5.4Y-1.5
X5.475Y-2.6498
X5.5Y-1.4
X5.5Y-1.5
X5.575Y-2.6498
X5.6Y-1.4
X5.6Y-1.5
X5.675Y-2.6498
X5.7Y-1.4
X5.7Y-1.5
X5.775Y-2.6498
X5.875Y-2.6498
X5.9Y-1.6452
X5.9Y-1.7452
X6.12Y-1.58
X6.12Y-1.68
X6.12Y-1.78
X6.12Y-1.88
X6.26Y-1.58
X6.26Y-1.68
X6.26Y-1.78
X6.26Y-1.88
X6.26Y-1.98
X6.26Y-2.08
T3
X3.85Y-2.05
X5.825Y-2.05
T0
M30
