  0
SECTION
  2
HEADER
  9
$ANGBASE
  50
0.0
  9
$ANGDIR
  70
1
  9
$MEASUREMENT
  70
0
  0
ENDSEC
  0
SECTION
  2
TABLES
  0
TABLE
  2
LTYPE
  70
4
  0
LTYPE
  5
40F
  2
CONTINUOUS
  70
0
  3
Solid line
  72
65
  73
0
  40
0.0
  0
LTYPE
  5
410
  2
DASHDOT
 70
0
  3
Dash Dot ____ _ ____ _
 72
65
 73
4
 40
2.0
 49
1.25
 49
-0.25
 49
0.25
 49
-0.25
  0
LTYPE
  5
411
  2
DASHED
 70
0
  3
Dashed __ __ __ __ __
 72
65
 73
2
 40
0.75
 49
0.5
 49
-0.25
  0
LTYPE
  5
43B
  2
DOTTED
 70
0
  3
Dotted .  .  .  .
 72
65
 73
2
 40
0.2
 49
0.0
 49
-0.2
  0
ENDTAB
  0
TABLE
  2
STYLE
  70
4
  0
STYLE
  2
KICAD
  70
0
  40
0
  41
1
  42
1
  50
0
  71
0
  3
isocp.shx
  0
STYLE
  2
KICADB
  70
0
  40
0
  41
1
  42
1
  50
0
  71
0
  3
isocp.shx
  0
STYLE
  2
KICADI
  70
0
  40
0
  41
1
  42
1
  50
15
  71
0
  3
isocp.shx
  0
STYLE
  2
KICADBI
  70
0
  40
0
  41
1
  42
1
  50
15
  71
0
  3
isocp.shx
  0
ENDTAB
  0
TABLE
  2
LAYER
  70
1
  0
LAYER
  2
BLACK
  70
0
  62
7
  6
CONTINUOUS
  0
ENDTAB
  0
ENDSEC
  0
SECTION
  2
ENTITIES
0
LINE
8
BLACK
6
CONTINUOUS
10
6.36
20
-1.3
11
6.36
21
-2.75
0
LINE
8
BLACK
6
CONTINUOUS
10
3.69
20
-2.75
11
3.69
21
-1.3
0
LINE
8
BLACK
6
CONTINUOUS
10
3.69
20
-1.3
11
6.36
21
-1.3
0
LINE
8
BLACK
6
CONTINUOUS
10
6.36
20
-2.75
11
3.69
21
-2.75
0
LINE
8
BLACK
6
CONTINUOUS
10
3.77016
20
-2.51016
11
3.78984
21
-2.52984
0
LINE
8
BLACK
6
CONTINUOUS
10
3.78984
20
-2.51016
11
3.77016
21
-2.52984
0
LINE
8
BLACK
6
CONTINUOUS
10
3.83016
20
-1.78016
11
3.84984
21
-1.79984
0
LINE
8
BLACK
6
CONTINUOUS
10
3.84984
20
-1.78016
11
3.83016
21
-1.79984
0
LINE
8
BLACK
6
CONTINUOUS
10
3.93016
20
-2.21016
11
3.94984
21
-2.22984
0
LINE
8
BLACK
6
CONTINUOUS
10
3.94984
20
-2.21016
11
3.93016
21
-2.22984
0
LINE
8
BLACK
6
CONTINUOUS
10
4.01516
20
-1.89016
11
4.03484
21
-1.90984
0
LINE
8
BLACK
6
CONTINUOUS
10
4.03484
20
-1.89016
11
4.01516
21
-1.90984
0
LINE
8
BLACK
6
CONTINUOUS
10
4.07016
20
-2.53016
11
4.08984
21
-2.54984
0
LINE
8
BLACK
6
CONTINUOUS
10
4.08984
20
-2.53016
11
4.07016
21
-2.54984
0
LINE
8
BLACK
6
CONTINUOUS
10
4.09076
20
-2.26016
11
4.11045
21
-2.27984
0
LINE
8
BLACK
6
CONTINUOUS
10
4.11045
20
-2.26016
11
4.09076
21
-2.27984
0
LINE
8
BLACK
6
CONTINUOUS
10
4.10521
20
-2.34023
11
4.12489
21
-2.35991
0
LINE
8
BLACK
6
CONTINUOUS
10
4.12489
20
-2.34023
11
4.10521
21
-2.35991
0
LINE
8
BLACK
6
CONTINUOUS
10
4.10966
20
-1.91066
11
4.12934
21
-1.93034
0
LINE
8
BLACK
6
CONTINUOUS
10
4.12934
20
-1.91066
11
4.10966
21
-1.93034
0
LINE
8
BLACK
6
CONTINUOUS
10
4.14016
20
-1.72016
11
4.15984
21
-1.73984
0
LINE
8
BLACK
6
CONTINUOUS
10
4.15984
20
-1.72016
11
4.14016
21
-1.73984
0
LINE
8
BLACK
6
CONTINUOUS
10
4.20094
20
-1.78937
11
4.22063
21
-1.80906
0
LINE
8
BLACK
6
CONTINUOUS
10
4.22063
20
-1.78937
11
4.20094
21
-1.80906
0
LINE
8
BLACK
6
CONTINUOUS
10
4.25016
20
-1.66016
11
4.26984
21
-1.67984
0
LINE
8
BLACK
6
CONTINUOUS
10
4.26984
20
-1.66016
11
4.25016
21
-1.67984
0
LINE
8
BLACK
6
CONTINUOUS
10
4.39516
20
-1.92516
11
4.41484
21
-1.94484
0
LINE
8
BLACK
6
CONTINUOUS
10
4.41484
20
-1.92516
11
4.39516
21
-1.94484
0
LINE
8
BLACK
6
CONTINUOUS
10
4.44016
20
-1.81516
11
4.45984
21
-1.83484
0
LINE
8
BLACK
6
CONTINUOUS
10
4.45984
20
-1.81516
11
4.44016
21
-1.83484
0
LINE
8
BLACK
6
CONTINUOUS
10
4.5051
20
-2.1651
11
4.52478
21
-2.18478
0
LINE
8
BLACK
6
CONTINUOUS
10
4.52478
20
-2.1651
11
4.5051
21
-2.18478
0
LINE
8
BLACK
6
CONTINUOUS
10
4.51516
20
-1.76516
11
4.53484
21
-1.78484
0
LINE
8
BLACK
6
CONTINUOUS
10
4.53484
20
-1.76516
11
4.51516
21
-1.78484
0
LINE
8
BLACK
6
CONTINUOUS
10
4.53516
20
-2.31016
11
4.55484
21
-2.32984
0
LINE
8
BLACK
6
CONTINUOUS
10
4.55484
20
-2.31016
11
4.53516
21
-2.32984
0
LINE
8
BLACK
6
CONTINUOUS
10
4.54016
20
-2.42016
11
4.55984
21
-2.43984
0
LINE
8
BLACK
6
CONTINUOUS
10
4.55984
20
-2.42016
11
4.54016
21
-2.43984
0
LINE
8
BLACK
6
CONTINUOUS
10
4.55516
20
-2.50516
11
4.57484
21
-2.52484
0
LINE
8
BLACK
6
CONTINUOUS
10
4.57484
20
-2.50516
11
4.55516
21
-2.52484
0
LINE
8
BLACK
6
CONTINUOUS
10
4.66016
20
-2.54016
11
4.67984
21
-2.55984
0
LINE
8
BLACK
6
CONTINUOUS
10
4.67984
20
-2.54016
11
4.66016
21
-2.55984
0
LINE
8
BLACK
6
CONTINUOUS
10
4.69016
20
-1.62016
11
4.70984
21
-1.63984
0
LINE
8
BLACK
6
CONTINUOUS
10
4.70984
20
-1.62016
11
4.69016
21
-1.63984
0
LINE
8
BLACK
6
CONTINUOUS
10
4.82516
20
-2.21016
11
4.84484
21
-2.22984
0
LINE
8
BLACK
6
CONTINUOUS
10
4.84484
20
-2.21016
11
4.82516
21
-2.22984
0
LINE
8
BLACK
6
CONTINUOUS
10
4.83016
20
-1.99016
11
4.84984
21
-2.00984
0
LINE
8
BLACK
6
CONTINUOUS
10
4.84984
20
-1.99016
11
4.83016
21
-2.00984
0
LINE
8
BLACK
6
CONTINUOUS
10
4.84016
20
-1.72016
11
4.85984
21
-1.73984
0
LINE
8
BLACK
6
CONTINUOUS
10
4.85984
20
-1.72016
11
4.84016
21
-1.73984
0
LINE
8
BLACK
6
CONTINUOUS
10
4.92016
20
-1.62016
11
4.93984
21
-1.63984
0
LINE
8
BLACK
6
CONTINUOUS
10
4.93984
20
-1.62016
11
4.92016
21
-1.63984
0
LINE
8
BLACK
6
CONTINUOUS
10
4.93016
20
-1.70016
11
4.94984
21
-1.71984
0
LINE
8
BLACK
6
CONTINUOUS
10
4.94984
20
-1.70016
11
4.93016
21
-1.71984
0
LINE
8
BLACK
6
CONTINUOUS
10
4.96016
20
-2.47016
11
4.97984
21
-2.48984
0
LINE
8
BLACK
6
CONTINUOUS
10
4.97984
20
-2.47016
11
4.96016
21
-2.48984
0
LINE
8
BLACK
6
CONTINUOUS
10
4.97016
20
-2.12016
11
4.98984
21
-2.13984
0
LINE
8
BLACK
6
CONTINUOUS
10
4.98984
20
-2.12016
11
4.97016
21
-2.13984
0
LINE
8
BLACK
6
CONTINUOUS
10
4.97016
20
-2.29016
11
4.98984
21
-2.30984
0
LINE
8
BLACK
6
CONTINUOUS
10
4.98984
20
-2.29016
11
4.97016
21
-2.30984
0
LINE
8
BLACK
6
CONTINUOUS
10
4.99016
20
-1.67016
11
5.00984
21
-1.68984
0
LINE
8
BLACK
6
CONTINUOUS
10
5.00984
20
-1.67016
11
4.99016
21
-1.68984
0
LINE
8
BLACK
6
CONTINUOUS
10
4.99016
20
-1.87016
11
5.00984
21
-1.88984
0
LINE
8
BLACK
6
CONTINUOUS
10
5.00984
20
-1.87016
11
4.99016
21
-1.88984
0
LINE
8
BLACK
6
CONTINUOUS
10
5.00803
20
-2.42646
11
5.02771
21
-2.44615
0
LINE
8
BLACK
6
CONTINUOUS
10
5.02771
20
-2.42646
11
5.00803
21
-2.44615
0
LINE
8
BLACK
6
CONTINUOUS
10
5.05016
20
-2.21016
11
5.06984
21
-2.22984
0
LINE
8
BLACK
6
CONTINUOUS
10
5.06984
20
-2.21016
11
5.05016
21
-2.22984
0
LINE
8
BLACK
6
CONTINUOUS
10
5.18016
20
-2.47016
11
5.19984
21
-2.48984
0
LINE
8
BLACK
6
CONTINUOUS
10
5.19984
20
-2.47016
11
5.18016
21
-2.48984
0
LINE
8
BLACK
6
CONTINUOUS
10
5.23016
20
-2.26516
11
5.24984
21
-2.28484
0
LINE
8
BLACK
6
CONTINUOUS
10
5.24984
20
-2.26516
11
5.23016
21
-2.28484
0
LINE
8
BLACK
6
CONTINUOUS
10
5.43016
20
-2.36092
11
5.44984
21
-2.38061
0
LINE
8
BLACK
6
CONTINUOUS
10
5.44984
20
-2.36092
11
5.43016
21
-2.38061
0
LINE
8
BLACK
6
CONTINUOUS
10
5.45016
20
-2.44516
11
5.46984
21
-2.46484
0
LINE
8
BLACK
6
CONTINUOUS
10
5.46984
20
-2.44516
11
5.45016
21
-2.46484
0
LINE
8
BLACK
6
CONTINUOUS
10
5.49016
20
-1.59016
11
5.50984
21
-1.60984
0
LINE
8
BLACK
6
CONTINUOUS
10
5.50984
20
-1.59016
11
5.49016
21
-1.60984
0
LINE
8
BLACK
6
CONTINUOUS
10
5.49016
20
-2.49016
11
5.50984
21
-2.50984
0
LINE
8
BLACK
6
CONTINUOUS
10
5.50984
20
-2.49016
11
5.49016
21
-2.50984
0
LINE
8
BLACK
6
CONTINUOUS
10
5.50016
20
-2.03016
11
5.51984
21
-2.04984
0
LINE
8
BLACK
6
CONTINUOUS
10
5.51984
20
-2.03016
11
5.50016
21
-2.04984
0
LINE
8
BLACK
6
CONTINUOUS
10
5.52016
20
-1.80016
11
5.53984
21
-1.81984
0
LINE
8
BLACK
6
CONTINUOUS
10
5.53984
20
-1.80016
11
5.52016
21
-1.81984
0
LINE
8
BLACK
6
CONTINUOUS
10
5.56516
20
-2.31516
11
5.58484
21
-2.33484
0
LINE
8
BLACK
6
CONTINUOUS
10
5.58484
20
-2.31516
11
5.56516
21
-2.33484
0
LINE
8
BLACK
6
CONTINUOUS
10
5.57016
20
-2.16884
11
5.58984
21
-2.18852
0
LINE
8
BLACK
6
CONTINUOUS
10
5.58984
20
-2.16884
11
5.57016
21
-2.18852
0
LINE
8
BLACK
6
CONTINUOUS
10
5.58578
20
-1.86516
11
5.60546
21
-1.88484
0
LINE
8
BLACK
6
CONTINUOUS
10
5.60546
20
-1.86516
11
5.58578
21
-1.88484
0
LINE
8
BLACK
6
CONTINUOUS
10
5.60431
20
-2.27148
11
5.624
21
-2.29116
0
LINE
8
BLACK
6
CONTINUOUS
10
5.624
20
-2.27148
11
5.60431
21
-2.29116
0
LINE
8
BLACK
6
CONTINUOUS
10
5.60821
20
-2.49016
11
5.62789
21
-2.50984
0
LINE
8
BLACK
6
CONTINUOUS
10
5.62789
20
-2.49016
11
5.60821
21
-2.50984
0
LINE
8
BLACK
6
CONTINUOUS
10
5.65016
20
-2.39884
11
5.66984
21
-2.41852
0
LINE
8
BLACK
6
CONTINUOUS
10
5.66984
20
-2.39884
11
5.65016
21
-2.41852
0
LINE
8
BLACK
6
CONTINUOUS
10
5.71016
20
-2.53016
11
5.72984
21
-2.54984
0
LINE
8
BLACK
6
CONTINUOUS
10
5.72984
20
-2.53016
11
5.71016
21
-2.54984
0
LINE
8
BLACK
6
CONTINUOUS
10
5.77016
20
-2.44016
11
5.78984
21
-2.45984
0
LINE
8
BLACK
6
CONTINUOUS
10
5.78984
20
-2.44016
11
5.77016
21
-2.45984
0
LINE
8
BLACK
6
CONTINUOUS
10
5.79016
20
-1.59016
11
5.80984
21
-1.60984
0
LINE
8
BLACK
6
CONTINUOUS
10
5.80984
20
-1.59016
11
5.79016
21
-1.60984
0
LINE
8
BLACK
6
CONTINUOUS
10
5.79016
20
-1.69016
11
5.80984
21
-1.70984
0
LINE
8
BLACK
6
CONTINUOUS
10
5.80984
20
-1.69016
11
5.79016
21
-1.70984
0
LINE
8
BLACK
6
CONTINUOUS
10
5.83884
20
-1.44016
11
5.85852
21
-1.45984
0
LINE
8
BLACK
6
CONTINUOUS
10
5.85852
20
-1.44016
11
5.83884
21
-1.45984
0
LINE
8
BLACK
6
CONTINUOUS
10
5.84016
20
-2.30016
11
5.85984
21
-2.31984
0
LINE
8
BLACK
6
CONTINUOUS
10
5.85984
20
-2.30016
11
5.84016
21
-2.31984
0
LINE
8
BLACK
6
CONTINUOUS
10
5.90016
20
-2.21016
11
5.91984
21
-2.22984
0
LINE
8
BLACK
6
CONTINUOUS
10
5.91984
20
-2.21016
11
5.90016
21
-2.22984
0
LINE
8
BLACK
6
CONTINUOUS
10
5.97016
20
-1.34016
11
5.98984
21
-1.35984
0
LINE
8
BLACK
6
CONTINUOUS
10
5.98984
20
-1.34016
11
5.97016
21
-1.35984
0
LINE
8
BLACK
6
CONTINUOUS
10
6.00016
20
-1.44016
11
6.01984
21
-1.45984
0
LINE
8
BLACK
6
CONTINUOUS
10
6.01984
20
-1.44016
11
6.00016
21
-1.45984
0
LINE
8
BLACK
6
CONTINUOUS
10
6.09016
20
-2.04016
11
6.10984
21
-2.05984
0
LINE
8
BLACK
6
CONTINUOUS
10
6.10984
20
-2.04016
11
6.09016
21
-2.05984
0
LINE
8
BLACK
6
CONTINUOUS
10
6.15016
20
-1.45016
11
6.16984
21
-1.46984
0
LINE
8
BLACK
6
CONTINUOUS
10
6.16984
20
-1.45016
11
6.15016
21
-1.46984
0
LINE
8
BLACK
6
CONTINUOUS
10
6.23016
20
-2.64016
11
6.24984
21
-2.65984
0
LINE
8
BLACK
6
CONTINUOUS
10
6.24984
20
-2.64016
11
6.23016
21
-2.65984
0
LINE
8
BLACK
6
CONTINUOUS
10
6.25016
20
-2.22016
11
6.26984
21
-2.23984
0
LINE
8
BLACK
6
CONTINUOUS
10
6.26984
20
-2.22016
11
6.25016
21
-2.23984
0
CIRCLE
8
BLACK
10
3.775
20
-2.325
40
0.019685
0
CIRCLE
8
BLACK
10
3.8
20
-1.4
40
0.019685
0
CIRCLE
8
BLACK
10
3.8
20
-1.5
40
0.019685
0
CIRCLE
8
BLACK
10
3.875
20
-2.325
40
0.019685
0
CIRCLE
8
BLACK
10
3.875
20
-2.6498
40
0.019685
0
CIRCLE
8
BLACK
10
3.9
20
-1.4
40
0.019685
0
CIRCLE
8
BLACK
10
3.9
20
-1.5
40
0.019685
0
CIRCLE
8
BLACK
10
3.975
20
-2.325
40
0.019685
0
CIRCLE
8
BLACK
10
3.975
20
-2.6498
40
0.019685
0
CIRCLE
8
BLACK
10
4
20
-1.4
40
0.019685
0
CIRCLE
8
BLACK
10
4
20
-1.5
40
0.019685
0
CIRCLE
8
BLACK
10
4.075
20
-2.6498
40
0.019685
0
CIRCLE
8
BLACK
10
4.1
20
-1.4
40
0.019685
0
CIRCLE
8
BLACK
10
4.1
20
-1.5
40
0.019685
0
CIRCLE
8
BLACK
10
4.175
20
-2.6498
40
0.019685
0
CIRCLE
8
BLACK
10
4.2
20
-1.4
40
0.019685
0
CIRCLE
8
BLACK
10
4.2
20
-1.5
40
0.019685
0
CIRCLE
8
BLACK
10
4.275
20
-2.6498
40
0.019685
0
CIRCLE
8
BLACK
10
4.3
20
-1.4
40
0.019685
0
CIRCLE
8
BLACK
10
4.3
20
-1.5
40
0.019685
0
CIRCLE
8
BLACK
10
4.375
20
-2.6498
40
0.019685
0
CIRCLE
8
BLACK
10
4.4
20
-1.4
40
0.019685
0
CIRCLE
8
BLACK
10
4.4
20
-1.5
40
0.019685
0
CIRCLE
8
BLACK
10
4.475
20
-2.6498
40
0.019685
0
CIRCLE
8
BLACK
10
4.5
20
-1.4
40
0.019685
0
CIRCLE
8
BLACK
10
4.5
20
-1.5
40
0.019685
0
CIRCLE
8
BLACK
10
4.575
20
-2.6498
40
0.019685
0
CIRCLE
8
BLACK
10
4.6
20
-1.4
40
0.019685
0
CIRCLE
8
BLACK
10
4.6
20
-1.5
40
0.019685
0
CIRCLE
8
BLACK
10
4.675
20
-2.6498
40
0.019685
0
CIRCLE
8
BLACK
10
4.7
20
-1.4
40
0.019685
0
CIRCLE
8
BLACK
10
4.7
20
-1.5
40
0.019685
0
CIRCLE
8
BLACK
10
4.775
20
-2.6498
40
0.019685
0
CIRCLE
8
BLACK
10
4.8
20
-1.4
40
0.019685
0
CIRCLE
8
BLACK
10
4.8
20
-1.5
40
0.019685
0
CIRCLE
8
BLACK
10
4.875
20
-2.6498
40
0.019685
0
CIRCLE
8
BLACK
10
4.9
20
-1.4
40
0.019685
0
CIRCLE
8
BLACK
10
4.9
20
-1.5
40
0.019685
0
CIRCLE
8
BLACK
10
4.975
20
-2.6498
40
0.019685
0
CIRCLE
8
BLACK
10
5
20
-1.4
40
0.019685
0
CIRCLE
8
BLACK
10
5
20
-1.5
40
0.019685
0
CIRCLE
8
BLACK
10
5.075
20
-2.6498
40
0.019685
0
CIRCLE
8
BLACK
10
5.1
20
-1.4
40
0.019685
0
CIRCLE
8
BLACK
10
5.1
20
-1.5
40
0.019685
0
CIRCLE
8
BLACK
10
5.175
20
-2.6498
40
0.019685
0
CIRCLE
8
BLACK
10
5.2
20
-1.4
40
0.019685
0
CIRCLE
8
BLACK
10
5.2
20
-1.5
40
0.019685
0
CIRCLE
8
BLACK
10
5.275
20
-2.6498
40
0.019685
0
CIRCLE
8
BLACK
10
5.3
20
-1.4
40
0.019685
0
CIRCLE
8
BLACK
10
5.3
20
-1.5
40
0.019685
0
CIRCLE
8
BLACK
10
5.375
20
-2.6498
40
0.019685
0
CIRCLE
8
BLACK
10
5.4
20
-1.4
40
0.019685
0
CIRCLE
8
BLACK
10
5.4
20
-1.5
40
0.019685
0
CIRCLE
8
BLACK
10
5.475
20
-2.6498
40
0.019685
0
CIRCLE
8
BLACK
10
5.5
20
-1.4
40
0.019685
0
CIRCLE
8
BLACK
10
5.5
20
-1.5
40
0.019685
0
CIRCLE
8
BLACK
10
5.575
20
-2.6498
40
0.019685
0
CIRCLE
8
BLACK
10
5.6
20
-1.4
40
0.019685
0
CIRCLE
8
BLACK
10
5.6
20
-1.5
40
0.019685
0
CIRCLE
8
BLACK
10
5.675
20
-2.6498
40
0.019685
0
CIRCLE
8
BLACK
10
5.7
20
-1.4
40
0.019685
0
CIRCLE
8
BLACK
10
5.7
20
-1.5
40
0.019685
0
CIRCLE
8
BLACK
10
5.775
20
-2.6498
40
0.019685
0
CIRCLE
8
BLACK
10
5.875
20
-2.6498
40
0.019685
0
CIRCLE
8
BLACK
10
5.9
20
-1.6452
40
0.019685
0
CIRCLE
8
BLACK
10
5.9
20
-1.7452
40
0.019685
0
CIRCLE
8
BLACK
10
6.12
20
-1.58
40
0.019685
0
CIRCLE
8
BLACK
10
6.12
20
-1.68
40
0.019685
0
CIRCLE
8
BLACK
10
6.12
20
-1.78
40
0.019685
0
CIRCLE
8
BLACK
10
6.12
20
-1.88
40
0.019685
0
CIRCLE
8
BLACK
10
6.26
20
-1.58
40
0.019685
0
CIRCLE
8
BLACK
10
6.26
20
-1.68
40
0.019685
0
CIRCLE
8
BLACK
10
6.26
20
-1.78
40
0.019685
0
CIRCLE
8
BLACK
10
6.26
20
-1.88
40
0.019685
0
CIRCLE
8
BLACK
10
6.26
20
-1.98
40
0.019685
0
CIRCLE
8
BLACK
10
6.26
20
-2.08
40
0.019685
0
LINE
8
BLACK
6
CONTINUOUS
10
3.85
20
-1.98701
11
3.85
21
-2.11299
0
LINE
8
BLACK
6
CONTINUOUS
10
3.78701
20
-2.05
11
3.91299
21
-2.05
0
LINE
8
BLACK
6
CONTINUOUS
10
5.825
20
-1.98701
11
5.825
21
-2.11299
0
LINE
8
BLACK
6
CONTINUOUS
10
5.76201
20
-2.05
11
5.88799
21
-2.05
0
LINE
8
BLACK
6
CONTINUOUS
10
3.78946
20
-2.8742
11
3.78946
21
-2.79546
0
LINE
8
BLACK
6
CONTINUOUS
10
3.78946
20
-2.79546
11
3.8082
21
-2.79546
0
LINE
8
BLACK
6
CONTINUOUS
10
3.8082
20
-2.79546
11
3.81945
21
-2.79921
0
LINE
8
BLACK
6
CONTINUOUS
10
3.81945
20
-2.79921
11
3.82695
21
-2.80671
0
LINE
8
BLACK
6
CONTINUOUS
10
3.82695
20
-2.80671
11
3.8307
21
-2.81421
0
LINE
8
BLACK
6
CONTINUOUS
10
3.8307
20
-2.81421
11
3.83445
21
-2.82921
0
LINE
8
BLACK
6
CONTINUOUS
10
3.83445
20
-2.82921
11
3.83445
21
-2.84046
0
LINE
8
BLACK
6
CONTINUOUS
10
3.83445
20
-2.84046
11
3.8307
21
-2.85546
0
LINE
8
BLACK
6
CONTINUOUS
10
3.8307
20
-2.85546
11
3.82695
21
-2.86295
0
LINE
8
BLACK
6
CONTINUOUS
10
3.82695
20
-2.86295
11
3.81945
21
-2.87045
0
LINE
8
BLACK
6
CONTINUOUS
10
3.81945
20
-2.87045
11
3.8082
21
-2.8742
0
LINE
8
BLACK
6
CONTINUOUS
10
3.8082
20
-2.8742
11
3.78946
21
-2.8742
0
LINE
8
BLACK
6
CONTINUOUS
10
3.8682
20
-2.8742
11
3.8682
21
-2.82171
0
LINE
8
BLACK
6
CONTINUOUS
10
3.8682
20
-2.83671
11
3.87195
21
-2.82921
0
LINE
8
BLACK
6
CONTINUOUS
10
3.87195
20
-2.82921
11
3.8757
21
-2.82546
0
LINE
8
BLACK
6
CONTINUOUS
10
3.8757
20
-2.82546
11
3.88319
21
-2.82171
0
LINE
8
BLACK
6
CONTINUOUS
10
3.88319
20
-2.82171
11
3.89069
21
-2.82171
0
LINE
8
BLACK
6
CONTINUOUS
10
3.91694
20
-2.8742
11
3.91694
21
-2.82171
0
LINE
8
BLACK
6
CONTINUOUS
10
3.91694
20
-2.79546
11
3.91319
21
-2.79921
0
LINE
8
BLACK
6
CONTINUOUS
10
3.91319
20
-2.79921
11
3.91694
21
-2.80296
0
LINE
8
BLACK
6
CONTINUOUS
10
3.91694
20
-2.80296
11
3.92069
21
-2.79921
0
LINE
8
BLACK
6
CONTINUOUS
10
3.92069
20
-2.79921
11
3.91694
21
-2.79546
0
LINE
8
BLACK
6
CONTINUOUS
10
3.91694
20
-2.79546
11
3.91694
21
-2.80296
0
LINE
8
BLACK
6
CONTINUOUS
10
3.96568
20
-2.8742
11
3.95819
21
-2.87045
0
LINE
8
BLACK
6
CONTINUOUS
10
3.95819
20
-2.87045
11
3.95444
21
-2.86295
0
LINE
8
BLACK
6
CONTINUOUS
10
3.95444
20
-2.86295
11
3.95444
21
-2.79546
0
LINE
8
BLACK
6
CONTINUOUS
10
4.00693
20
-2.8742
11
3.99943
21
-2.87045
0
LINE
8
BLACK
6
CONTINUOUS
10
3.99943
20
-2.87045
11
3.99568
21
-2.86295
0
LINE
8
BLACK
6
CONTINUOUS
10
3.99568
20
-2.86295
11
3.99568
21
-2.79546
0
LINE
8
BLACK
6
CONTINUOUS
10
4.09692
20
-2.8742
11
4.09692
21
-2.79546
0
LINE
8
BLACK
6
CONTINUOUS
10
4.09692
20
-2.79546
11
4.12316
21
-2.85171
0
LINE
8
BLACK
6
CONTINUOUS
10
4.12316
20
-2.85171
11
4.14941
21
-2.79546
0
LINE
8
BLACK
6
CONTINUOUS
10
4.14941
20
-2.79546
11
4.14941
21
-2.8742
0
LINE
8
BLACK
6
CONTINUOUS
10
4.22065
20
-2.8742
11
4.22065
21
-2.83296
0
LINE
8
BLACK
6
CONTINUOUS
10
4.22065
20
-2.83296
11
4.2169
21
-2.82546
0
LINE
8
BLACK
6
CONTINUOUS
10
4.2169
20
-2.82546
11
4.2094
21
-2.82171
0
LINE
8
BLACK
6
CONTINUOUS
10
4.2094
20
-2.82171
11
4.19441
21
-2.82171
0
LINE
8
BLACK
6
CONTINUOUS
10
4.19441
20
-2.82171
11
4.18691
21
-2.82546
0
LINE
8
BLACK
6
CONTINUOUS
10
4.22065
20
-2.87045
11
4.21315
21
-2.8742
0
LINE
8
BLACK
6
CONTINUOUS
10
4.21315
20
-2.8742
11
4.19441
21
-2.8742
0
LINE
8
BLACK
6
CONTINUOUS
10
4.19441
20
-2.8742
11
4.18691
21
-2.87045
0
LINE
8
BLACK
6
CONTINUOUS
10
4.18691
20
-2.87045
11
4.18316
21
-2.86295
0
LINE
8
BLACK
6
CONTINUOUS
10
4.18316
20
-2.86295
11
4.18316
21
-2.85546
0
LINE
8
BLACK
6
CONTINUOUS
10
4.18316
20
-2.85546
11
4.18691
21
-2.84796
0
LINE
8
BLACK
6
CONTINUOUS
10
4.18691
20
-2.84796
11
4.19441
21
-2.84421
0
LINE
8
BLACK
6
CONTINUOUS
10
4.19441
20
-2.84421
11
4.21315
21
-2.84421
0
LINE
8
BLACK
6
CONTINUOUS
10
4.21315
20
-2.84421
11
4.22065
21
-2.84046
0
LINE
8
BLACK
6
CONTINUOUS
10
4.25815
20
-2.82171
11
4.25815
21
-2.90045
0
LINE
8
BLACK
6
CONTINUOUS
10
4.25815
20
-2.82546
11
4.26565
21
-2.82171
0
LINE
8
BLACK
6
CONTINUOUS
10
4.26565
20
-2.82171
11
4.28064
21
-2.82171
0
LINE
8
BLACK
6
CONTINUOUS
10
4.28064
20
-2.82171
11
4.28814
21
-2.82546
0
LINE
8
BLACK
6
CONTINUOUS
10
4.28814
20
-2.82546
11
4.29189
21
-2.82921
0
LINE
8
BLACK
6
CONTINUOUS
10
4.29189
20
-2.82921
11
4.29564
21
-2.83671
0
LINE
8
BLACK
6
CONTINUOUS
10
4.29564
20
-2.83671
11
4.29564
21
-2.85921
0
LINE
8
BLACK
6
CONTINUOUS
10
4.29564
20
-2.85921
11
4.29189
21
-2.8667
0
LINE
8
BLACK
6
CONTINUOUS
10
4.29189
20
-2.8667
11
4.28814
21
-2.87045
0
LINE
8
BLACK
6
CONTINUOUS
10
4.28814
20
-2.87045
11
4.28064
21
-2.8742
0
LINE
8
BLACK
6
CONTINUOUS
10
4.28064
20
-2.8742
11
4.26565
21
-2.8742
0
LINE
8
BLACK
6
CONTINUOUS
10
4.26565
20
-2.8742
11
4.25815
21
-2.87045
0
LINE
8
BLACK
6
CONTINUOUS
10
4.32939
20
-2.8667
11
4.33314
21
-2.87045
0
LINE
8
BLACK
6
CONTINUOUS
10
4.33314
20
-2.87045
11
4.32939
21
-2.8742
0
LINE
8
BLACK
6
CONTINUOUS
10
4.32939
20
-2.8742
11
4.32564
21
-2.87045
0
LINE
8
BLACK
6
CONTINUOUS
10
4.32564
20
-2.87045
11
4.32939
21
-2.8667
0
LINE
8
BLACK
6
CONTINUOUS
10
4.32939
20
-2.8667
11
4.32939
21
-2.8742
0
LINE
8
BLACK
6
CONTINUOUS
10
4.32939
20
-2.82546
11
4.33314
21
-2.82921
0
LINE
8
BLACK
6
CONTINUOUS
10
4.33314
20
-2.82921
11
4.32939
21
-2.83296
0
LINE
8
BLACK
6
CONTINUOUS
10
4.32939
20
-2.83296
11
4.32564
21
-2.82921
0
LINE
8
BLACK
6
CONTINUOUS
10
4.32564
20
-2.82921
11
4.32939
21
-2.82546
0
LINE
8
BLACK
6
CONTINUOUS
10
4.32939
20
-2.82546
11
4.32939
21
-2.83296
0
LINE
8
BLACK
6
CONTINUOUS
10
3.66835
20
-2.99409
11
3.68803
21
-3.01378
0
LINE
8
BLACK
6
CONTINUOUS
10
3.68803
20
-2.99409
11
3.66835
21
-3.01378
0
LINE
8
BLACK
6
CONTINUOUS
10
3.80445
20
-2.96082
11
3.81195
21
-2.96082
0
LINE
8
BLACK
6
CONTINUOUS
10
3.81195
20
-2.96082
11
3.81945
21
-2.96457
0
LINE
8
BLACK
6
CONTINUOUS
10
3.81945
20
-2.96457
11
3.8232
21
-2.96832
0
LINE
8
BLACK
6
CONTINUOUS
10
3.8232
20
-2.96832
11
3.82695
21
-2.97582
0
LINE
8
BLACK
6
CONTINUOUS
10
3.82695
20
-2.97582
11
3.8307
21
-2.99081
0
LINE
8
BLACK
6
CONTINUOUS
10
3.8307
20
-2.99081
11
3.8307
21
-3.00956
0
LINE
8
BLACK
6
CONTINUOUS
10
3.8307
20
-3.00956
11
3.82695
21
-3.02456
0
LINE
8
BLACK
6
CONTINUOUS
10
3.82695
20
-3.02456
11
3.8232
21
-3.03206
0
LINE
8
BLACK
6
CONTINUOUS
10
3.8232
20
-3.03206
11
3.81945
21
-3.03581
0
LINE
8
BLACK
6
CONTINUOUS
10
3.81945
20
-3.03581
11
3.81195
21
-3.03956
0
LINE
8
BLACK
6
CONTINUOUS
10
3.81195
20
-3.03956
11
3.80445
21
-3.03956
0
LINE
8
BLACK
6
CONTINUOUS
10
3.80445
20
-3.03956
11
3.79696
21
-3.03581
0
LINE
8
BLACK
6
CONTINUOUS
10
3.79696
20
-3.03581
11
3.79321
21
-3.03206
0
LINE
8
BLACK
6
CONTINUOUS
10
3.79321
20
-3.03206
11
3.78946
21
-3.02456
0
LINE
8
BLACK
6
CONTINUOUS
10
3.78946
20
-3.02456
11
3.78571
21
-3.00956
0
LINE
8
BLACK
6
CONTINUOUS
10
3.78571
20
-3.00956
11
3.78571
21
-2.99081
0
LINE
8
BLACK
6
CONTINUOUS
10
3.78571
20
-2.99081
11
3.78946
21
-2.97582
0
LINE
8
BLACK
6
CONTINUOUS
10
3.78946
20
-2.97582
11
3.79321
21
-2.96832
0
LINE
8
BLACK
6
CONTINUOUS
10
3.79321
20
-2.96832
11
3.79696
21
-2.96457
0
LINE
8
BLACK
6
CONTINUOUS
10
3.79696
20
-2.96457
11
3.80445
21
-2.96082
0
LINE
8
BLACK
6
CONTINUOUS
10
3.86445
20
-3.03206
11
3.8682
21
-3.03581
0
LINE
8
BLACK
6
CONTINUOUS
10
3.8682
20
-3.03581
11
3.86445
21
-3.03956
0
LINE
8
BLACK
6
CONTINUOUS
10
3.86445
20
-3.03956
11
3.8607
21
-3.03581
0
LINE
8
BLACK
6
CONTINUOUS
10
3.8607
20
-3.03581
11
3.86445
21
-3.03206
0
LINE
8
BLACK
6
CONTINUOUS
10
3.86445
20
-3.03206
11
3.86445
21
-3.03956
0
LINE
8
BLACK
6
CONTINUOUS
10
3.93944
20
-2.96082
11
3.90194
21
-2.96082
0
LINE
8
BLACK
6
CONTINUOUS
10
3.90194
20
-2.96082
11
3.89819
21
-2.99831
0
LINE
8
BLACK
6
CONTINUOUS
10
3.89819
20
-2.99831
11
3.90194
21
-2.99456
0
LINE
8
BLACK
6
CONTINUOUS
10
3.90194
20
-2.99456
11
3.90944
21
-2.99081
0
LINE
8
BLACK
6
CONTINUOUS
10
3.90944
20
-2.99081
11
3.92819
21
-2.99081
0
LINE
8
BLACK
6
CONTINUOUS
10
3.92819
20
-2.99081
11
3.93569
21
-2.99456
0
LINE
8
BLACK
6
CONTINUOUS
10
3.93569
20
-2.99456
11
3.93944
21
-2.99831
0
LINE
8
BLACK
6
CONTINUOUS
10
3.93944
20
-2.99831
11
3.94319
21
-3.00581
0
LINE
8
BLACK
6
CONTINUOUS
10
3.94319
20
-3.00581
11
3.94319
21
-3.02456
0
LINE
8
BLACK
6
CONTINUOUS
10
3.94319
20
-3.02456
11
3.93944
21
-3.03206
0
LINE
8
BLACK
6
CONTINUOUS
10
3.93944
20
-3.03206
11
3.93569
21
-3.03581
0
LINE
8
BLACK
6
CONTINUOUS
10
3.93569
20
-3.03581
11
3.92819
21
-3.03956
0
LINE
8
BLACK
6
CONTINUOUS
10
3.92819
20
-3.03956
11
3.90944
21
-3.03956
0
LINE
8
BLACK
6
CONTINUOUS
10
3.90944
20
-3.03956
11
3.90194
21
-3.03581
0
LINE
8
BLACK
6
CONTINUOUS
10
3.90194
20
-3.03581
11
3.89819
21
-3.03206
0
LINE
8
BLACK
6
CONTINUOUS
10
3.99193
20
-2.96082
11
3.99943
21
-2.96082
0
LINE
8
BLACK
6
CONTINUOUS
10
3.99943
20
-2.96082
11
4.00693
21
-2.96457
0
LINE
8
BLACK
6
CONTINUOUS
10
4.00693
20
-2.96457
11
4.01068
21
-2.96832
0
LINE
8
BLACK
6
CONTINUOUS
10
4.01068
20
-2.96832
11
4.01443
21
-2.97582
0
LINE
8
BLACK
6
CONTINUOUS
10
4.01443
20
-2.97582
11
4.01818
21
-2.99081
0
LINE
8
BLACK
6
CONTINUOUS
10
4.01818
20
-2.99081
11
4.01818
21
-3.00956
0
LINE
8
BLACK
6
CONTINUOUS
10
4.01818
20
-3.00956
11
4.01443
21
-3.02456
0
LINE
8
BLACK
6
CONTINUOUS
10
4.01443
20
-3.02456
11
4.01068
21
-3.03206
0
LINE
8
BLACK
6
CONTINUOUS
10
4.01068
20
-3.03206
11
4.00693
21
-3.03581
0
LINE
8
BLACK
6
CONTINUOUS
10
4.00693
20
-3.03581
11
3.99943
21
-3.03956
0
LINE
8
BLACK
6
CONTINUOUS
10
3.99943
20
-3.03956
11
3.99193
21
-3.03956
0
LINE
8
BLACK
6
CONTINUOUS
10
3.99193
20
-3.03956
11
3.98443
21
-3.03581
0
LINE
8
BLACK
6
CONTINUOUS
10
3.98443
20
-3.03581
11
3.98068
21
-3.03206
0
LINE
8
BLACK
6
CONTINUOUS
10
3.98068
20
-3.03206
11
3.97693
21
-3.02456
0
LINE
8
BLACK
6
CONTINUOUS
10
3.97693
20
-3.02456
11
3.97318
21
-3.00956
0
LINE
8
BLACK
6
CONTINUOUS
10
3.97318
20
-3.00956
11
3.97318
21
-2.99081
0
LINE
8
BLACK
6
CONTINUOUS
10
3.97318
20
-2.99081
11
3.97693
21
-2.97582
0
LINE
8
BLACK
6
CONTINUOUS
10
3.97693
20
-2.97582
11
3.98068
21
-2.96832
0
LINE
8
BLACK
6
CONTINUOUS
10
3.98068
20
-2.96832
11
3.98443
21
-2.96457
0
LINE
8
BLACK
6
CONTINUOUS
10
3.98443
20
-2.96457
11
3.99193
21
-2.96082
0
LINE
8
BLACK
6
CONTINUOUS
10
4.06692
20
-2.96082
11
4.07442
21
-2.96082
0
LINE
8
BLACK
6
CONTINUOUS
10
4.07442
20
-2.96082
11
4.08192
21
-2.96457
0
LINE
8
BLACK
6
CONTINUOUS
10
4.08192
20
-2.96457
11
4.08567
21
-2.96832
0
LINE
8
BLACK
6
CONTINUOUS
10
4.08567
20
-2.96832
11
4.08942
21
-2.97582
0
LINE
8
BLACK
6
CONTINUOUS
10
4.08942
20
-2.97582
11
4.09317
21
-2.99081
0
LINE
8
BLACK
6
CONTINUOUS
10
4.09317
20
-2.99081
11
4.09317
21
-3.00956
0
LINE
8
BLACK
6
CONTINUOUS
10
4.09317
20
-3.00956
11
4.08942
21
-3.02456
0
LINE
8
BLACK
6
CONTINUOUS
10
4.08942
20
-3.02456
11
4.08567
21
-3.03206
0
LINE
8
BLACK
6
CONTINUOUS
10
4.08567
20
-3.03206
11
4.08192
21
-3.03581
0
LINE
8
BLACK
6
CONTINUOUS
10
4.08192
20
-3.03581
11
4.07442
21
-3.03956
0
LINE
8
BLACK
6
CONTINUOUS
10
4.07442
20
-3.03956
11
4.06692
21
-3.03956
0
LINE
8
BLACK
6
CONTINUOUS
10
4.06692
20
-3.03956
11
4.05942
21
-3.03581
0
LINE
8
BLACK
6
CONTINUOUS
10
4.05942
20
-3.03581
11
4.05567
21
-3.03206
0
LINE
8
BLACK
6
CONTINUOUS
10
4.05567
20
-3.03206
11
4.05192
21
-3.02456
0
LINE
8
BLACK
6
CONTINUOUS
10
4.05192
20
-3.02456
11
4.04817
21
-3.00956
0
LINE
8
BLACK
6
CONTINUOUS
10
4.04817
20
-3.00956
11
4.04817
21
-2.99081
0
LINE
8
BLACK
6
CONTINUOUS
10
4.04817
20
-2.99081
11
4.05192
21
-2.97582
0
LINE
8
BLACK
6
CONTINUOUS
10
4.05192
20
-2.97582
11
4.05567
21
-2.96832
0
LINE
8
BLACK
6
CONTINUOUS
10
4.05567
20
-2.96832
11
4.05942
21
-2.96457
0
LINE
8
BLACK
6
CONTINUOUS
10
4.05942
20
-2.96457
11
4.06692
21
-2.96082
0
LINE
8
BLACK
6
CONTINUOUS
10
4.12691
20
-3.03956
11
4.12691
21
-2.98706
0
LINE
8
BLACK
6
CONTINUOUS
10
4.12691
20
-2.99456
11
4.13066
21
-2.99081
0
LINE
8
BLACK
6
CONTINUOUS
10
4.13066
20
-2.99081
11
4.13816
21
-2.98706
0
LINE
8
BLACK
6
CONTINUOUS
10
4.13816
20
-2.98706
11
4.14941
21
-2.98706
0
LINE
8
BLACK
6
CONTINUOUS
10
4.14941
20
-2.98706
11
4.15691
21
-2.99081
0
LINE
8
BLACK
6
CONTINUOUS
10
4.15691
20
-2.99081
11
4.16066
21
-2.99831
0
LINE
8
BLACK
6
CONTINUOUS
10
4.16066
20
-2.99831
11
4.16066
21
-3.03956
0
LINE
8
BLACK
6
CONTINUOUS
10
4.16066
20
-2.99831
11
4.16441
21
-2.99081
0
LINE
8
BLACK
6
CONTINUOUS
10
4.16441
20
-2.99081
11
4.17191
21
-2.98706
0
LINE
8
BLACK
6
CONTINUOUS
10
4.17191
20
-2.98706
11
4.18316
21
-2.98706
0
LINE
8
BLACK
6
CONTINUOUS
10
4.18316
20
-2.98706
11
4.19066
21
-2.99081
0
LINE
8
BLACK
6
CONTINUOUS
10
4.19066
20
-2.99081
11
4.19441
21
-2.99831
0
LINE
8
BLACK
6
CONTINUOUS
10
4.19441
20
-2.99831
11
4.19441
21
-3.03956
0
LINE
8
BLACK
6
CONTINUOUS
10
4.2319
20
-3.03956
11
4.2319
21
-2.98706
0
LINE
8
BLACK
6
CONTINUOUS
10
4.2319
20
-2.99456
11
4.23565
21
-2.99081
0
LINE
8
BLACK
6
CONTINUOUS
10
4.23565
20
-2.99081
11
4.24315
21
-2.98706
0
LINE
8
BLACK
6
CONTINUOUS
10
4.24315
20
-2.98706
11
4.2544
21
-2.98706
0
LINE
8
BLACK
6
CONTINUOUS
10
4.2544
20
-2.98706
11
4.2619
21
-2.99081
0
LINE
8
BLACK
6
CONTINUOUS
10
4.2619
20
-2.99081
11
4.26565
21
-2.99831
0
LINE
8
BLACK
6
CONTINUOUS
10
4.26565
20
-2.99831
11
4.26565
21
-3.03956
0
LINE
8
BLACK
6
CONTINUOUS
10
4.26565
20
-2.99831
11
4.2694
21
-2.99081
0
LINE
8
BLACK
6
CONTINUOUS
10
4.2694
20
-2.99081
11
4.2769
21
-2.98706
0
LINE
8
BLACK
6
CONTINUOUS
10
4.2769
20
-2.98706
11
4.28814
21
-2.98706
0
LINE
8
BLACK
6
CONTINUOUS
10
4.28814
20
-2.98706
11
4.29564
21
-2.99081
0
LINE
8
BLACK
6
CONTINUOUS
10
4.29564
20
-2.99081
11
4.29939
21
-2.99831
0
LINE
8
BLACK
6
CONTINUOUS
10
4.29939
20
-2.99831
11
4.29939
21
-3.03956
0
LINE
8
BLACK
6
CONTINUOUS
10
4.45312
20
-2.95707
11
4.38563
21
-3.05831
0
LINE
8
BLACK
6
CONTINUOUS
10
4.55436
20
-2.96082
11
4.56186
21
-2.96082
0
LINE
8
BLACK
6
CONTINUOUS
10
4.56186
20
-2.96082
11
4.56936
21
-2.96457
0
LINE
8
BLACK
6
CONTINUOUS
10
4.56936
20
-2.96457
11
4.57311
21
-2.96832
0
LINE
8
BLACK
6
CONTINUOUS
10
4.57311
20
-2.96832
11
4.57686
21
-2.97582
0
LINE
8
BLACK
6
CONTINUOUS
10
4.57686
20
-2.97582
11
4.58061
21
-2.99081
0
LINE
8
BLACK
6
CONTINUOUS
10
4.58061
20
-2.99081
11
4.58061
21
-3.00956
0
LINE
8
BLACK
6
CONTINUOUS
10
4.58061
20
-3.00956
11
4.57686
21
-3.02456
0
LINE
8
BLACK
6
CONTINUOUS
10
4.57686
20
-3.02456
11
4.57311
21
-3.03206
0
LINE
8
BLACK
6
CONTINUOUS
10
4.57311
20
-3.03206
11
4.56936
21
-3.03581
0
LINE
8
BLACK
6
CONTINUOUS
10
4.56936
20
-3.03581
11
4.56186
21
-3.03956
0
LINE
8
BLACK
6
CONTINUOUS
10
4.56186
20
-3.03956
11
4.55436
21
-3.03956
0
LINE
8
BLACK
6
CONTINUOUS
10
4.55436
20
-3.03956
11
4.54686
21
-3.03581
0
LINE
8
BLACK
6
CONTINUOUS
10
4.54686
20
-3.03581
11
4.54311
21
-3.03206
0
LINE
8
BLACK
6
CONTINUOUS
10
4.54311
20
-3.03206
11
4.53936
21
-3.02456
0
LINE
8
BLACK
6
CONTINUOUS
10
4.53936
20
-3.02456
11
4.53561
21
-3.00956
0
LINE
8
BLACK
6
CONTINUOUS
10
4.53561
20
-3.00956
11
4.53561
21
-2.99081
0
LINE
8
BLACK
6
CONTINUOUS
10
4.53561
20
-2.99081
11
4.53936
21
-2.97582
0
LINE
8
BLACK
6
CONTINUOUS
10
4.53936
20
-2.97582
11
4.54311
21
-2.96832
0
LINE
8
BLACK
6
CONTINUOUS
10
4.54311
20
-2.96832
11
4.54686
21
-2.96457
0
LINE
8
BLACK
6
CONTINUOUS
10
4.54686
20
-2.96457
11
4.55436
21
-2.96082
0
LINE
8
BLACK
6
CONTINUOUS
10
4.61435
20
-3.03206
11
4.6181
21
-3.03581
0
LINE
8
BLACK
6
CONTINUOUS
10
4.6181
20
-3.03581
11
4.61435
21
-3.03956
0
LINE
8
BLACK
6
CONTINUOUS
10
4.61435
20
-3.03956
11
4.6106
21
-3.03581
0
LINE
8
BLACK
6
CONTINUOUS
10
4.6106
20
-3.03581
11
4.61435
21
-3.03206
0
LINE
8
BLACK
6
CONTINUOUS
10
4.61435
20
-3.03206
11
4.61435
21
-3.03956
0
LINE
8
BLACK
6
CONTINUOUS
10
4.66685
20
-2.96082
11
4.67435
21
-2.96082
0
LINE
8
BLACK
6
CONTINUOUS
10
4.67435
20
-2.96082
11
4.68184
21
-2.96457
0
LINE
8
BLACK
6
CONTINUOUS
10
4.68184
20
-2.96457
11
4.68559
21
-2.96832
0
LINE
8
BLACK
6
CONTINUOUS
10
4.68559
20
-2.96832
11
4.68934
21
-2.97582
0
LINE
8
BLACK
6
CONTINUOUS
10
4.68934
20
-2.97582
11
4.69309
21
-2.99081
0
LINE
8
BLACK
6
CONTINUOUS
10
4.69309
20
-2.99081
11
4.69309
21
-3.00956
0
LINE
8
BLACK
6
CONTINUOUS
10
4.69309
20
-3.00956
11
4.68934
21
-3.02456
0
LINE
8
BLACK
6
CONTINUOUS
10
4.68934
20
-3.02456
11
4.68559
21
-3.03206
0
LINE
8
BLACK
6
CONTINUOUS
10
4.68559
20
-3.03206
11
4.68184
21
-3.03581
0
LINE
8
BLACK
6
CONTINUOUS
10
4.68184
20
-3.03581
11
4.67435
21
-3.03956
0
LINE
8
BLACK
6
CONTINUOUS
10
4.67435
20
-3.03956
11
4.66685
21
-3.03956
0
LINE
8
BLACK
6
CONTINUOUS
10
4.66685
20
-3.03956
11
4.65935
21
-3.03581
0
LINE
8
BLACK
6
CONTINUOUS
10
4.65935
20
-3.03581
11
4.6556
21
-3.03206
0
LINE
8
BLACK
6
CONTINUOUS
10
4.6556
20
-3.03206
11
4.65185
21
-3.02456
0
LINE
8
BLACK
6
CONTINUOUS
10
4.65185
20
-3.02456
11
4.6481
21
-3.00956
0
LINE
8
BLACK
6
CONTINUOUS
10
4.6481
20
-3.00956
11
4.6481
21
-2.99081
0
LINE
8
BLACK
6
CONTINUOUS
10
4.6481
20
-2.99081
11
4.65185
21
-2.97582
0
LINE
8
BLACK
6
CONTINUOUS
10
4.65185
20
-2.97582
11
4.6556
21
-2.96832
0
LINE
8
BLACK
6
CONTINUOUS
10
4.6556
20
-2.96832
11
4.65935
21
-2.96457
0
LINE
8
BLACK
6
CONTINUOUS
10
4.65935
20
-2.96457
11
4.66685
21
-2.96082
0
LINE
8
BLACK
6
CONTINUOUS
10
4.76808
20
-3.03956
11
4.72309
21
-3.03956
0
LINE
8
BLACK
6
CONTINUOUS
10
4.74559
20
-3.03956
11
4.74559
21
-2.96082
0
LINE
8
BLACK
6
CONTINUOUS
10
4.74559
20
-2.96082
11
4.73809
21
-2.97207
0
LINE
8
BLACK
6
CONTINUOUS
10
4.73809
20
-2.97207
11
4.73059
21
-2.97957
0
LINE
8
BLACK
6
CONTINUOUS
10
4.73059
20
-2.97957
11
4.72309
21
-2.98331
0
LINE
8
BLACK
6
CONTINUOUS
10
4.80558
20
-3.03956
11
4.82058
21
-3.03956
0
LINE
8
BLACK
6
CONTINUOUS
10
4.82058
20
-3.03956
11
4.82808
21
-3.03581
0
LINE
8
BLACK
6
CONTINUOUS
10
4.82808
20
-3.03581
11
4.83183
21
-3.03206
0
LINE
8
BLACK
6
CONTINUOUS
10
4.83183
20
-3.03206
11
4.83933
21
-3.02081
0
LINE
8
BLACK
6
CONTINUOUS
10
4.83933
20
-3.02081
11
4.84307
21
-3.00581
0
LINE
8
BLACK
6
CONTINUOUS
10
4.84307
20
-3.00581
11
4.84307
21
-2.97582
0
LINE
8
BLACK
6
CONTINUOUS
10
4.84307
20
-2.97582
11
4.83933
21
-2.96832
0
LINE
8
BLACK
6
CONTINUOUS
10
4.83933
20
-2.96832
11
4.83558
21
-2.96457
0
LINE
8
BLACK
6
CONTINUOUS
10
4.83558
20
-2.96457
11
4.82808
21
-2.96082
0
LINE
8
BLACK
6
CONTINUOUS
10
4.82808
20
-2.96082
11
4.81308
21
-2.96082
0
LINE
8
BLACK
6
CONTINUOUS
10
4.81308
20
-2.96082
11
4.80558
21
-2.96457
0
LINE
8
BLACK
6
CONTINUOUS
10
4.80558
20
-2.96457
11
4.80183
21
-2.96832
0
LINE
8
BLACK
6
CONTINUOUS
10
4.80183
20
-2.96832
11
4.79808
21
-2.97582
0
LINE
8
BLACK
6
CONTINUOUS
10
4.79808
20
-2.97582
11
4.79808
21
-2.99456
0
LINE
8
BLACK
6
CONTINUOUS
10
4.79808
20
-2.99456
11
4.80183
21
-3.00206
0
LINE
8
BLACK
6
CONTINUOUS
10
4.80183
20
-3.00206
11
4.80558
21
-3.00581
0
LINE
8
BLACK
6
CONTINUOUS
10
4.80558
20
-3.00581
11
4.81308
21
-3.00956
0
LINE
8
BLACK
6
CONTINUOUS
10
4.81308
20
-3.00956
11
4.82808
21
-3.00956
0
LINE
8
BLACK
6
CONTINUOUS
10
4.82808
20
-3.00956
11
4.83558
21
-3.00581
0
LINE
8
BLACK
6
CONTINUOUS
10
4.83558
20
-3.00581
11
4.83933
21
-3.00206
0
LINE
8
BLACK
6
CONTINUOUS
10
4.83933
20
-3.00206
11
4.84307
21
-2.99456
0
LINE
8
BLACK
6
CONTINUOUS
10
4.86932
20
-2.96082
11
4.92181
21
-2.96082
0
LINE
8
BLACK
6
CONTINUOUS
10
4.92181
20
-2.96082
11
4.88807
21
-3.03956
0
LINE
8
BLACK
6
CONTINUOUS
10
4.94806
20
-2.96082
11
4.94806
21
-2.97582
0
LINE
8
BLACK
6
CONTINUOUS
10
4.97806
20
-2.96082
11
4.97806
21
-2.97582
0
LINE
8
BLACK
6
CONTINUOUS
10
5.09429
20
-3.06955
11
5.09054
21
-3.0658
0
LINE
8
BLACK
6
CONTINUOUS
10
5.09054
20
-3.0658
11
5.08304
21
-3.05456
0
LINE
8
BLACK
6
CONTINUOUS
10
5.08304
20
-3.05456
11
5.0793
21
-3.04706
0
LINE
8
BLACK
6
CONTINUOUS
10
5.0793
20
-3.04706
11
5.07555
21
-3.03581
0
LINE
8
BLACK
6
CONTINUOUS
10
5.07555
20
-3.03581
11
5.0718
21
-3.01706
0
LINE
8
BLACK
6
CONTINUOUS
10
5.0718
20
-3.01706
11
5.0718
21
-3.00206
0
LINE
8
BLACK
6
CONTINUOUS
10
5.0718
20
-3.00206
11
5.07555
21
-2.98331
0
LINE
8
BLACK
6
CONTINUOUS
10
5.07555
20
-2.98331
11
5.0793
21
-2.97207
0
LINE
8
BLACK
6
CONTINUOUS
10
5.0793
20
-2.97207
11
5.08304
21
-2.96457
0
LINE
8
BLACK
6
CONTINUOUS
10
5.08304
20
-2.96457
11
5.09054
21
-2.95332
0
LINE
8
BLACK
6
CONTINUOUS
10
5.09054
20
-2.95332
11
5.09429
21
-2.94957
0
LINE
8
BLACK
6
CONTINUOUS
10
5.16178
20
-2.96082
11
5.12429
21
-2.96082
0
LINE
8
BLACK
6
CONTINUOUS
10
5.12429
20
-2.96082
11
5.12054
21
-2.99831
0
LINE
8
BLACK
6
CONTINUOUS
10
5.12054
20
-2.99831
11
5.12429
21
-2.99456
0
LINE
8
BLACK
6
CONTINUOUS
10
5.12429
20
-2.99456
11
5.13179
21
-2.99081
0
LINE
8
BLACK
6
CONTINUOUS
10
5.13179
20
-2.99081
11
5.15054
21
-2.99081
0
LINE
8
BLACK
6
CONTINUOUS
10
5.15054
20
-2.99081
11
5.15804
21
-2.99456
0
LINE
8
BLACK
6
CONTINUOUS
10
5.15804
20
-2.99456
11
5.16178
21
-2.99831
0
LINE
8
BLACK
6
CONTINUOUS
10
5.16178
20
-2.99831
11
5.16553
21
-3.00581
0
LINE
8
BLACK
6
CONTINUOUS
10
5.16553
20
-3.00581
11
5.16553
21
-3.02456
0
LINE
8
BLACK
6
CONTINUOUS
10
5.16553
20
-3.02456
11
5.16178
21
-3.03206
0
LINE
8
BLACK
6
CONTINUOUS
10
5.16178
20
-3.03206
11
5.15804
21
-3.03581
0
LINE
8
BLACK
6
CONTINUOUS
10
5.15804
20
-3.03581
11
5.15054
21
-3.03956
0
LINE
8
BLACK
6
CONTINUOUS
10
5.15054
20
-3.03956
11
5.13179
21
-3.03956
0
LINE
8
BLACK
6
CONTINUOUS
10
5.13179
20
-3.03956
11
5.12429
21
-3.03581
0
LINE
8
BLACK
6
CONTINUOUS
10
5.12429
20
-3.03581
11
5.12054
21
-3.03206
0
LINE
8
BLACK
6
CONTINUOUS
10
5.20303
20
-3.03956
11
5.21803
21
-3.03956
0
LINE
8
BLACK
6
CONTINUOUS
10
5.21803
20
-3.03956
11
5.22553
21
-3.03581
0
LINE
8
BLACK
6
CONTINUOUS
10
5.22553
20
-3.03581
11
5.22928
21
-3.03206
0
LINE
8
BLACK
6
CONTINUOUS
10
5.22928
20
-3.03206
11
5.23678
21
-3.02081
0
LINE
8
BLACK
6
CONTINUOUS
10
5.23678
20
-3.02081
11
5.24052
21
-3.00581
0
LINE
8
BLACK
6
CONTINUOUS
10
5.24052
20
-3.00581
11
5.24052
21
-2.97582
0
LINE
8
BLACK
6
CONTINUOUS
10
5.24052
20
-2.97582
11
5.23678
21
-2.96832
0
LINE
8
BLACK
6
CONTINUOUS
10
5.23678
20
-2.96832
11
5.23303
21
-2.96457
0
LINE
8
BLACK
6
CONTINUOUS
10
5.23303
20
-2.96457
11
5.22553
21
-2.96082
0
LINE
8
BLACK
6
CONTINUOUS
10
5.22553
20
-2.96082
11
5.21053
21
-2.96082
0
LINE
8
BLACK
6
CONTINUOUS
10
5.21053
20
-2.96082
11
5.20303
21
-2.96457
0
LINE
8
BLACK
6
CONTINUOUS
10
5.20303
20
-2.96457
11
5.19928
21
-2.96832
0
LINE
8
BLACK
6
CONTINUOUS
10
5.19928
20
-2.96832
11
5.19553
21
-2.97582
0
LINE
8
BLACK
6
CONTINUOUS
10
5.19553
20
-2.97582
11
5.19553
21
-2.99456
0
LINE
8
BLACK
6
CONTINUOUS
10
5.19553
20
-2.99456
11
5.19928
21
-3.00206
0
LINE
8
BLACK
6
CONTINUOUS
10
5.19928
20
-3.00206
11
5.20303
21
-3.00581
0
LINE
8
BLACK
6
CONTINUOUS
10
5.20303
20
-3.00581
11
5.21053
21
-3.00956
0
LINE
8
BLACK
6
CONTINUOUS
10
5.21053
20
-3.00956
11
5.22553
21
-3.00956
0
LINE
8
BLACK
6
CONTINUOUS
10
5.22553
20
-3.00956
11
5.23303
21
-3.00581
0
LINE
8
BLACK
6
CONTINUOUS
10
5.23303
20
-3.00581
11
5.23678
21
-3.00206
0
LINE
8
BLACK
6
CONTINUOUS
10
5.23678
20
-3.00206
11
5.24052
21
-2.99456
0
LINE
8
BLACK
6
CONTINUOUS
10
5.33426
20
-3.03956
11
5.33426
21
-2.96082
0
LINE
8
BLACK
6
CONTINUOUS
10
5.36801
20
-3.03956
11
5.36801
21
-2.99831
0
LINE
8
BLACK
6
CONTINUOUS
10
5.36801
20
-2.99831
11
5.36426
21
-2.99081
0
LINE
8
BLACK
6
CONTINUOUS
10
5.36426
20
-2.99081
11
5.35676
21
-2.98706
0
LINE
8
BLACK
6
CONTINUOUS
10
5.35676
20
-2.98706
11
5.34551
21
-2.98706
0
LINE
8
BLACK
6
CONTINUOUS
10
5.34551
20
-2.98706
11
5.33801
21
-2.99081
0
LINE
8
BLACK
6
CONTINUOUS
10
5.33801
20
-2.99081
11
5.33426
21
-2.99456
0
LINE
8
BLACK
6
CONTINUOUS
10
5.41675
20
-3.03956
11
5.40925
21
-3.03581
0
LINE
8
BLACK
6
CONTINUOUS
10
5.40925
20
-3.03581
11
5.4055
21
-3.03206
0
LINE
8
BLACK
6
CONTINUOUS
10
5.4055
20
-3.03206
11
5.40175
21
-3.02456
0
LINE
8
BLACK
6
CONTINUOUS
10
5.40175
20
-3.02456
11
5.40175
21
-3.00206
0
LINE
8
BLACK
6
CONTINUOUS
10
5.40175
20
-3.00206
11
5.4055
21
-2.99456
0
LINE
8
BLACK
6
CONTINUOUS
10
5.4055
20
-2.99456
11
5.40925
21
-2.99081
0
LINE
8
BLACK
6
CONTINUOUS
10
5.40925
20
-2.99081
11
5.41675
21
-2.98706
0
LINE
8
BLACK
6
CONTINUOUS
10
5.41675
20
-2.98706
11
5.428
21
-2.98706
0
LINE
8
BLACK
6
CONTINUOUS
10
5.428
20
-2.98706
11
5.4355
21
-2.99081
0
LINE
8
BLACK
6
CONTINUOUS
10
5.4355
20
-2.99081
11
5.43925
21
-2.99456
0
LINE
8
BLACK
6
CONTINUOUS
10
5.43925
20
-2.99456
11
5.443
21
-3.00206
0
LINE
8
BLACK
6
CONTINUOUS
10
5.443
20
-3.00206
11
5.443
21
-3.02456
0
LINE
8
BLACK
6
CONTINUOUS
10
5.443
20
-3.02456
11
5.43925
21
-3.03206
0
LINE
8
BLACK
6
CONTINUOUS
10
5.43925
20
-3.03206
11
5.4355
21
-3.03581
0
LINE
8
BLACK
6
CONTINUOUS
10
5.4355
20
-3.03581
11
5.428
21
-3.03956
0
LINE
8
BLACK
6
CONTINUOUS
10
5.428
20
-3.03956
11
5.41675
21
-3.03956
0
LINE
8
BLACK
6
CONTINUOUS
10
5.48799
20
-3.03956
11
5.48049
21
-3.03581
0
LINE
8
BLACK
6
CONTINUOUS
10
5.48049
20
-3.03581
11
5.47675
21
-3.02831
0
LINE
8
BLACK
6
CONTINUOUS
10
5.47675
20
-3.02831
11
5.47675
21
-2.96082
0
LINE
8
BLACK
6
CONTINUOUS
10
5.54799
20
-3.03581
11
5.54049
21
-3.03956
0
LINE
8
BLACK
6
CONTINUOUS
10
5.54049
20
-3.03956
11
5.52549
21
-3.03956
0
LINE
8
BLACK
6
CONTINUOUS
10
5.52549
20
-3.03956
11
5.51799
21
-3.03581
0
LINE
8
BLACK
6
CONTINUOUS
10
5.51799
20
-3.03581
11
5.51424
21
-3.02831
0
LINE
8
BLACK
6
CONTINUOUS
10
5.51424
20
-3.02831
11
5.51424
21
-2.99831
0
LINE
8
BLACK
6
CONTINUOUS
10
5.51424
20
-2.99831
11
5.51799
21
-2.99081
0
LINE
8
BLACK
6
CONTINUOUS
10
5.51799
20
-2.99081
11
5.52549
21
-2.98706
0
LINE
8
BLACK
6
CONTINUOUS
10
5.52549
20
-2.98706
11
5.54049
21
-2.98706
0
LINE
8
BLACK
6
CONTINUOUS
10
5.54049
20
-2.98706
11
5.54799
21
-2.99081
0
LINE
8
BLACK
6
CONTINUOUS
10
5.54799
20
-2.99081
11
5.55174
21
-2.99831
0
LINE
8
BLACK
6
CONTINUOUS
10
5.55174
20
-2.99831
11
5.55174
21
-3.00581
0
LINE
8
BLACK
6
CONTINUOUS
10
5.55174
20
-3.00581
11
5.51424
21
-3.01331
0
LINE
8
BLACK
6
CONTINUOUS
10
5.58173
20
-3.03581
11
5.58923
21
-3.03956
0
LINE
8
BLACK
6
CONTINUOUS
10
5.58923
20
-3.03956
11
5.60423
21
-3.03956
0
LINE
8
BLACK
6
CONTINUOUS
10
5.60423
20
-3.03956
11
5.61173
21
-3.03581
0
LINE
8
BLACK
6
CONTINUOUS
10
5.61173
20
-3.03581
11
5.61548
21
-3.02831
0
LINE
8
BLACK
6
CONTINUOUS
10
5.61548
20
-3.02831
11
5.61548
21
-3.02456
0
LINE
8
BLACK
6
CONTINUOUS
10
5.61548
20
-3.02456
11
5.61173
21
-3.01706
0
LINE
8
BLACK
6
CONTINUOUS
10
5.61173
20
-3.01706
11
5.60423
21
-3.01331
0
LINE
8
BLACK
6
CONTINUOUS
10
5.60423
20
-3.01331
11
5.59298
21
-3.01331
0
LINE
8
BLACK
6
CONTINUOUS
10
5.59298
20
-3.01331
11
5.58548
21
-3.00956
0
LINE
8
BLACK
6
CONTINUOUS
10
5.58548
20
-3.00956
11
5.58173
21
-3.00206
0
LINE
8
BLACK
6
CONTINUOUS
10
5.58173
20
-3.00206
11
5.58173
21
-2.99831
0
LINE
8
BLACK
6
CONTINUOUS
10
5.58173
20
-2.99831
11
5.58548
21
-2.99081
0
LINE
8
BLACK
6
CONTINUOUS
10
5.58548
20
-2.99081
11
5.59298
21
-2.98706
0
LINE
8
BLACK
6
CONTINUOUS
10
5.59298
20
-2.98706
11
5.60423
21
-2.98706
0
LINE
8
BLACK
6
CONTINUOUS
10
5.60423
20
-2.98706
11
5.61173
21
-2.99081
0
LINE
8
BLACK
6
CONTINUOUS
10
5.64172
20
-3.06955
11
5.64547
21
-3.0658
0
LINE
8
BLACK
6
CONTINUOUS
10
5.64547
20
-3.0658
11
5.65297
21
-3.05456
0
LINE
8
BLACK
6
CONTINUOUS
10
5.65297
20
-3.05456
11
5.65672
21
-3.04706
0
LINE
8
BLACK
6
CONTINUOUS
10
5.65672
20
-3.04706
11
5.66047
21
-3.03581
0
LINE
8
BLACK
6
CONTINUOUS
10
5.66047
20
-3.03581
11
5.66422
21
-3.01706
0
LINE
8
BLACK
6
CONTINUOUS
10
5.66422
20
-3.01706
11
5.66422
21
-3.00206
0
LINE
8
BLACK
6
CONTINUOUS
10
5.66422
20
-3.00206
11
5.66047
21
-2.98331
0
LINE
8
BLACK
6
CONTINUOUS
10
5.66047
20
-2.98331
11
5.65672
21
-2.97207
0
LINE
8
BLACK
6
CONTINUOUS
10
5.65672
20
-2.97207
11
5.65297
21
-2.96457
0
LINE
8
BLACK
6
CONTINUOUS
10
5.65297
20
-2.96457
11
5.64547
21
-2.95332
0
LINE
8
BLACK
6
CONTINUOUS
10
5.64547
20
-2.95332
11
5.64172
21
-2.94957
0
CIRCLE
8
BLACK
10
3.66835
20
-3.10787
40
0.019685
0
LINE
8
BLACK
6
CONTINUOUS
10
3.8307
20
-3.14349
11
3.78571
21
-3.14349
0
LINE
8
BLACK
6
CONTINUOUS
10
3.8082
20
-3.14349
11
3.8082
21
-3.06475
0
LINE
8
BLACK
6
CONTINUOUS
10
3.8082
20
-3.06475
11
3.8007
21
-3.076
0
LINE
8
BLACK
6
CONTINUOUS
10
3.8007
20
-3.076
11
3.79321
21
-3.0835
0
LINE
8
BLACK
6
CONTINUOUS
10
3.79321
20
-3.0835
11
3.78571
21
-3.08725
0
LINE
8
BLACK
6
CONTINUOUS
10
3.86445
20
-3.136
11
3.8682
21
-3.13975
0
LINE
8
BLACK
6
CONTINUOUS
10
3.8682
20
-3.13975
11
3.86445
21
-3.14349
0
LINE
8
BLACK
6
CONTINUOUS
10
3.86445
20
-3.14349
11
3.8607
21
-3.13975
0
LINE
8
BLACK
6
CONTINUOUS
10
3.8607
20
-3.13975
11
3.86445
21
-3.136
0
LINE
8
BLACK
6
CONTINUOUS
10
3.86445
20
-3.136
11
3.86445
21
-3.14349
0
LINE
8
BLACK
6
CONTINUOUS
10
3.91694
20
-3.06475
11
3.92444
21
-3.06475
0
LINE
8
BLACK
6
CONTINUOUS
10
3.92444
20
-3.06475
11
3.93194
21
-3.0685
0
LINE
8
BLACK
6
CONTINUOUS
10
3.93194
20
-3.0685
11
3.93569
21
-3.07225
0
LINE
8
BLACK
6
CONTINUOUS
10
3.93569
20
-3.07225
11
3.93944
21
-3.07975
0
LINE
8
BLACK
6
CONTINUOUS
10
3.93944
20
-3.07975
11
3.94319
21
-3.09475
0
LINE
8
BLACK
6
CONTINUOUS
10
3.94319
20
-3.09475
11
3.94319
21
-3.1135
0
LINE
8
BLACK
6
CONTINUOUS
10
3.94319
20
-3.1135
11
3.93944
21
-3.1285
0
LINE
8
BLACK
6
CONTINUOUS
10
3.93944
20
-3.1285
11
3.93569
21
-3.136
0
LINE
8
BLACK
6
CONTINUOUS
10
3.93569
20
-3.136
11
3.93194
21
-3.13975
0
LINE
8
BLACK
6
CONTINUOUS
10
3.93194
20
-3.13975
11
3.92444
21
-3.14349
0
LINE
8
BLACK
6
CONTINUOUS
10
3.92444
20
-3.14349
11
3.91694
21
-3.14349
0
LINE
8
BLACK
6
CONTINUOUS
10
3.91694
20
-3.14349
11
3.90944
21
-3.13975
0
LINE
8
BLACK
6
CONTINUOUS
10
3.90944
20
-3.13975
11
3.90569
21
-3.136
0
LINE
8
BLACK
6
CONTINUOUS
10
3.90569
20
-3.136
11
3.90194
21
-3.1285
0
LINE
8
BLACK
6
CONTINUOUS
10
3.90194
20
-3.1285
11
3.89819
21
-3.1135
0
LINE
8
BLACK
6
CONTINUOUS
10
3.89819
20
-3.1135
11
3.89819
21
-3.09475
0
LINE
8
BLACK
6
CONTINUOUS
10
3.89819
20
-3.09475
11
3.90194
21
-3.07975
0
LINE
8
BLACK
6
CONTINUOUS
10
3.90194
20
-3.07975
11
3.90569
21
-3.07225
0
LINE
8
BLACK
6
CONTINUOUS
10
3.90569
20
-3.07225
11
3.90944
21
-3.0685
0
LINE
8
BLACK
6
CONTINUOUS
10
3.90944
20
-3.0685
11
3.91694
21
-3.06475
0
LINE
8
BLACK
6
CONTINUOUS
10
3.99193
20
-3.06475
11
3.99943
21
-3.06475
0
LINE
8
BLACK
6
CONTINUOUS
10
3.99943
20
-3.06475
11
4.00693
21
-3.0685
0
LINE
8
BLACK
6
CONTINUOUS
10
4.00693
20
-3.0685
11
4.01068
21
-3.07225
0
LINE
8
BLACK
6
CONTINUOUS
10
4.01068
20
-3.07225
11
4.01443
21
-3.07975
0
LINE
8
BLACK
6
CONTINUOUS
10
4.01443
20
-3.07975
11
4.01818
21
-3.09475
0
LINE
8
BLACK
6
CONTINUOUS
10
4.01818
20
-3.09475
11
4.01818
21
-3.1135
0
LINE
8
BLACK
6
CONTINUOUS
10
4.01818
20
-3.1135
11
4.01443
21
-3.1285
0
LINE
8
BLACK
6
CONTINUOUS
10
4.01443
20
-3.1285
11
4.01068
21
-3.136
0
LINE
8
BLACK
6
CONTINUOUS
10
4.01068
20
-3.136
11
4.00693
21
-3.13975
0
LINE
8
BLACK
6
CONTINUOUS
10
4.00693
20
-3.13975
11
3.99943
21
-3.14349
0
LINE
8
BLACK
6
CONTINUOUS
10
3.99943
20
-3.14349
11
3.99193
21
-3.14349
0
LINE
8
BLACK
6
CONTINUOUS
10
3.99193
20
-3.14349
11
3.98443
21
-3.13975
0
LINE
8
BLACK
6
CONTINUOUS
10
3.98443
20
-3.13975
11
3.98068
21
-3.136
0
LINE
8
BLACK
6
CONTINUOUS
10
3.98068
20
-3.136
11
3.97693
21
-3.1285
0
LINE
8
BLACK
6
CONTINUOUS
10
3.97693
20
-3.1285
11
3.97318
21
-3.1135
0
LINE
8
BLACK
6
CONTINUOUS
10
3.97318
20
-3.1135
11
3.97318
21
-3.09475
0
LINE
8
BLACK
6
CONTINUOUS
10
3.97318
20
-3.09475
11
3.97693
21
-3.07975
0
LINE
8
BLACK
6
CONTINUOUS
10
3.97693
20
-3.07975
11
3.98068
21
-3.07225
0
LINE
8
BLACK
6
CONTINUOUS
10
3.98068
20
-3.07225
11
3.98443
21
-3.0685
0
LINE
8
BLACK
6
CONTINUOUS
10
3.98443
20
-3.0685
11
3.99193
21
-3.06475
0
LINE
8
BLACK
6
CONTINUOUS
10
4.06692
20
-3.06475
11
4.07442
21
-3.06475
0
LINE
8
BLACK
6
CONTINUOUS
10
4.07442
20
-3.06475
11
4.08192
21
-3.0685
0
LINE
8
BLACK
6
CONTINUOUS
10
4.08192
20
-3.0685
11
4.08567
21
-3.07225
0
LINE
8
BLACK
6
CONTINUOUS
10
4.08567
20
-3.07225
11
4.08942
21
-3.07975
0
LINE
8
BLACK
6
CONTINUOUS
10
4.08942
20
-3.07975
11
4.09317
21
-3.09475
0
LINE
8
BLACK
6
CONTINUOUS
10
4.09317
20
-3.09475
11
4.09317
21
-3.1135
0
LINE
8
BLACK
6
CONTINUOUS
10
4.09317
20
-3.1135
11
4.08942
21
-3.1285
0
LINE
8
BLACK
6
CONTINUOUS
10
4.08942
20
-3.1285
11
4.08567
21
-3.136
0
LINE
8
BLACK
6
CONTINUOUS
10
4.08567
20
-3.136
11
4.08192
21
-3.13975
0
LINE
8
BLACK
6
CONTINUOUS
10
4.08192
20
-3.13975
11
4.07442
21
-3.14349
0
LINE
8
BLACK
6
CONTINUOUS
10
4.07442
20
-3.14349
11
4.06692
21
-3.14349
0
LINE
8
BLACK
6
CONTINUOUS
10
4.06692
20
-3.14349
11
4.05942
21
-3.13975
0
LINE
8
BLACK
6
CONTINUOUS
10
4.05942
20
-3.13975
11
4.05567
21
-3.136
0
LINE
8
BLACK
6
CONTINUOUS
10
4.05567
20
-3.136
11
4.05192
21
-3.1285
0
LINE
8
BLACK
6
CONTINUOUS
10
4.05192
20
-3.1285
11
4.04817
21
-3.1135
0
LINE
8
BLACK
6
CONTINUOUS
10
4.04817
20
-3.1135
11
4.04817
21
-3.09475
0
LINE
8
BLACK
6
CONTINUOUS
10
4.04817
20
-3.09475
11
4.05192
21
-3.07975
0
LINE
8
BLACK
6
CONTINUOUS
10
4.05192
20
-3.07975
11
4.05567
21
-3.07225
0
LINE
8
BLACK
6
CONTINUOUS
10
4.05567
20
-3.07225
11
4.05942
21
-3.0685
0
LINE
8
BLACK
6
CONTINUOUS
10
4.05942
20
-3.0685
11
4.06692
21
-3.06475
0
LINE
8
BLACK
6
CONTINUOUS
10
4.12691
20
-3.14349
11
4.12691
21
-3.091
0
LINE
8
BLACK
6
CONTINUOUS
10
4.12691
20
-3.0985
11
4.13066
21
-3.09475
0
LINE
8
BLACK
6
CONTINUOUS
10
4.13066
20
-3.09475
11
4.13816
21
-3.091
0
LINE
8
BLACK
6
CONTINUOUS
10
4.13816
20
-3.091
11
4.14941
21
-3.091
0
LINE
8
BLACK
6
CONTINUOUS
10
4.14941
20
-3.091
11
4.15691
21
-3.09475
0
LINE
8
BLACK
6
CONTINUOUS
10
4.15691
20
-3.09475
11
4.16066
21
-3.10225
0
LINE
8
BLACK
6
CONTINUOUS
10
4.16066
20
-3.10225
11
4.16066
21
-3.14349
0
LINE
8
BLACK
6
CONTINUOUS
10
4.16066
20
-3.10225
11
4.16441
21
-3.09475
0
LINE
8
BLACK
6
CONTINUOUS
10
4.16441
20
-3.09475
11
4.17191
21
-3.091
0
LINE
8
BLACK
6
CONTINUOUS
10
4.17191
20
-3.091
11
4.18316
21
-3.091
0
LINE
8
BLACK
6
CONTINUOUS
10
4.18316
20
-3.091
11
4.19066
21
-3.09475
0
LINE
8
BLACK
6
CONTINUOUS
10
4.19066
20
-3.09475
11
4.19441
21
-3.10225
0
LINE
8
BLACK
6
CONTINUOUS
10
4.19441
20
-3.10225
11
4.19441
21
-3.14349
0
LINE
8
BLACK
6
CONTINUOUS
10
4.2319
20
-3.14349
11
4.2319
21
-3.091
0
LINE
8
BLACK
6
CONTINUOUS
10
4.2319
20
-3.0985
11
4.23565
21
-3.09475
0
LINE
8
BLACK
6
CONTINUOUS
10
4.23565
20
-3.09475
11
4.24315
21
-3.091
0
LINE
8
BLACK
6
CONTINUOUS
10
4.24315
20
-3.091
11
4.2544
21
-3.091
0
LINE
8
BLACK
6
CONTINUOUS
10
4.2544
20
-3.091
11
4.2619
21
-3.09475
0
LINE
8
BLACK
6
CONTINUOUS
10
4.2619
20
-3.09475
11
4.26565
21
-3.10225
0
LINE
8
BLACK
6
CONTINUOUS
10
4.26565
20
-3.10225
11
4.26565
21
-3.14349
0
LINE
8
BLACK
6
CONTINUOUS
10
4.26565
20
-3.10225
11
4.2694
21
-3.09475
0
LINE
8
BLACK
6
CONTINUOUS
10
4.2694
20
-3.09475
11
4.2769
21
-3.091
0
LINE
8
BLACK
6
CONTINUOUS
10
4.2769
20
-3.091
11
4.28814
21
-3.091
0
LINE
8
BLACK
6
CONTINUOUS
10
4.28814
20
-3.091
11
4.29564
21
-3.09475
0
LINE
8
BLACK
6
CONTINUOUS
10
4.29564
20
-3.09475
11
4.29939
21
-3.10225
0
LINE
8
BLACK
6
CONTINUOUS
10
4.29939
20
-3.10225
11
4.29939
21
-3.14349
0
LINE
8
BLACK
6
CONTINUOUS
10
4.45312
20
-3.061
11
4.38563
21
-3.16224
0
LINE
8
BLACK
6
CONTINUOUS
10
4.55436
20
-3.06475
11
4.56186
21
-3.06475
0
LINE
8
BLACK
6
CONTINUOUS
10
4.56186
20
-3.06475
11
4.56936
21
-3.0685
0
LINE
8
BLACK
6
CONTINUOUS
10
4.56936
20
-3.0685
11
4.57311
21
-3.07225
0
LINE
8
BLACK
6
CONTINUOUS
10
4.57311
20
-3.07225
11
4.57686
21
-3.07975
0
LINE
8
BLACK
6
CONTINUOUS
10
4.57686
20
-3.07975
11
4.58061
21
-3.09475
0
LINE
8
BLACK
6
CONTINUOUS
10
4.58061
20
-3.09475
11
4.58061
21
-3.1135
0
LINE
8
BLACK
6
CONTINUOUS
10
4.58061
20
-3.1135
11
4.57686
21
-3.1285
0
LINE
8
BLACK
6
CONTINUOUS
10
4.57686
20
-3.1285
11
4.57311
21
-3.136
0
LINE
8
BLACK
6
CONTINUOUS
10
4.57311
20
-3.136
11
4.56936
21
-3.13975
0
LINE
8
BLACK
6
CONTINUOUS
10
4.56936
20
-3.13975
11
4.56186
21
-3.14349
0
LINE
8
BLACK
6
CONTINUOUS
10
4.56186
20
-3.14349
11
4.55436
21
-3.14349
0
LINE
8
BLACK
6
CONTINUOUS
10
4.55436
20
-3.14349
11
4.54686
21
-3.13975
0
LINE
8
BLACK
6
CONTINUOUS
10
4.54686
20
-3.13975
11
4.54311
21
-3.136
0
LINE
8
BLACK
6
CONTINUOUS
10
4.54311
20
-3.136
11
4.53936
21
-3.1285
0
LINE
8
BLACK
6
CONTINUOUS
10
4.53936
20
-3.1285
11
4.53561
21
-3.1135
0
LINE
8
BLACK
6
CONTINUOUS
10
4.53561
20
-3.1135
11
4.53561
21
-3.09475
0
LINE
8
BLACK
6
CONTINUOUS
10
4.53561
20
-3.09475
11
4.53936
21
-3.07975
0
LINE
8
BLACK
6
CONTINUOUS
10
4.53936
20
-3.07975
11
4.54311
21
-3.07225
0
LINE
8
BLACK
6
CONTINUOUS
10
4.54311
20
-3.07225
11
4.54686
21
-3.0685
0
LINE
8
BLACK
6
CONTINUOUS
10
4.54686
20
-3.0685
11
4.55436
21
-3.06475
0
LINE
8
BLACK
6
CONTINUOUS
10
4.61435
20
-3.136
11
4.6181
21
-3.13975
0
LINE
8
BLACK
6
CONTINUOUS
10
4.6181
20
-3.13975
11
4.61435
21
-3.14349
0
LINE
8
BLACK
6
CONTINUOUS
10
4.61435
20
-3.14349
11
4.6106
21
-3.13975
0
LINE
8
BLACK
6
CONTINUOUS
10
4.6106
20
-3.13975
11
4.61435
21
-3.136
0
LINE
8
BLACK
6
CONTINUOUS
10
4.61435
20
-3.136
11
4.61435
21
-3.14349
0
LINE
8
BLACK
6
CONTINUOUS
10
4.66685
20
-3.06475
11
4.67435
21
-3.06475
0
LINE
8
BLACK
6
CONTINUOUS
10
4.67435
20
-3.06475
11
4.68184
21
-3.0685
0
LINE
8
BLACK
6
CONTINUOUS
10
4.68184
20
-3.0685
11
4.68559
21
-3.07225
0
LINE
8
BLACK
6
CONTINUOUS
10
4.68559
20
-3.07225
11
4.68934
21
-3.07975
0
LINE
8
BLACK
6
CONTINUOUS
10
4.68934
20
-3.07975
11
4.69309
21
-3.09475
0
LINE
8
BLACK
6
CONTINUOUS
10
4.69309
20
-3.09475
11
4.69309
21
-3.1135
0
LINE
8
BLACK
6
CONTINUOUS
10
4.69309
20
-3.1135
11
4.68934
21
-3.1285
0
LINE
8
BLACK
6
CONTINUOUS
10
4.68934
20
-3.1285
11
4.68559
21
-3.136
0
LINE
8
BLACK
6
CONTINUOUS
10
4.68559
20
-3.136
11
4.68184
21
-3.13975
0
LINE
8
BLACK
6
CONTINUOUS
10
4.68184
20
-3.13975
11
4.67435
21
-3.14349
0
LINE
8
BLACK
6
CONTINUOUS
10
4.67435
20
-3.14349
11
4.66685
21
-3.14349
0
LINE
8
BLACK
6
CONTINUOUS
10
4.66685
20
-3.14349
11
4.65935
21
-3.13975
0
LINE
8
BLACK
6
CONTINUOUS
10
4.65935
20
-3.13975
11
4.6556
21
-3.136
0
LINE
8
BLACK
6
CONTINUOUS
10
4.6556
20
-3.136
11
4.65185
21
-3.1285
0
LINE
8
BLACK
6
CONTINUOUS
10
4.65185
20
-3.1285
11
4.6481
21
-3.1135
0
LINE
8
BLACK
6
CONTINUOUS
10
4.6481
20
-3.1135
11
4.6481
21
-3.09475
0
LINE
8
BLACK
6
CONTINUOUS
10
4.6481
20
-3.09475
11
4.65185
21
-3.07975
0
LINE
8
BLACK
6
CONTINUOUS
10
4.65185
20
-3.07975
11
4.6556
21
-3.07225
0
LINE
8
BLACK
6
CONTINUOUS
10
4.6556
20
-3.07225
11
4.65935
21
-3.0685
0
LINE
8
BLACK
6
CONTINUOUS
10
4.65935
20
-3.0685
11
4.66685
21
-3.06475
0
LINE
8
BLACK
6
CONTINUOUS
10
4.71934
20
-3.06475
11
4.76808
21
-3.06475
0
LINE
8
BLACK
6
CONTINUOUS
10
4.76808
20
-3.06475
11
4.74184
21
-3.09475
0
LINE
8
BLACK
6
CONTINUOUS
10
4.74184
20
-3.09475
11
4.75309
21
-3.09475
0
LINE
8
BLACK
6
CONTINUOUS
10
4.75309
20
-3.09475
11
4.76058
21
-3.0985
0
LINE
8
BLACK
6
CONTINUOUS
10
4.76058
20
-3.0985
11
4.76433
21
-3.10225
0
LINE
8
BLACK
6
CONTINUOUS
10
4.76433
20
-3.10225
11
4.76808
21
-3.10975
0
LINE
8
BLACK
6
CONTINUOUS
10
4.76808
20
-3.10975
11
4.76808
21
-3.1285
0
LINE
8
BLACK
6
CONTINUOUS
10
4.76808
20
-3.1285
11
4.76433
21
-3.136
0
LINE
8
BLACK
6
CONTINUOUS
10
4.76433
20
-3.136
11
4.76058
21
-3.13975
0
LINE
8
BLACK
6
CONTINUOUS
10
4.76058
20
-3.13975
11
4.75309
21
-3.14349
0
LINE
8
BLACK
6
CONTINUOUS
10
4.75309
20
-3.14349
11
4.73059
21
-3.14349
0
LINE
8
BLACK
6
CONTINUOUS
10
4.73059
20
-3.14349
11
4.72309
21
-3.13975
0
LINE
8
BLACK
6
CONTINUOUS
10
4.72309
20
-3.13975
11
4.71934
21
-3.136
0
LINE
8
BLACK
6
CONTINUOUS
10
4.80558
20
-3.14349
11
4.82058
21
-3.14349
0
LINE
8
BLACK
6
CONTINUOUS
10
4.82058
20
-3.14349
11
4.82808
21
-3.13975
0
LINE
8
BLACK
6
CONTINUOUS
10
4.82808
20
-3.13975
11
4.83183
21
-3.136
0
LINE
8
BLACK
6
CONTINUOUS
10
4.83183
20
-3.136
11
4.83933
21
-3.12475
0
LINE
8
BLACK
6
CONTINUOUS
10
4.83933
20
-3.12475
11
4.84307
21
-3.10975
0
LINE
8
BLACK
6
CONTINUOUS
10
4.84307
20
-3.10975
11
4.84307
21
-3.07975
0
LINE
8
BLACK
6
CONTINUOUS
10
4.84307
20
-3.07975
11
4.83933
21
-3.07225
0
LINE
8
BLACK
6
CONTINUOUS
10
4.83933
20
-3.07225
11
4.83558
21
-3.0685
0
LINE
8
BLACK
6
CONTINUOUS
10
4.83558
20
-3.0685
11
4.82808
21
-3.06475
0
LINE
8
BLACK
6
CONTINUOUS
10
4.82808
20
-3.06475
11
4.81308
21
-3.06475
0
LINE
8
BLACK
6
CONTINUOUS
10
4.81308
20
-3.06475
11
4.80558
21
-3.0685
0
LINE
8
BLACK
6
CONTINUOUS
10
4.80558
20
-3.0685
11
4.80183
21
-3.07225
0
LINE
8
BLACK
6
CONTINUOUS
10
4.80183
20
-3.07225
11
4.79808
21
-3.07975
0
LINE
8
BLACK
6
CONTINUOUS
10
4.79808
20
-3.07975
11
4.79808
21
-3.0985
0
LINE
8
BLACK
6
CONTINUOUS
10
4.79808
20
-3.0985
11
4.80183
21
-3.106
0
LINE
8
BLACK
6
CONTINUOUS
10
4.80183
20
-3.106
11
4.80558
21
-3.10975
0
LINE
8
BLACK
6
CONTINUOUS
10
4.80558
20
-3.10975
11
4.81308
21
-3.1135
0
LINE
8
BLACK
6
CONTINUOUS
10
4.81308
20
-3.1135
11
4.82808
21
-3.1135
0
LINE
8
BLACK
6
CONTINUOUS
10
4.82808
20
-3.1135
11
4.83558
21
-3.10975
0
LINE
8
BLACK
6
CONTINUOUS
10
4.83558
20
-3.10975
11
4.83933
21
-3.106
0
LINE
8
BLACK
6
CONTINUOUS
10
4.83933
20
-3.106
11
4.84307
21
-3.0985
0
LINE
8
BLACK
6
CONTINUOUS
10
4.91057
20
-3.091
11
4.91057
21
-3.14349
0
LINE
8
BLACK
6
CONTINUOUS
10
4.89182
20
-3.061
11
4.87307
21
-3.11725
0
LINE
8
BLACK
6
CONTINUOUS
10
4.87307
20
-3.11725
11
4.92181
21
-3.11725
0
LINE
8
BLACK
6
CONTINUOUS
10
4.94806
20
-3.06475
11
4.94806
21
-3.07975
0
LINE
8
BLACK
6
CONTINUOUS
10
4.97806
20
-3.06475
11
4.97806
21
-3.07975
0
LINE
8
BLACK
6
CONTINUOUS
10
5.09429
20
-3.17349
11
5.09054
21
-3.16974
0
LINE
8
BLACK
6
CONTINUOUS
10
5.09054
20
-3.16974
11
5.08304
21
-3.15849
0
LINE
8
BLACK
6
CONTINUOUS
10
5.08304
20
-3.15849
11
5.0793
21
-3.15099
0
LINE
8
BLACK
6
CONTINUOUS
10
5.0793
20
-3.15099
11
5.07555
21
-3.13975
0
LINE
8
BLACK
6
CONTINUOUS
10
5.07555
20
-3.13975
11
5.0718
21
-3.121
0
LINE
8
BLACK
6
CONTINUOUS
10
5.0718
20
-3.121
11
5.0718
21
-3.106
0
LINE
8
BLACK
6
CONTINUOUS
10
5.0718
20
-3.106
11
5.07555
21
-3.08725
0
LINE
8
BLACK
6
CONTINUOUS
10
5.07555
20
-3.08725
11
5.0793
21
-3.076
0
LINE
8
BLACK
6
CONTINUOUS
10
5.0793
20
-3.076
11
5.08304
21
-3.0685
0
LINE
8
BLACK
6
CONTINUOUS
10
5.08304
20
-3.0685
11
5.09054
21
-3.05726
0
LINE
8
BLACK
6
CONTINUOUS
10
5.09054
20
-3.05726
11
5.09429
21
-3.05351
0
LINE
8
BLACK
6
CONTINUOUS
10
5.11679
20
-3.06475
11
5.16928
21
-3.06475
0
LINE
8
BLACK
6
CONTINUOUS
10
5.16928
20
-3.06475
11
5.13554
21
-3.14349
0
LINE
8
BLACK
6
CONTINUOUS
10
5.23303
20
-3.06475
11
5.21803
21
-3.06475
0
LINE
8
BLACK
6
CONTINUOUS
10
5.21803
20
-3.06475
11
5.21053
21
-3.0685
0
LINE
8
BLACK
6
CONTINUOUS
10
5.21053
20
-3.0685
11
5.20678
21
-3.07225
0
LINE
8
BLACK
6
CONTINUOUS
10
5.20678
20
-3.07225
11
5.19928
21
-3.0835
0
LINE
8
BLACK
6
CONTINUOUS
10
5.19928
20
-3.0835
11
5.19553
21
-3.0985
0
LINE
8
BLACK
6
CONTINUOUS
10
5.19553
20
-3.0985
11
5.19553
21
-3.1285
0
LINE
8
BLACK
6
CONTINUOUS
10
5.19553
20
-3.1285
11
5.19928
21
-3.136
0
LINE
8
BLACK
6
CONTINUOUS
10
5.19928
20
-3.136
11
5.20303
21
-3.13975
0
LINE
8
BLACK
6
CONTINUOUS
10
5.20303
20
-3.13975
11
5.21053
21
-3.14349
0
LINE
8
BLACK
6
CONTINUOUS
10
5.21053
20
-3.14349
11
5.22553
21
-3.14349
0
LINE
8
BLACK
6
CONTINUOUS
10
5.22553
20
-3.14349
11
5.23303
21
-3.13975
0
LINE
8
BLACK
6
CONTINUOUS
10
5.23303
20
-3.13975
11
5.23678
21
-3.136
0
LINE
8
BLACK
6
CONTINUOUS
10
5.23678
20
-3.136
11
5.24052
21
-3.1285
0
LINE
8
BLACK
6
CONTINUOUS
10
5.24052
20
-3.1285
11
5.24052
21
-3.10975
0
LINE
8
BLACK
6
CONTINUOUS
10
5.24052
20
-3.10975
11
5.23678
21
-3.10225
0
LINE
8
BLACK
6
CONTINUOUS
10
5.23678
20
-3.10225
11
5.23303
21
-3.0985
0
LINE
8
BLACK
6
CONTINUOUS
10
5.23303
20
-3.0985
11
5.22553
21
-3.09475
0
LINE
8
BLACK
6
CONTINUOUS
10
5.22553
20
-3.09475
11
5.21053
21
-3.09475
0
LINE
8
BLACK
6
CONTINUOUS
10
5.21053
20
-3.09475
11
5.20303
21
-3.0985
0
LINE
8
BLACK
6
CONTINUOUS
10
5.20303
20
-3.0985
11
5.19928
21
-3.10225
0
LINE
8
BLACK
6
CONTINUOUS
10
5.19928
20
-3.10225
11
5.19553
21
-3.10975
0
LINE
8
BLACK
6
CONTINUOUS
10
5.33426
20
-3.14349
11
5.33426
21
-3.06475
0
LINE
8
BLACK
6
CONTINUOUS
10
5.36801
20
-3.14349
11
5.36801
21
-3.10225
0
LINE
8
BLACK
6
CONTINUOUS
10
5.36801
20
-3.10225
11
5.36426
21
-3.09475
0
LINE
8
BLACK
6
CONTINUOUS
10
5.36426
20
-3.09475
11
5.35676
21
-3.091
0
LINE
8
BLACK
6
CONTINUOUS
10
5.35676
20
-3.091
11
5.34551
21
-3.091
0
LINE
8
BLACK
6
CONTINUOUS
10
5.34551
20
-3.091
11
5.33801
21
-3.09475
0
LINE
8
BLACK
6
CONTINUOUS
10
5.33801
20
-3.09475
11
5.33426
21
-3.0985
0
LINE
8
BLACK
6
CONTINUOUS
10
5.41675
20
-3.14349
11
5.40925
21
-3.13975
0
LINE
8
BLACK
6
CONTINUOUS
10
5.40925
20
-3.13975
11
5.4055
21
-3.136
0
LINE
8
BLACK
6
CONTINUOUS
10
5.4055
20
-3.136
11
5.40175
21
-3.1285
0
LINE
8
BLACK
6
CONTINUOUS
10
5.40175
20
-3.1285
11
5.40175
21
-3.106
0
LINE
8
BLACK
6
CONTINUOUS
10
5.40175
20
-3.106
11
5.4055
21
-3.0985
0
LINE
8
BLACK
6
CONTINUOUS
10
5.4055
20
-3.0985
11
5.40925
21
-3.09475
0
LINE
8
BLACK
6
CONTINUOUS
10
5.40925
20
-3.09475
11
5.41675
21
-3.091
0
LINE
8
BLACK
6
CONTINUOUS
10
5.41675
20
-3.091
11
5.428
21
-3.091
0
LINE
8
BLACK
6
CONTINUOUS
10
5.428
20
-3.091
11
5.4355
21
-3.09475
0
LINE
8
BLACK
6
CONTINUOUS
10
5.4355
20
-3.09475
11
5.43925
21
-3.0985
0
LINE
8
BLACK
6
CONTINUOUS
10
5.43925
20
-3.0985
11
5.443
21
-3.106
0
LINE
8
BLACK
6
CONTINUOUS
10
5.443
20
-3.106
11
5.443
21
-3.1285
0
LINE
8
BLACK
6
CONTINUOUS
10
5.443
20
-3.1285
11
5.43925
21
-3.136
0
LINE
8
BLACK
6
CONTINUOUS
10
5.43925
20
-3.136
11
5.4355
21
-3.13975
0
LINE
8
BLACK
6
CONTINUOUS
10
5.4355
20
-3.13975
11
5.428
21
-3.14349
0
LINE
8
BLACK
6
CONTINUOUS
10
5.428
20
-3.14349
11
5.41675
21
-3.14349
0
LINE
8
BLACK
6
CONTINUOUS
10
5.48799
20
-3.14349
11
5.48049
21
-3.13975
0
LINE
8
BLACK
6
CONTINUOUS
10
5.48049
20
-3.13975
11
5.47675
21
-3.13225
0
LINE
8
BLACK
6
CONTINUOUS
10
5.47675
20
-3.13225
11
5.47675
21
-3.06475
0
LINE
8
BLACK
6
CONTINUOUS
10
5.54799
20
-3.13975
11
5.54049
21
-3.14349
0
LINE
8
BLACK
6
CONTINUOUS
10
5.54049
20
-3.14349
11
5.52549
21
-3.14349
0
LINE
8
BLACK
6
CONTINUOUS
10
5.52549
20
-3.14349
11
5.51799
21
-3.13975
0
LINE
8
BLACK
6
CONTINUOUS
10
5.51799
20
-3.13975
11
5.51424
21
-3.13225
0
LINE
8
BLACK
6
CONTINUOUS
10
5.51424
20
-3.13225
11
5.51424
21
-3.10225
0
LINE
8
BLACK
6
CONTINUOUS
10
5.51424
20
-3.10225
11
5.51799
21
-3.09475
0
LINE
8
BLACK
6
CONTINUOUS
10
5.51799
20
-3.09475
11
5.52549
21
-3.091
0
LINE
8
BLACK
6
CONTINUOUS
10
5.52549
20
-3.091
11
5.54049
21
-3.091
0
LINE
8
BLACK
6
CONTINUOUS
10
5.54049
20
-3.091
11
5.54799
21
-3.09475
0
LINE
8
BLACK
6
CONTINUOUS
10
5.54799
20
-3.09475
11
5.55174
21
-3.10225
0
LINE
8
BLACK
6
CONTINUOUS
10
5.55174
20
-3.10225
11
5.55174
21
-3.10975
0
LINE
8
BLACK
6
CONTINUOUS
10
5.55174
20
-3.10975
11
5.51424
21
-3.11725
0
LINE
8
BLACK
6
CONTINUOUS
10
5.58173
20
-3.13975
11
5.58923
21
-3.14349
0
LINE
8
BLACK
6
CONTINUOUS
10
5.58923
20
-3.14349
11
5.60423
21
-3.14349
0
LINE
8
BLACK
6
CONTINUOUS
10
5.60423
20
-3.14349
11
5.61173
21
-3.13975
0
LINE
8
BLACK
6
CONTINUOUS
10
5.61173
20
-3.13975
11
5.61548
21
-3.13225
0
LINE
8
BLACK
6
CONTINUOUS
10
5.61548
20
-3.13225
11
5.61548
21
-3.1285
0
LINE
8
BLACK
6
CONTINUOUS
10
5.61548
20
-3.1285
11
5.61173
21
-3.121
0
LINE
8
BLACK
6
CONTINUOUS
10
5.61173
20
-3.121
11
5.60423
21
-3.11725
0
LINE
8
BLACK
6
CONTINUOUS
10
5.60423
20
-3.11725
11
5.59298
21
-3.11725
0
LINE
8
BLACK
6
CONTINUOUS
10
5.59298
20
-3.11725
11
5.58548
21
-3.1135
0
LINE
8
BLACK
6
CONTINUOUS
10
5.58548
20
-3.1135
11
5.58173
21
-3.106
0
LINE
8
BLACK
6
CONTINUOUS
10
5.58173
20
-3.106
11
5.58173
21
-3.10225
0
LINE
8
BLACK
6
CONTINUOUS
10
5.58173
20
-3.10225
11
5.58548
21
-3.09475
0
LINE
8
BLACK
6
CONTINUOUS
10
5.58548
20
-3.09475
11
5.59298
21
-3.091
0
LINE
8
BLACK
6
CONTINUOUS
10
5.59298
20
-3.091
11
5.60423
21
-3.091
0
LINE
8
BLACK
6
CONTINUOUS
10
5.60423
20
-3.091
11
5.61173
21
-3.09475
0
LINE
8
BLACK
6
CONTINUOUS
10
5.64172
20
-3.17349
11
5.64547
21
-3.16974
0
LINE
8
BLACK
6
CONTINUOUS
10
5.64547
20
-3.16974
11
5.65297
21
-3.15849
0
LINE
8
BLACK
6
CONTINUOUS
10
5.65297
20
-3.15849
11
5.65672
21
-3.15099
0
LINE
8
BLACK
6
CONTINUOUS
10
5.65672
20
-3.15099
11
5.66047
21
-3.13975
0
LINE
8
BLACK
6
CONTINUOUS
10
5.66047
20
-3.13975
11
5.66422
21
-3.121
0
LINE
8
BLACK
6
CONTINUOUS
10
5.66422
20
-3.121
11
5.66422
21
-3.106
0
LINE
8
BLACK
6
CONTINUOUS
10
5.66422
20
-3.106
11
5.66047
21
-3.08725
0
LINE
8
BLACK
6
CONTINUOUS
10
5.66047
20
-3.08725
11
5.65672
21
-3.076
0
LINE
8
BLACK
6
CONTINUOUS
10
5.65672
20
-3.076
11
5.65297
21
-3.0685
0
LINE
8
BLACK
6
CONTINUOUS
10
5.65297
20
-3.0685
11
5.64547
21
-3.05726
0
LINE
8
BLACK
6
CONTINUOUS
10
5.64547
20
-3.05726
11
5.64172
21
-3.05351
0
LINE
8
BLACK
6
CONTINUOUS
10
3.64866
20
-3.17244
11
3.64866
21
-3.25118
0
LINE
8
BLACK
6
CONTINUOUS
10
3.60929
20
-3.21181
11
3.68803
21
-3.21181
0
LINE
8
BLACK
6
CONTINUOUS
10
3.78196
20
-3.16869
11
3.8307
21
-3.16869
0
LINE
8
BLACK
6
CONTINUOUS
10
3.8307
20
-3.16869
11
3.80445
21
-3.19869
0
LINE
8
BLACK
6
CONTINUOUS
10
3.80445
20
-3.19869
11
3.8157
21
-3.19869
0
LINE
8
BLACK
6
CONTINUOUS
10
3.8157
20
-3.19869
11
3.8232
21
-3.20244
0
LINE
8
BLACK
6
CONTINUOUS
10
3.8232
20
-3.20244
11
3.82695
21
-3.20619
0
LINE
8
BLACK
6
CONTINUOUS
10
3.82695
20
-3.20619
11
3.8307
21
-3.21369
0
LINE
8
BLACK
6
CONTINUOUS
10
3.8307
20
-3.21369
11
3.8307
21
-3.23243
0
LINE
8
BLACK
6
CONTINUOUS
10
3.8307
20
-3.23243
11
3.82695
21
-3.23993
0
LINE
8
BLACK
6
CONTINUOUS
10
3.82695
20
-3.23993
11
3.8232
21
-3.24368
0
LINE
8
BLACK
6
CONTINUOUS
10
3.8232
20
-3.24368
11
3.8157
21
-3.24743
0
LINE
8
BLACK
6
CONTINUOUS
10
3.8157
20
-3.24743
11
3.79321
21
-3.24743
0
LINE
8
BLACK
6
CONTINUOUS
10
3.79321
20
-3.24743
11
3.78571
21
-3.24368
0
LINE
8
BLACK
6
CONTINUOUS
10
3.78571
20
-3.24368
11
3.78196
21
-3.23993
0
LINE
8
BLACK
6
CONTINUOUS
10
3.86445
20
-3.23993
11
3.8682
21
-3.24368
0
LINE
8
BLACK
6
CONTINUOUS
10
3.8682
20
-3.24368
11
3.86445
21
-3.24743
0
LINE
8
BLACK
6
CONTINUOUS
10
3.86445
20
-3.24743
11
3.8607
21
-3.24368
0
LINE
8
BLACK
6
CONTINUOUS
10
3.8607
20
-3.24368
11
3.86445
21
-3.23993
0
LINE
8
BLACK
6
CONTINUOUS
10
3.86445
20
-3.23993
11
3.86445
21
-3.24743
0
LINE
8
BLACK
6
CONTINUOUS
10
3.89819
20
-3.17619
11
3.90194
21
-3.17244
0
LINE
8
BLACK
6
CONTINUOUS
10
3.90194
20
-3.17244
11
3.90944
21
-3.16869
0
LINE
8
BLACK
6
CONTINUOUS
10
3.90944
20
-3.16869
11
3.92819
21
-3.16869
0
LINE
8
BLACK
6
CONTINUOUS
10
3.92819
20
-3.16869
11
3.93569
21
-3.17244
0
LINE
8
BLACK
6
CONTINUOUS
10
3.93569
20
-3.17244
11
3.93944
21
-3.17619
0
LINE
8
BLACK
6
CONTINUOUS
10
3.93944
20
-3.17619
11
3.94319
21
-3.18369
0
LINE
8
BLACK
6
CONTINUOUS
10
3.94319
20
-3.18369
11
3.94319
21
-3.19119
0
LINE
8
BLACK
6
CONTINUOUS
10
3.94319
20
-3.19119
11
3.93944
21
-3.20244
0
LINE
8
BLACK
6
CONTINUOUS
10
3.93944
20
-3.20244
11
3.89444
21
-3.24743
0
LINE
8
BLACK
6
CONTINUOUS
10
3.89444
20
-3.24743
11
3.94319
21
-3.24743
0
LINE
8
BLACK
6
CONTINUOUS
10
3.99193
20
-3.16869
11
3.99943
21
-3.16869
0
LINE
8
BLACK
6
CONTINUOUS
10
3.99943
20
-3.16869
11
4.00693
21
-3.17244
0
LINE
8
BLACK
6
CONTINUOUS
10
4.00693
20
-3.17244
11
4.01068
21
-3.17619
0
LINE
8
BLACK
6
CONTINUOUS
10
4.01068
20
-3.17619
11
4.01443
21
-3.18369
0
LINE
8
BLACK
6
CONTINUOUS
10
4.01443
20
-3.18369
11
4.01818
21
-3.19869
0
LINE
8
BLACK
6
CONTINUOUS
10
4.01818
20
-3.19869
11
4.01818
21
-3.21744
0
LINE
8
BLACK
6
CONTINUOUS
10
4.01818
20
-3.21744
11
4.01443
21
-3.23243
0
LINE
8
BLACK
6
CONTINUOUS
10
4.01443
20
-3.23243
11
4.01068
21
-3.23993
0
LINE
8
BLACK
6
CONTINUOUS
10
4.01068
20
-3.23993
11
4.00693
21
-3.24368
0
LINE
8
BLACK
6
CONTINUOUS
10
4.00693
20
-3.24368
11
3.99943
21
-3.24743
0
LINE
8
BLACK
6
CONTINUOUS
10
3.99943
20
-3.24743
11
3.99193
21
-3.24743
0
LINE
8
BLACK
6
CONTINUOUS
10
3.99193
20
-3.24743
11
3.98443
21
-3.24368
0
LINE
8
BLACK
6
CONTINUOUS
10
3.98443
20
-3.24368
11
3.98068
21
-3.23993
0
LINE
8
BLACK
6
CONTINUOUS
10
3.98068
20
-3.23993
11
3.97693
21
-3.23243
0
LINE
8
BLACK
6
CONTINUOUS
10
3.97693
20
-3.23243
11
3.97318
21
-3.21744
0
LINE
8
BLACK
6
CONTINUOUS
10
3.97318
20
-3.21744
11
3.97318
21
-3.19869
0
LINE
8
BLACK
6
CONTINUOUS
10
3.97318
20
-3.19869
11
3.97693
21
-3.18369
0
LINE
8
BLACK
6
CONTINUOUS
10
3.97693
20
-3.18369
11
3.98068
21
-3.17619
0
LINE
8
BLACK
6
CONTINUOUS
10
3.98068
20
-3.17619
11
3.98443
21
-3.17244
0
LINE
8
BLACK
6
CONTINUOUS
10
3.98443
20
-3.17244
11
3.99193
21
-3.16869
0
LINE
8
BLACK
6
CONTINUOUS
10
4.06692
20
-3.16869
11
4.07442
21
-3.16869
0
LINE
8
BLACK
6
CONTINUOUS
10
4.07442
20
-3.16869
11
4.08192
21
-3.17244
0
LINE
8
BLACK
6
CONTINUOUS
10
4.08192
20
-3.17244
11
4.08567
21
-3.17619
0
LINE
8
BLACK
6
CONTINUOUS
10
4.08567
20
-3.17619
11
4.08942
21
-3.18369
0
LINE
8
BLACK
6
CONTINUOUS
10
4.08942
20
-3.18369
11
4.09317
21
-3.19869
0
LINE
8
BLACK
6
CONTINUOUS
10
4.09317
20
-3.19869
11
4.09317
21
-3.21744
0
LINE
8
BLACK
6
CONTINUOUS
10
4.09317
20
-3.21744
11
4.08942
21
-3.23243
0
LINE
8
BLACK
6
CONTINUOUS
10
4.08942
20
-3.23243
11
4.08567
21
-3.23993
0
LINE
8
BLACK
6
CONTINUOUS
10
4.08567
20
-3.23993
11
4.08192
21
-3.24368
0
LINE
8
BLACK
6
CONTINUOUS
10
4.08192
20
-3.24368
11
4.07442
21
-3.24743
0
LINE
8
BLACK
6
CONTINUOUS
10
4.07442
20
-3.24743
11
4.06692
21
-3.24743
0
LINE
8
BLACK
6
CONTINUOUS
10
4.06692
20
-3.24743
11
4.05942
21
-3.24368
0
LINE
8
BLACK
6
CONTINUOUS
10
4.05942
20
-3.24368
11
4.05567
21
-3.23993
0
LINE
8
BLACK
6
CONTINUOUS
10
4.05567
20
-3.23993
11
4.05192
21
-3.23243
0
LINE
8
BLACK
6
CONTINUOUS
10
4.05192
20
-3.23243
11
4.04817
21
-3.21744
0
LINE
8
BLACK
6
CONTINUOUS
10
4.04817
20
-3.21744
11
4.04817
21
-3.19869
0
LINE
8
BLACK
6
CONTINUOUS
10
4.04817
20
-3.19869
11
4.05192
21
-3.18369
0
LINE
8
BLACK
6
CONTINUOUS
10
4.05192
20
-3.18369
11
4.05567
21
-3.17619
0
LINE
8
BLACK
6
CONTINUOUS
10
4.05567
20
-3.17619
11
4.05942
21
-3.17244
0
LINE
8
BLACK
6
CONTINUOUS
10
4.05942
20
-3.17244
11
4.06692
21
-3.16869
0
LINE
8
BLACK
6
CONTINUOUS
10
4.12691
20
-3.24743
11
4.12691
21
-3.19494
0
LINE
8
BLACK
6
CONTINUOUS
10
4.12691
20
-3.20244
11
4.13066
21
-3.19869
0
LINE
8
BLACK
6
CONTINUOUS
10
4.13066
20
-3.19869
11
4.13816
21
-3.19494
0
LINE
8
BLACK
6
CONTINUOUS
10
4.13816
20
-3.19494
11
4.14941
21
-3.19494
0
LINE
8
BLACK
6
CONTINUOUS
10
4.14941
20
-3.19494
11
4.15691
21
-3.19869
0
LINE
8
BLACK
6
CONTINUOUS
10
4.15691
20
-3.19869
11
4.16066
21
-3.20619
0
LINE
8
BLACK
6
CONTINUOUS
10
4.16066
20
-3.20619
11
4.16066
21
-3.24743
0
LINE
8
BLACK
6
CONTINUOUS
10
4.16066
20
-3.20619
11
4.16441
21
-3.19869
0
LINE
8
BLACK
6
CONTINUOUS
10
4.16441
20
-3.19869
11
4.17191
21
-3.19494
0
LINE
8
BLACK
6
CONTINUOUS
10
4.17191
20
-3.19494
11
4.18316
21
-3.19494
0
LINE
8
BLACK
6
CONTINUOUS
10
4.18316
20
-3.19494
11
4.19066
21
-3.19869
0
LINE
8
BLACK
6
CONTINUOUS
10
4.19066
20
-3.19869
11
4.19441
21
-3.20619
0
LINE
8
BLACK
6
CONTINUOUS
10
4.19441
20
-3.20619
11
4.19441
21
-3.24743
0
LINE
8
BLACK
6
CONTINUOUS
10
4.2319
20
-3.24743
11
4.2319
21
-3.19494
0
LINE
8
BLACK
6
CONTINUOUS
10
4.2319
20
-3.20244
11
4.23565
21
-3.19869
0
LINE
8
BLACK
6
CONTINUOUS
10
4.23565
20
-3.19869
11
4.24315
21
-3.19494
0
LINE
8
BLACK
6
CONTINUOUS
10
4.24315
20
-3.19494
11
4.2544
21
-3.19494
0
LINE
8
BLACK
6
CONTINUOUS
10
4.2544
20
-3.19494
11
4.2619
21
-3.19869
0
LINE
8
BLACK
6
CONTINUOUS
10
4.2619
20
-3.19869
11
4.26565
21
-3.20619
0
LINE
8
BLACK
6
CONTINUOUS
10
4.26565
20
-3.20619
11
4.26565
21
-3.24743
0
LINE
8
BLACK
6
CONTINUOUS
10
4.26565
20
-3.20619
11
4.2694
21
-3.19869
0
LINE
8
BLACK
6
CONTINUOUS
10
4.2694
20
-3.19869
11
4.2769
21
-3.19494
0
LINE
8
BLACK
6
CONTINUOUS
10
4.2769
20
-3.19494
11
4.28814
21
-3.19494
0
LINE
8
BLACK
6
CONTINUOUS
10
4.28814
20
-3.19494
11
4.29564
21
-3.19869
0
LINE
8
BLACK
6
CONTINUOUS
10
4.29564
20
-3.19869
11
4.29939
21
-3.20619
0
LINE
8
BLACK
6
CONTINUOUS
10
4.29939
20
-3.20619
11
4.29939
21
-3.24743
0
LINE
8
BLACK
6
CONTINUOUS
10
4.45312
20
-3.16494
11
4.38563
21
-3.26618
0
LINE
8
BLACK
6
CONTINUOUS
10
4.55436
20
-3.16869
11
4.56186
21
-3.16869
0
LINE
8
BLACK
6
CONTINUOUS
10
4.56186
20
-3.16869
11
4.56936
21
-3.17244
0
LINE
8
BLACK
6
CONTINUOUS
10
4.56936
20
-3.17244
11
4.57311
21
-3.17619
0
LINE
8
BLACK
6
CONTINUOUS
10
4.57311
20
-3.17619
11
4.57686
21
-3.18369
0
LINE
8
BLACK
6
CONTINUOUS
10
4.57686
20
-3.18369
11
4.58061
21
-3.19869
0
LINE
8
BLACK
6
CONTINUOUS
10
4.58061
20
-3.19869
11
4.58061
21
-3.21744
0
LINE
8
BLACK
6
CONTINUOUS
10
4.58061
20
-3.21744
11
4.57686
21
-3.23243
0
LINE
8
BLACK
6
CONTINUOUS
10
4.57686
20
-3.23243
11
4.57311
21
-3.23993
0
LINE
8
BLACK
6
CONTINUOUS
10
4.57311
20
-3.23993
11
4.56936
21
-3.24368
0
LINE
8
BLACK
6
CONTINUOUS
10
4.56936
20
-3.24368
11
4.56186
21
-3.24743
0
LINE
8
BLACK
6
CONTINUOUS
10
4.56186
20
-3.24743
11
4.55436
21
-3.24743
0
LINE
8
BLACK
6
CONTINUOUS
10
4.55436
20
-3.24743
11
4.54686
21
-3.24368
0
LINE
8
BLACK
6
CONTINUOUS
10
4.54686
20
-3.24368
11
4.54311
21
-3.23993
0
LINE
8
BLACK
6
CONTINUOUS
10
4.54311
20
-3.23993
11
4.53936
21
-3.23243
0
LINE
8
BLACK
6
CONTINUOUS
10
4.53936
20
-3.23243
11
4.53561
21
-3.21744
0
LINE
8
BLACK
6
CONTINUOUS
10
4.53561
20
-3.21744
11
4.53561
21
-3.19869
0
LINE
8
BLACK
6
CONTINUOUS
10
4.53561
20
-3.19869
11
4.53936
21
-3.18369
0
LINE
8
BLACK
6
CONTINUOUS
10
4.53936
20
-3.18369
11
4.54311
21
-3.17619
0
LINE
8
BLACK
6
CONTINUOUS
10
4.54311
20
-3.17619
11
4.54686
21
-3.17244
0
LINE
8
BLACK
6
CONTINUOUS
10
4.54686
20
-3.17244
11
4.55436
21
-3.16869
0
LINE
8
BLACK
6
CONTINUOUS
10
4.61435
20
-3.23993
11
4.6181
21
-3.24368
0
LINE
8
BLACK
6
CONTINUOUS
10
4.6181
20
-3.24368
11
4.61435
21
-3.24743
0
LINE
8
BLACK
6
CONTINUOUS
10
4.61435
20
-3.24743
11
4.6106
21
-3.24368
0
LINE
8
BLACK
6
CONTINUOUS
10
4.6106
20
-3.24368
11
4.61435
21
-3.23993
0
LINE
8
BLACK
6
CONTINUOUS
10
4.61435
20
-3.23993
11
4.61435
21
-3.24743
0
LINE
8
BLACK
6
CONTINUOUS
10
4.69309
20
-3.24743
11
4.6481
21
-3.24743
0
LINE
8
BLACK
6
CONTINUOUS
10
4.6706
20
-3.24743
11
4.6706
21
-3.16869
0
LINE
8
BLACK
6
CONTINUOUS
10
4.6706
20
-3.16869
11
4.6631
21
-3.17994
0
LINE
8
BLACK
6
CONTINUOUS
10
4.6631
20
-3.17994
11
4.6556
21
-3.18744
0
LINE
8
BLACK
6
CONTINUOUS
10
4.6556
20
-3.18744
11
4.6481
21
-3.19119
0
LINE
8
BLACK
6
CONTINUOUS
10
4.72309
20
-3.17619
11
4.72684
21
-3.17244
0
LINE
8
BLACK
6
CONTINUOUS
10
4.72684
20
-3.17244
11
4.73434
21
-3.16869
0
LINE
8
BLACK
6
CONTINUOUS
10
4.73434
20
-3.16869
11
4.75309
21
-3.16869
0
LINE
8
BLACK
6
CONTINUOUS
10
4.75309
20
-3.16869
11
4.76058
21
-3.17244
0
LINE
8
BLACK
6
CONTINUOUS
10
4.76058
20
-3.17244
11
4.76433
21
-3.17619
0
LINE
8
BLACK
6
CONTINUOUS
10
4.76433
20
-3.17619
11
4.76808
21
-3.18369
0
LINE
8
BLACK
6
CONTINUOUS
10
4.76808
20
-3.18369
11
4.76808
21
-3.19119
0
LINE
8
BLACK
6
CONTINUOUS
10
4.76808
20
-3.19119
11
4.76433
21
-3.20244
0
LINE
8
BLACK
6
CONTINUOUS
10
4.76433
20
-3.20244
11
4.71934
21
-3.24743
0
LINE
8
BLACK
6
CONTINUOUS
10
4.71934
20
-3.24743
11
4.76808
21
-3.24743
0
LINE
8
BLACK
6
CONTINUOUS
10
4.83558
20
-3.16869
11
4.82058
21
-3.16869
0
LINE
8
BLACK
6
CONTINUOUS
10
4.82058
20
-3.16869
11
4.81308
21
-3.17244
0
LINE
8
BLACK
6
CONTINUOUS
10
4.81308
20
-3.17244
11
4.80933
21
-3.17619
0
LINE
8
BLACK
6
CONTINUOUS
10
4.80933
20
-3.17619
11
4.80183
21
-3.18744
0
LINE
8
BLACK
6
CONTINUOUS
10
4.80183
20
-3.18744
11
4.79808
21
-3.20244
0
LINE
8
BLACK
6
CONTINUOUS
10
4.79808
20
-3.20244
11
4.79808
21
-3.23243
0
LINE
8
BLACK
6
CONTINUOUS
10
4.79808
20
-3.23243
11
4.80183
21
-3.23993
0
LINE
8
BLACK
6
CONTINUOUS
10
4.80183
20
-3.23993
11
4.80558
21
-3.24368
0
LINE
8
BLACK
6
CONTINUOUS
10
4.80558
20
-3.24368
11
4.81308
21
-3.24743
0
LINE
8
BLACK
6
CONTINUOUS
10
4.81308
20
-3.24743
11
4.82808
21
-3.24743
0
LINE
8
BLACK
6
CONTINUOUS
10
4.82808
20
-3.24743
11
4.83558
21
-3.24368
0
LINE
8
BLACK
6
CONTINUOUS
10
4.83558
20
-3.24368
11
4.83933
21
-3.23993
0
LINE
8
BLACK
6
CONTINUOUS
10
4.83933
20
-3.23993
11
4.84307
21
-3.23243
0
LINE
8
BLACK
6
CONTINUOUS
10
4.84307
20
-3.23243
11
4.84307
21
-3.21369
0
LINE
8
BLACK
6
CONTINUOUS
10
4.84307
20
-3.21369
11
4.83933
21
-3.20619
0
LINE
8
BLACK
6
CONTINUOUS
10
4.83933
20
-3.20619
11
4.83558
21
-3.20244
0
LINE
8
BLACK
6
CONTINUOUS
10
4.83558
20
-3.20244
11
4.82808
21
-3.19869
0
LINE
8
BLACK
6
CONTINUOUS
10
4.82808
20
-3.19869
11
4.81308
21
-3.19869
0
LINE
8
BLACK
6
CONTINUOUS
10
4.81308
20
-3.19869
11
4.80558
21
-3.20244
0
LINE
8
BLACK
6
CONTINUOUS
10
4.80558
20
-3.20244
11
4.80183
21
-3.20619
0
LINE
8
BLACK
6
CONTINUOUS
10
4.80183
20
-3.20619
11
4.79808
21
-3.21369
0
LINE
8
BLACK
6
CONTINUOUS
10
4.89182
20
-3.16869
11
4.89932
21
-3.16869
0
LINE
8
BLACK
6
CONTINUOUS
10
4.89932
20
-3.16869
11
4.90682
21
-3.17244
0
LINE
8
BLACK
6
CONTINUOUS
10
4.90682
20
-3.17244
11
4.91057
21
-3.17619
0
LINE
8
BLACK
6
CONTINUOUS
10
4.91057
20
-3.17619
11
4.91432
21
-3.18369
0
LINE
8
BLACK
6
CONTINUOUS
10
4.91432
20
-3.18369
11
4.91807
21
-3.19869
0
LINE
8
BLACK
6
CONTINUOUS
10
4.91807
20
-3.19869
11
4.91807
21
-3.21744
0
LINE
8
BLACK
6
CONTINUOUS
10
4.91807
20
-3.21744
11
4.91432
21
-3.23243
0
LINE
8
BLACK
6
CONTINUOUS
10
4.91432
20
-3.23243
11
4.91057
21
-3.23993
0
LINE
8
BLACK
6
CONTINUOUS
10
4.91057
20
-3.23993
11
4.90682
21
-3.24368
0
LINE
8
BLACK
6
CONTINUOUS
10
4.90682
20
-3.24368
11
4.89932
21
-3.24743
0
LINE
8
BLACK
6
CONTINUOUS
10
4.89932
20
-3.24743
11
4.89182
21
-3.24743
0
LINE
8
BLACK
6
CONTINUOUS
10
4.89182
20
-3.24743
11
4.88432
21
-3.24368
0
LINE
8
BLACK
6
CONTINUOUS
10
4.88432
20
-3.24368
11
4.88057
21
-3.23993
0
LINE
8
BLACK
6
CONTINUOUS
10
4.88057
20
-3.23993
11
4.87682
21
-3.23243
0
LINE
8
BLACK
6
CONTINUOUS
10
4.87682
20
-3.23243
11
4.87307
21
-3.21744
0
LINE
8
BLACK
6
CONTINUOUS
10
4.87307
20
-3.21744
11
4.87307
21
-3.19869
0
LINE
8
BLACK
6
CONTINUOUS
10
4.87307
20
-3.19869
11
4.87682
21
-3.18369
0
LINE
8
BLACK
6
CONTINUOUS
10
4.87682
20
-3.18369
11
4.88057
21
-3.17619
0
LINE
8
BLACK
6
CONTINUOUS
10
4.88057
20
-3.17619
11
4.88432
21
-3.17244
0
LINE
8
BLACK
6
CONTINUOUS
10
4.88432
20
-3.17244
11
4.89182
21
-3.16869
0
LINE
8
BLACK
6
CONTINUOUS
10
4.94806
20
-3.16869
11
4.94806
21
-3.18369
0
LINE
8
BLACK
6
CONTINUOUS
10
4.97806
20
-3.16869
11
4.97806
21
-3.18369
0
LINE
8
BLACK
6
CONTINUOUS
10
5.09429
20
-3.27743
11
5.09054
21
-3.27368
0
LINE
8
BLACK
6
CONTINUOUS
10
5.09054
20
-3.27368
11
5.08304
21
-3.26243
0
LINE
8
BLACK
6
CONTINUOUS
10
5.08304
20
-3.26243
11
5.0793
21
-3.25493
0
LINE
8
BLACK
6
CONTINUOUS
10
5.0793
20
-3.25493
11
5.07555
21
-3.24368
0
LINE
8
BLACK
6
CONTINUOUS
10
5.07555
20
-3.24368
11
5.0718
21
-3.22493
0
LINE
8
BLACK
6
CONTINUOUS
10
5.0718
20
-3.22493
11
5.0718
21
-3.20994
0
LINE
8
BLACK
6
CONTINUOUS
10
5.0718
20
-3.20994
11
5.07555
21
-3.19119
0
LINE
8
BLACK
6
CONTINUOUS
10
5.07555
20
-3.19119
11
5.0793
21
-3.17994
0
LINE
8
BLACK
6
CONTINUOUS
10
5.0793
20
-3.17994
11
5.08304
21
-3.17244
0
LINE
8
BLACK
6
CONTINUOUS
10
5.08304
20
-3.17244
11
5.09054
21
-3.16119
0
LINE
8
BLACK
6
CONTINUOUS
10
5.09054
20
-3.16119
11
5.09429
21
-3.15744
0
LINE
8
BLACK
6
CONTINUOUS
10
5.12054
20
-3.17619
11
5.12429
21
-3.17244
0
LINE
8
BLACK
6
CONTINUOUS
10
5.12429
20
-3.17244
11
5.13179
21
-3.16869
0
LINE
8
BLACK
6
CONTINUOUS
10
5.13179
20
-3.16869
11
5.15054
21
-3.16869
0
LINE
8
BLACK
6
CONTINUOUS
10
5.15054
20
-3.16869
11
5.15804
21
-3.17244
0
LINE
8
BLACK
6
CONTINUOUS
10
5.15804
20
-3.17244
11
5.16178
21
-3.17619
0
LINE
8
BLACK
6
CONTINUOUS
10
5.16178
20
-3.17619
11
5.16553
21
-3.18369
0
LINE
8
BLACK
6
CONTINUOUS
10
5.16553
20
-3.18369
11
5.16553
21
-3.19119
0
LINE
8
BLACK
6
CONTINUOUS
10
5.16553
20
-3.19119
11
5.16178
21
-3.20244
0
LINE
8
BLACK
6
CONTINUOUS
10
5.16178
20
-3.20244
11
5.11679
21
-3.24743
0
LINE
8
BLACK
6
CONTINUOUS
10
5.11679
20
-3.24743
11
5.16553
21
-3.24743
0
LINE
8
BLACK
6
CONTINUOUS
10
5.25927
20
-3.24743
11
5.25927
21
-3.16869
0
LINE
8
BLACK
6
CONTINUOUS
10
5.29302
20
-3.24743
11
5.29302
21
-3.20619
0
LINE
8
BLACK
6
CONTINUOUS
10
5.29302
20
-3.20619
11
5.28927
21
-3.19869
0
LINE
8
BLACK
6
CONTINUOUS
10
5.28927
20
-3.19869
11
5.28177
21
-3.19494
0
LINE
8
BLACK
6
CONTINUOUS
10
5.28177
20
-3.19494
11
5.27052
21
-3.19494
0
LINE
8
BLACK
6
CONTINUOUS
10
5.27052
20
-3.19494
11
5.26302
21
-3.19869
0
LINE
8
BLACK
6
CONTINUOUS
10
5.26302
20
-3.19869
11
5.25927
21
-3.20244
0
LINE
8
BLACK
6
CONTINUOUS
10
5.34176
20
-3.24743
11
5.33426
21
-3.24368
0
LINE
8
BLACK
6
CONTINUOUS
10
5.33426
20
-3.24368
11
5.33051
21
-3.23993
0
LINE
8
BLACK
6
CONTINUOUS
10
5.33051
20
-3.23993
11
5.32676
21
-3.23243
0
LINE
8
BLACK
6
CONTINUOUS
10
5.32676
20
-3.23243
11
5.32676
21
-3.20994
0
LINE
8
BLACK
6
CONTINUOUS
10
5.32676
20
-3.20994
11
5.33051
21
-3.20244
0
LINE
8
BLACK
6
CONTINUOUS
10
5.33051
20
-3.20244
11
5.33426
21
-3.19869
0
LINE
8
BLACK
6
CONTINUOUS
10
5.33426
20
-3.19869
11
5.34176
21
-3.19494
0
LINE
8
BLACK
6
CONTINUOUS
10
5.34176
20
-3.19494
11
5.35301
21
-3.19494
0
LINE
8
BLACK
6
CONTINUOUS
10
5.35301
20
-3.19494
11
5.36051
21
-3.19869
0
LINE
8
BLACK
6
CONTINUOUS
10
5.36051
20
-3.19869
11
5.36426
21
-3.20244
0
LINE
8
BLACK
6
CONTINUOUS
10
5.36426
20
-3.20244
11
5.36801
21
-3.20994
0
LINE
8
BLACK
6
CONTINUOUS
10
5.36801
20
-3.20994
11
5.36801
21
-3.23243
0
LINE
8
BLACK
6
CONTINUOUS
10
5.36801
20
-3.23243
11
5.36426
21
-3.23993
0
LINE
8
BLACK
6
CONTINUOUS
10
5.36426
20
-3.23993
11
5.36051
21
-3.24368
0
LINE
8
BLACK
6
CONTINUOUS
10
5.36051
20
-3.24368
11
5.35301
21
-3.24743
0
LINE
8
BLACK
6
CONTINUOUS
10
5.35301
20
-3.24743
11
5.34176
21
-3.24743
0
LINE
8
BLACK
6
CONTINUOUS
10
5.413
20
-3.24743
11
5.4055
21
-3.24368
0
LINE
8
BLACK
6
CONTINUOUS
10
5.4055
20
-3.24368
11
5.40175
21
-3.23618
0
LINE
8
BLACK
6
CONTINUOUS
10
5.40175
20
-3.23618
11
5.40175
21
-3.16869
0
LINE
8
BLACK
6
CONTINUOUS
10
5.473
20
-3.24368
11
5.4655
21
-3.24743
0
LINE
8
BLACK
6
CONTINUOUS
10
5.4655
20
-3.24743
11
5.4505
21
-3.24743
0
LINE
8
BLACK
6
CONTINUOUS
10
5.4505
20
-3.24743
11
5.443
21
-3.24368
0
LINE
8
BLACK
6
CONTINUOUS
10
5.443
20
-3.24368
11
5.43925
21
-3.23618
0
LINE
8
BLACK
6
CONTINUOUS
10
5.43925
20
-3.23618
11
5.43925
21
-3.20619
0
LINE
8
BLACK
6
CONTINUOUS
10
5.43925
20
-3.20619
11
5.443
21
-3.19869
0
LINE
8
BLACK
6
CONTINUOUS
10
5.443
20
-3.19869
11
5.4505
21
-3.19494
0
LINE
8
BLACK
6
CONTINUOUS
10
5.4505
20
-3.19494
11
5.4655
21
-3.19494
0
LINE
8
BLACK
6
CONTINUOUS
10
5.4655
20
-3.19494
11
5.473
21
-3.19869
0
LINE
8
BLACK
6
CONTINUOUS
10
5.473
20
-3.19869
11
5.47675
21
-3.20619
0
LINE
8
BLACK
6
CONTINUOUS
10
5.47675
20
-3.20619
11
5.47675
21
-3.21369
0
LINE
8
BLACK
6
CONTINUOUS
10
5.47675
20
-3.21369
11
5.43925
21
-3.22118
0
LINE
8
BLACK
6
CONTINUOUS
10
5.50674
20
-3.24368
11
5.51424
21
-3.24743
0
LINE
8
BLACK
6
CONTINUOUS
10
5.51424
20
-3.24743
11
5.52924
21
-3.24743
0
LINE
8
BLACK
6
CONTINUOUS
10
5.52924
20
-3.24743
11
5.53674
21
-3.24368
0
LINE
8
BLACK
6
CONTINUOUS
10
5.53674
20
-3.24368
11
5.54049
21
-3.23618
0
LINE
8
BLACK
6
CONTINUOUS
10
5.54049
20
-3.23618
11
5.54049
21
-3.23243
0
LINE
8
BLACK
6
CONTINUOUS
10
5.54049
20
-3.23243
11
5.53674
21
-3.22493
0
LINE
8
BLACK
6
CONTINUOUS
10
5.53674
20
-3.22493
11
5.52924
21
-3.22118
0
LINE
8
BLACK
6
CONTINUOUS
10
5.52924
20
-3.22118
11
5.51799
21
-3.22118
0
LINE
8
BLACK
6
CONTINUOUS
10
5.51799
20
-3.22118
11
5.51049
21
-3.21744
0
LINE
8
BLACK
6
CONTINUOUS
10
5.51049
20
-3.21744
11
5.50674
21
-3.20994
0
LINE
8
BLACK
6
CONTINUOUS
10
5.50674
20
-3.20994
11
5.50674
21
-3.20619
0
LINE
8
BLACK
6
CONTINUOUS
10
5.50674
20
-3.20619
11
5.51049
21
-3.19869
0
LINE
8
BLACK
6
CONTINUOUS
10
5.51049
20
-3.19869
11
5.51799
21
-3.19494
0
LINE
8
BLACK
6
CONTINUOUS
10
5.51799
20
-3.19494
11
5.52924
21
-3.19494
0
LINE
8
BLACK
6
CONTINUOUS
10
5.52924
20
-3.19494
11
5.53674
21
-3.19869
0
LINE
8
BLACK
6
CONTINUOUS
10
5.56673
20
-3.27743
11
5.57048
21
-3.27368
0
LINE
8
BLACK
6
CONTINUOUS
10
5.57048
20
-3.27368
11
5.57798
21
-3.26243
0
LINE
8
BLACK
6
CONTINUOUS
10
5.57798
20
-3.26243
11
5.58173
21
-3.25493
0
LINE
8
BLACK
6
CONTINUOUS
10
5.58173
20
-3.25493
11
5.58548
21
-3.24368
0
LINE
8
BLACK
6
CONTINUOUS
10
5.58548
20
-3.24368
11
5.58923
21
-3.22493
0
LINE
8
BLACK
6
CONTINUOUS
10
5.58923
20
-3.22493
11
5.58923
21
-3.20994
0
LINE
8
BLACK
6
CONTINUOUS
10
5.58923
20
-3.20994
11
5.58548
21
-3.19119
0
LINE
8
BLACK
6
CONTINUOUS
10
5.58548
20
-3.19119
11
5.58173
21
-3.17994
0
LINE
8
BLACK
6
CONTINUOUS
10
5.58173
20
-3.17994
11
5.57798
21
-3.17244
0
LINE
8
BLACK
6
CONTINUOUS
10
5.57798
20
-3.17244
11
5.57048
21
-3.16119
0
LINE
8
BLACK
6
CONTINUOUS
10
5.57048
20
-3.16119
11
5.56673
21
-3.15744
0
LINE
8
BLACK
6
CONTINUOUS
10
5.70922
20
-3.27743
11
5.70547
21
-3.27368
0
LINE
8
BLACK
6
CONTINUOUS
10
5.70547
20
-3.27368
11
5.69797
21
-3.26243
0
LINE
8
BLACK
6
CONTINUOUS
10
5.69797
20
-3.26243
11
5.69422
21
-3.25493
0
LINE
8
BLACK
6
CONTINUOUS
10
5.69422
20
-3.25493
11
5.69047
21
-3.24368
0
LINE
8
BLACK
6
CONTINUOUS
10
5.69047
20
-3.24368
11
5.68672
21
-3.22493
0
LINE
8
BLACK
6
CONTINUOUS
10
5.68672
20
-3.22493
11
5.68672
21
-3.20994
0
LINE
8
BLACK
6
CONTINUOUS
10
5.68672
20
-3.20994
11
5.69047
21
-3.19119
0
LINE
8
BLACK
6
CONTINUOUS
10
5.69047
20
-3.19119
11
5.69422
21
-3.17994
0
LINE
8
BLACK
6
CONTINUOUS
10
5.69422
20
-3.17994
11
5.69797
21
-3.17244
0
LINE
8
BLACK
6
CONTINUOUS
10
5.69797
20
-3.17244
11
5.70547
21
-3.16119
0
LINE
8
BLACK
6
CONTINUOUS
10
5.70547
20
-3.16119
11
5.70922
21
-3.15744
0
LINE
8
BLACK
6
CONTINUOUS
10
5.73921
20
-3.19494
11
5.73921
21
-3.24743
0
LINE
8
BLACK
6
CONTINUOUS
10
5.73921
20
-3.20244
11
5.74296
21
-3.19869
0
LINE
8
BLACK
6
CONTINUOUS
10
5.74296
20
-3.19869
11
5.75046
21
-3.19494
0
LINE
8
BLACK
6
CONTINUOUS
10
5.75046
20
-3.19494
11
5.76171
21
-3.19494
0
LINE
8
BLACK
6
CONTINUOUS
10
5.76171
20
-3.19494
11
5.76921
21
-3.19869
0
LINE
8
BLACK
6
CONTINUOUS
10
5.76921
20
-3.19869
11
5.77296
21
-3.20619
0
LINE
8
BLACK
6
CONTINUOUS
10
5.77296
20
-3.20619
11
5.77296
21
-3.24743
0
LINE
8
BLACK
6
CONTINUOUS
10
5.8217
20
-3.24743
11
5.8142
21
-3.24368
0
LINE
8
BLACK
6
CONTINUOUS
10
5.8142
20
-3.24368
11
5.81045
21
-3.23993
0
LINE
8
BLACK
6
CONTINUOUS
10
5.81045
20
-3.23993
11
5.8067
21
-3.23243
0
LINE
8
BLACK
6
CONTINUOUS
10
5.8067
20
-3.23243
11
5.8067
21
-3.20994
0
LINE
8
BLACK
6
CONTINUOUS
10
5.8067
20
-3.20994
11
5.81045
21
-3.20244
0
LINE
8
BLACK
6
CONTINUOUS
10
5.81045
20
-3.20244
11
5.8142
21
-3.19869
0
LINE
8
BLACK
6
CONTINUOUS
10
5.8142
20
-3.19869
11
5.8217
21
-3.19494
0
LINE
8
BLACK
6
CONTINUOUS
10
5.8217
20
-3.19494
11
5.83295
21
-3.19494
0
LINE
8
BLACK
6
CONTINUOUS
10
5.83295
20
-3.19494
11
5.84045
21
-3.19869
0
LINE
8
BLACK
6
CONTINUOUS
10
5.84045
20
-3.19869
11
5.8442
21
-3.20244
0
LINE
8
BLACK
6
CONTINUOUS
10
5.8442
20
-3.20244
11
5.84795
21
-3.20994
0
LINE
8
BLACK
6
CONTINUOUS
10
5.84795
20
-3.20994
11
5.84795
21
-3.23243
0
LINE
8
BLACK
6
CONTINUOUS
10
5.84795
20
-3.23243
11
5.8442
21
-3.23993
0
LINE
8
BLACK
6
CONTINUOUS
10
5.8442
20
-3.23993
11
5.84045
21
-3.24368
0
LINE
8
BLACK
6
CONTINUOUS
10
5.84045
20
-3.24368
11
5.83295
21
-3.24743
0
LINE
8
BLACK
6
CONTINUOUS
10
5.83295
20
-3.24743
11
5.8217
21
-3.24743
0
LINE
8
BLACK
6
CONTINUOUS
10
5.87045
20
-3.19494
11
5.90044
21
-3.19494
0
LINE
8
BLACK
6
CONTINUOUS
10
5.88169
20
-3.16869
11
5.88169
21
-3.23618
0
LINE
8
BLACK
6
CONTINUOUS
10
5.88169
20
-3.23618
11
5.88544
21
-3.24368
0
LINE
8
BLACK
6
CONTINUOUS
10
5.88544
20
-3.24368
11
5.89294
21
-3.24743
0
LINE
8
BLACK
6
CONTINUOUS
10
5.89294
20
-3.24743
11
5.90044
21
-3.24743
0
LINE
8
BLACK
6
CONTINUOUS
10
5.98668
20
-3.19494
11
5.98668
21
-3.27368
0
LINE
8
BLACK
6
CONTINUOUS
10
5.98668
20
-3.19869
11
5.99418
21
-3.19494
0
LINE
8
BLACK
6
CONTINUOUS
10
5.99418
20
-3.19494
11
6.00918
21
-3.19494
0
LINE
8
BLACK
6
CONTINUOUS
10
6.00918
20
-3.19494
11
6.01668
21
-3.19869
0
LINE
8
BLACK
6
CONTINUOUS
10
6.01668
20
-3.19869
11
6.02043
21
-3.20244
0
LINE
8
BLACK
6
CONTINUOUS
10
6.02043
20
-3.20244
11
6.02418
21
-3.20994
0
LINE
8
BLACK
6
CONTINUOUS
10
6.02418
20
-3.20994
11
6.02418
21
-3.23243
0
LINE
8
BLACK
6
CONTINUOUS
10
6.02418
20
-3.23243
11
6.02043
21
-3.23993
0
LINE
8
BLACK
6
CONTINUOUS
10
6.02043
20
-3.23993
11
6.01668
21
-3.24368
0
LINE
8
BLACK
6
CONTINUOUS
10
6.01668
20
-3.24368
11
6.00918
21
-3.24743
0
LINE
8
BLACK
6
CONTINUOUS
10
6.00918
20
-3.24743
11
5.99418
21
-3.24743
0
LINE
8
BLACK
6
CONTINUOUS
10
5.99418
20
-3.24743
11
5.98668
21
-3.24368
0
LINE
8
BLACK
6
CONTINUOUS
10
6.06917
20
-3.24743
11
6.06167
21
-3.24368
0
LINE
8
BLACK
6
CONTINUOUS
10
6.06167
20
-3.24368
11
6.05792
21
-3.23618
0
LINE
8
BLACK
6
CONTINUOUS
10
6.05792
20
-3.23618
11
6.05792
21
-3.16869
0
LINE
8
BLACK
6
CONTINUOUS
10
6.13291
20
-3.24743
11
6.13291
21
-3.20619
0
LINE
8
BLACK
6
CONTINUOUS
10
6.13291
20
-3.20619
11
6.12916
21
-3.19869
0
LINE
8
BLACK
6
CONTINUOUS
10
6.12916
20
-3.19869
11
6.12166
21
-3.19494
0
LINE
8
BLACK
6
CONTINUOUS
10
6.12166
20
-3.19494
11
6.10667
21
-3.19494
0
LINE
8
BLACK
6
CONTINUOUS
10
6.10667
20
-3.19494
11
6.09917
21
-3.19869
0
LINE
8
BLACK
6
CONTINUOUS
10
6.13291
20
-3.24368
11
6.12541
21
-3.24743
0
LINE
8
BLACK
6
CONTINUOUS
10
6.12541
20
-3.24743
11
6.10667
21
-3.24743
0
LINE
8
BLACK
6
CONTINUOUS
10
6.10667
20
-3.24743
11
6.09917
21
-3.24368
0
LINE
8
BLACK
6
CONTINUOUS
10
6.09917
20
-3.24368
11
6.09542
21
-3.23618
0
LINE
8
BLACK
6
CONTINUOUS
10
6.09542
20
-3.23618
11
6.09542
21
-3.22868
0
LINE
8
BLACK
6
CONTINUOUS
10
6.09542
20
-3.22868
11
6.09917
21
-3.22118
0
LINE
8
BLACK
6
CONTINUOUS
10
6.09917
20
-3.22118
11
6.10667
21
-3.21744
0
LINE
8
BLACK
6
CONTINUOUS
10
6.10667
20
-3.21744
11
6.12541
21
-3.21744
0
LINE
8
BLACK
6
CONTINUOUS
10
6.12541
20
-3.21744
11
6.13291
21
-3.21369
0
LINE
8
BLACK
6
CONTINUOUS
10
6.15916
20
-3.19494
11
6.18916
21
-3.19494
0
LINE
8
BLACK
6
CONTINUOUS
10
6.17041
20
-3.16869
11
6.17041
21
-3.23618
0
LINE
8
BLACK
6
CONTINUOUS
10
6.17041
20
-3.23618
11
6.17416
21
-3.24368
0
LINE
8
BLACK
6
CONTINUOUS
10
6.17416
20
-3.24368
11
6.18166
21
-3.24743
0
LINE
8
BLACK
6
CONTINUOUS
10
6.18166
20
-3.24743
11
6.18916
21
-3.24743
0
LINE
8
BLACK
6
CONTINUOUS
10
6.2454
20
-3.24368
11
6.2379
21
-3.24743
0
LINE
8
BLACK
6
CONTINUOUS
10
6.2379
20
-3.24743
11
6.2229
21
-3.24743
0
LINE
8
BLACK
6
CONTINUOUS
10
6.2229
20
-3.24743
11
6.2154
21
-3.24368
0
LINE
8
BLACK
6
CONTINUOUS
10
6.2154
20
-3.24368
11
6.21165
21
-3.23618
0
LINE
8
BLACK
6
CONTINUOUS
10
6.21165
20
-3.23618
11
6.21165
21
-3.20619
0
LINE
8
BLACK
6
CONTINUOUS
10
6.21165
20
-3.20619
11
6.2154
21
-3.19869
0
LINE
8
BLACK
6
CONTINUOUS
10
6.2154
20
-3.19869
11
6.2229
21
-3.19494
0
LINE
8
BLACK
6
CONTINUOUS
10
6.2229
20
-3.19494
11
6.2379
21
-3.19494
0
LINE
8
BLACK
6
CONTINUOUS
10
6.2379
20
-3.19494
11
6.2454
21
-3.19869
0
LINE
8
BLACK
6
CONTINUOUS
10
6.2454
20
-3.19869
11
6.24915
21
-3.20619
0
LINE
8
BLACK
6
CONTINUOUS
10
6.24915
20
-3.20619
11
6.24915
21
-3.21369
0
LINE
8
BLACK
6
CONTINUOUS
10
6.24915
20
-3.21369
11
6.21165
21
-3.22118
0
LINE
8
BLACK
6
CONTINUOUS
10
6.31664
20
-3.24743
11
6.31664
21
-3.16869
0
LINE
8
BLACK
6
CONTINUOUS
10
6.31664
20
-3.24368
11
6.30914
21
-3.24743
0
LINE
8
BLACK
6
CONTINUOUS
10
6.30914
20
-3.24743
11
6.29414
21
-3.24743
0
LINE
8
BLACK
6
CONTINUOUS
10
6.29414
20
-3.24743
11
6.28664
21
-3.24368
0
LINE
8
BLACK
6
CONTINUOUS
10
6.28664
20
-3.24368
11
6.28289
21
-3.23993
0
LINE
8
BLACK
6
CONTINUOUS
10
6.28289
20
-3.23993
11
6.27915
21
-3.23243
0
LINE
8
BLACK
6
CONTINUOUS
10
6.27915
20
-3.23243
11
6.27915
21
-3.20994
0
LINE
8
BLACK
6
CONTINUOUS
10
6.27915
20
-3.20994
11
6.28289
21
-3.20244
0
LINE
8
BLACK
6
CONTINUOUS
10
6.28289
20
-3.20244
11
6.28664
21
-3.19869
0
LINE
8
BLACK
6
CONTINUOUS
10
6.28664
20
-3.19869
11
6.29414
21
-3.19494
0
LINE
8
BLACK
6
CONTINUOUS
10
6.29414
20
-3.19494
11
6.30914
21
-3.19494
0
LINE
8
BLACK
6
CONTINUOUS
10
6.30914
20
-3.19494
11
6.31664
21
-3.19869
0
LINE
8
BLACK
6
CONTINUOUS
10
6.34664
20
-3.27743
11
6.35039
21
-3.27368
0
LINE
8
BLACK
6
CONTINUOUS
10
6.35039
20
-3.27368
11
6.35789
21
-3.26243
0
LINE
8
BLACK
6
CONTINUOUS
10
6.35789
20
-3.26243
11
6.36163
21
-3.25493
0
LINE
8
BLACK
6
CONTINUOUS
10
6.36163
20
-3.25493
11
6.36538
21
-3.24368
0
LINE
8
BLACK
6
CONTINUOUS
10
6.36538
20
-3.24368
11
6.36913
21
-3.22493
0
LINE
8
BLACK
6
CONTINUOUS
10
6.36913
20
-3.22493
11
6.36913
21
-3.20994
0
LINE
8
BLACK
6
CONTINUOUS
10
6.36913
20
-3.20994
11
6.36538
21
-3.19119
0
LINE
8
BLACK
6
CONTINUOUS
10
6.36538
20
-3.19119
11
6.36163
21
-3.17994
0
LINE
8
BLACK
6
CONTINUOUS
10
6.36163
20
-3.17994
11
6.35789
21
-3.17244
0
LINE
8
BLACK
6
CONTINUOUS
10
6.35789
20
-3.17244
11
6.35039
21
-3.16119
0
LINE
8
BLACK
6
CONTINUOUS
10
6.35039
20
-3.16119
11
6.34664
21
-3.15744
  0
ENDSEC
  0
EOF
