%TF.GenerationSoftware,KiCad,Pcbnew,(6.0.7)*%
%TF.CreationDate,2022-12-20T14:52:23+01:00*%
%TF.ProjectId,bsmce04u-pp_GRBL_mod,62736d63-6530-4347-952d-70705f475242,rev?*%
%TF.SameCoordinates,Original*%
%TF.FileFunction,Soldermask,Top*%
%TF.FilePolarity,Negative*%
%FSLAX46Y46*%
G04 Gerber Fmt 4.6, Leading zero omitted, Abs format (unit mm)*
G04 Created by KiCad (PCBNEW (6.0.7)) date 2022-12-20 14:52:23*
%MOMM*%
%LPD*%
G01*
G04 APERTURE LIST*
G04 Aperture macros list*
%AMRoundRect*
0 Rectangle with rounded corners*
0 $1 Rounding radius*
0 $2 $3 $4 $5 $6 $7 $8 $9 X,Y pos of 4 corners*
0 Add a 4 corners polygon primitive as box body*
4,1,4,$2,$3,$4,$5,$6,$7,$8,$9,$2,$3,0*
0 Add four circle primitives for the rounded corners*
1,1,$1+$1,$2,$3*
1,1,$1+$1,$4,$5*
1,1,$1+$1,$6,$7*
1,1,$1+$1,$8,$9*
0 Add four rect primitives between the rounded corners*
20,1,$1+$1,$2,$3,$4,$5,0*
20,1,$1+$1,$4,$5,$6,$7,0*
20,1,$1+$1,$6,$7,$8,$9,0*
20,1,$1+$1,$8,$9,$2,$3,0*%
G04 Aperture macros list end*
%TA.AperFunction,Profile*%
%ADD10C,0.100000*%
%TD*%
%ADD11RoundRect,0.250000X-0.625000X0.312500X-0.625000X-0.312500X0.625000X-0.312500X0.625000X0.312500X0*%
%ADD12RoundRect,0.150000X-0.587500X-0.150000X0.587500X-0.150000X0.587500X0.150000X-0.587500X0.150000X0*%
%ADD13R,1.700000X1.700000*%
%ADD14O,1.700000X1.700000*%
%ADD15RoundRect,0.150000X0.587500X0.150000X-0.587500X0.150000X-0.587500X-0.150000X0.587500X-0.150000X0*%
%ADD16R,1.560000X0.650000*%
%ADD17C,3.200000*%
%ADD18RoundRect,0.250000X0.312500X0.625000X-0.312500X0.625000X-0.312500X-0.625000X0.312500X-0.625000X0*%
%ADD19RoundRect,0.150000X-0.150000X0.587500X-0.150000X-0.587500X0.150000X-0.587500X0.150000X0.587500X0*%
G04 APERTURE END LIST*
D10*
X161544000Y-33020000D02*
X161544000Y-69850000D01*
X93726000Y-69850000D02*
X93726000Y-33020000D01*
X93726000Y-33020000D02*
X161544000Y-33020000D01*
X161544000Y-69850000D02*
X93726000Y-69850000D01*
D11*
%TO.C,R8*%
X154940000Y-54610000D03*
X154940000Y-57535000D03*
%TD*%
D12*
%TO.C,Q1*%
X107647500Y-56200000D03*
X107647500Y-58100000D03*
X109522500Y-57150000D03*
%TD*%
D13*
%TO.C,J4*%
X155448000Y-40132000D03*
D14*
X155448000Y-42672000D03*
X155448000Y-45212000D03*
X155448000Y-47752000D03*
%TD*%
D13*
%TO.C,J5*%
X159004000Y-40132000D03*
D14*
X159004000Y-42672000D03*
X159004000Y-45212000D03*
X159004000Y-47752000D03*
X159004000Y-50292000D03*
X159004000Y-52832000D03*
%TD*%
D15*
%TO.C,Q4*%
X119682500Y-63180000D03*
X119682500Y-61280000D03*
X117807500Y-62230000D03*
%TD*%
D11*
%TO.C,R5*%
X123190000Y-60325000D03*
X123190000Y-63250000D03*
%TD*%
D13*
%TO.C,J2*%
X149860000Y-44328000D03*
D14*
X149860000Y-41788000D03*
%TD*%
D15*
%TO.C,Q3*%
X109522500Y-63180000D03*
X109522500Y-61280000D03*
X107647500Y-62230000D03*
%TD*%
D13*
%TO.C,J3*%
X100965000Y-59055000D03*
D14*
X98425000Y-59055000D03*
X95885000Y-59055000D03*
%TD*%
D11*
%TO.C,R9*%
X157988000Y-60960000D03*
X157988000Y-63885000D03*
%TD*%
D16*
%TO.C,U2*%
X136445000Y-47945000D03*
X136445000Y-48895000D03*
X136445000Y-49845000D03*
X139145000Y-49845000D03*
X139145000Y-47945000D03*
%TD*%
D13*
%TO.C,C_BS1*%
X98425000Y-67305000D03*
D14*
X100965000Y-67305000D03*
X103505000Y-67305000D03*
X106045000Y-67305000D03*
X108585000Y-67305000D03*
X111125000Y-67305000D03*
X113665000Y-67305000D03*
X116205000Y-67305000D03*
X118745000Y-67305000D03*
X121285000Y-67305000D03*
X123825000Y-67305000D03*
X126365000Y-67305000D03*
X128905000Y-67305000D03*
X131445000Y-67305000D03*
X133985000Y-67305000D03*
X136525000Y-67305000D03*
X139065000Y-67305000D03*
X141605000Y-67305000D03*
X144145000Y-67305000D03*
X146685000Y-67305000D03*
X149225000Y-67305000D03*
%TD*%
D12*
%TO.C,Q2*%
X117807500Y-56200000D03*
X117807500Y-58100000D03*
X119682500Y-57150000D03*
%TD*%
D17*
%TO.C,H2*%
X97790000Y-52070000D03*
%TD*%
D18*
%TO.C,R1*%
X110047500Y-52070000D03*
X107122500Y-52070000D03*
%TD*%
D11*
%TO.C,R4*%
X112395000Y-60325000D03*
X112395000Y-63250000D03*
%TD*%
D17*
%TO.C,H1*%
X147955000Y-52070000D03*
%TD*%
D18*
%TO.C,R2*%
X120400000Y-52070000D03*
X117475000Y-52070000D03*
%TD*%
D19*
%TO.C,Q5*%
X153350000Y-61038500D03*
X151450000Y-61038500D03*
X152400000Y-62913500D03*
%TD*%
D16*
%TO.C,U1*%
X139065000Y-44130000D03*
X139065000Y-43180000D03*
X139065000Y-42230000D03*
X136365000Y-42230000D03*
X136365000Y-44130000D03*
%TD*%
%TO.C,U3*%
X130015000Y-47945000D03*
X130015000Y-48895000D03*
X130015000Y-49845000D03*
X132715000Y-49845000D03*
X132715000Y-47945000D03*
%TD*%
D18*
%TO.C,R7*%
X132907500Y-42545000D03*
X129982500Y-42545000D03*
%TD*%
D13*
%TO.C,J1*%
X96520000Y-35560000D03*
D14*
X99060000Y-35560000D03*
X101600000Y-35560000D03*
X104140000Y-35560000D03*
X106680000Y-35560000D03*
X109220000Y-35560000D03*
X111760000Y-35560000D03*
X114300000Y-35560000D03*
X116840000Y-35560000D03*
X119380000Y-35560000D03*
X121920000Y-35560000D03*
X124460000Y-35560000D03*
X127000000Y-35560000D03*
X129540000Y-35560000D03*
X132080000Y-35560000D03*
X134620000Y-35560000D03*
X137160000Y-35560000D03*
X139700000Y-35560000D03*
X142240000Y-35560000D03*
X144780000Y-35560000D03*
X144780000Y-38100000D03*
X142240000Y-38100000D03*
X139700000Y-38100000D03*
X137160000Y-38100000D03*
X134620000Y-38100000D03*
X132080000Y-38100000D03*
X129540000Y-38100000D03*
X127000000Y-38100000D03*
X124460000Y-38100000D03*
X121920000Y-38100000D03*
X119380000Y-38100000D03*
X116840000Y-38100000D03*
X114300000Y-38100000D03*
X111760000Y-38100000D03*
X109220000Y-38100000D03*
X106680000Y-38100000D03*
X104140000Y-38100000D03*
X101600000Y-38100000D03*
X99060000Y-38100000D03*
X96520000Y-38100000D03*
%TD*%
M02*
