%TF.GenerationSoftware,KiCad,Pcbnew,(6.0.7)*%
%TF.CreationDate,2022-12-20T14:52:23+01:00*%
%TF.ProjectId,bsmce04u-pp_GRBL_mod,62736d63-6530-4347-952d-70705f475242,rev?*%
%TF.SameCoordinates,Original*%
%TF.FileFunction,Copper,L1,Top*%
%TF.FilePolarity,Positive*%
%FSLAX46Y46*%
G04 Gerber Fmt 4.6, Leading zero omitted, Abs format (unit mm)*
G04 Created by KiCad (PCBNEW (6.0.7)) date 2022-12-20 14:52:23*
%MOMM*%
%LPD*%
G01*
G04 APERTURE LIST*
G04 Aperture macros list*
%AMRoundRect*
0 Rectangle with rounded corners*
0 $1 Rounding radius*
0 $2 $3 $4 $5 $6 $7 $8 $9 X,Y pos of 4 corners*
0 Add a 4 corners polygon primitive as box body*
4,1,4,$2,$3,$4,$5,$6,$7,$8,$9,$2,$3,0*
0 Add four circle primitives for the rounded corners*
1,1,$1+$1,$2,$3*
1,1,$1+$1,$4,$5*
1,1,$1+$1,$6,$7*
1,1,$1+$1,$8,$9*
0 Add four rect primitives between the rounded corners*
20,1,$1+$1,$2,$3,$4,$5,0*
20,1,$1+$1,$4,$5,$6,$7,0*
20,1,$1+$1,$6,$7,$8,$9,0*
20,1,$1+$1,$8,$9,$2,$3,0*%
G04 Aperture macros list end*
%TA.AperFunction,Profile*%
%ADD10C,0.100000*%
%TD*%
%TA.AperFunction,SMDPad,CuDef*%
%ADD11RoundRect,0.250000X-0.625000X0.312500X-0.625000X-0.312500X0.625000X-0.312500X0.625000X0.312500X0*%
%TD*%
%TA.AperFunction,SMDPad,CuDef*%
%ADD12RoundRect,0.150000X-0.587500X-0.150000X0.587500X-0.150000X0.587500X0.150000X-0.587500X0.150000X0*%
%TD*%
%TA.AperFunction,ComponentPad*%
%ADD13R,1.700000X1.700000*%
%TD*%
%TA.AperFunction,ComponentPad*%
%ADD14O,1.700000X1.700000*%
%TD*%
%TA.AperFunction,SMDPad,CuDef*%
%ADD15RoundRect,0.150000X0.587500X0.150000X-0.587500X0.150000X-0.587500X-0.150000X0.587500X-0.150000X0*%
%TD*%
%TA.AperFunction,SMDPad,CuDef*%
%ADD16R,1.560000X0.650000*%
%TD*%
%TA.AperFunction,SMDPad,CuDef*%
%ADD17RoundRect,0.250000X0.312500X0.625000X-0.312500X0.625000X-0.312500X-0.625000X0.312500X-0.625000X0*%
%TD*%
%TA.AperFunction,SMDPad,CuDef*%
%ADD18RoundRect,0.150000X-0.150000X0.587500X-0.150000X-0.587500X0.150000X-0.587500X0.150000X0.587500X0*%
%TD*%
%TA.AperFunction,ViaPad*%
%ADD19C,1.000000*%
%TD*%
%TA.AperFunction,Conductor*%
%ADD20C,0.700000*%
%TD*%
%TA.AperFunction,Conductor*%
%ADD21C,0.500000*%
%TD*%
G04 APERTURE END LIST*
D10*
X161544000Y-33020000D02*
X161544000Y-69850000D01*
X93726000Y-69850000D02*
X93726000Y-33020000D01*
X93726000Y-33020000D02*
X161544000Y-33020000D01*
X161544000Y-69850000D02*
X93726000Y-69850000D01*
D11*
%TO.P,R8,1*%
%TO.N,/HS541_~{OE1}*%
X154940000Y-54610000D03*
%TO.P,R8,2*%
%TO.N,Net-(Q5-Pad1)*%
X154940000Y-57535000D03*
%TD*%
D12*
%TO.P,Q1,1,B*%
%TO.N,Net-(Q1-Pad1)*%
X107647500Y-56200000D03*
%TO.P,Q1,2,E*%
%TO.N,GND*%
X107647500Y-58100000D03*
%TO.P,Q1,3,C*%
%TO.N,Net-(Q1-Pad3)*%
X109522500Y-57150000D03*
%TD*%
D13*
%TO.P,J4,1,Pin_1*%
%TO.N,GND*%
X155448000Y-40132000D03*
D14*
%TO.P,J4,2,Pin_2*%
%TO.N,/STlink_SWCLK*%
X155448000Y-42672000D03*
%TO.P,J4,3,Pin_3*%
%TO.N,/STlink_SWDIO*%
X155448000Y-45212000D03*
%TO.P,J4,4,Pin_4*%
%TO.N,/STlink_target3V3*%
X155448000Y-47752000D03*
%TD*%
D13*
%TO.P,J5,1,Pin_1*%
%TO.N,/STlink_target3V3*%
X159004000Y-40132000D03*
D14*
%TO.P,J5,2,Pin_2*%
%TO.N,/STlink_SWCLK*%
X159004000Y-42672000D03*
%TO.P,J5,3,Pin_3*%
%TO.N,GND*%
X159004000Y-45212000D03*
%TO.P,J5,4,Pin_4*%
%TO.N,/STlink_SWDIO*%
X159004000Y-47752000D03*
%TO.P,J5,5,Pin_5*%
%TO.N,/NRST_BP*%
X159004000Y-50292000D03*
%TO.P,J5,6,Pin_6*%
%TO.N,/STlink_SWO*%
X159004000Y-52832000D03*
%TD*%
D15*
%TO.P,Q4,1,B*%
%TO.N,Net-(Q4-Pad1)*%
X119682500Y-63180000D03*
%TO.P,Q4,2,E*%
%TO.N,+3V3*%
X119682500Y-61280000D03*
%TO.P,Q4,3,C*%
%TO.N,/Out1*%
X117807500Y-62230000D03*
%TD*%
D11*
%TO.P,R5,1*%
%TO.N,Net-(Q2-Pad3)*%
X123190000Y-60325000D03*
%TO.P,R5,2*%
%TO.N,Net-(Q4-Pad1)*%
X123190000Y-63250000D03*
%TD*%
D13*
%TO.P,J2,1,Pin_1*%
%TO.N,GND*%
X149860000Y-44328000D03*
D14*
%TO.P,J2,2,Pin_2*%
%TO.N,+5V*%
X149860000Y-41788000D03*
%TD*%
D15*
%TO.P,Q3,1,B*%
%TO.N,Net-(Q3-Pad1)*%
X109522500Y-63180000D03*
%TO.P,Q3,2,E*%
%TO.N,+3V3*%
X109522500Y-61280000D03*
%TO.P,Q3,3,C*%
%TO.N,/Out2*%
X107647500Y-62230000D03*
%TD*%
D13*
%TO.P,J3,1,Pin_1*%
%TO.N,/NRST_BP*%
X100965000Y-59055000D03*
D14*
%TO.P,J3,2,Pin_2*%
%TO.N,GND*%
X98425000Y-59055000D03*
%TO.P,J3,3,Pin_3*%
%TO.N,/NRST_bsmce04u-pp*%
X95885000Y-59055000D03*
%TD*%
D11*
%TO.P,R9,1*%
%TO.N,Net-(Q5-Pad1)*%
X157988000Y-60960000D03*
%TO.P,R9,2*%
%TO.N,+3V3*%
X157988000Y-63885000D03*
%TD*%
D16*
%TO.P,U2,1*%
%TO.N,/SPINDLE_DIRECTION_BIT*%
X136445000Y-47945000D03*
%TO.P,U2,2*%
%TO.N,/SPINDLE_ENABLE_BIT*%
X136445000Y-48895000D03*
%TO.P,U2,3,GND*%
%TO.N,GND*%
X136445000Y-49845000D03*
%TO.P,U2,4*%
%TO.N,/FWD_SIGNAL*%
X139145000Y-49845000D03*
%TO.P,U2,5,VCC*%
%TO.N,+3V3*%
X139145000Y-47945000D03*
%TD*%
D13*
%TO.P,C_BS1,1,Pin_1*%
%TO.N,/UDB_D+*%
X98425000Y-67305000D03*
D14*
%TO.P,C_BS1,2,Pin_2*%
%TO.N,/UDB_D-*%
X100965000Y-67305000D03*
%TO.P,C_BS1,3,Pin_3*%
%TO.N,/NRST_bsmce04u-pp*%
X103505000Y-67305000D03*
%TO.P,C_BS1,4,Pin_4*%
%TO.N,/Out4*%
X106045000Y-67305000D03*
%TO.P,C_BS1,5,Pin_5*%
%TO.N,/COOLANT_FLOOD_BIT*%
X108585000Y-67305000D03*
%TO.P,C_BS1,6,Pin_6*%
%TO.N,/Out2*%
X111125000Y-67305000D03*
%TO.P,C_BS1,7,Pin_7*%
%TO.N,/Out1*%
X113665000Y-67305000D03*
%TO.P,C_BS1,8,Pin_8*%
%TO.N,/In4*%
X116205000Y-67305000D03*
%TO.P,C_BS1,9,Pin_9*%
%TO.N,/In3*%
X118745000Y-67305000D03*
%TO.P,C_BS1,10,Pin_10*%
%TO.N,/In2*%
X121285000Y-67305000D03*
%TO.P,C_BS1,11,Pin_11*%
%TO.N,/CONTROL_SAFETY_DOOR_BIT*%
X123825000Y-67305000D03*
%TO.P,C_BS1,12,Pin_12*%
%TO.N,/ACM*%
X126365000Y-67305000D03*
%TO.P,C_BS1,13,Pin_13*%
%TO.N,/Motor_enable*%
X128905000Y-67305000D03*
%TO.P,C_BS1,14,Pin_14*%
%TO.N,/X_P*%
X131445000Y-67305000D03*
%TO.P,C_BS1,15,Pin_15*%
%TO.N,/X_D*%
X133985000Y-67305000D03*
%TO.P,C_BS1,16,Pin_16*%
%TO.N,/Y_P*%
X136525000Y-67305000D03*
%TO.P,C_BS1,17,Pin_17*%
%TO.N,/Y_D*%
X139065000Y-67305000D03*
%TO.P,C_BS1,18,Pin_18*%
%TO.N,/Z_P*%
X141605000Y-67305000D03*
%TO.P,C_BS1,19,Pin_19*%
%TO.N,/Z_D*%
X144145000Y-67305000D03*
%TO.P,C_BS1,20,Pin_20*%
%TO.N,/A_P*%
X146685000Y-67305000D03*
%TO.P,C_BS1,21,Pin_21*%
%TO.N,/A_D*%
X149225000Y-67305000D03*
%TD*%
D12*
%TO.P,Q2,1,B*%
%TO.N,Net-(Q2-Pad1)*%
X117807500Y-56200000D03*
%TO.P,Q2,2,E*%
%TO.N,GND*%
X117807500Y-58100000D03*
%TO.P,Q2,3,C*%
%TO.N,Net-(Q2-Pad3)*%
X119682500Y-57150000D03*
%TD*%
D17*
%TO.P,R1,1*%
%TO.N,/REW_SIGNAL*%
X110047500Y-52070000D03*
%TO.P,R1,2*%
%TO.N,Net-(Q1-Pad1)*%
X107122500Y-52070000D03*
%TD*%
D11*
%TO.P,R4,1*%
%TO.N,Net-(Q1-Pad3)*%
X112395000Y-60325000D03*
%TO.P,R4,2*%
%TO.N,Net-(Q3-Pad1)*%
X112395000Y-63250000D03*
%TD*%
D17*
%TO.P,R2,1*%
%TO.N,/FWD_SIGNAL*%
X120400000Y-52070000D03*
%TO.P,R2,2*%
%TO.N,Net-(Q2-Pad1)*%
X117475000Y-52070000D03*
%TD*%
D18*
%TO.P,Q5,1,B*%
%TO.N,Net-(Q5-Pad1)*%
X153350000Y-61038500D03*
%TO.P,Q5,2,E*%
%TO.N,GND*%
X151450000Y-61038500D03*
%TO.P,Q5,3,C*%
%TO.N,/Motor_enable*%
X152400000Y-62913500D03*
%TD*%
D16*
%TO.P,U1,1*%
%TO.N,N/C*%
X139065000Y-44130000D03*
%TO.P,U1,2*%
%TO.N,/SPINDLE_DIRECTION_BIT*%
X139065000Y-43180000D03*
%TO.P,U1,3,GND*%
%TO.N,GND*%
X139065000Y-42230000D03*
%TO.P,U1,4*%
%TO.N,Net-(R7-Pad1)*%
X136365000Y-42230000D03*
%TO.P,U1,5,VCC*%
%TO.N,+3V3*%
X136365000Y-44130000D03*
%TD*%
%TO.P,U3,1*%
%TO.N,Net-(R7-Pad2)*%
X130015000Y-47945000D03*
%TO.P,U3,2*%
%TO.N,/SPINDLE_ENABLE_BIT*%
X130015000Y-48895000D03*
%TO.P,U3,3,GND*%
%TO.N,GND*%
X130015000Y-49845000D03*
%TO.P,U3,4*%
%TO.N,/REW_SIGNAL*%
X132715000Y-49845000D03*
%TO.P,U3,5,VCC*%
%TO.N,+3V3*%
X132715000Y-47945000D03*
%TD*%
D17*
%TO.P,R7,1*%
%TO.N,Net-(R7-Pad1)*%
X132907500Y-42545000D03*
%TO.P,R7,2*%
%TO.N,Net-(R7-Pad2)*%
X129982500Y-42545000D03*
%TD*%
D13*
%TO.P,J1,1,Pin_1*%
%TO.N,GND*%
X96520000Y-35560000D03*
D14*
%TO.P,J1,2,Pin_2*%
X99060000Y-35560000D03*
%TO.P,J1,3,Pin_3*%
%TO.N,+3V3*%
X101600000Y-35560000D03*
%TO.P,J1,4,Pin_4*%
%TO.N,/NRST_BP*%
X104140000Y-35560000D03*
%TO.P,J1,5,Pin_5*%
%TO.N,/B_LIMIT_BIT*%
X106680000Y-35560000D03*
%TO.P,J1,6,Pin_6*%
%TO.N,/C_LIMIT_BIT*%
X109220000Y-35560000D03*
%TO.P,J1,7,Pin_7*%
%TO.N,Net-(J1-Pad7)*%
X111760000Y-35560000D03*
%TO.P,J1,8,Pin_8*%
%TO.N,Net-(J1-Pad8)*%
X114300000Y-35560000D03*
%TO.P,J1,9,Pin_9*%
%TO.N,/A_D*%
X116840000Y-35560000D03*
%TO.P,J1,10,Pin_10*%
%TO.N,/Z_D*%
X119380000Y-35560000D03*
%TO.P,J1,11,Pin_11*%
%TO.N,/Y_D*%
X121920000Y-35560000D03*
%TO.P,J1,12,Pin_12*%
%TO.N,/X_D*%
X124460000Y-35560000D03*
%TO.P,J1,13,Pin_13*%
%TO.N,/A_P*%
X127000000Y-35560000D03*
%TO.P,J1,14,Pin_14*%
%TO.N,/Z_P*%
X129540000Y-35560000D03*
%TO.P,J1,15,Pin_15*%
%TO.N,/Y_P*%
X132080000Y-35560000D03*
%TO.P,J1,16,Pin_16*%
%TO.N,/X_P*%
X134620000Y-35560000D03*
%TO.P,J1,17,Pin_17*%
%TO.N,/HS541_~{OE1}*%
X137160000Y-35560000D03*
%TO.P,J1,18,Pin_18*%
%TO.N,unconnected-(J1-Pad18)*%
X139700000Y-35560000D03*
%TO.P,J1,19,Pin_19*%
%TO.N,unconnected-(J1-Pad19)*%
X142240000Y-35560000D03*
%TO.P,J1,20,Pin_20*%
%TO.N,/VBAT*%
X144780000Y-35560000D03*
%TO.P,J1,21,Pin_21*%
%TO.N,+3V3*%
X144780000Y-38100000D03*
%TO.P,J1,22,Pin_22*%
%TO.N,GND*%
X142240000Y-38100000D03*
%TO.P,J1,23,Pin_23*%
%TO.N,+5V*%
X139700000Y-38100000D03*
%TO.P,J1,24,Pin_24*%
%TO.N,/In2*%
X137160000Y-38100000D03*
%TO.P,J1,25,Pin_25*%
%TO.N,/CONTROL_SAFETY_DOOR_BIT*%
X134620000Y-38100000D03*
%TO.P,J1,26,Pin_26*%
%TO.N,/CONTROL_CYCLE_START_BIT*%
X132080000Y-38100000D03*
%TO.P,J1,27,Pin_27*%
%TO.N,/CONTROL_FEED_HOLD_BIT*%
X129540000Y-38100000D03*
%TO.P,J1,28,Pin_28*%
%TO.N,/CONTROL_RESET_BIT*%
X127000000Y-38100000D03*
%TO.P,J1,29,Pin_29*%
%TO.N,/COOLANT_FLOOD_BIT*%
X124460000Y-38100000D03*
%TO.P,J1,30,Pin_30*%
%TO.N,/COOLANT_MIST_BIT*%
X121920000Y-38100000D03*
%TO.P,J1,31,Pin_31*%
%TO.N,/STEPPERS_DISABLE_BIT*%
X119380000Y-38100000D03*
%TO.P,J1,32,Pin_32*%
%TO.N,/UDB_D+*%
X116840000Y-38100000D03*
%TO.P,J1,33,Pin_33*%
%TO.N,/UDB_D-*%
X114300000Y-38100000D03*
%TO.P,J1,34,Pin_34*%
%TO.N,/B_DIRECTION_BIT*%
X111760000Y-38100000D03*
%TO.P,J1,35,Pin_35*%
%TO.N,/B_STEP_BIT*%
X109220000Y-38100000D03*
%TO.P,J1,36,Pin_36*%
%TO.N,/ACM*%
X106680000Y-38100000D03*
%TO.P,J1,37,Pin_37*%
%TO.N,/A_LIMIT_BIT*%
X104140000Y-38100000D03*
%TO.P,J1,38,Pin_38*%
%TO.N,/In3*%
X101600000Y-38100000D03*
%TO.P,J1,39,Pin_39*%
X99060000Y-38100000D03*
%TO.P,J1,40,Pin_40*%
X96520000Y-38100000D03*
%TD*%
D19*
%TO.N,/NRST_bsmce04u-pp*%
X96012000Y-64008000D03*
X103632000Y-64516000D03*
%TO.N,/COOLANT_FLOOD_BIT*%
X125222000Y-41402000D03*
X119380000Y-41402000D03*
%TO.N,/Out2*%
X115570000Y-61722000D03*
%TO.N,/Out1*%
X115951000Y-63881000D03*
%TO.N,/In3*%
X104155425Y-57658000D03*
X118618000Y-64770000D03*
%TO.N,/In2*%
X122809000Y-56388000D03*
X141732000Y-55338500D03*
%TO.N,/CONTROL_SAFETY_DOOR_BIT*%
X126238000Y-62992000D03*
X141605000Y-59055000D03*
%TO.N,/ACM*%
X111887000Y-49149000D03*
X122936000Y-50800000D03*
%TO.N,/X_P*%
X142599578Y-57945500D03*
X133096000Y-57785000D03*
%TO.N,/Y_P*%
X139700000Y-63500000D03*
X142698501Y-63500000D03*
%TO.N,/Y_D*%
X138176000Y-60217451D03*
X126492000Y-58420000D03*
%TO.N,/Z_D*%
X143764000Y-61180500D03*
X127453879Y-61882097D03*
%TO.N,/A_P*%
X146812000Y-62230000D03*
X138684000Y-62357000D03*
%TO.N,GND*%
X114679485Y-55243485D03*
X115443000Y-58928000D03*
X104635300Y-48780700D03*
X100076000Y-56388000D03*
X147320000Y-43180000D03*
X156464000Y-37084000D03*
X140462000Y-45974000D03*
X151892000Y-34290000D03*
X108204000Y-42418000D03*
X150114000Y-56388000D03*
X158496000Y-67310000D03*
X97536000Y-45466000D03*
X106953891Y-45700109D03*
X125476000Y-43434000D03*
X131826000Y-62992000D03*
X159004000Y-56642000D03*
%TO.N,+3V3*%
X139954000Y-51816000D03*
X104522277Y-59691753D03*
X142128700Y-47625000D03*
X145288000Y-64516000D03*
%TO.N,/NRST_BP*%
X123190000Y-43942000D03*
X102235000Y-48260000D03*
X126492000Y-54102000D03*
X105410000Y-43942000D03*
X148590000Y-58674000D03*
%TO.N,/SPINDLE_ENABLE_BIT*%
X113030000Y-46355000D03*
%TO.N,/SPINDLE_DIRECTION_BIT*%
X114935000Y-45085000D03*
%TO.N,/Motor_enable*%
X128524000Y-56388000D03*
%TO.N,+5V*%
X139700000Y-40640000D03*
X147320000Y-40640000D03*
%TO.N,Net-(R7-Pad2)*%
X127000000Y-47752000D03*
X127000000Y-42672000D03*
%TO.N,/HS541_~{OE1}*%
X148556500Y-36830000D03*
X152654000Y-36830000D03*
X154940000Y-52070000D03*
%TD*%
D20*
%TO.N,/NRST_bsmce04u-pp*%
X103632000Y-64516000D02*
X96520000Y-64516000D01*
X96520000Y-64516000D02*
X96012000Y-64008000D01*
%TO.N,/COOLANT_FLOOD_BIT*%
X119380000Y-41402000D02*
X125222000Y-41402000D01*
%TO.N,/Out2*%
X107647500Y-62230000D02*
X107647500Y-63032449D01*
X113800795Y-64362500D02*
X115570000Y-62593295D01*
X115570000Y-62593295D02*
X115570000Y-61722000D01*
X107647500Y-63032449D02*
X108977551Y-64362500D01*
X108977551Y-64362500D02*
X113800795Y-64362500D01*
%TO.N,/Out1*%
X117807500Y-62230000D02*
X117602000Y-62230000D01*
X117602000Y-62230000D02*
X115951000Y-63881000D01*
%TO.N,/In3*%
X116840000Y-64770000D02*
X116205000Y-65405000D01*
X103472777Y-60129812D02*
X103472777Y-58340648D01*
X103472777Y-58340648D02*
X104155425Y-57658000D01*
X108747965Y-65405000D02*
X103472777Y-60129812D01*
X116205000Y-65405000D02*
X108747965Y-65405000D01*
X118618000Y-64770000D02*
X116840000Y-64770000D01*
%TO.N,/In2*%
X122809000Y-56388000D02*
X123858502Y-55338498D01*
X123858502Y-55338498D02*
X141731998Y-55338498D01*
X141731998Y-55338498D02*
X141732000Y-55338500D01*
%TO.N,/CONTROL_SAFETY_DOOR_BIT*%
X124453718Y-57370500D02*
X123952000Y-57872218D01*
X141605000Y-59055000D02*
X128611218Y-59055000D01*
X126238000Y-60158218D02*
X126238000Y-62992000D01*
X128611218Y-59055000D02*
X126926718Y-57370500D01*
X123952000Y-57872218D02*
X126238000Y-60158218D01*
X126926718Y-57370500D02*
X124453718Y-57370500D01*
%TO.N,/ACM*%
X111887000Y-49149000D02*
X121285000Y-49149000D01*
X121285000Y-49149000D02*
X122936000Y-50800000D01*
%TO.N,/X_P*%
X133256500Y-57945500D02*
X142599578Y-57945500D01*
X133096000Y-57785000D02*
X133256500Y-57945500D01*
%TO.N,/Y_P*%
X139700000Y-63500000D02*
X142698501Y-63500000D01*
%TO.N,/Y_D*%
X128289451Y-60217451D02*
X126492000Y-58420000D01*
X138176000Y-60217451D02*
X128289451Y-60217451D01*
%TO.N,/Z_D*%
X128055476Y-61280500D02*
X127453879Y-61882097D01*
X143764000Y-61180500D02*
X143664000Y-61280500D01*
X143664000Y-61280500D02*
X128055476Y-61280500D01*
%TO.N,/A_P*%
X138811000Y-62230000D02*
X138684000Y-62357000D01*
X146812000Y-62230000D02*
X138811000Y-62230000D01*
%TO.N,GND*%
X107647500Y-58100000D02*
X107249000Y-58100000D01*
X136445000Y-49845000D02*
X137700000Y-49845000D01*
X102870000Y-56388000D02*
X100076000Y-56388000D01*
D21*
X147066000Y-45974000D02*
X147320000Y-45720000D01*
D20*
X144145000Y-48895000D02*
X147320000Y-45720000D01*
X123878718Y-49750500D02*
X123973218Y-49845000D01*
X107249000Y-58100000D02*
X104203500Y-55054500D01*
X105664000Y-47752000D02*
X121663914Y-47752000D01*
X137795000Y-49276000D02*
X138176000Y-48895000D01*
X139065000Y-42230000D02*
X146370000Y-42230000D01*
X121663914Y-47752000D02*
X123662414Y-49750500D01*
X123973218Y-49845000D02*
X130015000Y-49845000D01*
X137700000Y-49845000D02*
X137795000Y-49750000D01*
X146370000Y-42230000D02*
X147320000Y-43180000D01*
X104635300Y-48780700D02*
X105664000Y-47752000D01*
X123662414Y-49750500D02*
X123878718Y-49750500D01*
X138176000Y-48895000D02*
X144145000Y-48895000D01*
X104203500Y-55054500D02*
X102870000Y-56388000D01*
X137795000Y-49750000D02*
X137795000Y-49276000D01*
X147320000Y-43180000D02*
X147320000Y-45720000D01*
%TO.N,+3V3*%
X132715000Y-47945000D02*
X134493000Y-49723000D01*
X145034000Y-64770000D02*
X145288000Y-64516000D01*
X157103000Y-64770000D02*
X157988000Y-63885000D01*
X109522500Y-61280000D02*
X109680000Y-61437500D01*
X134493000Y-51181000D02*
X135128000Y-51816000D01*
X109680000Y-61437500D02*
X113792000Y-61437500D01*
X136365000Y-44798000D02*
X139145000Y-47578000D01*
X144526000Y-64770000D02*
X157103000Y-64770000D01*
X113792000Y-61437500D02*
X113792000Y-61341000D01*
X134493000Y-49723000D02*
X134493000Y-51181000D01*
X125095000Y-64770000D02*
X144526000Y-64770000D01*
X139465000Y-47625000D02*
X142128700Y-47625000D01*
X109522500Y-61280000D02*
X106110524Y-61280000D01*
X125095000Y-61849000D02*
X121285000Y-61849000D01*
X113792000Y-61341000D02*
X114935000Y-60198000D01*
X120716000Y-61280000D02*
X121285000Y-61849000D01*
X136365000Y-44130000D02*
X136365000Y-44798000D01*
X119682500Y-61280000D02*
X120716000Y-61280000D01*
X139145000Y-47945000D02*
X139145000Y-47578000D01*
X144526000Y-64770000D02*
X145034000Y-64770000D01*
X135128000Y-51816000D02*
X139954000Y-51816000D01*
X114935000Y-60198000D02*
X118999000Y-60198000D01*
X118999000Y-60198000D02*
X119682500Y-60881500D01*
X106110524Y-61280000D02*
X104522277Y-59691753D01*
X119682500Y-60881500D02*
X119682500Y-61280000D01*
X125095000Y-61849000D02*
X125095000Y-64770000D01*
%TO.N,/NRST_BP*%
X123190000Y-43942000D02*
X105410000Y-43942000D01*
X146558000Y-57404000D02*
X147828000Y-58674000D01*
X126492000Y-54102000D02*
X143256000Y-54102000D01*
X143256000Y-54102000D02*
X146558000Y-57404000D01*
X147828000Y-58674000D02*
X148590000Y-58674000D01*
X102743000Y-43942000D02*
X105410000Y-43942000D01*
X102235000Y-44450000D02*
X102743000Y-43942000D01*
X102235000Y-48260000D02*
X102235000Y-44450000D01*
%TO.N,/SPINDLE_ENABLE_BIT*%
X133233501Y-46111501D02*
X121782499Y-46111501D01*
X135011501Y-48649415D02*
X135011501Y-47889501D01*
X135257086Y-48895000D02*
X135011501Y-48649415D01*
X130015000Y-48895000D02*
X129970999Y-48850999D01*
X129970999Y-48850999D02*
X124034999Y-48850999D01*
X121782499Y-46111501D02*
X121539000Y-46355000D01*
X124034999Y-48850999D02*
X121539000Y-46355000D01*
X136445000Y-48895000D02*
X135257086Y-48895000D01*
X135011501Y-47889501D02*
X133233501Y-46111501D01*
X121539000Y-46355000D02*
X113030000Y-46355000D01*
%TO.N,/SPINDLE_DIRECTION_BIT*%
X134366000Y-45212000D02*
X115062000Y-45212000D01*
X139065000Y-43180000D02*
X134747000Y-43180000D01*
X136445000Y-47291000D02*
X136445000Y-47945000D01*
X115062000Y-45212000D02*
X114935000Y-45085000D01*
X134366000Y-43561000D02*
X134366000Y-45212000D01*
X134366000Y-45212000D02*
X136445000Y-47291000D01*
X134747000Y-43180000D02*
X134366000Y-43561000D01*
%TO.N,/Motor_enable*%
X149352000Y-62992000D02*
X146812000Y-60452000D01*
X146812000Y-60452000D02*
X145542000Y-60452000D01*
X144018000Y-56388000D02*
X128524000Y-56388000D01*
X152400000Y-62913500D02*
X152321500Y-62992000D01*
X145542000Y-60452000D02*
X144018000Y-58928000D01*
X144018000Y-58928000D02*
X144018000Y-56388000D01*
X152321500Y-62992000D02*
X149352000Y-62992000D01*
%TO.N,+5V*%
X139700000Y-40640000D02*
X147320000Y-40640000D01*
%TO.N,Net-(R7-Pad1)*%
X133222500Y-42230000D02*
X132907500Y-42545000D01*
X136365000Y-42230000D02*
X133222500Y-42230000D01*
%TO.N,Net-(Q1-Pad1)*%
X107122500Y-55675000D02*
X107122500Y-52070000D01*
X107647500Y-56200000D02*
X107122500Y-55675000D01*
%TO.N,Net-(Q1-Pad3)*%
X112395000Y-57658000D02*
X112395000Y-60325000D01*
X109522500Y-57150000D02*
X111887000Y-57150000D01*
X111887000Y-57150000D02*
X112395000Y-57658000D01*
%TO.N,Net-(Q2-Pad1)*%
X117475000Y-55867500D02*
X117475000Y-52070000D01*
X117807500Y-56200000D02*
X117475000Y-55867500D01*
%TO.N,Net-(Q2-Pad3)*%
X120015000Y-57150000D02*
X123190000Y-60325000D01*
X119682500Y-57150000D02*
X120015000Y-57150000D01*
%TO.N,Net-(Q3-Pad1)*%
X109522500Y-63180000D02*
X109592500Y-63250000D01*
X109592500Y-63250000D02*
X112395000Y-63250000D01*
%TO.N,Net-(Q4-Pad1)*%
X119752500Y-63250000D02*
X123190000Y-63250000D01*
X119682500Y-63180000D02*
X119752500Y-63250000D01*
%TO.N,/REW_SIGNAL*%
X130407001Y-52152999D02*
X132715000Y-49845000D01*
X121257000Y-50645000D02*
X122809000Y-52197000D01*
X125640695Y-52197000D02*
X125684697Y-52152999D01*
X110047500Y-52070000D02*
X113157000Y-52070000D01*
X122809000Y-52197000D02*
X125640695Y-52197000D01*
X125684697Y-52152999D02*
X130407001Y-52152999D01*
X114582000Y-50645000D02*
X121257000Y-50645000D01*
X113157000Y-52070000D02*
X114582000Y-50645000D01*
%TO.N,/FWD_SIGNAL*%
X120777000Y-52070000D02*
X121920000Y-53213000D01*
X140777000Y-49845000D02*
X139145000Y-49845000D01*
X120400000Y-52070000D02*
X120777000Y-52070000D01*
X125896782Y-53213000D02*
X126057282Y-53052500D01*
X121920000Y-53213000D02*
X125896782Y-53213000D01*
X142113000Y-51181000D02*
X140777000Y-49845000D01*
X140241500Y-53052500D02*
X142113000Y-51181000D01*
X126057282Y-53052500D02*
X140241500Y-53052500D01*
%TO.N,Net-(R7-Pad2)*%
X127193000Y-47945000D02*
X127000000Y-47752000D01*
X130015000Y-47945000D02*
X127193000Y-47945000D01*
X127127000Y-42545000D02*
X127000000Y-42672000D01*
X129982500Y-42545000D02*
X127127000Y-42545000D01*
%TO.N,/HS541_~{OE1}*%
X154940000Y-52070000D02*
X154940000Y-54610000D01*
X148556500Y-36830000D02*
X152654000Y-36830000D01*
%TO.N,Net-(Q5-Pad1)*%
X153350000Y-61038500D02*
X155018500Y-61038500D01*
X154940000Y-60960000D02*
X155018500Y-61038500D01*
X154940000Y-57535000D02*
X154940000Y-60960000D01*
X155018500Y-61038500D02*
X157909500Y-61038500D01*
X157909500Y-61038500D02*
X157988000Y-60960000D01*
%TD*%
%TA.AperFunction,Conductor*%
%TO.N,GND*%
G36*
X160910609Y-33539866D02*
G01*
X160985964Y-33594615D01*
X161032537Y-33675280D01*
X161043500Y-33744500D01*
X161043500Y-69125500D01*
X161024134Y-69216609D01*
X160969385Y-69291964D01*
X160888720Y-69338537D01*
X160819500Y-69349500D01*
X94450500Y-69349500D01*
X94359391Y-69330134D01*
X94284036Y-69275385D01*
X94237463Y-69194720D01*
X94226500Y-69125500D01*
X94226500Y-63993963D01*
X95006757Y-63993963D01*
X95023175Y-64189483D01*
X95026195Y-64200015D01*
X95026196Y-64200020D01*
X95037800Y-64240486D01*
X95077258Y-64378091D01*
X95166944Y-64552601D01*
X95193120Y-64585627D01*
X95269182Y-64681594D01*
X95288818Y-64706369D01*
X95438238Y-64833535D01*
X95447802Y-64838880D01*
X95569297Y-64906781D01*
X95609513Y-64929257D01*
X95737543Y-64970857D01*
X95818203Y-65017427D01*
X95826710Y-65025499D01*
X95886674Y-65085463D01*
X95899362Y-65099261D01*
X95930020Y-65135540D01*
X95993036Y-65183719D01*
X95997275Y-65187043D01*
X96059073Y-65236730D01*
X96068477Y-65241398D01*
X96076820Y-65247777D01*
X96087814Y-65252904D01*
X96087818Y-65252906D01*
X96148697Y-65281294D01*
X96153590Y-65283649D01*
X96224592Y-65318895D01*
X96234780Y-65321435D01*
X96244297Y-65325873D01*
X96256136Y-65328519D01*
X96256144Y-65328522D01*
X96321694Y-65343174D01*
X96326986Y-65344424D01*
X96403893Y-65363599D01*
X96413413Y-65363865D01*
X96415663Y-65364177D01*
X96424637Y-65366183D01*
X96430307Y-65366500D01*
X96504624Y-65366500D01*
X96510878Y-65366587D01*
X96588611Y-65368758D01*
X96598076Y-65366952D01*
X96609335Y-65366500D01*
X103044560Y-65366500D01*
X103135669Y-65385866D01*
X103153840Y-65394965D01*
X103229513Y-65437257D01*
X103239927Y-65440641D01*
X103239930Y-65440642D01*
X103391066Y-65489749D01*
X103416118Y-65497889D01*
X103485137Y-65506119D01*
X103573312Y-65536136D01*
X103581526Y-65543743D01*
X103656802Y-65517823D01*
X103666898Y-65516816D01*
X103751154Y-65510332D01*
X103795649Y-65506909D01*
X103795651Y-65506909D01*
X103806576Y-65506068D01*
X103817129Y-65503122D01*
X103817132Y-65503121D01*
X103984999Y-65456251D01*
X103985003Y-65456250D01*
X103995556Y-65453303D01*
X104170689Y-65364837D01*
X104325303Y-65244040D01*
X104338178Y-65229125D01*
X104446348Y-65103807D01*
X104453509Y-65095511D01*
X104459517Y-65084936D01*
X104545015Y-64934432D01*
X104550425Y-64924909D01*
X104612358Y-64738732D01*
X104615550Y-64713470D01*
X104634787Y-64561185D01*
X104636949Y-64544071D01*
X104637341Y-64516000D01*
X104636212Y-64504484D01*
X104619263Y-64331627D01*
X104619262Y-64331624D01*
X104618194Y-64320728D01*
X104570366Y-64162313D01*
X104564649Y-64143376D01*
X104564648Y-64143373D01*
X104561484Y-64132894D01*
X104556345Y-64123229D01*
X104556343Y-64123224D01*
X104474514Y-63969327D01*
X104474513Y-63969325D01*
X104469370Y-63959653D01*
X104430397Y-63911867D01*
X104352287Y-63816094D01*
X104352286Y-63816093D01*
X104345361Y-63807602D01*
X104253810Y-63731865D01*
X104202624Y-63689520D01*
X104202621Y-63689518D01*
X104194180Y-63682535D01*
X104102578Y-63633006D01*
X104031225Y-63594425D01*
X104031222Y-63594424D01*
X104021585Y-63589213D01*
X103933612Y-63561981D01*
X103844619Y-63534433D01*
X103844618Y-63534433D01*
X103834152Y-63531193D01*
X103639019Y-63510683D01*
X103628108Y-63511676D01*
X103628104Y-63511676D01*
X103454527Y-63527473D01*
X103454525Y-63527473D01*
X103443618Y-63528466D01*
X103255393Y-63583864D01*
X103245684Y-63588940D01*
X103245681Y-63588941D01*
X103147997Y-63640009D01*
X103058283Y-63665058D01*
X103044218Y-63665500D01*
X97097667Y-63665500D01*
X97006558Y-63646134D01*
X96931203Y-63591385D01*
X96899887Y-63546661D01*
X96854517Y-63461331D01*
X96854511Y-63461323D01*
X96849370Y-63451653D01*
X96812427Y-63406356D01*
X96732287Y-63308094D01*
X96732286Y-63308093D01*
X96725361Y-63299602D01*
X96654409Y-63240906D01*
X96582624Y-63181520D01*
X96582621Y-63181518D01*
X96574180Y-63174535D01*
X96498256Y-63133483D01*
X96411225Y-63086425D01*
X96411222Y-63086424D01*
X96401585Y-63081213D01*
X96214152Y-63023193D01*
X96019019Y-63002683D01*
X96008108Y-63003676D01*
X96008104Y-63003676D01*
X95834527Y-63019473D01*
X95834525Y-63019473D01*
X95823618Y-63020466D01*
X95813109Y-63023559D01*
X95645904Y-63072770D01*
X95645900Y-63072772D01*
X95635393Y-63075864D01*
X95562721Y-63113856D01*
X95484757Y-63154615D01*
X95461512Y-63166767D01*
X95308600Y-63289711D01*
X95182480Y-63440016D01*
X95177204Y-63449613D01*
X95177202Y-63449616D01*
X95133875Y-63528427D01*
X95087956Y-63611954D01*
X95028628Y-63798978D01*
X95027408Y-63809858D01*
X95027407Y-63809861D01*
X95015159Y-63919058D01*
X95006757Y-63993963D01*
X94226500Y-63993963D01*
X94226500Y-59704291D01*
X94245866Y-59613182D01*
X94300615Y-59537827D01*
X94381280Y-59491254D01*
X94473914Y-59481518D01*
X94562500Y-59510301D01*
X94631720Y-59572627D01*
X94653513Y-59609624D01*
X94656690Y-59616436D01*
X94710965Y-59732829D01*
X94716576Y-59740843D01*
X94716577Y-59740844D01*
X94722052Y-59748663D01*
X94846505Y-59926401D01*
X95013599Y-60093495D01*
X95130670Y-60175469D01*
X95189887Y-60216933D01*
X95207170Y-60229035D01*
X95421337Y-60328903D01*
X95430783Y-60331434D01*
X95640152Y-60387534D01*
X95640156Y-60387535D01*
X95649592Y-60390063D01*
X95659326Y-60390915D01*
X95659328Y-60390915D01*
X95875262Y-60409807D01*
X95885000Y-60410659D01*
X95894738Y-60409807D01*
X96110672Y-60390915D01*
X96110674Y-60390915D01*
X96120408Y-60390063D01*
X96129844Y-60387535D01*
X96129848Y-60387534D01*
X96339217Y-60331434D01*
X96348663Y-60328903D01*
X96562830Y-60229035D01*
X96580114Y-60216933D01*
X96639330Y-60175469D01*
X96756401Y-60093495D01*
X96923495Y-59926401D01*
X96964830Y-59867368D01*
X97032951Y-59803844D01*
X97121020Y-59773519D01*
X97213810Y-59781636D01*
X97295277Y-59826793D01*
X97329079Y-59863553D01*
X97331412Y-59866741D01*
X97465583Y-60021632D01*
X97478674Y-60034451D01*
X97636339Y-60165347D01*
X97651350Y-60175858D01*
X97828283Y-60279250D01*
X97844803Y-60287165D01*
X98036248Y-60360270D01*
X98053838Y-60365380D01*
X98147931Y-60384523D01*
X98167401Y-60384354D01*
X98171000Y-60372938D01*
X98171000Y-57743531D01*
X98166951Y-57724483D01*
X98151933Y-57722905D01*
X98118301Y-57728051D01*
X98100468Y-57732300D01*
X97905683Y-57795965D01*
X97888797Y-57803063D01*
X97707032Y-57897684D01*
X97691518Y-57907454D01*
X97527652Y-58030489D01*
X97513949Y-58042654D01*
X97372366Y-58190812D01*
X97360841Y-58205045D01*
X97335073Y-58242819D01*
X97267732Y-58307171D01*
X97180040Y-58338569D01*
X97087157Y-58331585D01*
X97005146Y-58287426D01*
X96966538Y-58245072D01*
X96923495Y-58183599D01*
X96756401Y-58016505D01*
X96611286Y-57914894D01*
X96570845Y-57886577D01*
X96570844Y-57886576D01*
X96562830Y-57880965D01*
X96348663Y-57781097D01*
X96300676Y-57768239D01*
X96129848Y-57722466D01*
X96129844Y-57722465D01*
X96120408Y-57719937D01*
X96110674Y-57719085D01*
X96110672Y-57719085D01*
X95894738Y-57700193D01*
X95885000Y-57699341D01*
X95875262Y-57700193D01*
X95659328Y-57719085D01*
X95659326Y-57719085D01*
X95649592Y-57719937D01*
X95640156Y-57722465D01*
X95640152Y-57722466D01*
X95469324Y-57768239D01*
X95421337Y-57781097D01*
X95207171Y-57880965D01*
X95199157Y-57886576D01*
X95199156Y-57886577D01*
X95192107Y-57891513D01*
X95013599Y-58016505D01*
X94846505Y-58183599D01*
X94785478Y-58270755D01*
X94725919Y-58355815D01*
X94710965Y-58377171D01*
X94676740Y-58450566D01*
X94653513Y-58500376D01*
X94597457Y-58574764D01*
X94515990Y-58619922D01*
X94423200Y-58628039D01*
X94335131Y-58597714D01*
X94267009Y-58534189D01*
X94230615Y-58448449D01*
X94226500Y-58405709D01*
X94226500Y-52202200D01*
X95688747Y-52202200D01*
X95726129Y-52486149D01*
X95742781Y-52547019D01*
X95799688Y-52755038D01*
X95799691Y-52755045D01*
X95801702Y-52762398D01*
X95914068Y-53025835D01*
X95917981Y-53032374D01*
X95917983Y-53032377D01*
X96028585Y-53217179D01*
X96061146Y-53271585D01*
X96090531Y-53308264D01*
X96235454Y-53489158D01*
X96235458Y-53489163D01*
X96240215Y-53495100D01*
X96245731Y-53500334D01*
X96245736Y-53500340D01*
X96371950Y-53620112D01*
X96447962Y-53692245D01*
X96680543Y-53859371D01*
X96800092Y-53922669D01*
X96926900Y-53989811D01*
X96926906Y-53989814D01*
X96933653Y-53993386D01*
X97202610Y-54091810D01*
X97210059Y-54093434D01*
X97210062Y-54093435D01*
X97267246Y-54105903D01*
X97482436Y-54152822D01*
X97490034Y-54153420D01*
X97490041Y-54153421D01*
X97613285Y-54163120D01*
X97707053Y-54170500D01*
X97861992Y-54170500D01*
X97865786Y-54170241D01*
X97865796Y-54170241D01*
X97988479Y-54161877D01*
X98075737Y-54155928D01*
X98205664Y-54129021D01*
X98348723Y-54099396D01*
X98348730Y-54099394D01*
X98356186Y-54097850D01*
X98363364Y-54095308D01*
X98363368Y-54095307D01*
X98570473Y-54021967D01*
X98626158Y-54002248D01*
X98880658Y-53870891D01*
X99114976Y-53706209D01*
X99120560Y-53701020D01*
X99120565Y-53701016D01*
X99319187Y-53516445D01*
X99319190Y-53516442D01*
X99324776Y-53511251D01*
X99331278Y-53503308D01*
X99498416Y-53299105D01*
X99506177Y-53289623D01*
X99655820Y-53045427D01*
X99770938Y-52783182D01*
X99849400Y-52507739D01*
X99889754Y-52224196D01*
X99890163Y-52146156D01*
X99890680Y-52047220D01*
X99891253Y-51937800D01*
X99853871Y-51653851D01*
X99825802Y-51551248D01*
X99780312Y-51384962D01*
X99780309Y-51384955D01*
X99778298Y-51377602D01*
X99665932Y-51114165D01*
X99656908Y-51099086D01*
X99522773Y-50874963D01*
X99522772Y-50874962D01*
X99518854Y-50868415D01*
X99475814Y-50814692D01*
X99344546Y-50650842D01*
X99344542Y-50650837D01*
X99339785Y-50644900D01*
X99334269Y-50639666D01*
X99334264Y-50639660D01*
X99137569Y-50453004D01*
X99132038Y-50447755D01*
X98899457Y-50280629D01*
X98660826Y-50154280D01*
X98653100Y-50150189D01*
X98653094Y-50150186D01*
X98646347Y-50146614D01*
X98377390Y-50048190D01*
X98369941Y-50046566D01*
X98369938Y-50046565D01*
X98155302Y-49999767D01*
X98097564Y-49987178D01*
X98089966Y-49986580D01*
X98089959Y-49986579D01*
X97966715Y-49976880D01*
X97872947Y-49969500D01*
X97718008Y-49969500D01*
X97714214Y-49969759D01*
X97714204Y-49969759D01*
X97591521Y-49978123D01*
X97504263Y-49984072D01*
X97374336Y-50010979D01*
X97231277Y-50040604D01*
X97231270Y-50040606D01*
X97223814Y-50042150D01*
X97216636Y-50044692D01*
X97216632Y-50044693D01*
X97087210Y-50090524D01*
X96953842Y-50137752D01*
X96699342Y-50269109D01*
X96465024Y-50433791D01*
X96459440Y-50438980D01*
X96459435Y-50438984D01*
X96269345Y-50615627D01*
X96255224Y-50628749D01*
X96250395Y-50634649D01*
X96250393Y-50634651D01*
X96208874Y-50685377D01*
X96073823Y-50850377D01*
X95924180Y-51094573D01*
X95809062Y-51356818D01*
X95730600Y-51632261D01*
X95729526Y-51639806D01*
X95729526Y-51639807D01*
X95727527Y-51653851D01*
X95690246Y-51915804D01*
X95690206Y-51923427D01*
X95690206Y-51923428D01*
X95689970Y-51968610D01*
X95688747Y-52202200D01*
X94226500Y-52202200D01*
X94226500Y-36452030D01*
X95162001Y-36452030D01*
X95162655Y-36464114D01*
X95167231Y-36506239D01*
X95173679Y-36533360D01*
X95214229Y-36641526D01*
X95229396Y-36669228D01*
X95297524Y-36760132D01*
X95319868Y-36782476D01*
X95410770Y-36850603D01*
X95438585Y-36865832D01*
X95509199Y-36926573D01*
X95549003Y-37010784D01*
X95551114Y-37103904D01*
X95515167Y-37189833D01*
X95489402Y-37220702D01*
X95481505Y-37228599D01*
X95433490Y-37297172D01*
X95354830Y-37409511D01*
X95345965Y-37422171D01*
X95246097Y-37636337D01*
X95243566Y-37645783D01*
X95192834Y-37835121D01*
X95184937Y-37864592D01*
X95164341Y-38100000D01*
X95184937Y-38335408D01*
X95246097Y-38563663D01*
X95345965Y-38777829D01*
X95481505Y-38971401D01*
X95648599Y-39138495D01*
X95842170Y-39274035D01*
X96056337Y-39373903D01*
X96065783Y-39376434D01*
X96275152Y-39432534D01*
X96275156Y-39432535D01*
X96284592Y-39435063D01*
X96294326Y-39435915D01*
X96294328Y-39435915D01*
X96510262Y-39454807D01*
X96520000Y-39455659D01*
X96529738Y-39454807D01*
X96745672Y-39435915D01*
X96745674Y-39435915D01*
X96755408Y-39435063D01*
X96764844Y-39432535D01*
X96764848Y-39432534D01*
X96974217Y-39376434D01*
X96983663Y-39373903D01*
X97197830Y-39274035D01*
X97391401Y-39138495D01*
X97558495Y-38971401D01*
X97606510Y-38902828D01*
X97674631Y-38839304D01*
X97762701Y-38808979D01*
X97855491Y-38817097D01*
X97936957Y-38862254D01*
X97973489Y-38902827D01*
X98021505Y-38971401D01*
X98188599Y-39138495D01*
X98382170Y-39274035D01*
X98596337Y-39373903D01*
X98605783Y-39376434D01*
X98815152Y-39432534D01*
X98815156Y-39432535D01*
X98824592Y-39435063D01*
X98834326Y-39435915D01*
X98834328Y-39435915D01*
X99050262Y-39454807D01*
X99060000Y-39455659D01*
X99069738Y-39454807D01*
X99285672Y-39435915D01*
X99285674Y-39435915D01*
X99295408Y-39435063D01*
X99304844Y-39432535D01*
X99304848Y-39432534D01*
X99514217Y-39376434D01*
X99523663Y-39373903D01*
X99737830Y-39274035D01*
X99931401Y-39138495D01*
X100098495Y-38971401D01*
X100146510Y-38902828D01*
X100214631Y-38839304D01*
X100302701Y-38808979D01*
X100395491Y-38817097D01*
X100476957Y-38862254D01*
X100513489Y-38902827D01*
X100561505Y-38971401D01*
X100728599Y-39138495D01*
X100922170Y-39274035D01*
X101136337Y-39373903D01*
X101145783Y-39376434D01*
X101355152Y-39432534D01*
X101355156Y-39432535D01*
X101364592Y-39435063D01*
X101374326Y-39435915D01*
X101374328Y-39435915D01*
X101590262Y-39454807D01*
X101600000Y-39455659D01*
X101609738Y-39454807D01*
X101825672Y-39435915D01*
X101825674Y-39435915D01*
X101835408Y-39435063D01*
X101844844Y-39432535D01*
X101844848Y-39432534D01*
X102054217Y-39376434D01*
X102063663Y-39373903D01*
X102277830Y-39274035D01*
X102471401Y-39138495D01*
X102638495Y-38971401D01*
X102686510Y-38902828D01*
X102754631Y-38839304D01*
X102842701Y-38808979D01*
X102935491Y-38817097D01*
X103016957Y-38862254D01*
X103053489Y-38902827D01*
X103101505Y-38971401D01*
X103268599Y-39138495D01*
X103462170Y-39274035D01*
X103676337Y-39373903D01*
X103685783Y-39376434D01*
X103895152Y-39432534D01*
X103895156Y-39432535D01*
X103904592Y-39435063D01*
X103914326Y-39435915D01*
X103914328Y-39435915D01*
X104130262Y-39454807D01*
X104140000Y-39455659D01*
X104149738Y-39454807D01*
X104365672Y-39435915D01*
X104365674Y-39435915D01*
X104375408Y-39435063D01*
X104384844Y-39432535D01*
X104384848Y-39432534D01*
X104594217Y-39376434D01*
X104603663Y-39373903D01*
X104817830Y-39274035D01*
X105011401Y-39138495D01*
X105178495Y-38971401D01*
X105226510Y-38902828D01*
X105294631Y-38839304D01*
X105382701Y-38808979D01*
X105475491Y-38817097D01*
X105556957Y-38862254D01*
X105593489Y-38902827D01*
X105641505Y-38971401D01*
X105808599Y-39138495D01*
X106002170Y-39274035D01*
X106216337Y-39373903D01*
X106225783Y-39376434D01*
X106435152Y-39432534D01*
X106435156Y-39432535D01*
X106444592Y-39435063D01*
X106454326Y-39435915D01*
X106454328Y-39435915D01*
X106670262Y-39454807D01*
X106680000Y-39455659D01*
X106689738Y-39454807D01*
X106905672Y-39435915D01*
X106905674Y-39435915D01*
X106915408Y-39435063D01*
X106924844Y-39432535D01*
X106924848Y-39432534D01*
X107134217Y-39376434D01*
X107143663Y-39373903D01*
X107357830Y-39274035D01*
X107551401Y-39138495D01*
X107718495Y-38971401D01*
X107766510Y-38902828D01*
X107834631Y-38839304D01*
X107922701Y-38808979D01*
X108015491Y-38817097D01*
X108096957Y-38862254D01*
X108133489Y-38902827D01*
X108181505Y-38971401D01*
X108348599Y-39138495D01*
X108542170Y-39274035D01*
X108756337Y-39373903D01*
X108765783Y-39376434D01*
X108975152Y-39432534D01*
X108975156Y-39432535D01*
X108984592Y-39435063D01*
X108994326Y-39435915D01*
X108994328Y-39435915D01*
X109210262Y-39454807D01*
X109220000Y-39455659D01*
X109229738Y-39454807D01*
X109445672Y-39435915D01*
X109445674Y-39435915D01*
X109455408Y-39435063D01*
X109464844Y-39432535D01*
X109464848Y-39432534D01*
X109674217Y-39376434D01*
X109683663Y-39373903D01*
X109897830Y-39274035D01*
X110091401Y-39138495D01*
X110258495Y-38971401D01*
X110306510Y-38902828D01*
X110374631Y-38839304D01*
X110462701Y-38808979D01*
X110555491Y-38817097D01*
X110636957Y-38862254D01*
X110673489Y-38902827D01*
X110721505Y-38971401D01*
X110888599Y-39138495D01*
X111082170Y-39274035D01*
X111296337Y-39373903D01*
X111305783Y-39376434D01*
X111515152Y-39432534D01*
X111515156Y-39432535D01*
X111524592Y-39435063D01*
X111534326Y-39435915D01*
X111534328Y-39435915D01*
X111750262Y-39454807D01*
X111760000Y-39455659D01*
X111769738Y-39454807D01*
X111985672Y-39435915D01*
X111985674Y-39435915D01*
X111995408Y-39435063D01*
X112004844Y-39432535D01*
X112004848Y-39432534D01*
X112214217Y-39376434D01*
X112223663Y-39373903D01*
X112437830Y-39274035D01*
X112631401Y-39138495D01*
X112798495Y-38971401D01*
X112846510Y-38902828D01*
X112914631Y-38839304D01*
X113002701Y-38808979D01*
X113095491Y-38817097D01*
X113176957Y-38862254D01*
X113213489Y-38902827D01*
X113261505Y-38971401D01*
X113428599Y-39138495D01*
X113622170Y-39274035D01*
X113836337Y-39373903D01*
X113845783Y-39376434D01*
X114055152Y-39432534D01*
X114055156Y-39432535D01*
X114064592Y-39435063D01*
X114074326Y-39435915D01*
X114074328Y-39435915D01*
X114290262Y-39454807D01*
X114300000Y-39455659D01*
X114309738Y-39454807D01*
X114525672Y-39435915D01*
X114525674Y-39435915D01*
X114535408Y-39435063D01*
X114544844Y-39432535D01*
X114544848Y-39432534D01*
X114754217Y-39376434D01*
X114763663Y-39373903D01*
X114977830Y-39274035D01*
X115171401Y-39138495D01*
X115338495Y-38971401D01*
X115386510Y-38902828D01*
X115454631Y-38839304D01*
X115542701Y-38808979D01*
X115635491Y-38817097D01*
X115716957Y-38862254D01*
X115753489Y-38902827D01*
X115801505Y-38971401D01*
X115968599Y-39138495D01*
X116162170Y-39274035D01*
X116376337Y-39373903D01*
X116385783Y-39376434D01*
X116595152Y-39432534D01*
X116595156Y-39432535D01*
X116604592Y-39435063D01*
X116614326Y-39435915D01*
X116614328Y-39435915D01*
X116830262Y-39454807D01*
X116840000Y-39455659D01*
X116849738Y-39454807D01*
X117065672Y-39435915D01*
X117065674Y-39435915D01*
X117075408Y-39435063D01*
X117084844Y-39432535D01*
X117084848Y-39432534D01*
X117294217Y-39376434D01*
X117303663Y-39373903D01*
X117517830Y-39274035D01*
X117711401Y-39138495D01*
X117878495Y-38971401D01*
X117926510Y-38902828D01*
X117994631Y-38839304D01*
X118082701Y-38808979D01*
X118175491Y-38817097D01*
X118256957Y-38862254D01*
X118293489Y-38902827D01*
X118341505Y-38971401D01*
X118508599Y-39138495D01*
X118702170Y-39274035D01*
X118916337Y-39373903D01*
X118925783Y-39376434D01*
X119135152Y-39432534D01*
X119135156Y-39432535D01*
X119144592Y-39435063D01*
X119154326Y-39435915D01*
X119154328Y-39435915D01*
X119370262Y-39454807D01*
X119380000Y-39455659D01*
X119389738Y-39454807D01*
X119605672Y-39435915D01*
X119605674Y-39435915D01*
X119615408Y-39435063D01*
X119624844Y-39432535D01*
X119624848Y-39432534D01*
X119834217Y-39376434D01*
X119843663Y-39373903D01*
X120057830Y-39274035D01*
X120251401Y-39138495D01*
X120418495Y-38971401D01*
X120466510Y-38902828D01*
X120534631Y-38839304D01*
X120622701Y-38808979D01*
X120715491Y-38817097D01*
X120796957Y-38862254D01*
X120833489Y-38902827D01*
X120881505Y-38971401D01*
X121048599Y-39138495D01*
X121242170Y-39274035D01*
X121456337Y-39373903D01*
X121465783Y-39376434D01*
X121675152Y-39432534D01*
X121675156Y-39432535D01*
X121684592Y-39435063D01*
X121694326Y-39435915D01*
X121694328Y-39435915D01*
X121910262Y-39454807D01*
X121920000Y-39455659D01*
X121929738Y-39454807D01*
X122145672Y-39435915D01*
X122145674Y-39435915D01*
X122155408Y-39435063D01*
X122164844Y-39432535D01*
X122164848Y-39432534D01*
X122374217Y-39376434D01*
X122383663Y-39373903D01*
X122597830Y-39274035D01*
X122791401Y-39138495D01*
X122958495Y-38971401D01*
X123006510Y-38902828D01*
X123074631Y-38839304D01*
X123162701Y-38808979D01*
X123255491Y-38817097D01*
X123336957Y-38862254D01*
X123373489Y-38902827D01*
X123421505Y-38971401D01*
X123588599Y-39138495D01*
X123782170Y-39274035D01*
X123996337Y-39373903D01*
X124005783Y-39376434D01*
X124215152Y-39432534D01*
X124215156Y-39432535D01*
X124224592Y-39435063D01*
X124234326Y-39435915D01*
X124234328Y-39435915D01*
X124450262Y-39454807D01*
X124460000Y-39455659D01*
X124469738Y-39454807D01*
X124685672Y-39435915D01*
X124685674Y-39435915D01*
X124695408Y-39435063D01*
X124704844Y-39432535D01*
X124704848Y-39432534D01*
X124914217Y-39376434D01*
X124923663Y-39373903D01*
X125137830Y-39274035D01*
X125331401Y-39138495D01*
X125498495Y-38971401D01*
X125546510Y-38902828D01*
X125614631Y-38839304D01*
X125702701Y-38808979D01*
X125795491Y-38817097D01*
X125876957Y-38862254D01*
X125913489Y-38902827D01*
X125961505Y-38971401D01*
X126128599Y-39138495D01*
X126322170Y-39274035D01*
X126536337Y-39373903D01*
X126545783Y-39376434D01*
X126755152Y-39432534D01*
X126755156Y-39432535D01*
X126764592Y-39435063D01*
X126774326Y-39435915D01*
X126774328Y-39435915D01*
X126990262Y-39454807D01*
X127000000Y-39455659D01*
X127009738Y-39454807D01*
X127225672Y-39435915D01*
X127225674Y-39435915D01*
X127235408Y-39435063D01*
X127244844Y-39432535D01*
X127244848Y-39432534D01*
X127454217Y-39376434D01*
X127463663Y-39373903D01*
X127677830Y-39274035D01*
X127871401Y-39138495D01*
X128038495Y-38971401D01*
X128086510Y-38902828D01*
X128154631Y-38839304D01*
X128242701Y-38808979D01*
X128335491Y-38817097D01*
X128416957Y-38862254D01*
X128453489Y-38902827D01*
X128501505Y-38971401D01*
X128668599Y-39138495D01*
X128862170Y-39274035D01*
X129076337Y-39373903D01*
X129085783Y-39376434D01*
X129295152Y-39432534D01*
X129295156Y-39432535D01*
X129304592Y-39435063D01*
X129314326Y-39435915D01*
X129314328Y-39435915D01*
X129530262Y-39454807D01*
X129540000Y-39455659D01*
X129549738Y-39454807D01*
X129765672Y-39435915D01*
X129765674Y-39435915D01*
X129775408Y-39435063D01*
X129784844Y-39432535D01*
X129784848Y-39432534D01*
X129994217Y-39376434D01*
X130003663Y-39373903D01*
X130217830Y-39274035D01*
X130411401Y-39138495D01*
X130578495Y-38971401D01*
X130626510Y-38902828D01*
X130694631Y-38839304D01*
X130782701Y-38808979D01*
X130875491Y-38817097D01*
X130956957Y-38862254D01*
X130993489Y-38902827D01*
X131041505Y-38971401D01*
X131208599Y-39138495D01*
X131402170Y-39274035D01*
X131616337Y-39373903D01*
X131625783Y-39376434D01*
X131835152Y-39432534D01*
X131835156Y-39432535D01*
X131844592Y-39435063D01*
X131854326Y-39435915D01*
X131854328Y-39435915D01*
X132070262Y-39454807D01*
X132080000Y-39455659D01*
X132089738Y-39454807D01*
X132305672Y-39435915D01*
X132305674Y-39435915D01*
X132315408Y-39435063D01*
X132324844Y-39432535D01*
X132324848Y-39432534D01*
X132534217Y-39376434D01*
X132543663Y-39373903D01*
X132757830Y-39274035D01*
X132951401Y-39138495D01*
X133118495Y-38971401D01*
X133166510Y-38902828D01*
X133234631Y-38839304D01*
X133322701Y-38808979D01*
X133415491Y-38817097D01*
X133496957Y-38862254D01*
X133533489Y-38902827D01*
X133581505Y-38971401D01*
X133748599Y-39138495D01*
X133942170Y-39274035D01*
X134156337Y-39373903D01*
X134165783Y-39376434D01*
X134375152Y-39432534D01*
X134375156Y-39432535D01*
X134384592Y-39435063D01*
X134394326Y-39435915D01*
X134394328Y-39435915D01*
X134610262Y-39454807D01*
X134620000Y-39455659D01*
X134629738Y-39454807D01*
X134845672Y-39435915D01*
X134845674Y-39435915D01*
X134855408Y-39435063D01*
X134864844Y-39432535D01*
X134864848Y-39432534D01*
X135074217Y-39376434D01*
X135083663Y-39373903D01*
X135297830Y-39274035D01*
X135491401Y-39138495D01*
X135658495Y-38971401D01*
X135706510Y-38902828D01*
X135774631Y-38839304D01*
X135862701Y-38808979D01*
X135955491Y-38817097D01*
X136036957Y-38862254D01*
X136073489Y-38902827D01*
X136121505Y-38971401D01*
X136288599Y-39138495D01*
X136482170Y-39274035D01*
X136696337Y-39373903D01*
X136705783Y-39376434D01*
X136915152Y-39432534D01*
X136915156Y-39432535D01*
X136924592Y-39435063D01*
X136934326Y-39435915D01*
X136934328Y-39435915D01*
X137150262Y-39454807D01*
X137160000Y-39455659D01*
X137169738Y-39454807D01*
X137385672Y-39435915D01*
X137385674Y-39435915D01*
X137395408Y-39435063D01*
X137404844Y-39432535D01*
X137404848Y-39432534D01*
X137614217Y-39376434D01*
X137623663Y-39373903D01*
X137837830Y-39274035D01*
X138031401Y-39138495D01*
X138198495Y-38971401D01*
X138246510Y-38902828D01*
X138314631Y-38839304D01*
X138402701Y-38808979D01*
X138495491Y-38817097D01*
X138576957Y-38862254D01*
X138613489Y-38902827D01*
X138661505Y-38971401D01*
X138828599Y-39138495D01*
X139022170Y-39274035D01*
X139031042Y-39278172D01*
X139209228Y-39361262D01*
X139283616Y-39417318D01*
X139328773Y-39498784D01*
X139336891Y-39591574D01*
X139306566Y-39679644D01*
X139243042Y-39747765D01*
X139218338Y-39762785D01*
X139159228Y-39793687D01*
X139159224Y-39793690D01*
X139149512Y-39798767D01*
X138996600Y-39921711D01*
X138870480Y-40072016D01*
X138775956Y-40243954D01*
X138716628Y-40430978D01*
X138715408Y-40441858D01*
X138715407Y-40441861D01*
X138700415Y-40575520D01*
X138694757Y-40625963D01*
X138711175Y-40821483D01*
X138714195Y-40832015D01*
X138714196Y-40832020D01*
X138723003Y-40862732D01*
X138765258Y-41010091D01*
X138775169Y-41029376D01*
X138796361Y-41070611D01*
X138820783Y-41160497D01*
X138806533Y-41252545D01*
X138756076Y-41330839D01*
X138678136Y-41381842D01*
X138597132Y-41397001D01*
X138242970Y-41397001D01*
X138230886Y-41397655D01*
X138188761Y-41402231D01*
X138161640Y-41408679D01*
X138053474Y-41449229D01*
X138025772Y-41464396D01*
X137934868Y-41532524D01*
X137912524Y-41554868D01*
X137889560Y-41585509D01*
X137819423Y-41646802D01*
X137730421Y-41674268D01*
X137637941Y-41663159D01*
X137557975Y-41615395D01*
X137531071Y-41585515D01*
X137502546Y-41547454D01*
X137475299Y-41527033D01*
X137400595Y-41471045D01*
X137400593Y-41471044D01*
X137387824Y-41461474D01*
X137372882Y-41455873D01*
X137372881Y-41455872D01*
X137266732Y-41416079D01*
X137266729Y-41416078D01*
X137253580Y-41411149D01*
X137239621Y-41409633D01*
X137239619Y-41409632D01*
X137224940Y-41408038D01*
X137192377Y-41404500D01*
X136595523Y-41404500D01*
X136546661Y-41399106D01*
X136496807Y-41387963D01*
X136460363Y-41379817D01*
X136454693Y-41379500D01*
X133830122Y-41379500D01*
X133739013Y-41360134D01*
X133694588Y-41333282D01*
X133688311Y-41327016D01*
X133539334Y-41235186D01*
X133373228Y-41180090D01*
X133269866Y-41169500D01*
X132545134Y-41169500D01*
X132440481Y-41180359D01*
X132428859Y-41184236D01*
X132428856Y-41184237D01*
X132286816Y-41231625D01*
X132286813Y-41231626D01*
X132274471Y-41235744D01*
X132125655Y-41327834D01*
X132002016Y-41451689D01*
X131910186Y-41600666D01*
X131855090Y-41766772D01*
X131844500Y-41870134D01*
X131844500Y-43219866D01*
X131855359Y-43324519D01*
X131859236Y-43336141D01*
X131859237Y-43336144D01*
X131903767Y-43469615D01*
X131910744Y-43490529D01*
X131917590Y-43501593D01*
X131917591Y-43501594D01*
X131947741Y-43550315D01*
X132002834Y-43639345D01*
X132012046Y-43648541D01*
X132040676Y-43677121D01*
X132126689Y-43762984D01*
X132275666Y-43854814D01*
X132441772Y-43909910D01*
X132488205Y-43914667D01*
X132576862Y-43943217D01*
X132646245Y-44005362D01*
X132684353Y-44090354D01*
X132684597Y-44183498D01*
X132646935Y-44268689D01*
X132577879Y-44331196D01*
X132489369Y-44360211D01*
X132465371Y-44361500D01*
X130423921Y-44361500D01*
X130332812Y-44342134D01*
X130257457Y-44287385D01*
X130210884Y-44206720D01*
X130201148Y-44114086D01*
X130229931Y-44025500D01*
X130292257Y-43956280D01*
X130377349Y-43918395D01*
X130400802Y-43914696D01*
X130403030Y-43914465D01*
X130449519Y-43909641D01*
X130461141Y-43905764D01*
X130461144Y-43905763D01*
X130603184Y-43858375D01*
X130603187Y-43858374D01*
X130615529Y-43854256D01*
X130764345Y-43762166D01*
X130887984Y-43638311D01*
X130979814Y-43489334D01*
X131034910Y-43323228D01*
X131045500Y-43219866D01*
X131045500Y-41870134D01*
X131034641Y-41765481D01*
X131026095Y-41739864D01*
X130983375Y-41611816D01*
X130983374Y-41611813D01*
X130979256Y-41599471D01*
X130969363Y-41583483D01*
X130894015Y-41461723D01*
X130887166Y-41450655D01*
X130763311Y-41327016D01*
X130614334Y-41235186D01*
X130448228Y-41180090D01*
X130344866Y-41169500D01*
X129620134Y-41169500D01*
X129515481Y-41180359D01*
X129503859Y-41184236D01*
X129503856Y-41184237D01*
X129361816Y-41231625D01*
X129361813Y-41231626D01*
X129349471Y-41235744D01*
X129200655Y-41327834D01*
X129077016Y-41451689D01*
X129070191Y-41462762D01*
X129070186Y-41462768D01*
X128992968Y-41588039D01*
X128928675Y-41655436D01*
X128842528Y-41690855D01*
X128802284Y-41694500D01*
X127255185Y-41694500D01*
X127211382Y-41690050D01*
X127202152Y-41687193D01*
X127191264Y-41686049D01*
X127191261Y-41686048D01*
X127124263Y-41679006D01*
X127007019Y-41666683D01*
X126996108Y-41667676D01*
X126996104Y-41667676D01*
X126822527Y-41683473D01*
X126822525Y-41683473D01*
X126811618Y-41684466D01*
X126801109Y-41687559D01*
X126633904Y-41736770D01*
X126633900Y-41736772D01*
X126623393Y-41739864D01*
X126613686Y-41744939D01*
X126613678Y-41744942D01*
X126536727Y-41785171D01*
X126447013Y-41810220D01*
X126354868Y-41796613D01*
X126276224Y-41746704D01*
X126224678Y-41669122D01*
X126209144Y-41577282D01*
X126210714Y-41558588D01*
X126223139Y-41460229D01*
X126226949Y-41430071D01*
X126227146Y-41415953D01*
X126227254Y-41408265D01*
X126227254Y-41408256D01*
X126227341Y-41402000D01*
X126225965Y-41387963D01*
X126209263Y-41217627D01*
X126209262Y-41217624D01*
X126208194Y-41206728D01*
X126151484Y-41018894D01*
X126146345Y-41009229D01*
X126146343Y-41009224D01*
X126064514Y-40855327D01*
X126064513Y-40855325D01*
X126059370Y-40845653D01*
X125935361Y-40693602D01*
X125834099Y-40609831D01*
X125792624Y-40575520D01*
X125792621Y-40575518D01*
X125784180Y-40568535D01*
X125683499Y-40514097D01*
X125621225Y-40480425D01*
X125621222Y-40480424D01*
X125611585Y-40475213D01*
X125475840Y-40433193D01*
X125434619Y-40420433D01*
X125434618Y-40420433D01*
X125424152Y-40417193D01*
X125229019Y-40396683D01*
X125218108Y-40397676D01*
X125218104Y-40397676D01*
X125044527Y-40413473D01*
X125044525Y-40413473D01*
X125033618Y-40414466D01*
X124845393Y-40469864D01*
X124835684Y-40474940D01*
X124835681Y-40474941D01*
X124737997Y-40526009D01*
X124648283Y-40551058D01*
X124634218Y-40551500D01*
X119967355Y-40551500D01*
X119876246Y-40532134D01*
X119860815Y-40524541D01*
X119841500Y-40514097D01*
X119832292Y-40509118D01*
X119779225Y-40480425D01*
X119779222Y-40480424D01*
X119769585Y-40475213D01*
X119633840Y-40433193D01*
X119592619Y-40420433D01*
X119592618Y-40420433D01*
X119582152Y-40417193D01*
X119387019Y-40396683D01*
X119376108Y-40397676D01*
X119376104Y-40397676D01*
X119202527Y-40413473D01*
X119202525Y-40413473D01*
X119191618Y-40414466D01*
X119181109Y-40417559D01*
X119013904Y-40466770D01*
X119013902Y-40466771D01*
X119003393Y-40469864D01*
X118983192Y-40480425D01*
X118848084Y-40551058D01*
X118829512Y-40560767D01*
X118676600Y-40683711D01*
X118550480Y-40834016D01*
X118545204Y-40843613D01*
X118545202Y-40843616D01*
X118478554Y-40964848D01*
X118455956Y-41005954D01*
X118452646Y-41016390D01*
X118452645Y-41016391D01*
X118442330Y-41048909D01*
X118396628Y-41192978D01*
X118395408Y-41203858D01*
X118395407Y-41203861D01*
X118376992Y-41368040D01*
X118374757Y-41387963D01*
X118391175Y-41583483D01*
X118394195Y-41594015D01*
X118394196Y-41594020D01*
X118419847Y-41683473D01*
X118445258Y-41772091D01*
X118534944Y-41946601D01*
X118656818Y-42100369D01*
X118806238Y-42227535D01*
X118977513Y-42323257D01*
X118987927Y-42326641D01*
X118987930Y-42326642D01*
X119153703Y-42380505D01*
X119164118Y-42383889D01*
X119358946Y-42407121D01*
X119475233Y-42398173D01*
X119543650Y-42392909D01*
X119543653Y-42392908D01*
X119554576Y-42392068D01*
X119565129Y-42389122D01*
X119565132Y-42389121D01*
X119649066Y-42365685D01*
X119743556Y-42339303D01*
X119867766Y-42276560D01*
X119957818Y-42252767D01*
X119968760Y-42252500D01*
X124634560Y-42252500D01*
X124725669Y-42271866D01*
X124743840Y-42280965D01*
X124809951Y-42317913D01*
X124819513Y-42323257D01*
X124829927Y-42326641D01*
X124829930Y-42326642D01*
X124995703Y-42380505D01*
X125006118Y-42383889D01*
X125200946Y-42407121D01*
X125317233Y-42398173D01*
X125385650Y-42392909D01*
X125385653Y-42392908D01*
X125396576Y-42392068D01*
X125407129Y-42389122D01*
X125407132Y-42389121D01*
X125574999Y-42342251D01*
X125575003Y-42342250D01*
X125585556Y-42339303D01*
X125687446Y-42287835D01*
X125777499Y-42264041D01*
X125869446Y-42278933D01*
X125947386Y-42329936D01*
X125997843Y-42408230D01*
X126012093Y-42500278D01*
X126011046Y-42512742D01*
X125994757Y-42657963D01*
X126011175Y-42853483D01*
X126065258Y-43042091D01*
X126154944Y-43216601D01*
X126204706Y-43279385D01*
X126266891Y-43357844D01*
X126276818Y-43370369D01*
X126426238Y-43497535D01*
X126597513Y-43593257D01*
X126607927Y-43596641D01*
X126607930Y-43596642D01*
X126773703Y-43650505D01*
X126784118Y-43653889D01*
X126978946Y-43677121D01*
X127095233Y-43668173D01*
X127163650Y-43662909D01*
X127163653Y-43662908D01*
X127174576Y-43662068D01*
X127185129Y-43659122D01*
X127185132Y-43659121D01*
X127352999Y-43612251D01*
X127353003Y-43612250D01*
X127363556Y-43609303D01*
X127538689Y-43520837D01*
X127547315Y-43514098D01*
X127547324Y-43514092D01*
X127638337Y-43442985D01*
X127722055Y-43402153D01*
X127776244Y-43395500D01*
X128802133Y-43395500D01*
X128893242Y-43414866D01*
X128968597Y-43469615D01*
X128992612Y-43501628D01*
X129077834Y-43639345D01*
X129087046Y-43648541D01*
X129115676Y-43677121D01*
X129201689Y-43762984D01*
X129350666Y-43854814D01*
X129516772Y-43909910D01*
X129563205Y-43914667D01*
X129651862Y-43943217D01*
X129721245Y-44005362D01*
X129759353Y-44090354D01*
X129759597Y-44183498D01*
X129721935Y-44268689D01*
X129652879Y-44331196D01*
X129564369Y-44360211D01*
X129540371Y-44361500D01*
X124399579Y-44361500D01*
X124308470Y-44342134D01*
X124233115Y-44287385D01*
X124186542Y-44206720D01*
X124177345Y-44109426D01*
X124190276Y-44007063D01*
X124194949Y-43970071D01*
X124195341Y-43942000D01*
X124193027Y-43918395D01*
X124180931Y-43795042D01*
X124176194Y-43746728D01*
X124133211Y-43604361D01*
X124122649Y-43569376D01*
X124122648Y-43569373D01*
X124119484Y-43558894D01*
X124114345Y-43549229D01*
X124114343Y-43549224D01*
X124032514Y-43395327D01*
X124032513Y-43395325D01*
X124027370Y-43385653D01*
X123967572Y-43312333D01*
X123910287Y-43242094D01*
X123910286Y-43242093D01*
X123903361Y-43233602D01*
X123790348Y-43140110D01*
X123760624Y-43115520D01*
X123760621Y-43115518D01*
X123752180Y-43108535D01*
X123629295Y-43042091D01*
X123589225Y-43020425D01*
X123589222Y-43020424D01*
X123579585Y-43015213D01*
X123392152Y-42957193D01*
X123197019Y-42936683D01*
X123186108Y-42937676D01*
X123186104Y-42937676D01*
X123012527Y-42953473D01*
X123012525Y-42953473D01*
X123001618Y-42954466D01*
X122813393Y-43009864D01*
X122803684Y-43014940D01*
X122803681Y-43014941D01*
X122705997Y-43066009D01*
X122616283Y-43091058D01*
X122602218Y-43091500D01*
X105997355Y-43091500D01*
X105906246Y-43072134D01*
X105890815Y-43064541D01*
X105809225Y-43020425D01*
X105809222Y-43020424D01*
X105799585Y-43015213D01*
X105612152Y-42957193D01*
X105417019Y-42936683D01*
X105406108Y-42937676D01*
X105406104Y-42937676D01*
X105232527Y-42953473D01*
X105232525Y-42953473D01*
X105221618Y-42954466D01*
X105033393Y-43009864D01*
X105023684Y-43014940D01*
X105023681Y-43014941D01*
X104925997Y-43066009D01*
X104836283Y-43091058D01*
X104822218Y-43091500D01*
X102788155Y-43091500D01*
X102769411Y-43090714D01*
X102734189Y-43087756D01*
X102734186Y-43087756D01*
X102722098Y-43086741D01*
X102692321Y-43090714D01*
X102643565Y-43097219D01*
X102638133Y-43097877D01*
X102571347Y-43105132D01*
X102571344Y-43105133D01*
X102559291Y-43106442D01*
X102549339Y-43109791D01*
X102538931Y-43111180D01*
X102464373Y-43138317D01*
X102459325Y-43140085D01*
X102384152Y-43165383D01*
X102375154Y-43170790D01*
X102365284Y-43174382D01*
X102298303Y-43216891D01*
X102293752Y-43219701D01*
X102225756Y-43260557D01*
X102218834Y-43267102D01*
X102217028Y-43268468D01*
X102209261Y-43273398D01*
X102205028Y-43277184D01*
X102152490Y-43329722D01*
X102148006Y-43334082D01*
X102091493Y-43387524D01*
X102086075Y-43395497D01*
X102078426Y-43403786D01*
X101665543Y-43816669D01*
X101651733Y-43829367D01*
X101624732Y-43852184D01*
X101624729Y-43852187D01*
X101615460Y-43860020D01*
X101608087Y-43869664D01*
X101567309Y-43922998D01*
X101563932Y-43927305D01*
X101521871Y-43979618D01*
X101514269Y-43989073D01*
X101509599Y-43998480D01*
X101503223Y-44006820D01*
X101493506Y-44027659D01*
X101469724Y-44078659D01*
X101467357Y-44083578D01*
X101432105Y-44154593D01*
X101429565Y-44164779D01*
X101425127Y-44174297D01*
X101408497Y-44248697D01*
X101407837Y-44251651D01*
X101406577Y-44256981D01*
X101387400Y-44333894D01*
X101387134Y-44343422D01*
X101386823Y-44345664D01*
X101384817Y-44354637D01*
X101384500Y-44360307D01*
X101384500Y-44434589D01*
X101384413Y-44440843D01*
X101382241Y-44518611D01*
X101384047Y-44528079D01*
X101384500Y-44539348D01*
X101384500Y-47672664D01*
X101365134Y-47763773D01*
X101356794Y-47780575D01*
X101310956Y-47863954D01*
X101307646Y-47874390D01*
X101307645Y-47874391D01*
X101288900Y-47933483D01*
X101251628Y-48050978D01*
X101250408Y-48061858D01*
X101250407Y-48061861D01*
X101232452Y-48221939D01*
X101229757Y-48245963D01*
X101246175Y-48441483D01*
X101249195Y-48452015D01*
X101249196Y-48452020D01*
X101266632Y-48512824D01*
X101300258Y-48630091D01*
X101389944Y-48804601D01*
X101445774Y-48875042D01*
X101497242Y-48939978D01*
X101511818Y-48958369D01*
X101661238Y-49085535D01*
X101832513Y-49181257D01*
X101842927Y-49184641D01*
X101842930Y-49184642D01*
X101945863Y-49218087D01*
X102019118Y-49241889D01*
X102213946Y-49265121D01*
X102330233Y-49256173D01*
X102398650Y-49250909D01*
X102398653Y-49250908D01*
X102409576Y-49250068D01*
X102420129Y-49247122D01*
X102420132Y-49247121D01*
X102587999Y-49200251D01*
X102588003Y-49200250D01*
X102598556Y-49197303D01*
X102773689Y-49108837D01*
X102865344Y-49037229D01*
X102919674Y-48994782D01*
X102919676Y-48994780D01*
X102928303Y-48988040D01*
X102939444Y-48975134D01*
X103049348Y-48847807D01*
X103056509Y-48839511D01*
X103071465Y-48813185D01*
X103148015Y-48678432D01*
X103153425Y-48668909D01*
X103215358Y-48482732D01*
X103217334Y-48467095D01*
X103232807Y-48344608D01*
X103239949Y-48288071D01*
X103240341Y-48260000D01*
X103236318Y-48218972D01*
X103222263Y-48075627D01*
X103222262Y-48075624D01*
X103221194Y-48064728D01*
X103164484Y-47876894D01*
X103111720Y-47777659D01*
X103086046Y-47688124D01*
X103085500Y-47672498D01*
X103085500Y-45016500D01*
X103104866Y-44925391D01*
X103159615Y-44850036D01*
X103240280Y-44803463D01*
X103309500Y-44792500D01*
X104822560Y-44792500D01*
X104913669Y-44811866D01*
X104931840Y-44820965D01*
X105007513Y-44863257D01*
X105017927Y-44866641D01*
X105017930Y-44866642D01*
X105116059Y-44898526D01*
X105194118Y-44923889D01*
X105388946Y-44947121D01*
X105505233Y-44938173D01*
X105573650Y-44932909D01*
X105573653Y-44932908D01*
X105584576Y-44932068D01*
X105595129Y-44929122D01*
X105595132Y-44929121D01*
X105704708Y-44898526D01*
X105773556Y-44879303D01*
X105897766Y-44816560D01*
X105987818Y-44792767D01*
X105998760Y-44792500D01*
X113710461Y-44792500D01*
X113801570Y-44811866D01*
X113876925Y-44866615D01*
X113923498Y-44947280D01*
X113933065Y-45041467D01*
X113930978Y-45060073D01*
X113930978Y-45060078D01*
X113929757Y-45070963D01*
X113930674Y-45081882D01*
X113945778Y-45261757D01*
X113934104Y-45354166D01*
X113885853Y-45433839D01*
X113809367Y-45486997D01*
X113722564Y-45504500D01*
X113617355Y-45504500D01*
X113526246Y-45485134D01*
X113510815Y-45477541D01*
X113429225Y-45433425D01*
X113429222Y-45433424D01*
X113419585Y-45428213D01*
X113232152Y-45370193D01*
X113037019Y-45349683D01*
X113026108Y-45350676D01*
X113026104Y-45350676D01*
X112852527Y-45366473D01*
X112852525Y-45366473D01*
X112841618Y-45367466D01*
X112831109Y-45370559D01*
X112663904Y-45419770D01*
X112663900Y-45419772D01*
X112653393Y-45422864D01*
X112479512Y-45513767D01*
X112326600Y-45636711D01*
X112319555Y-45645107D01*
X112285792Y-45685345D01*
X112200480Y-45787016D01*
X112195204Y-45796613D01*
X112195202Y-45796616D01*
X112174527Y-45834224D01*
X112105956Y-45958954D01*
X112046628Y-46145978D01*
X112045408Y-46156858D01*
X112045407Y-46156861D01*
X112034276Y-46256100D01*
X112024757Y-46340963D01*
X112041175Y-46536483D01*
X112044195Y-46547015D01*
X112044196Y-46547020D01*
X112059913Y-46601830D01*
X112095258Y-46725091D01*
X112184944Y-46899601D01*
X112234401Y-46962001D01*
X112299077Y-47043602D01*
X112306818Y-47053369D01*
X112456238Y-47180535D01*
X112627513Y-47276257D01*
X112637927Y-47279641D01*
X112637930Y-47279642D01*
X112803703Y-47333505D01*
X112814118Y-47336889D01*
X113008946Y-47360121D01*
X113125233Y-47351173D01*
X113193650Y-47345909D01*
X113193653Y-47345908D01*
X113204576Y-47345068D01*
X113215129Y-47342122D01*
X113215132Y-47342121D01*
X113299066Y-47318685D01*
X113393556Y-47292303D01*
X113517766Y-47229560D01*
X113607818Y-47205767D01*
X113618760Y-47205500D01*
X121093927Y-47205500D01*
X121185036Y-47224866D01*
X121252319Y-47271108D01*
X123401668Y-49420456D01*
X123414366Y-49434266D01*
X123442812Y-49467927D01*
X123445019Y-49470539D01*
X123444754Y-49470763D01*
X123492878Y-49541048D01*
X123509691Y-49632663D01*
X123487787Y-49723195D01*
X123430954Y-49796992D01*
X123349019Y-49841292D01*
X123256149Y-49848437D01*
X123219544Y-49840388D01*
X123214023Y-49838679D01*
X123132721Y-49793236D01*
X123121882Y-49783093D01*
X121918331Y-48579543D01*
X121905633Y-48565733D01*
X121882816Y-48538732D01*
X121882813Y-48538729D01*
X121874980Y-48529460D01*
X121829733Y-48494866D01*
X121812002Y-48481309D01*
X121807695Y-48477932D01*
X121755382Y-48435871D01*
X121755381Y-48435871D01*
X121745927Y-48428269D01*
X121736520Y-48423599D01*
X121728180Y-48417223D01*
X121698527Y-48403396D01*
X121656341Y-48383724D01*
X121651409Y-48381351D01*
X121645827Y-48378580D01*
X121580407Y-48346105D01*
X121570221Y-48343565D01*
X121560703Y-48339127D01*
X121483350Y-48321837D01*
X121478019Y-48320577D01*
X121412873Y-48304334D01*
X121412874Y-48304334D01*
X121401106Y-48301400D01*
X121391578Y-48301134D01*
X121389336Y-48300823D01*
X121380363Y-48298817D01*
X121374693Y-48298500D01*
X121300411Y-48298500D01*
X121294157Y-48298413D01*
X121294086Y-48298411D01*
X121216389Y-48296241D01*
X121206921Y-48298047D01*
X121195652Y-48298500D01*
X112474355Y-48298500D01*
X112383246Y-48279134D01*
X112367815Y-48271541D01*
X112358058Y-48266265D01*
X112320510Y-48245963D01*
X112286225Y-48227425D01*
X112286222Y-48227424D01*
X112276585Y-48222213D01*
X112089152Y-48164193D01*
X111894019Y-48143683D01*
X111883108Y-48144676D01*
X111883104Y-48144676D01*
X111709527Y-48160473D01*
X111709525Y-48160473D01*
X111698618Y-48161466D01*
X111688109Y-48164559D01*
X111520904Y-48213770D01*
X111520900Y-48213772D01*
X111510393Y-48216864D01*
X111490192Y-48227425D01*
X111348152Y-48301682D01*
X111336512Y-48307767D01*
X111183600Y-48430711D01*
X111176555Y-48439107D01*
X111122214Y-48503869D01*
X111057480Y-48581016D01*
X111052204Y-48590613D01*
X111052202Y-48590616D01*
X111025144Y-48639835D01*
X110962956Y-48752954D01*
X110903628Y-48939978D01*
X110902408Y-48950858D01*
X110902407Y-48950861D01*
X110884134Y-49113775D01*
X110881757Y-49134963D01*
X110898175Y-49330483D01*
X110901195Y-49341015D01*
X110901196Y-49341020D01*
X110924016Y-49420599D01*
X110952258Y-49519091D01*
X111041944Y-49693601D01*
X111083078Y-49745500D01*
X111154866Y-49836074D01*
X111163818Y-49847369D01*
X111313238Y-49974535D01*
X111484513Y-50070257D01*
X111494927Y-50073641D01*
X111494930Y-50073642D01*
X111627221Y-50116626D01*
X111671118Y-50130889D01*
X111865946Y-50154121D01*
X111982233Y-50145173D01*
X112050650Y-50139909D01*
X112050653Y-50139908D01*
X112061576Y-50139068D01*
X112072129Y-50136122D01*
X112072132Y-50136121D01*
X112156066Y-50112685D01*
X112250556Y-50086303D01*
X112374766Y-50023560D01*
X112464818Y-49999767D01*
X112475760Y-49999500D01*
X113483927Y-49999500D01*
X113575036Y-50018866D01*
X113650391Y-50073615D01*
X113696964Y-50154280D01*
X113706700Y-50246914D01*
X113677917Y-50335500D01*
X113642319Y-50381892D01*
X112870320Y-51153892D01*
X112792203Y-51204622D01*
X112711928Y-51219500D01*
X111227867Y-51219500D01*
X111136758Y-51200134D01*
X111061403Y-51145385D01*
X111037388Y-51113372D01*
X110987731Y-51033128D01*
X110952166Y-50975655D01*
X110828311Y-50852016D01*
X110679334Y-50760186D01*
X110513228Y-50705090D01*
X110409866Y-50694500D01*
X109685134Y-50694500D01*
X109580481Y-50705359D01*
X109568859Y-50709236D01*
X109568856Y-50709237D01*
X109426816Y-50756625D01*
X109426813Y-50756626D01*
X109414471Y-50760744D01*
X109403407Y-50767590D01*
X109403406Y-50767591D01*
X109328614Y-50813874D01*
X109265655Y-50852834D01*
X109256459Y-50862046D01*
X109224063Y-50894499D01*
X109142016Y-50976689D01*
X109050186Y-51125666D01*
X108995090Y-51291772D01*
X108984500Y-51395134D01*
X108984500Y-52744866D01*
X108995359Y-52849519D01*
X108999236Y-52861141D01*
X108999237Y-52861144D01*
X109032073Y-52959564D01*
X109050744Y-53015529D01*
X109057590Y-53026593D01*
X109057591Y-53026594D01*
X109069245Y-53045427D01*
X109142834Y-53164345D01*
X109266689Y-53287984D01*
X109415666Y-53379814D01*
X109581772Y-53434910D01*
X109685134Y-53445500D01*
X110409866Y-53445500D01*
X110514519Y-53434641D01*
X110526141Y-53430764D01*
X110526144Y-53430763D01*
X110668184Y-53383375D01*
X110668187Y-53383374D01*
X110680529Y-53379256D01*
X110695127Y-53370223D01*
X110818277Y-53294015D01*
X110829345Y-53287166D01*
X110841653Y-53274837D01*
X110899210Y-53217179D01*
X110952984Y-53163311D01*
X110959810Y-53152237D01*
X110959814Y-53152232D01*
X111037032Y-53026961D01*
X111101325Y-52959564D01*
X111187472Y-52924145D01*
X111227716Y-52920500D01*
X113111833Y-52920500D01*
X113130577Y-52921286D01*
X113165811Y-52924245D01*
X113165814Y-52924245D01*
X113177902Y-52925260D01*
X113256489Y-52914775D01*
X113261868Y-52914123D01*
X113287060Y-52911386D01*
X113328654Y-52906868D01*
X113328657Y-52906867D01*
X113340709Y-52905558D01*
X113350661Y-52902209D01*
X113361069Y-52900820D01*
X113372469Y-52896671D01*
X113372472Y-52896670D01*
X113435563Y-52873707D01*
X113440727Y-52871898D01*
X113504354Y-52850485D01*
X113515848Y-52846617D01*
X113524848Y-52841209D01*
X113534715Y-52837618D01*
X113544952Y-52831121D01*
X113544961Y-52831117D01*
X113601637Y-52795149D01*
X113606291Y-52792274D01*
X113663851Y-52757688D01*
X113663852Y-52757687D01*
X113674244Y-52751443D01*
X113681164Y-52744899D01*
X113682982Y-52743524D01*
X113690738Y-52738602D01*
X113694972Y-52734817D01*
X113747528Y-52682261D01*
X113752012Y-52677901D01*
X113799694Y-52632810D01*
X113808507Y-52624476D01*
X113813924Y-52616505D01*
X113821567Y-52608222D01*
X114868681Y-51561108D01*
X114946799Y-51510378D01*
X115027073Y-51495500D01*
X116188000Y-51495500D01*
X116279109Y-51514866D01*
X116354464Y-51569615D01*
X116401037Y-51650280D01*
X116412000Y-51719500D01*
X116412000Y-52744866D01*
X116422859Y-52849519D01*
X116426736Y-52861141D01*
X116426737Y-52861144D01*
X116459573Y-52959564D01*
X116478244Y-53015529D01*
X116485090Y-53026593D01*
X116485091Y-53026594D01*
X116563485Y-53153278D01*
X116563487Y-53153281D01*
X116570334Y-53164345D01*
X116576953Y-53170953D01*
X116617462Y-53252555D01*
X116624500Y-53308264D01*
X116624500Y-55736228D01*
X116615606Y-55798722D01*
X116588950Y-55890472D01*
X116572402Y-55947431D01*
X116569500Y-55984306D01*
X116569500Y-56415694D01*
X116572402Y-56452569D01*
X116575592Y-56463550D01*
X116575593Y-56463554D01*
X116614324Y-56596866D01*
X116614326Y-56596870D01*
X116618256Y-56610398D01*
X116701919Y-56751865D01*
X116818135Y-56868081D01*
X116830269Y-56875257D01*
X116959602Y-56951744D01*
X116957859Y-56954692D01*
X117013534Y-56994256D01*
X117060951Y-57074428D01*
X117071659Y-57166955D01*
X117043808Y-57255838D01*
X116982212Y-57325708D01*
X116956238Y-57340706D01*
X116956600Y-57341318D01*
X116825629Y-57418773D01*
X116803540Y-57435907D01*
X116705907Y-57533540D01*
X116688773Y-57555629D01*
X116618492Y-57674469D01*
X116607385Y-57700136D01*
X116571576Y-57823392D01*
X116570149Y-57842812D01*
X116577962Y-57846000D01*
X118679065Y-57846000D01*
X118770174Y-57865366D01*
X118793090Y-57877194D01*
X118834602Y-57901744D01*
X118848130Y-57905674D01*
X118848134Y-57905676D01*
X118879864Y-57914894D01*
X118961952Y-57958910D01*
X119016895Y-58029743D01*
X119044138Y-57997505D01*
X119127997Y-57956966D01*
X119181429Y-57950500D01*
X119346246Y-57950500D01*
X119406657Y-57960501D01*
X119406797Y-57959873D01*
X119418635Y-57962519D01*
X119535147Y-57988562D01*
X119587137Y-58000183D01*
X119592807Y-58000500D01*
X119594897Y-58000500D01*
X119599185Y-58001095D01*
X119686768Y-58032800D01*
X119726788Y-58064577D01*
X121748892Y-60086680D01*
X121799622Y-60164798D01*
X121814500Y-60245072D01*
X121814500Y-60634928D01*
X121795134Y-60726037D01*
X121740385Y-60801392D01*
X121659720Y-60847965D01*
X121567086Y-60857701D01*
X121478500Y-60828918D01*
X121432108Y-60793320D01*
X121349331Y-60710543D01*
X121336633Y-60696733D01*
X121313816Y-60669732D01*
X121313813Y-60669729D01*
X121305980Y-60660460D01*
X121268740Y-60631988D01*
X121243002Y-60612309D01*
X121238695Y-60608932D01*
X121186382Y-60566871D01*
X121186381Y-60566871D01*
X121176927Y-60559269D01*
X121167520Y-60554599D01*
X121159180Y-60548223D01*
X121105125Y-60523017D01*
X121087341Y-60514724D01*
X121082409Y-60512351D01*
X121011407Y-60477105D01*
X121001221Y-60474565D01*
X120991703Y-60470127D01*
X120914350Y-60452837D01*
X120909019Y-60451577D01*
X120896388Y-60448428D01*
X120832106Y-60432400D01*
X120822578Y-60432134D01*
X120820336Y-60431823D01*
X120811363Y-60429817D01*
X120805693Y-60429500D01*
X120731411Y-60429500D01*
X120725157Y-60429413D01*
X120725086Y-60429411D01*
X120647389Y-60427241D01*
X120637921Y-60429047D01*
X120626652Y-60429500D01*
X120523415Y-60429500D01*
X120432306Y-60410134D01*
X120356951Y-60355385D01*
X120352584Y-60350097D01*
X120351102Y-60347762D01*
X120347317Y-60343528D01*
X120294762Y-60290973D01*
X120290402Y-60286489D01*
X120245310Y-60238806D01*
X120245311Y-60238806D01*
X120236976Y-60229993D01*
X120229005Y-60224576D01*
X120220722Y-60216933D01*
X119632331Y-59628543D01*
X119619633Y-59614733D01*
X119596816Y-59587732D01*
X119596813Y-59587729D01*
X119588980Y-59578460D01*
X119554176Y-59551850D01*
X119526002Y-59530309D01*
X119521695Y-59526932D01*
X119469382Y-59484871D01*
X119469381Y-59484871D01*
X119459927Y-59477269D01*
X119450520Y-59472599D01*
X119442180Y-59466223D01*
X119397190Y-59445244D01*
X119370341Y-59432724D01*
X119365409Y-59430351D01*
X119364700Y-59429999D01*
X119294407Y-59395105D01*
X119284221Y-59392565D01*
X119274703Y-59388127D01*
X119197350Y-59370837D01*
X119192019Y-59369577D01*
X119126873Y-59353334D01*
X119126874Y-59353334D01*
X119115106Y-59350400D01*
X119105578Y-59350134D01*
X119103336Y-59349823D01*
X119094363Y-59347817D01*
X119088693Y-59347500D01*
X119014411Y-59347500D01*
X119008157Y-59347413D01*
X119008086Y-59347411D01*
X118930389Y-59345241D01*
X118920921Y-59347047D01*
X118909652Y-59347500D01*
X118543013Y-59347500D01*
X118451904Y-59328134D01*
X118376549Y-59273385D01*
X118329976Y-59192720D01*
X118320240Y-59100086D01*
X118349023Y-59011500D01*
X118411349Y-58942280D01*
X118502770Y-58903145D01*
X118509745Y-58901871D01*
X118644864Y-58862615D01*
X118670531Y-58851508D01*
X118789371Y-58781227D01*
X118811460Y-58764093D01*
X118909093Y-58666460D01*
X118926227Y-58644371D01*
X118996508Y-58525531D01*
X119007615Y-58499864D01*
X119043424Y-58376608D01*
X119044952Y-58355815D01*
X119019755Y-58329540D01*
X118984890Y-58273309D01*
X118972408Y-58291675D01*
X118893246Y-58340758D01*
X118817369Y-58354000D01*
X116588551Y-58354000D01*
X116569503Y-58358049D01*
X116568621Y-58366440D01*
X116607385Y-58499864D01*
X116618492Y-58525531D01*
X116688773Y-58644371D01*
X116705907Y-58666460D01*
X116803540Y-58764093D01*
X116825629Y-58781227D01*
X116944469Y-58851508D01*
X116970136Y-58862615D01*
X117105257Y-58901872D01*
X117112233Y-58903146D01*
X117198379Y-58938567D01*
X117262671Y-59005965D01*
X117293991Y-59093686D01*
X117286924Y-59186562D01*
X117242692Y-59268534D01*
X117168943Y-59325428D01*
X117071984Y-59347500D01*
X114980167Y-59347500D01*
X114961423Y-59346714D01*
X114926189Y-59343755D01*
X114926186Y-59343755D01*
X114914098Y-59342740D01*
X114835511Y-59353225D01*
X114830132Y-59353877D01*
X114804940Y-59356614D01*
X114763346Y-59361132D01*
X114763343Y-59361133D01*
X114751291Y-59362442D01*
X114741339Y-59365791D01*
X114730931Y-59367180D01*
X114719531Y-59371329D01*
X114719528Y-59371330D01*
X114656437Y-59394293D01*
X114651274Y-59396102D01*
X114576152Y-59421383D01*
X114567152Y-59426791D01*
X114557285Y-59430382D01*
X114547048Y-59436879D01*
X114547039Y-59436883D01*
X114490363Y-59472851D01*
X114485709Y-59475726D01*
X114428168Y-59510301D01*
X114417756Y-59516557D01*
X114410836Y-59523101D01*
X114409018Y-59524476D01*
X114401262Y-59529398D01*
X114397028Y-59533183D01*
X114344473Y-59585738D01*
X114339989Y-59590098D01*
X114283493Y-59643524D01*
X114278077Y-59651494D01*
X114270433Y-59659777D01*
X114094048Y-59836163D01*
X114015931Y-59886894D01*
X113923933Y-59901465D01*
X113833963Y-59877358D01*
X113761576Y-59818740D01*
X113723170Y-59748663D01*
X113708375Y-59704316D01*
X113708374Y-59704313D01*
X113704256Y-59691971D01*
X113685166Y-59661121D01*
X113619015Y-59554223D01*
X113612166Y-59543155D01*
X113488311Y-59419516D01*
X113477237Y-59412690D01*
X113477232Y-59412686D01*
X113351961Y-59335468D01*
X113284564Y-59271175D01*
X113249145Y-59185028D01*
X113245500Y-59144784D01*
X113245500Y-57703155D01*
X113246286Y-57684411D01*
X113249244Y-57649189D01*
X113249244Y-57649186D01*
X113250259Y-57637098D01*
X113240711Y-57565535D01*
X113239781Y-57558565D01*
X113239123Y-57553133D01*
X113231868Y-57486347D01*
X113231867Y-57486344D01*
X113230558Y-57474291D01*
X113227209Y-57464339D01*
X113225820Y-57453931D01*
X113198683Y-57379373D01*
X113196915Y-57374325D01*
X113171617Y-57299152D01*
X113166210Y-57290154D01*
X113162618Y-57280284D01*
X113120109Y-57213303D01*
X113117299Y-57208752D01*
X113076443Y-57140756D01*
X113069898Y-57133834D01*
X113068532Y-57132028D01*
X113063602Y-57124261D01*
X113059816Y-57120028D01*
X113007278Y-57067490D01*
X113002918Y-57063006D01*
X112957809Y-57015305D01*
X112949476Y-57006493D01*
X112941503Y-57001075D01*
X112933214Y-56993426D01*
X112520331Y-56580543D01*
X112507633Y-56566733D01*
X112484816Y-56539732D01*
X112484813Y-56539729D01*
X112476980Y-56530460D01*
X112446319Y-56507018D01*
X112414002Y-56482309D01*
X112409695Y-56478932D01*
X112357382Y-56436871D01*
X112357381Y-56436871D01*
X112347927Y-56429269D01*
X112338520Y-56424599D01*
X112330180Y-56418223D01*
X112278928Y-56394324D01*
X112258341Y-56384724D01*
X112253409Y-56382351D01*
X112182407Y-56347105D01*
X112172221Y-56344565D01*
X112162703Y-56340127D01*
X112085350Y-56322837D01*
X112080019Y-56321577D01*
X112014873Y-56305334D01*
X112014874Y-56305334D01*
X112003106Y-56302400D01*
X111993578Y-56302134D01*
X111991336Y-56301823D01*
X111982363Y-56299817D01*
X111976693Y-56299500D01*
X111902411Y-56299500D01*
X111896157Y-56299413D01*
X111896086Y-56299411D01*
X111818389Y-56297241D01*
X111808921Y-56299047D01*
X111797652Y-56299500D01*
X109476336Y-56299500D01*
X109436404Y-56303838D01*
X109350847Y-56313132D01*
X109350844Y-56313133D01*
X109338791Y-56314442D01*
X109269383Y-56337800D01*
X109197938Y-56349500D01*
X109109500Y-56349500D01*
X109018391Y-56330134D01*
X108943036Y-56275385D01*
X108896463Y-56194720D01*
X108885500Y-56125500D01*
X108885500Y-55984306D01*
X108882598Y-55947431D01*
X108866050Y-55890472D01*
X108840676Y-55803134D01*
X108840674Y-55803130D01*
X108836744Y-55789602D01*
X108753081Y-55648135D01*
X108636865Y-55531919D01*
X108495398Y-55448256D01*
X108481870Y-55444326D01*
X108481866Y-55444324D01*
X108348554Y-55405593D01*
X108348550Y-55405592D01*
X108337569Y-55402402D01*
X108313691Y-55400523D01*
X108305082Y-55399845D01*
X108305074Y-55399845D01*
X108300694Y-55399500D01*
X108197000Y-55399500D01*
X108105891Y-55380134D01*
X108030536Y-55325385D01*
X107983963Y-55244720D01*
X107973000Y-55175500D01*
X107973000Y-53308288D01*
X107992366Y-53217179D01*
X108020229Y-53171080D01*
X108027984Y-53163311D01*
X108119814Y-53014334D01*
X108174910Y-52848228D01*
X108185500Y-52744866D01*
X108185500Y-51395134D01*
X108174641Y-51290481D01*
X108156762Y-51236891D01*
X108123375Y-51136816D01*
X108123374Y-51136813D01*
X108119256Y-51124471D01*
X108105082Y-51101565D01*
X108034015Y-50986723D01*
X108027166Y-50975655D01*
X107903311Y-50852016D01*
X107754334Y-50760186D01*
X107588228Y-50705090D01*
X107484866Y-50694500D01*
X106760134Y-50694500D01*
X106655481Y-50705359D01*
X106643859Y-50709236D01*
X106643856Y-50709237D01*
X106501816Y-50756625D01*
X106501813Y-50756626D01*
X106489471Y-50760744D01*
X106478407Y-50767590D01*
X106478406Y-50767591D01*
X106403614Y-50813874D01*
X106340655Y-50852834D01*
X106331459Y-50862046D01*
X106299063Y-50894499D01*
X106217016Y-50976689D01*
X106125186Y-51125666D01*
X106070090Y-51291772D01*
X106059500Y-51395134D01*
X106059500Y-52744866D01*
X106070359Y-52849519D01*
X106074236Y-52861141D01*
X106074237Y-52861144D01*
X106107073Y-52959564D01*
X106125744Y-53015529D01*
X106132590Y-53026593D01*
X106132591Y-53026594D01*
X106210985Y-53153278D01*
X106210987Y-53153281D01*
X106217834Y-53164345D01*
X106224453Y-53170953D01*
X106264962Y-53252555D01*
X106272000Y-53308264D01*
X106272000Y-55629833D01*
X106271214Y-55648577D01*
X106267240Y-55695902D01*
X106272621Y-55736228D01*
X106277721Y-55774452D01*
X106278377Y-55779868D01*
X106286942Y-55858709D01*
X106290291Y-55868661D01*
X106291680Y-55879069D01*
X106295829Y-55890469D01*
X106295830Y-55890472D01*
X106318793Y-55953563D01*
X106320602Y-55958726D01*
X106345883Y-56033848D01*
X106351291Y-56042848D01*
X106354882Y-56052715D01*
X106361381Y-56062955D01*
X106361381Y-56062956D01*
X106374630Y-56083833D01*
X106407097Y-56171136D01*
X106409500Y-56203858D01*
X106409500Y-56415694D01*
X106412402Y-56452569D01*
X106415592Y-56463550D01*
X106415593Y-56463554D01*
X106454324Y-56596866D01*
X106454326Y-56596870D01*
X106458256Y-56610398D01*
X106541919Y-56751865D01*
X106658135Y-56868081D01*
X106670269Y-56875257D01*
X106799602Y-56951744D01*
X106797859Y-56954692D01*
X106853534Y-56994256D01*
X106900951Y-57074428D01*
X106911659Y-57166955D01*
X106883808Y-57255838D01*
X106822212Y-57325708D01*
X106796238Y-57340706D01*
X106796600Y-57341318D01*
X106665629Y-57418773D01*
X106643540Y-57435907D01*
X106545907Y-57533540D01*
X106528773Y-57555629D01*
X106458492Y-57674469D01*
X106447385Y-57700136D01*
X106411576Y-57823392D01*
X106410149Y-57842812D01*
X106417962Y-57846000D01*
X108519065Y-57846000D01*
X108610174Y-57865366D01*
X108633090Y-57877194D01*
X108674602Y-57901744D01*
X108688130Y-57905674D01*
X108688134Y-57905676D01*
X108719864Y-57914894D01*
X108801952Y-57958910D01*
X108856895Y-58029743D01*
X108884138Y-57997505D01*
X108967997Y-57956966D01*
X109021429Y-57950500D01*
X109186246Y-57950500D01*
X109246657Y-57960501D01*
X109246797Y-57959873D01*
X109258635Y-57962519D01*
X109418175Y-57998180D01*
X109418177Y-57998180D01*
X109427137Y-58000183D01*
X109432807Y-58000500D01*
X111320500Y-58000500D01*
X111411609Y-58019866D01*
X111486964Y-58074615D01*
X111533537Y-58155280D01*
X111544500Y-58224500D01*
X111544500Y-59144633D01*
X111525134Y-59235742D01*
X111470385Y-59311097D01*
X111438372Y-59335112D01*
X111408926Y-59353334D01*
X111300655Y-59420334D01*
X111291459Y-59429546D01*
X111289443Y-59431566D01*
X111177016Y-59544189D01*
X111085186Y-59693166D01*
X111030090Y-59859272D01*
X111019500Y-59962634D01*
X111019500Y-60363000D01*
X111000134Y-60454109D01*
X110945385Y-60529464D01*
X110864720Y-60576037D01*
X110795500Y-60587000D01*
X110531008Y-60587000D01*
X110439899Y-60567634D01*
X110416984Y-60555807D01*
X110370398Y-60528256D01*
X110356870Y-60524326D01*
X110356866Y-60524324D01*
X110223554Y-60485593D01*
X110223550Y-60485592D01*
X110212569Y-60482402D01*
X110188691Y-60480523D01*
X110180082Y-60479845D01*
X110180074Y-60479845D01*
X110175694Y-60479500D01*
X109858754Y-60479500D01*
X109798343Y-60469500D01*
X109798203Y-60470127D01*
X109786984Y-60467619D01*
X109786978Y-60467618D01*
X109786368Y-60467482D01*
X109786366Y-60467481D01*
X109720849Y-60452837D01*
X109715519Y-60451577D01*
X109702888Y-60448428D01*
X109638606Y-60432400D01*
X109629078Y-60432134D01*
X109626836Y-60431823D01*
X109617863Y-60429817D01*
X109612193Y-60429500D01*
X109537911Y-60429500D01*
X109531657Y-60429413D01*
X109531586Y-60429411D01*
X109453889Y-60427241D01*
X109444421Y-60429047D01*
X109433152Y-60429500D01*
X106555597Y-60429500D01*
X106464488Y-60410134D01*
X106397205Y-60363892D01*
X105539035Y-59505723D01*
X105488305Y-59427606D01*
X105482987Y-59412074D01*
X105454926Y-59319130D01*
X105451761Y-59308647D01*
X105392074Y-59196392D01*
X105364791Y-59145080D01*
X105364790Y-59145078D01*
X105359647Y-59135406D01*
X105348437Y-59121661D01*
X105242564Y-58991847D01*
X105242563Y-58991846D01*
X105235638Y-58983355D01*
X105144132Y-58907655D01*
X105092901Y-58865273D01*
X105092898Y-58865271D01*
X105084457Y-58858288D01*
X104911862Y-58764966D01*
X104904427Y-58762665D01*
X104829165Y-58710358D01*
X104780913Y-58630686D01*
X104769237Y-58538276D01*
X104796158Y-58449107D01*
X104837974Y-58394806D01*
X104840103Y-58392779D01*
X104848728Y-58386040D01*
X104856384Y-58377171D01*
X104865647Y-58366440D01*
X106408621Y-58366440D01*
X106447385Y-58499864D01*
X106458492Y-58525531D01*
X106528773Y-58644371D01*
X106545907Y-58666460D01*
X106643540Y-58764093D01*
X106665629Y-58781227D01*
X106784469Y-58851508D01*
X106810136Y-58862615D01*
X106945257Y-58901872D01*
X106967653Y-58905963D01*
X106989155Y-58907655D01*
X106997950Y-58908000D01*
X107369956Y-58908000D01*
X107390350Y-58903665D01*
X107391790Y-58901171D01*
X107393500Y-58890374D01*
X107393500Y-58884455D01*
X107901500Y-58884455D01*
X107905835Y-58904849D01*
X107908329Y-58906289D01*
X107919126Y-58907999D01*
X108297068Y-58907999D01*
X108305831Y-58907655D01*
X108327341Y-58905963D01*
X108349745Y-58901871D01*
X108484864Y-58862615D01*
X108510531Y-58851508D01*
X108629371Y-58781227D01*
X108651460Y-58764093D01*
X108749093Y-58666460D01*
X108766227Y-58644371D01*
X108836508Y-58525531D01*
X108847615Y-58499864D01*
X108883424Y-58376608D01*
X108884952Y-58355815D01*
X108859755Y-58329540D01*
X108824890Y-58273309D01*
X108812408Y-58291675D01*
X108733246Y-58340758D01*
X108657369Y-58354000D01*
X107925044Y-58354000D01*
X107904650Y-58358335D01*
X107903210Y-58360829D01*
X107901500Y-58371626D01*
X107901500Y-58884455D01*
X107393500Y-58884455D01*
X107393500Y-58377544D01*
X107389165Y-58357150D01*
X107386671Y-58355710D01*
X107375874Y-58354000D01*
X106428551Y-58354000D01*
X106409503Y-58358049D01*
X106408621Y-58366440D01*
X104865647Y-58366440D01*
X104948747Y-58270166D01*
X104976934Y-58237511D01*
X104984302Y-58224542D01*
X105068440Y-58076432D01*
X105073850Y-58066909D01*
X105135783Y-57880732D01*
X105138374Y-57860227D01*
X105152650Y-57747213D01*
X105160374Y-57686071D01*
X105160766Y-57658000D01*
X105159335Y-57643407D01*
X105142688Y-57473627D01*
X105142687Y-57473624D01*
X105141619Y-57462728D01*
X105112323Y-57365694D01*
X105088074Y-57285376D01*
X105088073Y-57285373D01*
X105084909Y-57274894D01*
X105079770Y-57265229D01*
X105079768Y-57265224D01*
X104997939Y-57111327D01*
X104997938Y-57111325D01*
X104992795Y-57101653D01*
X104963137Y-57065288D01*
X104875712Y-56958094D01*
X104875711Y-56958093D01*
X104868786Y-56949602D01*
X104773744Y-56870977D01*
X104726049Y-56831520D01*
X104726046Y-56831518D01*
X104717605Y-56824535D01*
X104594720Y-56758091D01*
X104554650Y-56736425D01*
X104554647Y-56736424D01*
X104545010Y-56731213D01*
X104432130Y-56696271D01*
X104368044Y-56676433D01*
X104368043Y-56676433D01*
X104357577Y-56673193D01*
X104162444Y-56652683D01*
X104151533Y-56653676D01*
X104151529Y-56653676D01*
X103977952Y-56669473D01*
X103977950Y-56669473D01*
X103967043Y-56670466D01*
X103956534Y-56673559D01*
X103789329Y-56722770D01*
X103789325Y-56722772D01*
X103778818Y-56725864D01*
X103710018Y-56761832D01*
X103642922Y-56796909D01*
X103604937Y-56816767D01*
X103452025Y-56939711D01*
X103444980Y-56948107D01*
X103386222Y-57018133D01*
X103325905Y-57090016D01*
X103320629Y-57099613D01*
X103320627Y-57099616D01*
X103277300Y-57178427D01*
X103231381Y-57261954D01*
X103228070Y-57272392D01*
X103193393Y-57381705D01*
X103147385Y-57462693D01*
X103138271Y-57472365D01*
X102903320Y-57707317D01*
X102889510Y-57720015D01*
X102862509Y-57742832D01*
X102862506Y-57742835D01*
X102853237Y-57750668D01*
X102844149Y-57762555D01*
X102805086Y-57813646D01*
X102801709Y-57817953D01*
X102767720Y-57860227D01*
X102752046Y-57879721D01*
X102747376Y-57889128D01*
X102741000Y-57897468D01*
X102735875Y-57908459D01*
X102707501Y-57969307D01*
X102705128Y-57974238D01*
X102682592Y-58019637D01*
X102624736Y-58092634D01*
X102542191Y-58135788D01*
X102449230Y-58141637D01*
X102361928Y-58109170D01*
X102295378Y-58044001D01*
X102272207Y-57998672D01*
X102258526Y-57962176D01*
X102248954Y-57949403D01*
X102182119Y-57860227D01*
X102172546Y-57847454D01*
X102142211Y-57824719D01*
X102070595Y-57771045D01*
X102070593Y-57771044D01*
X102057824Y-57761474D01*
X102042882Y-57755873D01*
X102042881Y-57755872D01*
X101936732Y-57716079D01*
X101936729Y-57716078D01*
X101923580Y-57711149D01*
X101909621Y-57709633D01*
X101909619Y-57709632D01*
X101894940Y-57708038D01*
X101862377Y-57704500D01*
X100965297Y-57704500D01*
X100067624Y-57704501D01*
X100061604Y-57705155D01*
X100061602Y-57705155D01*
X100020385Y-57709632D01*
X100020384Y-57709632D01*
X100006420Y-57711149D01*
X99993267Y-57716080D01*
X99993266Y-57716080D01*
X99887119Y-57755872D01*
X99887118Y-57755873D01*
X99872176Y-57761474D01*
X99859407Y-57771044D01*
X99859405Y-57771045D01*
X99787789Y-57824719D01*
X99757454Y-57847454D01*
X99671474Y-57962176D01*
X99666831Y-57974560D01*
X99607308Y-58043762D01*
X99523098Y-58083568D01*
X99429977Y-58085681D01*
X99344048Y-58049736D01*
X99332737Y-58041367D01*
X99186288Y-57925710D01*
X99171033Y-57915574D01*
X98991636Y-57816542D01*
X98974915Y-57809026D01*
X98781749Y-57740622D01*
X98764033Y-57735942D01*
X98702177Y-57724924D01*
X98682717Y-57725569D01*
X98679000Y-57738445D01*
X98679000Y-60368088D01*
X98682922Y-60386538D01*
X98702404Y-60388363D01*
X98717118Y-60385235D01*
X98913396Y-60326349D01*
X98930455Y-60319663D01*
X99114484Y-60229508D01*
X99130220Y-60220127D01*
X99297048Y-60101131D01*
X99311053Y-60089296D01*
X99313855Y-60086504D01*
X99315998Y-60085117D01*
X99318072Y-60083365D01*
X99318296Y-60083631D01*
X99392059Y-60035908D01*
X99484082Y-60021495D01*
X99574011Y-60045758D01*
X99646297Y-60104500D01*
X99666604Y-60134832D01*
X99671474Y-60147824D01*
X99757454Y-60262546D01*
X99770227Y-60272119D01*
X99859405Y-60338955D01*
X99859407Y-60338956D01*
X99872176Y-60348526D01*
X99887118Y-60354127D01*
X99887119Y-60354128D01*
X99993268Y-60393921D01*
X99993271Y-60393922D01*
X100006420Y-60398851D01*
X100020379Y-60400367D01*
X100020381Y-60400368D01*
X100035060Y-60401962D01*
X100067623Y-60405500D01*
X100964703Y-60405500D01*
X101862376Y-60405499D01*
X101868396Y-60404845D01*
X101868398Y-60404845D01*
X101909615Y-60400368D01*
X101909616Y-60400368D01*
X101923580Y-60398851D01*
X101944750Y-60390915D01*
X102042881Y-60354128D01*
X102042882Y-60354127D01*
X102057824Y-60348526D01*
X102070593Y-60338956D01*
X102070595Y-60338955D01*
X102159773Y-60272119D01*
X102172546Y-60262546D01*
X102225176Y-60192323D01*
X102232956Y-60181942D01*
X102303093Y-60120651D01*
X102392096Y-60093186D01*
X102484576Y-60104296D01*
X102564541Y-60152061D01*
X102618165Y-60228221D01*
X102634891Y-60292093D01*
X102637219Y-60313521D01*
X102640568Y-60323473D01*
X102641957Y-60333881D01*
X102646106Y-60345281D01*
X102646107Y-60345284D01*
X102669070Y-60408375D01*
X102670879Y-60413538D01*
X102696160Y-60488660D01*
X102701568Y-60497660D01*
X102705159Y-60507527D01*
X102711656Y-60517764D01*
X102711660Y-60517773D01*
X102747628Y-60574449D01*
X102750503Y-60579103D01*
X102784047Y-60634928D01*
X102791334Y-60647056D01*
X102797878Y-60653976D01*
X102799253Y-60655794D01*
X102804175Y-60663550D01*
X102807960Y-60667784D01*
X102860516Y-60720340D01*
X102864876Y-60724824D01*
X102918301Y-60781319D01*
X102926272Y-60786736D01*
X102934555Y-60794379D01*
X107932481Y-65792305D01*
X107983211Y-65870423D01*
X107997782Y-65962420D01*
X107973674Y-66052391D01*
X107915057Y-66124778D01*
X107902577Y-66134182D01*
X107713599Y-66266505D01*
X107546505Y-66433599D01*
X107540896Y-66441610D01*
X107498490Y-66502172D01*
X107430369Y-66565696D01*
X107342299Y-66596021D01*
X107249509Y-66587903D01*
X107168043Y-66542746D01*
X107131510Y-66502172D01*
X107089104Y-66441610D01*
X107083495Y-66433599D01*
X106916401Y-66266505D01*
X106722830Y-66130965D01*
X106508663Y-66031097D01*
X106488596Y-66025720D01*
X106289848Y-65972466D01*
X106289844Y-65972465D01*
X106280408Y-65969937D01*
X106270674Y-65969085D01*
X106270672Y-65969085D01*
X106054738Y-65950193D01*
X106045000Y-65949341D01*
X106035262Y-65950193D01*
X105819328Y-65969085D01*
X105819326Y-65969085D01*
X105809592Y-65969937D01*
X105800156Y-65972465D01*
X105800152Y-65972466D01*
X105601404Y-66025720D01*
X105581337Y-66031097D01*
X105367171Y-66130965D01*
X105173599Y-66266505D01*
X105006505Y-66433599D01*
X105000896Y-66441610D01*
X104958490Y-66502172D01*
X104890369Y-66565696D01*
X104802299Y-66596021D01*
X104709509Y-66587903D01*
X104628043Y-66542746D01*
X104591510Y-66502172D01*
X104549104Y-66441610D01*
X104543495Y-66433599D01*
X104376401Y-66266505D01*
X104182830Y-66130965D01*
X103968663Y-66031097D01*
X103948596Y-66025720D01*
X103749848Y-65972466D01*
X103749844Y-65972465D01*
X103740408Y-65969937D01*
X103730677Y-65969086D01*
X103730662Y-65969083D01*
X103664574Y-65963301D01*
X103575500Y-65936068D01*
X103563324Y-65925484D01*
X103478139Y-65951691D01*
X103279328Y-65969085D01*
X103279326Y-65969085D01*
X103269592Y-65969937D01*
X103260156Y-65972465D01*
X103260152Y-65972466D01*
X103061404Y-66025720D01*
X103041337Y-66031097D01*
X102827171Y-66130965D01*
X102633599Y-66266505D01*
X102466505Y-66433599D01*
X102460896Y-66441610D01*
X102418490Y-66502172D01*
X102350369Y-66565696D01*
X102262299Y-66596021D01*
X102169509Y-66587903D01*
X102088043Y-66542746D01*
X102051510Y-66502172D01*
X102009104Y-66441610D01*
X102003495Y-66433599D01*
X101836401Y-66266505D01*
X101642830Y-66130965D01*
X101428663Y-66031097D01*
X101408596Y-66025720D01*
X101209848Y-65972466D01*
X101209844Y-65972465D01*
X101200408Y-65969937D01*
X101190674Y-65969085D01*
X101190672Y-65969085D01*
X100974738Y-65950193D01*
X100965000Y-65949341D01*
X100955262Y-65950193D01*
X100739328Y-65969085D01*
X100739326Y-65969085D01*
X100729592Y-65969937D01*
X100720156Y-65972465D01*
X100720152Y-65972466D01*
X100521404Y-66025720D01*
X100501337Y-66031097D01*
X100287171Y-66130965D01*
X100093599Y-66266505D01*
X100080119Y-66279985D01*
X100002001Y-66330715D01*
X99910004Y-66345286D01*
X99820033Y-66321178D01*
X99747646Y-66262561D01*
X99725246Y-66229163D01*
X99724130Y-66227124D01*
X99718526Y-66212176D01*
X99708955Y-66199405D01*
X99708953Y-66199402D01*
X99642119Y-66110227D01*
X99632546Y-66097454D01*
X99572419Y-66052391D01*
X99530595Y-66021045D01*
X99530593Y-66021044D01*
X99517824Y-66011474D01*
X99502882Y-66005873D01*
X99502881Y-66005872D01*
X99396732Y-65966079D01*
X99396729Y-65966078D01*
X99383580Y-65961149D01*
X99369621Y-65959633D01*
X99369619Y-65959632D01*
X99354940Y-65958038D01*
X99322377Y-65954500D01*
X98425297Y-65954500D01*
X97527624Y-65954501D01*
X97521604Y-65955155D01*
X97521602Y-65955155D01*
X97480385Y-65959632D01*
X97480384Y-65959632D01*
X97466420Y-65961149D01*
X97453267Y-65966080D01*
X97453266Y-65966080D01*
X97347119Y-66005872D01*
X97347118Y-66005873D01*
X97332176Y-66011474D01*
X97319407Y-66021044D01*
X97319405Y-66021045D01*
X97277581Y-66052391D01*
X97217454Y-66097454D01*
X97207881Y-66110227D01*
X97141048Y-66199402D01*
X97131474Y-66212176D01*
X97125873Y-66227118D01*
X97125872Y-66227119D01*
X97090612Y-66321178D01*
X97081149Y-66346420D01*
X97074500Y-66407623D01*
X97074501Y-68202376D01*
X97081149Y-68263580D01*
X97086080Y-68276733D01*
X97086080Y-68276734D01*
X97098634Y-68310221D01*
X97131474Y-68397824D01*
X97141044Y-68410593D01*
X97141045Y-68410595D01*
X97188133Y-68473423D01*
X97217454Y-68512546D01*
X97230227Y-68522119D01*
X97319405Y-68588955D01*
X97319407Y-68588956D01*
X97332176Y-68598526D01*
X97347118Y-68604127D01*
X97347119Y-68604128D01*
X97453268Y-68643921D01*
X97453271Y-68643922D01*
X97466420Y-68648851D01*
X97480379Y-68650367D01*
X97480381Y-68650368D01*
X97495060Y-68651962D01*
X97527623Y-68655500D01*
X98424703Y-68655500D01*
X99322376Y-68655499D01*
X99328396Y-68654845D01*
X99328398Y-68654845D01*
X99369615Y-68650368D01*
X99369616Y-68650368D01*
X99383580Y-68648851D01*
X99404750Y-68640915D01*
X99502881Y-68604128D01*
X99502882Y-68604127D01*
X99517824Y-68598526D01*
X99530593Y-68588956D01*
X99530595Y-68588955D01*
X99619773Y-68522119D01*
X99632546Y-68512546D01*
X99654563Y-68483169D01*
X99708953Y-68410598D01*
X99708955Y-68410595D01*
X99718526Y-68397824D01*
X99724130Y-68382876D01*
X99725246Y-68380837D01*
X99785985Y-68310221D01*
X99870195Y-68270415D01*
X99963316Y-68268302D01*
X100049245Y-68304246D01*
X100080119Y-68330015D01*
X100093599Y-68343495D01*
X100287170Y-68479035D01*
X100501337Y-68578903D01*
X100510783Y-68581434D01*
X100720152Y-68637534D01*
X100720156Y-68637535D01*
X100729592Y-68640063D01*
X100739326Y-68640915D01*
X100739328Y-68640915D01*
X100955262Y-68659807D01*
X100965000Y-68660659D01*
X100974738Y-68659807D01*
X101190672Y-68640915D01*
X101190674Y-68640915D01*
X101200408Y-68640063D01*
X101209844Y-68637535D01*
X101209848Y-68637534D01*
X101419217Y-68581434D01*
X101428663Y-68578903D01*
X101642830Y-68479035D01*
X101836401Y-68343495D01*
X102003495Y-68176401D01*
X102051510Y-68107828D01*
X102119631Y-68044304D01*
X102207701Y-68013979D01*
X102300491Y-68022097D01*
X102381957Y-68067254D01*
X102418489Y-68107827D01*
X102466505Y-68176401D01*
X102633599Y-68343495D01*
X102827170Y-68479035D01*
X103041337Y-68578903D01*
X103050783Y-68581434D01*
X103260152Y-68637534D01*
X103260156Y-68637535D01*
X103269592Y-68640063D01*
X103279326Y-68640915D01*
X103279328Y-68640915D01*
X103495262Y-68659807D01*
X103505000Y-68660659D01*
X103514738Y-68659807D01*
X103730672Y-68640915D01*
X103730674Y-68640915D01*
X103740408Y-68640063D01*
X103749844Y-68637535D01*
X103749848Y-68637534D01*
X103959217Y-68581434D01*
X103968663Y-68578903D01*
X104182830Y-68479035D01*
X104376401Y-68343495D01*
X104543495Y-68176401D01*
X104591510Y-68107828D01*
X104659631Y-68044304D01*
X104747701Y-68013979D01*
X104840491Y-68022097D01*
X104921957Y-68067254D01*
X104958489Y-68107827D01*
X105006505Y-68176401D01*
X105173599Y-68343495D01*
X105367170Y-68479035D01*
X105581337Y-68578903D01*
X105590783Y-68581434D01*
X105800152Y-68637534D01*
X105800156Y-68637535D01*
X105809592Y-68640063D01*
X105819326Y-68640915D01*
X105819328Y-68640915D01*
X106035262Y-68659807D01*
X106045000Y-68660659D01*
X106054738Y-68659807D01*
X106270672Y-68640915D01*
X106270674Y-68640915D01*
X106280408Y-68640063D01*
X106289844Y-68637535D01*
X106289848Y-68637534D01*
X106499217Y-68581434D01*
X106508663Y-68578903D01*
X106722830Y-68479035D01*
X106916401Y-68343495D01*
X107083495Y-68176401D01*
X107131510Y-68107828D01*
X107199631Y-68044304D01*
X107287701Y-68013979D01*
X107380491Y-68022097D01*
X107461957Y-68067254D01*
X107498489Y-68107827D01*
X107546505Y-68176401D01*
X107713599Y-68343495D01*
X107907170Y-68479035D01*
X108121337Y-68578903D01*
X108130783Y-68581434D01*
X108340152Y-68637534D01*
X108340156Y-68637535D01*
X108349592Y-68640063D01*
X108359326Y-68640915D01*
X108359328Y-68640915D01*
X108575262Y-68659807D01*
X108585000Y-68660659D01*
X108594738Y-68659807D01*
X108810672Y-68640915D01*
X108810674Y-68640915D01*
X108820408Y-68640063D01*
X108829844Y-68637535D01*
X108829848Y-68637534D01*
X109039217Y-68581434D01*
X109048663Y-68578903D01*
X109262830Y-68479035D01*
X109456401Y-68343495D01*
X109623495Y-68176401D01*
X109671510Y-68107828D01*
X109739631Y-68044304D01*
X109827701Y-68013979D01*
X109920491Y-68022097D01*
X110001957Y-68067254D01*
X110038489Y-68107827D01*
X110086505Y-68176401D01*
X110253599Y-68343495D01*
X110447170Y-68479035D01*
X110661337Y-68578903D01*
X110670783Y-68581434D01*
X110880152Y-68637534D01*
X110880156Y-68637535D01*
X110889592Y-68640063D01*
X110899326Y-68640915D01*
X110899328Y-68640915D01*
X111115262Y-68659807D01*
X111125000Y-68660659D01*
X111134738Y-68659807D01*
X111350672Y-68640915D01*
X111350674Y-68640915D01*
X111360408Y-68640063D01*
X111369844Y-68637535D01*
X111369848Y-68637534D01*
X111579217Y-68581434D01*
X111588663Y-68578903D01*
X111802830Y-68479035D01*
X111996401Y-68343495D01*
X112163495Y-68176401D01*
X112211510Y-68107828D01*
X112279631Y-68044304D01*
X112367701Y-68013979D01*
X112460491Y-68022097D01*
X112541957Y-68067254D01*
X112578489Y-68107827D01*
X112626505Y-68176401D01*
X112793599Y-68343495D01*
X112987170Y-68479035D01*
X113201337Y-68578903D01*
X113210783Y-68581434D01*
X113420152Y-68637534D01*
X113420156Y-68637535D01*
X113429592Y-68640063D01*
X113439326Y-68640915D01*
X113439328Y-68640915D01*
X113655262Y-68659807D01*
X113665000Y-68660659D01*
X113674738Y-68659807D01*
X113890672Y-68640915D01*
X113890674Y-68640915D01*
X113900408Y-68640063D01*
X113909844Y-68637535D01*
X113909848Y-68637534D01*
X114119217Y-68581434D01*
X114128663Y-68578903D01*
X114342830Y-68479035D01*
X114536401Y-68343495D01*
X114703495Y-68176401D01*
X114751510Y-68107828D01*
X114819631Y-68044304D01*
X114907701Y-68013979D01*
X115000491Y-68022097D01*
X115081957Y-68067254D01*
X115118489Y-68107827D01*
X115166505Y-68176401D01*
X115333599Y-68343495D01*
X115527170Y-68479035D01*
X115741337Y-68578903D01*
X115750783Y-68581434D01*
X115960152Y-68637534D01*
X115960156Y-68637535D01*
X115969592Y-68640063D01*
X115979326Y-68640915D01*
X115979328Y-68640915D01*
X116195262Y-68659807D01*
X116205000Y-68660659D01*
X116214738Y-68659807D01*
X116430672Y-68640915D01*
X116430674Y-68640915D01*
X116440408Y-68640063D01*
X116449844Y-68637535D01*
X116449848Y-68637534D01*
X116659217Y-68581434D01*
X116668663Y-68578903D01*
X116882830Y-68479035D01*
X117076401Y-68343495D01*
X117243495Y-68176401D01*
X117291510Y-68107828D01*
X117359631Y-68044304D01*
X117447701Y-68013979D01*
X117540491Y-68022097D01*
X117621957Y-68067254D01*
X117658489Y-68107827D01*
X117706505Y-68176401D01*
X117873599Y-68343495D01*
X118067170Y-68479035D01*
X118281337Y-68578903D01*
X118290783Y-68581434D01*
X118500152Y-68637534D01*
X118500156Y-68637535D01*
X118509592Y-68640063D01*
X118519326Y-68640915D01*
X118519328Y-68640915D01*
X118735262Y-68659807D01*
X118745000Y-68660659D01*
X118754738Y-68659807D01*
X118970672Y-68640915D01*
X118970674Y-68640915D01*
X118980408Y-68640063D01*
X118989844Y-68637535D01*
X118989848Y-68637534D01*
X119199217Y-68581434D01*
X119208663Y-68578903D01*
X119422830Y-68479035D01*
X119616401Y-68343495D01*
X119783495Y-68176401D01*
X119831510Y-68107828D01*
X119899631Y-68044304D01*
X119987701Y-68013979D01*
X120080491Y-68022097D01*
X120161957Y-68067254D01*
X120198489Y-68107827D01*
X120246505Y-68176401D01*
X120413599Y-68343495D01*
X120607170Y-68479035D01*
X120821337Y-68578903D01*
X120830783Y-68581434D01*
X121040152Y-68637534D01*
X121040156Y-68637535D01*
X121049592Y-68640063D01*
X121059326Y-68640915D01*
X121059328Y-68640915D01*
X121275262Y-68659807D01*
X121285000Y-68660659D01*
X121294738Y-68659807D01*
X121510672Y-68640915D01*
X121510674Y-68640915D01*
X121520408Y-68640063D01*
X121529844Y-68637535D01*
X121529848Y-68637534D01*
X121739217Y-68581434D01*
X121748663Y-68578903D01*
X121962830Y-68479035D01*
X122156401Y-68343495D01*
X122323495Y-68176401D01*
X122371510Y-68107828D01*
X122439631Y-68044304D01*
X122527701Y-68013979D01*
X122620491Y-68022097D01*
X122701957Y-68067254D01*
X122738489Y-68107827D01*
X122786505Y-68176401D01*
X122953599Y-68343495D01*
X123147170Y-68479035D01*
X123361337Y-68578903D01*
X123370783Y-68581434D01*
X123580152Y-68637534D01*
X123580156Y-68637535D01*
X123589592Y-68640063D01*
X123599326Y-68640915D01*
X123599328Y-68640915D01*
X123815262Y-68659807D01*
X123825000Y-68660659D01*
X123834738Y-68659807D01*
X124050672Y-68640915D01*
X124050674Y-68640915D01*
X124060408Y-68640063D01*
X124069844Y-68637535D01*
X124069848Y-68637534D01*
X124279217Y-68581434D01*
X124288663Y-68578903D01*
X124502830Y-68479035D01*
X124696401Y-68343495D01*
X124863495Y-68176401D01*
X124911510Y-68107828D01*
X124979631Y-68044304D01*
X125067701Y-68013979D01*
X125160491Y-68022097D01*
X125241957Y-68067254D01*
X125278489Y-68107827D01*
X125326505Y-68176401D01*
X125493599Y-68343495D01*
X125687170Y-68479035D01*
X125901337Y-68578903D01*
X125910783Y-68581434D01*
X126120152Y-68637534D01*
X126120156Y-68637535D01*
X126129592Y-68640063D01*
X126139326Y-68640915D01*
X126139328Y-68640915D01*
X126355262Y-68659807D01*
X126365000Y-68660659D01*
X126374738Y-68659807D01*
X126590672Y-68640915D01*
X126590674Y-68640915D01*
X126600408Y-68640063D01*
X126609844Y-68637535D01*
X126609848Y-68637534D01*
X126819217Y-68581434D01*
X126828663Y-68578903D01*
X127042830Y-68479035D01*
X127236401Y-68343495D01*
X127403495Y-68176401D01*
X127451510Y-68107828D01*
X127519631Y-68044304D01*
X127607701Y-68013979D01*
X127700491Y-68022097D01*
X127781957Y-68067254D01*
X127818489Y-68107827D01*
X127866505Y-68176401D01*
X128033599Y-68343495D01*
X128227170Y-68479035D01*
X128441337Y-68578903D01*
X128450783Y-68581434D01*
X128660152Y-68637534D01*
X128660156Y-68637535D01*
X128669592Y-68640063D01*
X128679326Y-68640915D01*
X128679328Y-68640915D01*
X128895262Y-68659807D01*
X128905000Y-68660659D01*
X128914738Y-68659807D01*
X129130672Y-68640915D01*
X129130674Y-68640915D01*
X129140408Y-68640063D01*
X129149844Y-68637535D01*
X129149848Y-68637534D01*
X129359217Y-68581434D01*
X129368663Y-68578903D01*
X129582830Y-68479035D01*
X129776401Y-68343495D01*
X129943495Y-68176401D01*
X129991510Y-68107828D01*
X130059631Y-68044304D01*
X130147701Y-68013979D01*
X130240491Y-68022097D01*
X130321957Y-68067254D01*
X130358489Y-68107827D01*
X130406505Y-68176401D01*
X130573599Y-68343495D01*
X130767170Y-68479035D01*
X130981337Y-68578903D01*
X130990783Y-68581434D01*
X131200152Y-68637534D01*
X131200156Y-68637535D01*
X131209592Y-68640063D01*
X131219326Y-68640915D01*
X131219328Y-68640915D01*
X131435262Y-68659807D01*
X131445000Y-68660659D01*
X131454738Y-68659807D01*
X131670672Y-68640915D01*
X131670674Y-68640915D01*
X131680408Y-68640063D01*
X131689844Y-68637535D01*
X131689848Y-68637534D01*
X131899217Y-68581434D01*
X131908663Y-68578903D01*
X132122830Y-68479035D01*
X132316401Y-68343495D01*
X132483495Y-68176401D01*
X132531510Y-68107828D01*
X132599631Y-68044304D01*
X132687701Y-68013979D01*
X132780491Y-68022097D01*
X132861957Y-68067254D01*
X132898489Y-68107827D01*
X132946505Y-68176401D01*
X133113599Y-68343495D01*
X133307170Y-68479035D01*
X133521337Y-68578903D01*
X133530783Y-68581434D01*
X133740152Y-68637534D01*
X133740156Y-68637535D01*
X133749592Y-68640063D01*
X133759326Y-68640915D01*
X133759328Y-68640915D01*
X133975262Y-68659807D01*
X133985000Y-68660659D01*
X133994738Y-68659807D01*
X134210672Y-68640915D01*
X134210674Y-68640915D01*
X134220408Y-68640063D01*
X134229844Y-68637535D01*
X134229848Y-68637534D01*
X134439217Y-68581434D01*
X134448663Y-68578903D01*
X134662830Y-68479035D01*
X134856401Y-68343495D01*
X135023495Y-68176401D01*
X135071510Y-68107828D01*
X135139631Y-68044304D01*
X135227701Y-68013979D01*
X135320491Y-68022097D01*
X135401957Y-68067254D01*
X135438489Y-68107827D01*
X135486505Y-68176401D01*
X135653599Y-68343495D01*
X135847170Y-68479035D01*
X136061337Y-68578903D01*
X136070783Y-68581434D01*
X136280152Y-68637534D01*
X136280156Y-68637535D01*
X136289592Y-68640063D01*
X136299326Y-68640915D01*
X136299328Y-68640915D01*
X136515262Y-68659807D01*
X136525000Y-68660659D01*
X136534738Y-68659807D01*
X136750672Y-68640915D01*
X136750674Y-68640915D01*
X136760408Y-68640063D01*
X136769844Y-68637535D01*
X136769848Y-68637534D01*
X136979217Y-68581434D01*
X136988663Y-68578903D01*
X137202830Y-68479035D01*
X137396401Y-68343495D01*
X137563495Y-68176401D01*
X137611510Y-68107828D01*
X137679631Y-68044304D01*
X137767701Y-68013979D01*
X137860491Y-68022097D01*
X137941957Y-68067254D01*
X137978489Y-68107827D01*
X138026505Y-68176401D01*
X138193599Y-68343495D01*
X138387170Y-68479035D01*
X138601337Y-68578903D01*
X138610783Y-68581434D01*
X138820152Y-68637534D01*
X138820156Y-68637535D01*
X138829592Y-68640063D01*
X138839326Y-68640915D01*
X138839328Y-68640915D01*
X139055262Y-68659807D01*
X139065000Y-68660659D01*
X139074738Y-68659807D01*
X139290672Y-68640915D01*
X139290674Y-68640915D01*
X139300408Y-68640063D01*
X139309844Y-68637535D01*
X139309848Y-68637534D01*
X139519217Y-68581434D01*
X139528663Y-68578903D01*
X139742830Y-68479035D01*
X139936401Y-68343495D01*
X140103495Y-68176401D01*
X140151510Y-68107828D01*
X140219631Y-68044304D01*
X140307701Y-68013979D01*
X140400491Y-68022097D01*
X140481957Y-68067254D01*
X140518489Y-68107827D01*
X140566505Y-68176401D01*
X140733599Y-68343495D01*
X140927170Y-68479035D01*
X141141337Y-68578903D01*
X141150783Y-68581434D01*
X141360152Y-68637534D01*
X141360156Y-68637535D01*
X141369592Y-68640063D01*
X141379326Y-68640915D01*
X141379328Y-68640915D01*
X141595262Y-68659807D01*
X141605000Y-68660659D01*
X141614738Y-68659807D01*
X141830672Y-68640915D01*
X141830674Y-68640915D01*
X141840408Y-68640063D01*
X141849844Y-68637535D01*
X141849848Y-68637534D01*
X142059217Y-68581434D01*
X142068663Y-68578903D01*
X142282830Y-68479035D01*
X142476401Y-68343495D01*
X142643495Y-68176401D01*
X142691510Y-68107828D01*
X142759631Y-68044304D01*
X142847701Y-68013979D01*
X142940491Y-68022097D01*
X143021957Y-68067254D01*
X143058489Y-68107827D01*
X143106505Y-68176401D01*
X143273599Y-68343495D01*
X143467170Y-68479035D01*
X143681337Y-68578903D01*
X143690783Y-68581434D01*
X143900152Y-68637534D01*
X143900156Y-68637535D01*
X143909592Y-68640063D01*
X143919326Y-68640915D01*
X143919328Y-68640915D01*
X144135262Y-68659807D01*
X144145000Y-68660659D01*
X144154738Y-68659807D01*
X144370672Y-68640915D01*
X144370674Y-68640915D01*
X144380408Y-68640063D01*
X144389844Y-68637535D01*
X144389848Y-68637534D01*
X144599217Y-68581434D01*
X144608663Y-68578903D01*
X144822830Y-68479035D01*
X145016401Y-68343495D01*
X145183495Y-68176401D01*
X145231510Y-68107828D01*
X145299631Y-68044304D01*
X145387701Y-68013979D01*
X145480491Y-68022097D01*
X145561957Y-68067254D01*
X145598489Y-68107827D01*
X145646505Y-68176401D01*
X145813599Y-68343495D01*
X146007170Y-68479035D01*
X146221337Y-68578903D01*
X146230783Y-68581434D01*
X146440152Y-68637534D01*
X146440156Y-68637535D01*
X146449592Y-68640063D01*
X146459326Y-68640915D01*
X146459328Y-68640915D01*
X146675262Y-68659807D01*
X146685000Y-68660659D01*
X146694738Y-68659807D01*
X146910672Y-68640915D01*
X146910674Y-68640915D01*
X146920408Y-68640063D01*
X146929844Y-68637535D01*
X146929848Y-68637534D01*
X147139217Y-68581434D01*
X147148663Y-68578903D01*
X147362830Y-68479035D01*
X147556401Y-68343495D01*
X147723495Y-68176401D01*
X147771510Y-68107828D01*
X147839631Y-68044304D01*
X147927701Y-68013979D01*
X148020491Y-68022097D01*
X148101957Y-68067254D01*
X148138489Y-68107827D01*
X148186505Y-68176401D01*
X148353599Y-68343495D01*
X148547170Y-68479035D01*
X148761337Y-68578903D01*
X148770783Y-68581434D01*
X148980152Y-68637534D01*
X148980156Y-68637535D01*
X148989592Y-68640063D01*
X148999326Y-68640915D01*
X148999328Y-68640915D01*
X149215262Y-68659807D01*
X149225000Y-68660659D01*
X149234738Y-68659807D01*
X149450672Y-68640915D01*
X149450674Y-68640915D01*
X149460408Y-68640063D01*
X149469844Y-68637535D01*
X149469848Y-68637534D01*
X149679217Y-68581434D01*
X149688663Y-68578903D01*
X149902830Y-68479035D01*
X150096401Y-68343495D01*
X150263495Y-68176401D01*
X150399035Y-67982829D01*
X150498903Y-67768663D01*
X150560063Y-67540408D01*
X150580659Y-67305000D01*
X150560063Y-67069592D01*
X150498903Y-66841337D01*
X150399035Y-66627171D01*
X150263495Y-66433599D01*
X150096401Y-66266505D01*
X149902830Y-66130965D01*
X149723867Y-66047513D01*
X149649479Y-65991457D01*
X149604322Y-65909991D01*
X149596204Y-65817201D01*
X149626529Y-65729131D01*
X149690053Y-65661010D01*
X149775793Y-65624615D01*
X149818534Y-65620500D01*
X157057833Y-65620500D01*
X157076577Y-65621286D01*
X157111811Y-65624245D01*
X157111814Y-65624245D01*
X157123902Y-65625260D01*
X157202489Y-65614775D01*
X157207868Y-65614123D01*
X157233060Y-65611386D01*
X157274654Y-65606868D01*
X157274657Y-65606867D01*
X157286709Y-65605558D01*
X157296661Y-65602209D01*
X157307069Y-65600820D01*
X157318469Y-65596671D01*
X157318472Y-65596670D01*
X157381563Y-65573707D01*
X157386727Y-65571898D01*
X157461848Y-65546617D01*
X157470848Y-65541209D01*
X157480715Y-65537618D01*
X157490952Y-65531121D01*
X157490961Y-65531117D01*
X157547637Y-65495149D01*
X157552291Y-65492274D01*
X157609851Y-65457688D01*
X157609852Y-65457687D01*
X157620244Y-65451443D01*
X157627164Y-65444899D01*
X157628982Y-65443524D01*
X157636738Y-65438602D01*
X157640972Y-65434817D01*
X157693527Y-65382262D01*
X157698011Y-65377902D01*
X157734112Y-65343763D01*
X157754507Y-65324476D01*
X157759924Y-65316505D01*
X157767567Y-65308222D01*
X158062181Y-65013608D01*
X158140299Y-64962878D01*
X158220573Y-64948000D01*
X158662866Y-64948000D01*
X158767519Y-64937141D01*
X158779141Y-64933264D01*
X158779144Y-64933263D01*
X158921184Y-64885875D01*
X158921187Y-64885874D01*
X158933529Y-64881756D01*
X159082345Y-64789666D01*
X159205984Y-64665811D01*
X159297814Y-64516834D01*
X159352910Y-64350728D01*
X159363500Y-64247366D01*
X159363500Y-63522634D01*
X159352641Y-63417981D01*
X159348763Y-63406356D01*
X159301375Y-63264316D01*
X159301374Y-63264313D01*
X159297256Y-63251971D01*
X159286309Y-63234280D01*
X159212015Y-63114223D01*
X159205166Y-63103155D01*
X159081311Y-62979516D01*
X158932334Y-62887686D01*
X158766228Y-62832590D01*
X158662866Y-62822000D01*
X157313134Y-62822000D01*
X157208481Y-62832859D01*
X157196859Y-62836736D01*
X157196856Y-62836737D01*
X157054816Y-62884125D01*
X157054813Y-62884126D01*
X157042471Y-62888244D01*
X157031407Y-62895090D01*
X157031406Y-62895091D01*
X156981369Y-62926055D01*
X156893655Y-62980334D01*
X156770016Y-63104189D01*
X156678186Y-63253166D01*
X156623090Y-63419272D01*
X156612500Y-63522634D01*
X156612500Y-63695500D01*
X156593134Y-63786609D01*
X156538385Y-63861964D01*
X156457720Y-63908537D01*
X156388500Y-63919500D01*
X153404152Y-63919500D01*
X153313043Y-63900134D01*
X153237688Y-63845385D01*
X153191115Y-63764720D01*
X153181379Y-63672086D01*
X153189046Y-63633006D01*
X153194406Y-63614557D01*
X153194407Y-63614554D01*
X153197598Y-63603569D01*
X153200500Y-63566694D01*
X153200500Y-63246016D01*
X153207154Y-63191825D01*
X153244666Y-63041375D01*
X153244666Y-63041372D01*
X153247600Y-63029606D01*
X153248325Y-63003676D01*
X153251548Y-62888244D01*
X153252759Y-62844889D01*
X153246011Y-62809511D01*
X153220407Y-62675294D01*
X153218133Y-62663371D01*
X153213351Y-62652214D01*
X153210287Y-62642191D01*
X153200500Y-62576701D01*
X153200500Y-62500500D01*
X153219866Y-62409391D01*
X153274615Y-62334036D01*
X153355280Y-62287463D01*
X153424500Y-62276500D01*
X153565694Y-62276500D01*
X153570074Y-62276155D01*
X153570082Y-62276155D01*
X153578691Y-62275477D01*
X153602569Y-62273598D01*
X153613550Y-62270408D01*
X153613554Y-62270407D01*
X153746866Y-62231676D01*
X153746870Y-62231674D01*
X153760398Y-62227744D01*
X153901865Y-62144081D01*
X154018081Y-62027865D01*
X154035166Y-61998976D01*
X154098212Y-61930413D01*
X154183695Y-61893420D01*
X154227973Y-61889000D01*
X155003089Y-61889000D01*
X155009343Y-61889087D01*
X155087111Y-61891259D01*
X155096579Y-61889453D01*
X155107848Y-61889000D01*
X156869348Y-61889000D01*
X156960457Y-61908366D01*
X156986887Y-61922316D01*
X157032583Y-61950483D01*
X157032587Y-61950485D01*
X157043666Y-61957314D01*
X157209772Y-62012410D01*
X157313134Y-62023000D01*
X158662866Y-62023000D01*
X158767519Y-62012141D01*
X158779141Y-62008264D01*
X158779144Y-62008263D01*
X158921184Y-61960875D01*
X158921187Y-61960874D01*
X158933529Y-61956756D01*
X159011727Y-61908366D01*
X159071277Y-61871515D01*
X159082345Y-61864666D01*
X159107827Y-61839140D01*
X159196794Y-61750017D01*
X159205984Y-61740811D01*
X159297814Y-61591834D01*
X159352910Y-61425728D01*
X159363500Y-61322366D01*
X159363500Y-60597634D01*
X159352641Y-60492981D01*
X159348259Y-60479845D01*
X159301375Y-60339316D01*
X159301374Y-60339313D01*
X159297256Y-60326971D01*
X159281473Y-60301465D01*
X159212015Y-60189223D01*
X159205166Y-60178155D01*
X159173328Y-60146372D01*
X159097723Y-60070899D01*
X159081311Y-60054516D01*
X158932334Y-59962686D01*
X158766228Y-59907590D01*
X158662866Y-59897000D01*
X157313134Y-59897000D01*
X157208481Y-59907859D01*
X157196859Y-59911736D01*
X157196856Y-59911737D01*
X157054816Y-59959125D01*
X157054813Y-59959126D01*
X157042471Y-59963244D01*
X156893655Y-60055334D01*
X156884460Y-60064545D01*
X156884455Y-60064549D01*
X156826852Y-60122253D01*
X156748779Y-60173052D01*
X156668322Y-60188000D01*
X156014500Y-60188000D01*
X155923391Y-60168634D01*
X155848036Y-60113885D01*
X155801463Y-60033220D01*
X155790500Y-59964000D01*
X155790500Y-58715367D01*
X155809866Y-58624258D01*
X155864615Y-58548903D01*
X155896628Y-58524888D01*
X155953793Y-58489513D01*
X156034345Y-58439666D01*
X156157984Y-58315811D01*
X156249814Y-58166834D01*
X156304910Y-58000728D01*
X156315500Y-57897366D01*
X156315500Y-57172634D01*
X156304641Y-57067981D01*
X156299563Y-57052759D01*
X156253375Y-56914316D01*
X156253374Y-56914313D01*
X156249256Y-56901971D01*
X156230077Y-56870977D01*
X156164015Y-56764223D01*
X156157166Y-56753155D01*
X156033311Y-56629516D01*
X155884334Y-56537686D01*
X155718228Y-56482590D01*
X155614866Y-56472000D01*
X154265134Y-56472000D01*
X154160481Y-56482859D01*
X154148859Y-56486736D01*
X154148856Y-56486737D01*
X154006816Y-56534125D01*
X154006813Y-56534126D01*
X153994471Y-56538244D01*
X153983407Y-56545090D01*
X153983406Y-56545091D01*
X153926116Y-56580543D01*
X153845655Y-56630334D01*
X153722016Y-56754189D01*
X153630186Y-56903166D01*
X153575090Y-57069272D01*
X153564500Y-57172634D01*
X153564500Y-57897366D01*
X153575359Y-58002019D01*
X153579236Y-58013641D01*
X153579237Y-58013644D01*
X153626491Y-58155280D01*
X153630744Y-58168029D01*
X153637590Y-58179093D01*
X153637591Y-58179094D01*
X153645152Y-58191312D01*
X153722834Y-58316845D01*
X153846689Y-58440484D01*
X153857763Y-58447310D01*
X153857768Y-58447314D01*
X153983039Y-58524532D01*
X154050436Y-58588825D01*
X154085855Y-58674972D01*
X154089500Y-58715216D01*
X154089500Y-59652589D01*
X154070134Y-59743698D01*
X154015385Y-59819053D01*
X153934720Y-59865626D01*
X153842086Y-59875362D01*
X153776534Y-59858164D01*
X153772530Y-59856431D01*
X153760398Y-59849256D01*
X153746870Y-59845326D01*
X153746866Y-59845324D01*
X153613554Y-59806593D01*
X153613550Y-59806592D01*
X153602569Y-59803402D01*
X153578691Y-59801523D01*
X153570082Y-59800845D01*
X153570074Y-59800845D01*
X153565694Y-59800500D01*
X153134306Y-59800500D01*
X153129926Y-59800845D01*
X153129918Y-59800845D01*
X153121309Y-59801523D01*
X153097431Y-59803402D01*
X153086450Y-59806592D01*
X153086446Y-59806593D01*
X152953134Y-59845324D01*
X152953130Y-59845326D01*
X152939602Y-59849256D01*
X152798135Y-59932919D01*
X152681919Y-60049135D01*
X152598256Y-60190602D01*
X152595308Y-60188859D01*
X152555744Y-60244534D01*
X152475572Y-60291951D01*
X152383045Y-60302659D01*
X152294162Y-60274808D01*
X152224292Y-60213212D01*
X152209294Y-60187238D01*
X152208682Y-60187600D01*
X152131227Y-60056629D01*
X152114093Y-60034540D01*
X152016460Y-59936907D01*
X151994371Y-59919773D01*
X151875531Y-59849492D01*
X151849864Y-59838385D01*
X151726608Y-59802576D01*
X151707188Y-59801149D01*
X151704000Y-59808962D01*
X151704000Y-61068500D01*
X151684634Y-61159609D01*
X151629885Y-61234964D01*
X151549220Y-61281537D01*
X151480000Y-61292500D01*
X150665545Y-61292500D01*
X150645151Y-61296835D01*
X150643711Y-61299329D01*
X150642001Y-61310126D01*
X150642001Y-61688068D01*
X150642345Y-61696831D01*
X150644037Y-61718341D01*
X150648129Y-61740745D01*
X150681325Y-61855005D01*
X150688148Y-61947899D01*
X150656597Y-62035537D01*
X150592128Y-62102765D01*
X150505888Y-62137960D01*
X150466220Y-62141500D01*
X149797073Y-62141500D01*
X149705964Y-62122134D01*
X149638681Y-62075892D01*
X148323744Y-60760956D01*
X150642000Y-60760956D01*
X150646335Y-60781350D01*
X150648829Y-60782790D01*
X150659626Y-60784500D01*
X151172456Y-60784500D01*
X151192850Y-60780165D01*
X151194290Y-60777671D01*
X151196000Y-60766874D01*
X151196000Y-59819551D01*
X151191951Y-59800503D01*
X151183560Y-59799621D01*
X151050136Y-59838385D01*
X151024469Y-59849492D01*
X150905629Y-59919773D01*
X150883540Y-59936907D01*
X150785907Y-60034540D01*
X150768773Y-60056629D01*
X150698492Y-60175469D01*
X150687385Y-60201136D01*
X150648128Y-60336257D01*
X150644037Y-60358653D01*
X150642345Y-60380155D01*
X150642000Y-60388950D01*
X150642000Y-60760956D01*
X148323744Y-60760956D01*
X147447111Y-59884323D01*
X147396381Y-59806205D01*
X147381810Y-59714208D01*
X147405918Y-59624237D01*
X147464535Y-59551850D01*
X147547527Y-59509564D01*
X147640544Y-59504689D01*
X147659695Y-59508585D01*
X147711894Y-59521600D01*
X147721422Y-59521866D01*
X147723664Y-59522177D01*
X147732637Y-59524183D01*
X147738307Y-59524500D01*
X147812589Y-59524500D01*
X147818843Y-59524587D01*
X147896611Y-59526759D01*
X147906079Y-59524953D01*
X147917348Y-59524500D01*
X148002560Y-59524500D01*
X148093669Y-59543866D01*
X148111840Y-59552965D01*
X148144266Y-59571087D01*
X148187513Y-59595257D01*
X148197927Y-59598641D01*
X148197930Y-59598642D01*
X148345422Y-59646565D01*
X148374118Y-59655889D01*
X148568946Y-59679121D01*
X148685233Y-59670173D01*
X148753650Y-59664909D01*
X148753653Y-59664908D01*
X148764576Y-59664068D01*
X148775129Y-59661122D01*
X148775132Y-59661121D01*
X148942999Y-59614251D01*
X148943003Y-59614250D01*
X148953556Y-59611303D01*
X149128689Y-59522837D01*
X149244029Y-59432724D01*
X149274674Y-59408782D01*
X149274676Y-59408780D01*
X149283303Y-59402040D01*
X149290582Y-59393608D01*
X149394354Y-59273385D01*
X149411509Y-59253511D01*
X149421604Y-59235742D01*
X149503015Y-59092432D01*
X149508425Y-59082909D01*
X149570358Y-58896732D01*
X149572522Y-58879608D01*
X149594164Y-58708283D01*
X149594949Y-58702071D01*
X149595341Y-58674000D01*
X149592137Y-58641320D01*
X149577263Y-58489627D01*
X149577262Y-58489624D01*
X149576194Y-58478728D01*
X149547839Y-58384811D01*
X149522649Y-58301376D01*
X149522648Y-58301373D01*
X149519484Y-58290894D01*
X149514345Y-58281229D01*
X149514343Y-58281224D01*
X149432514Y-58127327D01*
X149432513Y-58127325D01*
X149427370Y-58117653D01*
X149412266Y-58099133D01*
X149310287Y-57974094D01*
X149310286Y-57974093D01*
X149303361Y-57965602D01*
X149233072Y-57907454D01*
X149160624Y-57847520D01*
X149160621Y-57847518D01*
X149152180Y-57840535D01*
X149037571Y-57778566D01*
X148989225Y-57752425D01*
X148989222Y-57752424D01*
X148979585Y-57747213D01*
X148931409Y-57732300D01*
X148802619Y-57692433D01*
X148802618Y-57692433D01*
X148792152Y-57689193D01*
X148597019Y-57668683D01*
X148586108Y-57669676D01*
X148586104Y-57669676D01*
X148412527Y-57685473D01*
X148412525Y-57685473D01*
X148401618Y-57686466D01*
X148252333Y-57730403D01*
X148159465Y-57737549D01*
X148071718Y-57706304D01*
X148030698Y-57673909D01*
X147222825Y-56866037D01*
X147222817Y-56866028D01*
X145329154Y-54972366D01*
X153564500Y-54972366D01*
X153575359Y-55077019D01*
X153579236Y-55088641D01*
X153579237Y-55088644D01*
X153611507Y-55185367D01*
X153630744Y-55243029D01*
X153722834Y-55391845D01*
X153846689Y-55515484D01*
X153995666Y-55607314D01*
X154161772Y-55662410D01*
X154265134Y-55673000D01*
X155614866Y-55673000D01*
X155719519Y-55662141D01*
X155731141Y-55658264D01*
X155731144Y-55658263D01*
X155873184Y-55610875D01*
X155873187Y-55610874D01*
X155885529Y-55606756D01*
X156034345Y-55514666D01*
X156157984Y-55390811D01*
X156249814Y-55241834D01*
X156304910Y-55075728D01*
X156315500Y-54972366D01*
X156315500Y-54247634D01*
X156304641Y-54142981D01*
X156300763Y-54131356D01*
X156253375Y-53989316D01*
X156253374Y-53989313D01*
X156249256Y-53976971D01*
X156157166Y-53828155D01*
X156033311Y-53704516D01*
X156022237Y-53697690D01*
X156022232Y-53697686D01*
X155896961Y-53620468D01*
X155829564Y-53556175D01*
X155794145Y-53470028D01*
X155790500Y-53429784D01*
X155790500Y-52832000D01*
X157648341Y-52832000D01*
X157649193Y-52841738D01*
X157665263Y-53025411D01*
X157668937Y-53067408D01*
X157671465Y-53076844D01*
X157671466Y-53076848D01*
X157709392Y-53218391D01*
X157730097Y-53295663D01*
X157829965Y-53509829D01*
X157835576Y-53517843D01*
X157835577Y-53517844D01*
X157837606Y-53520742D01*
X157965505Y-53703401D01*
X158132599Y-53870495D01*
X158222909Y-53933731D01*
X158304007Y-53990516D01*
X158326170Y-54006035D01*
X158540337Y-54105903D01*
X158549783Y-54108434D01*
X158759152Y-54164534D01*
X158759156Y-54164535D01*
X158768592Y-54167063D01*
X158778326Y-54167915D01*
X158778328Y-54167915D01*
X158994262Y-54186807D01*
X159004000Y-54187659D01*
X159013738Y-54186807D01*
X159229672Y-54167915D01*
X159229674Y-54167915D01*
X159239408Y-54167063D01*
X159248844Y-54164535D01*
X159248848Y-54164534D01*
X159458217Y-54108434D01*
X159467663Y-54105903D01*
X159681830Y-54006035D01*
X159703994Y-53990516D01*
X159785091Y-53933731D01*
X159875401Y-53870495D01*
X160042495Y-53703401D01*
X160170394Y-53520742D01*
X160172423Y-53517844D01*
X160172424Y-53517843D01*
X160178035Y-53509829D01*
X160277903Y-53295663D01*
X160298608Y-53218391D01*
X160336534Y-53076848D01*
X160336535Y-53076844D01*
X160339063Y-53067408D01*
X160342738Y-53025411D01*
X160358807Y-52841738D01*
X160359659Y-52832000D01*
X160354183Y-52769415D01*
X160339915Y-52606328D01*
X160339915Y-52606326D01*
X160339063Y-52596592D01*
X160331015Y-52566553D01*
X160280434Y-52377783D01*
X160277903Y-52368337D01*
X160178035Y-52154171D01*
X160159630Y-52127885D01*
X160101647Y-52045077D01*
X160042495Y-51960599D01*
X159875401Y-51793505D01*
X159806827Y-51745489D01*
X159743304Y-51677368D01*
X159712980Y-51589298D01*
X159721098Y-51496508D01*
X159766256Y-51415042D01*
X159806826Y-51378512D01*
X159875401Y-51330495D01*
X160042495Y-51163401D01*
X160178035Y-50969829D01*
X160277903Y-50755663D01*
X160291454Y-50705090D01*
X160336534Y-50536848D01*
X160336535Y-50536844D01*
X160339063Y-50527408D01*
X160342381Y-50489491D01*
X160358807Y-50301738D01*
X160359659Y-50292000D01*
X160346470Y-50141255D01*
X160339915Y-50066328D01*
X160339915Y-50066326D01*
X160339063Y-50056592D01*
X160336377Y-50046565D01*
X160280434Y-49837783D01*
X160277903Y-49828337D01*
X160178035Y-49614171D01*
X160042495Y-49420599D01*
X159875401Y-49253505D01*
X159806827Y-49205489D01*
X159743304Y-49137368D01*
X159712980Y-49049298D01*
X159721098Y-48956508D01*
X159766256Y-48875042D01*
X159806826Y-48838512D01*
X159875401Y-48790495D01*
X160042495Y-48623401D01*
X160178035Y-48429829D01*
X160277903Y-48215663D01*
X160315425Y-48075627D01*
X160336534Y-47996848D01*
X160336535Y-47996844D01*
X160339063Y-47987408D01*
X160351071Y-47850165D01*
X160358807Y-47761738D01*
X160359659Y-47752000D01*
X160341372Y-47542978D01*
X160339915Y-47526328D01*
X160339915Y-47526326D01*
X160339063Y-47516592D01*
X160318709Y-47440627D01*
X160280434Y-47297783D01*
X160277903Y-47288337D01*
X160178035Y-47074171D01*
X160168442Y-47060470D01*
X160099493Y-46962001D01*
X160042495Y-46880599D01*
X159875401Y-46713505D01*
X159813198Y-46669950D01*
X159749675Y-46601830D01*
X159719350Y-46513760D01*
X159727468Y-46420970D01*
X159772625Y-46339504D01*
X159811603Y-46304099D01*
X159876048Y-46258131D01*
X159890049Y-46246300D01*
X160035206Y-46101648D01*
X160047075Y-46087701D01*
X160166657Y-45921285D01*
X160176096Y-45905577D01*
X160266889Y-45721870D01*
X160273638Y-45704824D01*
X160333207Y-45508762D01*
X160337080Y-45490847D01*
X160337278Y-45489340D01*
X160335806Y-45470634D01*
X160315325Y-45466000D01*
X157692654Y-45466000D01*
X157673606Y-45470049D01*
X157672466Y-45480893D01*
X157701683Y-45610535D01*
X157707155Y-45627994D01*
X157784259Y-45817881D01*
X157792515Y-45834224D01*
X157899587Y-46008951D01*
X157910412Y-46023741D01*
X158044583Y-46178632D01*
X158057674Y-46191451D01*
X158207245Y-46315628D01*
X158264974Y-46388726D01*
X158287981Y-46478984D01*
X158272286Y-46570797D01*
X158220606Y-46648289D01*
X158192646Y-46671460D01*
X158132599Y-46713505D01*
X157965505Y-46880599D01*
X157908507Y-46962001D01*
X157839559Y-47060470D01*
X157829965Y-47074171D01*
X157730097Y-47288337D01*
X157727566Y-47297783D01*
X157689292Y-47440627D01*
X157668937Y-47516592D01*
X157668085Y-47526326D01*
X157668085Y-47526328D01*
X157666628Y-47542978D01*
X157648341Y-47752000D01*
X157649193Y-47761738D01*
X157656930Y-47850165D01*
X157668937Y-47987408D01*
X157671465Y-47996844D01*
X157671466Y-47996848D01*
X157692575Y-48075627D01*
X157730097Y-48215663D01*
X157829965Y-48429829D01*
X157965505Y-48623401D01*
X158132599Y-48790495D01*
X158201173Y-48838511D01*
X158264696Y-48906631D01*
X158295021Y-48994701D01*
X158286903Y-49087491D01*
X158241746Y-49168957D01*
X158201173Y-49205489D01*
X158132599Y-49253505D01*
X157965505Y-49420599D01*
X157829965Y-49614171D01*
X157730097Y-49828337D01*
X157727566Y-49837783D01*
X157671624Y-50046565D01*
X157668937Y-50056592D01*
X157668085Y-50066326D01*
X157668085Y-50066328D01*
X157661530Y-50141255D01*
X157648341Y-50292000D01*
X157649193Y-50301738D01*
X157665620Y-50489491D01*
X157668937Y-50527408D01*
X157671465Y-50536844D01*
X157671466Y-50536848D01*
X157716546Y-50705090D01*
X157730097Y-50755663D01*
X157829965Y-50969829D01*
X157965505Y-51163401D01*
X158132599Y-51330495D01*
X158201173Y-51378511D01*
X158264696Y-51446631D01*
X158295021Y-51534701D01*
X158286903Y-51627491D01*
X158241746Y-51708957D01*
X158201173Y-51745489D01*
X158132599Y-51793505D01*
X157965505Y-51960599D01*
X157906353Y-52045077D01*
X157848371Y-52127885D01*
X157829965Y-52154171D01*
X157730097Y-52368337D01*
X157727566Y-52377783D01*
X157676986Y-52566553D01*
X157668937Y-52596592D01*
X157668085Y-52606326D01*
X157668085Y-52606328D01*
X157653817Y-52769415D01*
X157648341Y-52832000D01*
X155790500Y-52832000D01*
X155790500Y-52657662D01*
X155809866Y-52566553D01*
X155819733Y-52547019D01*
X155853015Y-52488432D01*
X155858425Y-52478909D01*
X155920358Y-52292732D01*
X155944949Y-52098071D01*
X155945341Y-52070000D01*
X155943965Y-52055963D01*
X155927263Y-51885627D01*
X155927262Y-51885624D01*
X155926194Y-51874728D01*
X155894835Y-51770862D01*
X155872649Y-51697376D01*
X155872648Y-51697373D01*
X155869484Y-51686894D01*
X155864345Y-51677229D01*
X155864343Y-51677224D01*
X155782514Y-51523327D01*
X155782513Y-51523325D01*
X155777370Y-51513653D01*
X155692679Y-51409811D01*
X155660287Y-51370094D01*
X155660286Y-51370093D01*
X155653361Y-51361602D01*
X155603782Y-51320587D01*
X155510624Y-51243520D01*
X155510621Y-51243518D01*
X155502180Y-51236535D01*
X155415766Y-51189811D01*
X155339225Y-51148425D01*
X155339222Y-51148424D01*
X155329585Y-51143213D01*
X155258401Y-51121178D01*
X155152619Y-51088433D01*
X155152618Y-51088433D01*
X155142152Y-51085193D01*
X154947019Y-51064683D01*
X154936108Y-51065676D01*
X154936104Y-51065676D01*
X154762527Y-51081473D01*
X154762525Y-51081473D01*
X154751618Y-51082466D01*
X154741109Y-51085559D01*
X154573904Y-51134770D01*
X154573900Y-51134772D01*
X154563393Y-51137864D01*
X154501320Y-51170315D01*
X154427497Y-51208909D01*
X154389512Y-51228767D01*
X154236600Y-51351711D01*
X154229555Y-51360107D01*
X154208610Y-51385069D01*
X154110480Y-51502016D01*
X154105204Y-51511613D01*
X154105202Y-51511616D01*
X154073317Y-51569615D01*
X154015956Y-51673954D01*
X154012646Y-51684390D01*
X154012645Y-51684391D01*
X154010721Y-51690457D01*
X153956628Y-51860978D01*
X153955408Y-51871858D01*
X153955407Y-51871861D01*
X153951325Y-51908254D01*
X153934757Y-52055963D01*
X153951175Y-52251483D01*
X153954195Y-52262015D01*
X153954196Y-52262020D01*
X153982141Y-52359473D01*
X154005258Y-52440091D01*
X154025041Y-52478584D01*
X154064729Y-52555809D01*
X154089151Y-52645695D01*
X154089500Y-52658199D01*
X154089500Y-53429633D01*
X154070134Y-53520742D01*
X154015385Y-53596097D01*
X153983372Y-53620112D01*
X153845655Y-53705334D01*
X153722016Y-53829189D01*
X153630186Y-53978166D01*
X153575090Y-54144272D01*
X153564500Y-54247634D01*
X153564500Y-54972366D01*
X145329154Y-54972366D01*
X143889331Y-53532543D01*
X143876633Y-53518733D01*
X143853816Y-53491732D01*
X143853813Y-53491729D01*
X143845980Y-53482460D01*
X143801896Y-53448755D01*
X143783002Y-53434309D01*
X143778695Y-53430932D01*
X143726382Y-53388871D01*
X143726381Y-53388871D01*
X143716927Y-53381269D01*
X143707520Y-53376599D01*
X143699180Y-53370223D01*
X143669527Y-53356396D01*
X143627341Y-53336724D01*
X143622409Y-53334351D01*
X143551407Y-53299105D01*
X143541221Y-53296565D01*
X143531703Y-53292127D01*
X143454350Y-53274837D01*
X143449019Y-53273577D01*
X143383873Y-53257334D01*
X143383874Y-53257334D01*
X143372106Y-53254400D01*
X143362578Y-53254134D01*
X143360336Y-53253823D01*
X143351363Y-53251817D01*
X143345693Y-53251500D01*
X143271411Y-53251500D01*
X143265157Y-53251413D01*
X143265086Y-53251411D01*
X143187389Y-53249241D01*
X143177921Y-53251047D01*
X143166652Y-53251500D01*
X141786073Y-53251500D01*
X141694964Y-53232134D01*
X141619609Y-53177385D01*
X141573036Y-53096720D01*
X141563300Y-53004086D01*
X141592083Y-52915500D01*
X141627681Y-52869108D01*
X142294588Y-52202200D01*
X145853747Y-52202200D01*
X145891129Y-52486149D01*
X145907781Y-52547019D01*
X145964688Y-52755038D01*
X145964691Y-52755045D01*
X145966702Y-52762398D01*
X146079068Y-53025835D01*
X146082981Y-53032374D01*
X146082983Y-53032377D01*
X146193585Y-53217179D01*
X146226146Y-53271585D01*
X146255531Y-53308264D01*
X146400454Y-53489158D01*
X146400458Y-53489163D01*
X146405215Y-53495100D01*
X146410731Y-53500334D01*
X146410736Y-53500340D01*
X146536950Y-53620112D01*
X146612962Y-53692245D01*
X146845543Y-53859371D01*
X146965092Y-53922669D01*
X147091900Y-53989811D01*
X147091906Y-53989814D01*
X147098653Y-53993386D01*
X147367610Y-54091810D01*
X147375059Y-54093434D01*
X147375062Y-54093435D01*
X147432246Y-54105903D01*
X147647436Y-54152822D01*
X147655034Y-54153420D01*
X147655041Y-54153421D01*
X147778285Y-54163120D01*
X147872053Y-54170500D01*
X148026992Y-54170500D01*
X148030786Y-54170241D01*
X148030796Y-54170241D01*
X148153479Y-54161877D01*
X148240737Y-54155928D01*
X148370664Y-54129021D01*
X148513723Y-54099396D01*
X148513730Y-54099394D01*
X148521186Y-54097850D01*
X148528364Y-54095308D01*
X148528368Y-54095307D01*
X148735473Y-54021967D01*
X148791158Y-54002248D01*
X149045658Y-53870891D01*
X149279976Y-53706209D01*
X149285560Y-53701020D01*
X149285565Y-53701016D01*
X149484187Y-53516445D01*
X149484190Y-53516442D01*
X149489776Y-53511251D01*
X149496278Y-53503308D01*
X149663416Y-53299105D01*
X149671177Y-53289623D01*
X149820820Y-53045427D01*
X149935938Y-52783182D01*
X150014400Y-52507739D01*
X150054754Y-52224196D01*
X150055163Y-52146156D01*
X150055680Y-52047220D01*
X150056253Y-51937800D01*
X150018871Y-51653851D01*
X149990802Y-51551248D01*
X149945312Y-51384962D01*
X149945309Y-51384955D01*
X149943298Y-51377602D01*
X149830932Y-51114165D01*
X149821908Y-51099086D01*
X149687773Y-50874963D01*
X149687772Y-50874962D01*
X149683854Y-50868415D01*
X149640814Y-50814692D01*
X149509546Y-50650842D01*
X149509542Y-50650837D01*
X149504785Y-50644900D01*
X149499269Y-50639666D01*
X149499264Y-50639660D01*
X149302569Y-50453004D01*
X149297038Y-50447755D01*
X149064457Y-50280629D01*
X148825826Y-50154280D01*
X148818100Y-50150189D01*
X148818094Y-50150186D01*
X148811347Y-50146614D01*
X148542390Y-50048190D01*
X148534941Y-50046566D01*
X148534938Y-50046565D01*
X148320302Y-49999767D01*
X148262564Y-49987178D01*
X148254966Y-49986580D01*
X148254959Y-49986579D01*
X148131715Y-49976880D01*
X148037947Y-49969500D01*
X147883008Y-49969500D01*
X147879214Y-49969759D01*
X147879204Y-49969759D01*
X147756521Y-49978123D01*
X147669263Y-49984072D01*
X147539336Y-50010979D01*
X147396277Y-50040604D01*
X147396270Y-50040606D01*
X147388814Y-50042150D01*
X147381636Y-50044692D01*
X147381632Y-50044693D01*
X147252210Y-50090524D01*
X147118842Y-50137752D01*
X146864342Y-50269109D01*
X146630024Y-50433791D01*
X146624440Y-50438980D01*
X146624435Y-50438984D01*
X146434345Y-50615627D01*
X146420224Y-50628749D01*
X146415395Y-50634649D01*
X146415393Y-50634651D01*
X146373874Y-50685377D01*
X146238823Y-50850377D01*
X146089180Y-51094573D01*
X145974062Y-51356818D01*
X145895600Y-51632261D01*
X145894526Y-51639806D01*
X145894526Y-51639807D01*
X145892527Y-51653851D01*
X145855246Y-51915804D01*
X145855206Y-51923427D01*
X145855206Y-51923428D01*
X145854970Y-51968610D01*
X145853747Y-52202200D01*
X142294588Y-52202200D01*
X142651880Y-51844908D01*
X142664544Y-51834168D01*
X142664318Y-51833916D01*
X142673362Y-51825829D01*
X142683228Y-51818766D01*
X142726362Y-51770861D01*
X142734433Y-51762355D01*
X142747037Y-51749751D01*
X142757028Y-51737325D01*
X142765135Y-51727799D01*
X142798758Y-51690457D01*
X142806877Y-51681440D01*
X142812870Y-51670890D01*
X142819788Y-51661298D01*
X142826131Y-51651379D01*
X142833731Y-51641927D01*
X142861474Y-51586039D01*
X142867344Y-51574999D01*
X142892162Y-51531312D01*
X142898153Y-51520766D01*
X142901740Y-51509179D01*
X142906428Y-51498345D01*
X142910504Y-51487268D01*
X142915895Y-51476407D01*
X142930992Y-51415854D01*
X142934341Y-51403861D01*
X142952797Y-51344240D01*
X142953812Y-51332153D01*
X142956060Y-51320587D01*
X142957664Y-51308879D01*
X142960600Y-51297106D01*
X142961110Y-51278856D01*
X142962342Y-51234742D01*
X142963041Y-51222254D01*
X142967245Y-51172191D01*
X142967245Y-51172186D01*
X142968260Y-51160098D01*
X142966655Y-51148070D01*
X142966367Y-51136287D01*
X142965420Y-51124516D01*
X142965759Y-51112388D01*
X142963487Y-51100475D01*
X142963486Y-51100468D01*
X142954070Y-51051107D01*
X142952071Y-51038764D01*
X142945425Y-50988959D01*
X142943820Y-50976931D01*
X142939670Y-50965529D01*
X142936857Y-50954075D01*
X142933407Y-50942791D01*
X142931133Y-50930871D01*
X142926352Y-50919715D01*
X142906556Y-50873527D01*
X142901951Y-50861896D01*
X142884770Y-50814692D01*
X142884769Y-50814691D01*
X142880618Y-50803285D01*
X142874113Y-50793034D01*
X142868894Y-50782429D01*
X142863117Y-50772177D01*
X142858337Y-50761024D01*
X142821995Y-50710262D01*
X142815042Y-50699955D01*
X142781602Y-50647261D01*
X142777817Y-50643028D01*
X142775605Y-50640816D01*
X142773462Y-50638550D01*
X142773695Y-50638330D01*
X142766169Y-50629456D01*
X142765917Y-50629681D01*
X142757825Y-50620630D01*
X142750766Y-50610771D01*
X142741755Y-50602657D01*
X142741751Y-50602653D01*
X142702862Y-50567638D01*
X142694355Y-50559566D01*
X141410331Y-49275543D01*
X141397633Y-49261733D01*
X141374816Y-49234732D01*
X141374813Y-49234729D01*
X141366980Y-49225460D01*
X141330152Y-49197303D01*
X141304002Y-49177309D01*
X141299695Y-49173932D01*
X141247382Y-49131871D01*
X141247381Y-49131871D01*
X141237927Y-49124269D01*
X141228520Y-49119599D01*
X141220180Y-49113223D01*
X141172265Y-49090880D01*
X141148341Y-49079724D01*
X141143409Y-49077351D01*
X141072407Y-49042105D01*
X141062221Y-49039565D01*
X141052703Y-49035127D01*
X140975350Y-49017837D01*
X140970019Y-49016577D01*
X140941403Y-49009442D01*
X140893106Y-48997400D01*
X140883578Y-48997134D01*
X140881336Y-48996823D01*
X140872363Y-48994817D01*
X140866693Y-48994500D01*
X140792411Y-48994500D01*
X140786157Y-48994413D01*
X140786086Y-48994411D01*
X140708389Y-48992241D01*
X140698921Y-48994047D01*
X140687652Y-48994500D01*
X140453176Y-48994500D01*
X140362067Y-48975134D01*
X140286712Y-48920385D01*
X140240139Y-48839720D01*
X140230403Y-48747086D01*
X140259186Y-48658500D01*
X140282795Y-48627732D01*
X140282546Y-48627545D01*
X140329302Y-48565160D01*
X140399439Y-48503869D01*
X140488442Y-48476404D01*
X140508547Y-48475500D01*
X141541260Y-48475500D01*
X141632369Y-48494866D01*
X141650540Y-48503965D01*
X141682966Y-48522087D01*
X141726213Y-48546257D01*
X141736627Y-48549641D01*
X141736630Y-48549642D01*
X141862735Y-48590616D01*
X141912818Y-48606889D01*
X142107646Y-48630121D01*
X142223933Y-48621173D01*
X142292350Y-48615909D01*
X142292353Y-48615908D01*
X142303276Y-48615068D01*
X142313829Y-48612122D01*
X142313832Y-48612121D01*
X142481699Y-48565251D01*
X142481703Y-48565250D01*
X142492256Y-48562303D01*
X142667389Y-48473837D01*
X142784211Y-48382566D01*
X142813374Y-48359782D01*
X142813376Y-48359780D01*
X142822003Y-48353040D01*
X142829282Y-48344608D01*
X142943048Y-48212807D01*
X142950209Y-48204511D01*
X142971273Y-48167433D01*
X143041715Y-48043432D01*
X143047125Y-48033909D01*
X143109058Y-47847732D01*
X143133649Y-47653071D01*
X143134041Y-47625000D01*
X143133430Y-47618766D01*
X143115963Y-47440627D01*
X143115962Y-47440624D01*
X143114894Y-47429728D01*
X143072206Y-47288337D01*
X143061349Y-47252376D01*
X143061348Y-47252373D01*
X143058184Y-47241894D01*
X143053045Y-47232229D01*
X143053043Y-47232224D01*
X142971214Y-47078327D01*
X142971213Y-47078325D01*
X142966070Y-47068653D01*
X142842061Y-46916602D01*
X142754365Y-46844054D01*
X142699324Y-46798520D01*
X142699321Y-46798518D01*
X142690880Y-46791535D01*
X142559354Y-46720419D01*
X142527925Y-46703425D01*
X142527922Y-46703424D01*
X142518285Y-46698213D01*
X142330852Y-46640193D01*
X142135719Y-46619683D01*
X142124808Y-46620676D01*
X142124804Y-46620676D01*
X141951227Y-46636473D01*
X141951225Y-46636473D01*
X141940318Y-46637466D01*
X141752093Y-46692864D01*
X141742384Y-46697940D01*
X141742381Y-46697941D01*
X141644697Y-46749009D01*
X141554983Y-46774058D01*
X141540918Y-46774500D01*
X139637073Y-46774500D01*
X139545964Y-46755134D01*
X139478681Y-46708892D01*
X138793530Y-46023741D01*
X138107679Y-45337891D01*
X138056950Y-45259774D01*
X138050655Y-45220030D01*
X148502001Y-45220030D01*
X148502655Y-45232114D01*
X148507231Y-45274239D01*
X148513679Y-45301360D01*
X148554229Y-45409526D01*
X148569396Y-45437228D01*
X148637524Y-45528132D01*
X148659868Y-45550476D01*
X148750772Y-45618604D01*
X148778474Y-45633771D01*
X148886643Y-45674322D01*
X148913756Y-45680769D01*
X148955892Y-45685346D01*
X148967966Y-45686000D01*
X149582456Y-45686000D01*
X149602850Y-45681665D01*
X149604290Y-45679171D01*
X149606000Y-45668374D01*
X149606000Y-45662455D01*
X150114000Y-45662455D01*
X150118335Y-45682849D01*
X150120829Y-45684289D01*
X150131626Y-45685999D01*
X150752030Y-45685999D01*
X150764114Y-45685345D01*
X150806239Y-45680769D01*
X150833360Y-45674321D01*
X150941526Y-45633771D01*
X150969228Y-45618604D01*
X151060132Y-45550476D01*
X151082476Y-45528132D01*
X151150604Y-45437228D01*
X151165771Y-45409526D01*
X151206322Y-45301357D01*
X151212769Y-45274244D01*
X151217346Y-45232108D01*
X151218000Y-45220034D01*
X151218000Y-44605544D01*
X151213665Y-44585150D01*
X151211171Y-44583710D01*
X151200374Y-44582000D01*
X150137544Y-44582000D01*
X150117150Y-44586335D01*
X150115710Y-44588829D01*
X150114000Y-44599626D01*
X150114000Y-45662455D01*
X149606000Y-45662455D01*
X149606000Y-44605544D01*
X149601665Y-44585150D01*
X149599171Y-44583710D01*
X149588374Y-44582000D01*
X148525545Y-44582000D01*
X148505151Y-44586335D01*
X148503711Y-44588829D01*
X148502001Y-44599626D01*
X148502001Y-45220030D01*
X138050655Y-45220030D01*
X138042379Y-45167777D01*
X138066487Y-45077806D01*
X138125104Y-45005419D01*
X138208096Y-44963133D01*
X138266072Y-44955500D01*
X139601909Y-44955499D01*
X139892376Y-44955499D01*
X139898396Y-44954845D01*
X139898398Y-44954845D01*
X139939615Y-44950368D01*
X139939616Y-44950368D01*
X139953580Y-44948851D01*
X139996106Y-44932909D01*
X140072881Y-44904128D01*
X140072882Y-44904127D01*
X140087824Y-44898526D01*
X140100593Y-44888956D01*
X140100595Y-44888955D01*
X140189773Y-44822119D01*
X140202546Y-44812546D01*
X140236727Y-44766939D01*
X140278955Y-44710595D01*
X140278956Y-44710593D01*
X140288526Y-44697824D01*
X140323120Y-44605544D01*
X140333921Y-44576732D01*
X140333922Y-44576729D01*
X140338851Y-44563580D01*
X140340624Y-44547266D01*
X140343736Y-44518611D01*
X140345500Y-44502377D01*
X140345499Y-44050456D01*
X148502000Y-44050456D01*
X148506335Y-44070850D01*
X148508829Y-44072290D01*
X148519626Y-44074000D01*
X151194455Y-44074000D01*
X151214849Y-44069665D01*
X151216289Y-44067171D01*
X151217999Y-44056374D01*
X151217999Y-43435970D01*
X151217345Y-43423886D01*
X151212769Y-43381761D01*
X151206321Y-43354640D01*
X151165771Y-43246474D01*
X151150604Y-43218772D01*
X151082476Y-43127868D01*
X151060132Y-43105524D01*
X150969230Y-43037397D01*
X150941415Y-43022168D01*
X150870801Y-42961427D01*
X150830997Y-42877216D01*
X150828886Y-42784096D01*
X150864833Y-42698167D01*
X150890598Y-42667298D01*
X150898495Y-42659401D01*
X151034035Y-42465829D01*
X151133903Y-42251663D01*
X151150414Y-42190042D01*
X151192534Y-42032848D01*
X151192535Y-42032844D01*
X151195063Y-42023408D01*
X151198503Y-41984097D01*
X151214807Y-41797738D01*
X151215659Y-41788000D01*
X151204061Y-41655436D01*
X151195915Y-41562328D01*
X151195915Y-41562326D01*
X151195063Y-41552592D01*
X151191506Y-41539314D01*
X151136434Y-41333783D01*
X151133903Y-41324337D01*
X151034035Y-41110171D01*
X150973719Y-41024030D01*
X154090001Y-41024030D01*
X154090655Y-41036114D01*
X154095231Y-41078239D01*
X154101679Y-41105360D01*
X154142229Y-41213526D01*
X154157396Y-41241228D01*
X154225524Y-41332132D01*
X154247868Y-41354476D01*
X154338770Y-41422603D01*
X154366585Y-41437832D01*
X154437199Y-41498573D01*
X154477003Y-41582784D01*
X154479114Y-41675904D01*
X154443167Y-41761833D01*
X154417402Y-41792702D01*
X154409505Y-41800599D01*
X154360816Y-41870134D01*
X154282830Y-41981511D01*
X154273965Y-41994171D01*
X154174097Y-42208337D01*
X154171566Y-42217783D01*
X154117103Y-42421045D01*
X154112937Y-42436592D01*
X154112085Y-42446326D01*
X154112085Y-42446328D01*
X154107612Y-42497454D01*
X154092341Y-42672000D01*
X154112937Y-42907408D01*
X154115465Y-42916844D01*
X154115466Y-42916848D01*
X154161419Y-43088346D01*
X154174097Y-43135663D01*
X154273965Y-43349829D01*
X154279576Y-43357843D01*
X154279577Y-43357844D01*
X154311746Y-43403786D01*
X154409505Y-43543401D01*
X154576599Y-43710495D01*
X154645173Y-43758511D01*
X154708696Y-43826631D01*
X154739021Y-43914701D01*
X154730903Y-44007491D01*
X154685746Y-44088957D01*
X154645173Y-44125489D01*
X154576599Y-44173505D01*
X154409505Y-44340599D01*
X154343693Y-44434589D01*
X154282921Y-44521381D01*
X154273965Y-44534171D01*
X154174097Y-44748337D01*
X154171566Y-44757783D01*
X154117919Y-44958000D01*
X154112937Y-44976592D01*
X154112085Y-44986326D01*
X154112085Y-44986328D01*
X154110708Y-45002069D01*
X154092341Y-45212000D01*
X154112937Y-45447408D01*
X154115465Y-45456844D01*
X154115466Y-45456848D01*
X154156646Y-45610535D01*
X154174097Y-45675663D01*
X154273965Y-45889829D01*
X154409505Y-46083401D01*
X154576599Y-46250495D01*
X154645173Y-46298511D01*
X154708696Y-46366631D01*
X154739021Y-46454701D01*
X154730903Y-46547491D01*
X154685746Y-46628957D01*
X154645173Y-46665489D01*
X154576599Y-46713505D01*
X154409505Y-46880599D01*
X154352507Y-46962001D01*
X154283559Y-47060470D01*
X154273965Y-47074171D01*
X154174097Y-47288337D01*
X154171566Y-47297783D01*
X154133292Y-47440627D01*
X154112937Y-47516592D01*
X154112085Y-47526326D01*
X154112085Y-47526328D01*
X154110628Y-47542978D01*
X154092341Y-47752000D01*
X154093193Y-47761738D01*
X154100930Y-47850165D01*
X154112937Y-47987408D01*
X154115465Y-47996844D01*
X154115466Y-47996848D01*
X154136575Y-48075627D01*
X154174097Y-48215663D01*
X154273965Y-48429829D01*
X154409505Y-48623401D01*
X154576599Y-48790495D01*
X154770170Y-48926035D01*
X154984337Y-49025903D01*
X154993783Y-49028434D01*
X155203152Y-49084534D01*
X155203156Y-49084535D01*
X155212592Y-49087063D01*
X155222326Y-49087915D01*
X155222328Y-49087915D01*
X155438262Y-49106807D01*
X155448000Y-49107659D01*
X155457738Y-49106807D01*
X155673672Y-49087915D01*
X155673674Y-49087915D01*
X155683408Y-49087063D01*
X155692844Y-49084535D01*
X155692848Y-49084534D01*
X155902217Y-49028434D01*
X155911663Y-49025903D01*
X156125830Y-48926035D01*
X156319401Y-48790495D01*
X156486495Y-48623401D01*
X156622035Y-48429829D01*
X156721903Y-48215663D01*
X156759425Y-48075627D01*
X156780534Y-47996848D01*
X156780535Y-47996844D01*
X156783063Y-47987408D01*
X156795071Y-47850165D01*
X156802807Y-47761738D01*
X156803659Y-47752000D01*
X156785372Y-47542978D01*
X156783915Y-47526328D01*
X156783915Y-47526326D01*
X156783063Y-47516592D01*
X156762709Y-47440627D01*
X156724434Y-47297783D01*
X156721903Y-47288337D01*
X156622035Y-47074171D01*
X156612442Y-47060470D01*
X156543493Y-46962001D01*
X156486495Y-46880599D01*
X156319401Y-46713505D01*
X156250827Y-46665489D01*
X156187304Y-46597368D01*
X156156980Y-46509298D01*
X156165098Y-46416508D01*
X156210256Y-46335042D01*
X156250826Y-46298512D01*
X156319401Y-46250495D01*
X156486495Y-46083401D01*
X156622035Y-45889829D01*
X156721903Y-45675663D01*
X156739354Y-45610535D01*
X156780534Y-45456848D01*
X156780535Y-45456844D01*
X156783063Y-45447408D01*
X156803659Y-45212000D01*
X156785292Y-45002069D01*
X156783915Y-44986328D01*
X156783915Y-44986326D01*
X156783063Y-44976592D01*
X156778082Y-44958000D01*
X156724434Y-44757783D01*
X156721903Y-44748337D01*
X156622035Y-44534171D01*
X156613080Y-44521381D01*
X156552307Y-44434589D01*
X156486495Y-44340599D01*
X156319401Y-44173505D01*
X156250827Y-44125489D01*
X156187304Y-44057368D01*
X156156980Y-43969298D01*
X156165098Y-43876508D01*
X156210256Y-43795042D01*
X156250826Y-43758512D01*
X156319401Y-43710495D01*
X156486495Y-43543401D01*
X156584254Y-43403786D01*
X156616423Y-43357844D01*
X156616424Y-43357843D01*
X156622035Y-43349829D01*
X156721903Y-43135663D01*
X156734581Y-43088346D01*
X156780534Y-42916848D01*
X156780535Y-42916844D01*
X156783063Y-42907408D01*
X156803659Y-42672000D01*
X157648341Y-42672000D01*
X157668937Y-42907408D01*
X157671465Y-42916844D01*
X157671466Y-42916848D01*
X157717419Y-43088346D01*
X157730097Y-43135663D01*
X157829965Y-43349829D01*
X157835576Y-43357843D01*
X157835577Y-43357844D01*
X157867746Y-43403786D01*
X157965505Y-43543401D01*
X158132599Y-43710495D01*
X158140609Y-43716104D01*
X158140613Y-43716107D01*
X158194885Y-43754109D01*
X158258409Y-43822231D01*
X158288734Y-43910301D01*
X158280615Y-44003091D01*
X158235457Y-44084556D01*
X158200897Y-44116727D01*
X158106652Y-44187489D01*
X158092949Y-44199654D01*
X157951366Y-44347812D01*
X157939841Y-44362045D01*
X157824360Y-44531334D01*
X157815309Y-44547266D01*
X157729030Y-44733138D01*
X157722702Y-44750339D01*
X157668864Y-44944470D01*
X157669838Y-44953910D01*
X157688992Y-44958000D01*
X160316915Y-44958000D01*
X160335963Y-44953951D01*
X160336989Y-44944186D01*
X160296195Y-44781782D01*
X160290289Y-44764431D01*
X160208576Y-44576504D01*
X160199920Y-44560361D01*
X160088611Y-44388303D01*
X160077428Y-44373781D01*
X159939517Y-44222220D01*
X159926111Y-44209718D01*
X159803492Y-44112880D01*
X159743994Y-44041215D01*
X159718789Y-43951546D01*
X159732235Y-43859377D01*
X159782007Y-43780645D01*
X159813837Y-43753603D01*
X159875401Y-43710495D01*
X160042495Y-43543401D01*
X160140254Y-43403786D01*
X160172423Y-43357844D01*
X160172424Y-43357843D01*
X160178035Y-43349829D01*
X160277903Y-43135663D01*
X160290581Y-43088346D01*
X160336534Y-42916848D01*
X160336535Y-42916844D01*
X160339063Y-42907408D01*
X160359659Y-42672000D01*
X160344388Y-42497454D01*
X160339915Y-42446328D01*
X160339915Y-42446326D01*
X160339063Y-42436592D01*
X160334898Y-42421045D01*
X160280434Y-42217783D01*
X160277903Y-42208337D01*
X160178035Y-41994171D01*
X160169171Y-41981511D01*
X160091184Y-41870134D01*
X160042495Y-41800599D01*
X160029015Y-41787119D01*
X159978285Y-41709001D01*
X159963714Y-41617004D01*
X159987822Y-41527033D01*
X160046439Y-41454646D01*
X160079837Y-41432246D01*
X160081876Y-41431130D01*
X160096824Y-41425526D01*
X160109595Y-41415955D01*
X160109598Y-41415953D01*
X160198773Y-41349119D01*
X160211546Y-41339546D01*
X160276750Y-41252545D01*
X160287955Y-41237595D01*
X160287956Y-41237593D01*
X160297526Y-41224824D01*
X160308239Y-41196246D01*
X160342921Y-41103732D01*
X160342922Y-41103729D01*
X160347851Y-41090580D01*
X160350021Y-41070611D01*
X160353768Y-41036114D01*
X160354500Y-41029377D01*
X160354499Y-39234624D01*
X160347851Y-39173420D01*
X160342920Y-39160266D01*
X160303128Y-39054119D01*
X160303127Y-39054118D01*
X160297526Y-39039176D01*
X160240730Y-38963393D01*
X160221119Y-38937227D01*
X160211546Y-38924454D01*
X160191625Y-38909524D01*
X160109595Y-38848045D01*
X160109593Y-38848044D01*
X160096824Y-38838474D01*
X160081882Y-38832873D01*
X160081881Y-38832872D01*
X159975732Y-38793079D01*
X159975729Y-38793078D01*
X159962580Y-38788149D01*
X159948621Y-38786633D01*
X159948619Y-38786632D01*
X159933940Y-38785038D01*
X159901377Y-38781500D01*
X159004297Y-38781500D01*
X158106624Y-38781501D01*
X158100604Y-38782155D01*
X158100602Y-38782155D01*
X158059385Y-38786632D01*
X158059384Y-38786632D01*
X158045420Y-38788149D01*
X158032267Y-38793080D01*
X158032266Y-38793080D01*
X157926119Y-38832872D01*
X157926118Y-38832873D01*
X157911176Y-38838474D01*
X157898407Y-38848044D01*
X157898405Y-38848045D01*
X157816375Y-38909524D01*
X157796454Y-38924454D01*
X157786881Y-38937227D01*
X157767271Y-38963393D01*
X157710474Y-39039176D01*
X157704873Y-39054118D01*
X157704872Y-39054119D01*
X157665689Y-39158643D01*
X157660149Y-39173420D01*
X157653500Y-39234623D01*
X157653501Y-41029376D01*
X157660149Y-41090580D01*
X157665080Y-41103733D01*
X157665080Y-41103734D01*
X157698536Y-41192978D01*
X157710474Y-41224824D01*
X157720044Y-41237593D01*
X157720045Y-41237595D01*
X157731250Y-41252545D01*
X157796454Y-41339546D01*
X157809227Y-41349119D01*
X157898402Y-41415953D01*
X157898405Y-41415955D01*
X157911176Y-41425526D01*
X157926124Y-41431130D01*
X157928163Y-41432246D01*
X157998779Y-41492985D01*
X158038585Y-41577195D01*
X158040698Y-41670316D01*
X158004754Y-41756245D01*
X157978985Y-41787119D01*
X157965505Y-41800599D01*
X157916816Y-41870134D01*
X157838830Y-41981511D01*
X157829965Y-41994171D01*
X157730097Y-42208337D01*
X157727566Y-42217783D01*
X157673103Y-42421045D01*
X157668937Y-42436592D01*
X157668085Y-42446326D01*
X157668085Y-42446328D01*
X157663612Y-42497454D01*
X157648341Y-42672000D01*
X156803659Y-42672000D01*
X156788388Y-42497454D01*
X156783915Y-42446328D01*
X156783915Y-42446326D01*
X156783063Y-42436592D01*
X156778898Y-42421045D01*
X156724434Y-42217783D01*
X156721903Y-42208337D01*
X156622035Y-41994171D01*
X156613171Y-41981511D01*
X156535184Y-41870134D01*
X156486495Y-41800599D01*
X156478598Y-41792702D01*
X156478057Y-41791868D01*
X156473292Y-41786190D01*
X156473989Y-41785605D01*
X156427868Y-41714584D01*
X156413297Y-41622587D01*
X156437405Y-41532616D01*
X156496022Y-41460229D01*
X156529415Y-41437832D01*
X156557230Y-41422603D01*
X156648132Y-41354476D01*
X156670476Y-41332132D01*
X156738604Y-41241228D01*
X156753771Y-41213526D01*
X156794322Y-41105357D01*
X156800769Y-41078244D01*
X156805346Y-41036108D01*
X156806000Y-41024034D01*
X156806000Y-40409544D01*
X156801665Y-40389150D01*
X156799171Y-40387710D01*
X156788374Y-40386000D01*
X154113545Y-40386000D01*
X154093151Y-40390335D01*
X154091711Y-40392829D01*
X154090001Y-40403626D01*
X154090001Y-41024030D01*
X150973719Y-41024030D01*
X150898495Y-40916599D01*
X150731401Y-40749505D01*
X150575012Y-40640000D01*
X150545845Y-40619577D01*
X150545844Y-40619576D01*
X150537830Y-40613965D01*
X150323663Y-40514097D01*
X150305721Y-40509289D01*
X150104848Y-40455466D01*
X150104844Y-40455465D01*
X150095408Y-40452937D01*
X150085674Y-40452085D01*
X150085672Y-40452085D01*
X149869738Y-40433193D01*
X149860000Y-40432341D01*
X149850262Y-40433193D01*
X149634328Y-40452085D01*
X149634326Y-40452085D01*
X149624592Y-40452937D01*
X149615156Y-40455465D01*
X149615152Y-40455466D01*
X149414279Y-40509289D01*
X149396337Y-40514097D01*
X149182171Y-40613965D01*
X148988599Y-40749505D01*
X148821505Y-40916599D01*
X148685965Y-41110171D01*
X148682656Y-41117268D01*
X148620875Y-41185880D01*
X148575074Y-41206271D01*
X148589846Y-41250678D01*
X148583609Y-41333620D01*
X148527468Y-41543141D01*
X148527466Y-41543152D01*
X148524937Y-41552592D01*
X148524085Y-41562326D01*
X148524085Y-41562328D01*
X148515939Y-41655436D01*
X148504341Y-41788000D01*
X148505193Y-41797738D01*
X148521498Y-41984097D01*
X148524937Y-42023408D01*
X148527465Y-42032844D01*
X148527466Y-42032848D01*
X148569586Y-42190042D01*
X148586097Y-42251663D01*
X148685965Y-42465829D01*
X148821505Y-42659401D01*
X148829402Y-42667298D01*
X148829943Y-42668132D01*
X148834708Y-42673810D01*
X148834011Y-42674395D01*
X148880132Y-42745416D01*
X148894703Y-42837413D01*
X148870595Y-42927384D01*
X148811978Y-42999771D01*
X148778585Y-43022168D01*
X148750770Y-43037397D01*
X148659868Y-43105524D01*
X148637524Y-43127868D01*
X148569396Y-43218772D01*
X148554229Y-43246474D01*
X148513678Y-43354643D01*
X148507231Y-43381756D01*
X148502654Y-43423892D01*
X148502000Y-43435966D01*
X148502000Y-44050456D01*
X140345499Y-44050456D01*
X140345499Y-43757624D01*
X140344316Y-43746728D01*
X140340989Y-43716104D01*
X140338851Y-43696420D01*
X140339268Y-43696375D01*
X140337378Y-43617508D01*
X140338851Y-43613580D01*
X140345500Y-43552377D01*
X140345499Y-42807624D01*
X140338851Y-42746420D01*
X140342765Y-42745995D01*
X140341170Y-42680121D01*
X140343414Y-42669561D01*
X140347768Y-42651248D01*
X140352346Y-42609108D01*
X140353000Y-42597034D01*
X140353000Y-42507544D01*
X140348665Y-42487150D01*
X140346171Y-42485710D01*
X140335374Y-42484000D01*
X140259218Y-42484000D01*
X140168109Y-42464634D01*
X140124880Y-42439246D01*
X140100595Y-42421045D01*
X140100593Y-42421044D01*
X140087824Y-42411474D01*
X140072881Y-42405872D01*
X140058882Y-42398208D01*
X140060502Y-42395249D01*
X140004706Y-42359637D01*
X139953361Y-42281922D01*
X139938064Y-42190042D01*
X139961461Y-42099884D01*
X140019506Y-42027037D01*
X140102162Y-41984097D01*
X140161843Y-41976000D01*
X140329455Y-41976000D01*
X140349849Y-41971665D01*
X140351289Y-41969171D01*
X140352999Y-41958374D01*
X140352999Y-41862970D01*
X140352345Y-41850886D01*
X140347769Y-41808761D01*
X140338072Y-41767974D01*
X140341716Y-41767108D01*
X140331781Y-41701014D01*
X140356597Y-41611236D01*
X140415783Y-41539314D01*
X140499106Y-41497682D01*
X140555375Y-41490500D01*
X146732560Y-41490500D01*
X146823669Y-41509866D01*
X146841840Y-41518965D01*
X146885098Y-41543141D01*
X146917513Y-41561257D01*
X146927927Y-41564641D01*
X146927930Y-41564642D01*
X147093703Y-41618505D01*
X147104118Y-41621889D01*
X147298946Y-41645121D01*
X147415233Y-41636173D01*
X147483650Y-41630909D01*
X147483653Y-41630908D01*
X147494576Y-41630068D01*
X147505129Y-41627122D01*
X147505132Y-41627121D01*
X147672999Y-41580251D01*
X147673003Y-41580250D01*
X147683556Y-41577303D01*
X147858689Y-41488837D01*
X147958126Y-41411149D01*
X148004674Y-41374782D01*
X148004676Y-41374780D01*
X148013303Y-41368040D01*
X148037899Y-41339546D01*
X148122085Y-41242014D01*
X148141509Y-41219511D01*
X148163751Y-41180359D01*
X148172476Y-41165000D01*
X148234318Y-41095348D01*
X148281366Y-41074006D01*
X148266441Y-41028069D01*
X148276666Y-40933952D01*
X148296901Y-40873125D01*
X148296902Y-40873122D01*
X148300358Y-40862732D01*
X148324949Y-40668071D01*
X148325341Y-40640000D01*
X148323965Y-40625963D01*
X148307263Y-40455627D01*
X148307262Y-40455624D01*
X148306194Y-40444728D01*
X148249484Y-40256894D01*
X148244345Y-40247229D01*
X148244343Y-40247224D01*
X148162514Y-40093327D01*
X148162513Y-40093325D01*
X148157370Y-40083653D01*
X148033361Y-39931602D01*
X147940107Y-39854456D01*
X154090000Y-39854456D01*
X154094335Y-39874850D01*
X154096829Y-39876290D01*
X154107626Y-39878000D01*
X155170456Y-39878000D01*
X155190850Y-39873665D01*
X155192290Y-39871171D01*
X155194000Y-39860374D01*
X155194000Y-39854456D01*
X155702000Y-39854456D01*
X155706335Y-39874850D01*
X155708829Y-39876290D01*
X155719626Y-39878000D01*
X156782455Y-39878000D01*
X156802849Y-39873665D01*
X156804289Y-39871171D01*
X156805999Y-39860374D01*
X156805999Y-39239970D01*
X156805345Y-39227886D01*
X156800769Y-39185761D01*
X156794321Y-39158640D01*
X156753771Y-39050474D01*
X156738604Y-39022772D01*
X156670476Y-38931868D01*
X156648132Y-38909524D01*
X156557228Y-38841396D01*
X156529526Y-38826229D01*
X156421357Y-38785678D01*
X156394244Y-38779231D01*
X156352108Y-38774654D01*
X156340034Y-38774000D01*
X155725544Y-38774000D01*
X155705150Y-38778335D01*
X155703710Y-38780829D01*
X155702000Y-38791626D01*
X155702000Y-39854456D01*
X155194000Y-39854456D01*
X155194000Y-38797545D01*
X155189665Y-38777151D01*
X155187171Y-38775711D01*
X155176374Y-38774001D01*
X154555970Y-38774001D01*
X154543886Y-38774655D01*
X154501761Y-38779231D01*
X154474640Y-38785679D01*
X154366474Y-38826229D01*
X154338772Y-38841396D01*
X154247868Y-38909524D01*
X154225524Y-38931868D01*
X154157396Y-39022772D01*
X154142229Y-39050474D01*
X154101678Y-39158643D01*
X154095231Y-39185756D01*
X154090654Y-39227892D01*
X154090000Y-39239966D01*
X154090000Y-39854456D01*
X147940107Y-39854456D01*
X147890624Y-39813520D01*
X147890621Y-39813518D01*
X147882180Y-39806535D01*
X147775753Y-39748990D01*
X147719225Y-39718425D01*
X147719222Y-39718424D01*
X147709585Y-39713213D01*
X147522152Y-39655193D01*
X147327019Y-39634683D01*
X147316108Y-39635676D01*
X147316104Y-39635676D01*
X147142527Y-39651473D01*
X147142525Y-39651473D01*
X147131618Y-39652466D01*
X146943393Y-39707864D01*
X146933684Y-39712940D01*
X146933681Y-39712941D01*
X146835997Y-39764009D01*
X146746283Y-39789058D01*
X146732218Y-39789500D01*
X145362812Y-39789500D01*
X145271703Y-39770134D01*
X145196348Y-39715385D01*
X145149775Y-39634720D01*
X145140039Y-39542086D01*
X145168822Y-39453500D01*
X145231148Y-39384280D01*
X145268145Y-39362487D01*
X145448958Y-39278172D01*
X145457830Y-39274035D01*
X145651401Y-39138495D01*
X145818495Y-38971401D01*
X145954035Y-38777829D01*
X146053903Y-38563663D01*
X146115063Y-38335408D01*
X146135659Y-38100000D01*
X146115063Y-37864592D01*
X146107167Y-37835121D01*
X146056434Y-37645783D01*
X146053903Y-37636337D01*
X145954035Y-37422171D01*
X145945171Y-37409511D01*
X145866510Y-37297172D01*
X145818495Y-37228599D01*
X145651401Y-37061505D01*
X145582827Y-37013489D01*
X145519304Y-36945368D01*
X145488980Y-36857298D01*
X145492596Y-36815963D01*
X147551257Y-36815963D01*
X147567675Y-37011483D01*
X147570695Y-37022015D01*
X147570696Y-37022020D01*
X147595988Y-37110220D01*
X147621758Y-37200091D01*
X147711444Y-37374601D01*
X147833318Y-37528369D01*
X147982738Y-37655535D01*
X148154013Y-37751257D01*
X148164427Y-37754641D01*
X148164430Y-37754642D01*
X148330203Y-37808505D01*
X148340618Y-37811889D01*
X148535446Y-37835121D01*
X148651733Y-37826173D01*
X148720150Y-37820909D01*
X148720153Y-37820908D01*
X148731076Y-37820068D01*
X148741629Y-37817122D01*
X148741632Y-37817121D01*
X148825566Y-37793686D01*
X148920056Y-37767303D01*
X149044266Y-37704560D01*
X149134318Y-37680767D01*
X149145260Y-37680500D01*
X152066560Y-37680500D01*
X152157669Y-37699866D01*
X152175840Y-37708965D01*
X152251513Y-37751257D01*
X152261927Y-37754641D01*
X152261930Y-37754642D01*
X152427703Y-37808505D01*
X152438118Y-37811889D01*
X152632946Y-37835121D01*
X152749233Y-37826173D01*
X152817650Y-37820909D01*
X152817653Y-37820908D01*
X152828576Y-37820068D01*
X152839129Y-37817122D01*
X152839132Y-37817121D01*
X153006999Y-37770251D01*
X153007003Y-37770250D01*
X153017556Y-37767303D01*
X153192689Y-37678837D01*
X153347303Y-37558040D01*
X153372915Y-37528369D01*
X153468348Y-37417807D01*
X153475509Y-37409511D01*
X153490465Y-37383185D01*
X153567015Y-37248432D01*
X153572425Y-37238909D01*
X153634358Y-37052732D01*
X153639316Y-37013490D01*
X153655139Y-36888229D01*
X153658949Y-36858071D01*
X153659341Y-36830000D01*
X153656897Y-36805077D01*
X153641263Y-36645627D01*
X153641262Y-36645624D01*
X153640194Y-36634728D01*
X153583484Y-36446894D01*
X153578345Y-36437229D01*
X153578343Y-36437224D01*
X153496514Y-36283327D01*
X153496513Y-36283325D01*
X153491370Y-36273653D01*
X153367361Y-36121602D01*
X153259090Y-36032033D01*
X153224624Y-36003520D01*
X153224621Y-36003518D01*
X153216180Y-35996535D01*
X153134815Y-35952541D01*
X153053225Y-35908425D01*
X153053222Y-35908424D01*
X153043585Y-35903213D01*
X152856152Y-35845193D01*
X152661019Y-35824683D01*
X152650108Y-35825676D01*
X152650104Y-35825676D01*
X152476527Y-35841473D01*
X152476525Y-35841473D01*
X152465618Y-35842466D01*
X152277393Y-35897864D01*
X152267684Y-35902940D01*
X152267681Y-35902941D01*
X152169997Y-35954009D01*
X152080283Y-35979058D01*
X152066218Y-35979500D01*
X149143855Y-35979500D01*
X149052746Y-35960134D01*
X149037315Y-35952541D01*
X148955725Y-35908425D01*
X148955722Y-35908424D01*
X148946085Y-35903213D01*
X148758652Y-35845193D01*
X148563519Y-35824683D01*
X148552608Y-35825676D01*
X148552604Y-35825676D01*
X148379027Y-35841473D01*
X148379025Y-35841473D01*
X148368118Y-35842466D01*
X148357609Y-35845559D01*
X148190404Y-35894770D01*
X148190402Y-35894771D01*
X148179893Y-35897864D01*
X148159692Y-35908425D01*
X148024584Y-35979058D01*
X148006012Y-35988767D01*
X147853100Y-36111711D01*
X147846055Y-36120107D01*
X147754715Y-36228963D01*
X147726980Y-36262016D01*
X147721704Y-36271613D01*
X147721702Y-36271616D01*
X147693864Y-36322254D01*
X147632456Y-36433954D01*
X147629146Y-36444390D01*
X147629145Y-36444391D01*
X147609526Y-36506239D01*
X147573128Y-36620978D01*
X147571908Y-36631858D01*
X147571907Y-36631861D01*
X147556980Y-36764937D01*
X147551257Y-36815963D01*
X145492596Y-36815963D01*
X145497098Y-36764508D01*
X145542256Y-36683042D01*
X145582826Y-36646512D01*
X145651401Y-36598495D01*
X145818495Y-36431401D01*
X145954035Y-36237829D01*
X146053903Y-36023663D01*
X146087046Y-35899972D01*
X146112534Y-35804848D01*
X146112535Y-35804844D01*
X146115063Y-35795408D01*
X146135659Y-35560000D01*
X146115063Y-35324592D01*
X146110082Y-35306000D01*
X146056434Y-35105783D01*
X146053903Y-35096337D01*
X145954035Y-34882171D01*
X145818495Y-34688599D01*
X145651401Y-34521505D01*
X145457830Y-34385965D01*
X145243663Y-34286097D01*
X145225721Y-34281289D01*
X145024848Y-34227466D01*
X145024844Y-34227465D01*
X145015408Y-34224937D01*
X145005674Y-34224085D01*
X145005672Y-34224085D01*
X144789738Y-34205193D01*
X144780000Y-34204341D01*
X144770262Y-34205193D01*
X144554328Y-34224085D01*
X144554326Y-34224085D01*
X144544592Y-34224937D01*
X144535156Y-34227465D01*
X144535152Y-34227466D01*
X144334279Y-34281289D01*
X144316337Y-34286097D01*
X144102171Y-34385965D01*
X143908599Y-34521505D01*
X143741505Y-34688599D01*
X143735896Y-34696610D01*
X143693490Y-34757172D01*
X143625369Y-34820696D01*
X143537299Y-34851021D01*
X143444509Y-34842903D01*
X143363043Y-34797746D01*
X143326510Y-34757172D01*
X143284104Y-34696610D01*
X143278495Y-34688599D01*
X143111401Y-34521505D01*
X142917830Y-34385965D01*
X142703663Y-34286097D01*
X142685721Y-34281289D01*
X142484848Y-34227466D01*
X142484844Y-34227465D01*
X142475408Y-34224937D01*
X142465674Y-34224085D01*
X142465672Y-34224085D01*
X142249738Y-34205193D01*
X142240000Y-34204341D01*
X142230262Y-34205193D01*
X142014328Y-34224085D01*
X142014326Y-34224085D01*
X142004592Y-34224937D01*
X141995156Y-34227465D01*
X141995152Y-34227466D01*
X141794279Y-34281289D01*
X141776337Y-34286097D01*
X141562171Y-34385965D01*
X141368599Y-34521505D01*
X141201505Y-34688599D01*
X141195896Y-34696610D01*
X141153490Y-34757172D01*
X141085369Y-34820696D01*
X140997299Y-34851021D01*
X140904509Y-34842903D01*
X140823043Y-34797746D01*
X140786510Y-34757172D01*
X140744104Y-34696610D01*
X140738495Y-34688599D01*
X140571401Y-34521505D01*
X140377830Y-34385965D01*
X140163663Y-34286097D01*
X140145721Y-34281289D01*
X139944848Y-34227466D01*
X139944844Y-34227465D01*
X139935408Y-34224937D01*
X139925674Y-34224085D01*
X139925672Y-34224085D01*
X139709738Y-34205193D01*
X139700000Y-34204341D01*
X139690262Y-34205193D01*
X139474328Y-34224085D01*
X139474326Y-34224085D01*
X139464592Y-34224937D01*
X139455156Y-34227465D01*
X139455152Y-34227466D01*
X139254279Y-34281289D01*
X139236337Y-34286097D01*
X139022171Y-34385965D01*
X138828599Y-34521505D01*
X138661505Y-34688599D01*
X138655896Y-34696610D01*
X138613490Y-34757172D01*
X138545369Y-34820696D01*
X138457299Y-34851021D01*
X138364509Y-34842903D01*
X138283043Y-34797746D01*
X138246510Y-34757172D01*
X138204104Y-34696610D01*
X138198495Y-34688599D01*
X138031401Y-34521505D01*
X137837830Y-34385965D01*
X137623663Y-34286097D01*
X137605721Y-34281289D01*
X137404848Y-34227466D01*
X137404844Y-34227465D01*
X137395408Y-34224937D01*
X137385674Y-34224085D01*
X137385672Y-34224085D01*
X137169738Y-34205193D01*
X137160000Y-34204341D01*
X137150262Y-34205193D01*
X136934328Y-34224085D01*
X136934326Y-34224085D01*
X136924592Y-34224937D01*
X136915156Y-34227465D01*
X136915152Y-34227466D01*
X136714279Y-34281289D01*
X136696337Y-34286097D01*
X136482171Y-34385965D01*
X136288599Y-34521505D01*
X136121505Y-34688599D01*
X136115896Y-34696610D01*
X136073490Y-34757172D01*
X136005369Y-34820696D01*
X135917299Y-34851021D01*
X135824509Y-34842903D01*
X135743043Y-34797746D01*
X135706510Y-34757172D01*
X135664104Y-34696610D01*
X135658495Y-34688599D01*
X135491401Y-34521505D01*
X135297830Y-34385965D01*
X135083663Y-34286097D01*
X135065721Y-34281289D01*
X134864848Y-34227466D01*
X134864844Y-34227465D01*
X134855408Y-34224937D01*
X134845674Y-34224085D01*
X134845672Y-34224085D01*
X134629738Y-34205193D01*
X134620000Y-34204341D01*
X134610262Y-34205193D01*
X134394328Y-34224085D01*
X134394326Y-34224085D01*
X134384592Y-34224937D01*
X134375156Y-34227465D01*
X134375152Y-34227466D01*
X134174279Y-34281289D01*
X134156337Y-34286097D01*
X133942171Y-34385965D01*
X133748599Y-34521505D01*
X133581505Y-34688599D01*
X133575896Y-34696610D01*
X133533490Y-34757172D01*
X133465369Y-34820696D01*
X133377299Y-34851021D01*
X133284509Y-34842903D01*
X133203043Y-34797746D01*
X133166510Y-34757172D01*
X133124104Y-34696610D01*
X133118495Y-34688599D01*
X132951401Y-34521505D01*
X132757830Y-34385965D01*
X132543663Y-34286097D01*
X132525721Y-34281289D01*
X132324848Y-34227466D01*
X132324844Y-34227465D01*
X132315408Y-34224937D01*
X132305674Y-34224085D01*
X132305672Y-34224085D01*
X132089738Y-34205193D01*
X132080000Y-34204341D01*
X132070262Y-34205193D01*
X131854328Y-34224085D01*
X131854326Y-34224085D01*
X131844592Y-34224937D01*
X131835156Y-34227465D01*
X131835152Y-34227466D01*
X131634279Y-34281289D01*
X131616337Y-34286097D01*
X131402171Y-34385965D01*
X131208599Y-34521505D01*
X131041505Y-34688599D01*
X131035896Y-34696610D01*
X130993490Y-34757172D01*
X130925369Y-34820696D01*
X130837299Y-34851021D01*
X130744509Y-34842903D01*
X130663043Y-34797746D01*
X130626510Y-34757172D01*
X130584104Y-34696610D01*
X130578495Y-34688599D01*
X130411401Y-34521505D01*
X130217830Y-34385965D01*
X130003663Y-34286097D01*
X129985721Y-34281289D01*
X129784848Y-34227466D01*
X129784844Y-34227465D01*
X129775408Y-34224937D01*
X129765674Y-34224085D01*
X129765672Y-34224085D01*
X129549738Y-34205193D01*
X129540000Y-34204341D01*
X129530262Y-34205193D01*
X129314328Y-34224085D01*
X129314326Y-34224085D01*
X129304592Y-34224937D01*
X129295156Y-34227465D01*
X129295152Y-34227466D01*
X129094279Y-34281289D01*
X129076337Y-34286097D01*
X128862171Y-34385965D01*
X128668599Y-34521505D01*
X128501505Y-34688599D01*
X128495896Y-34696610D01*
X128453490Y-34757172D01*
X128385369Y-34820696D01*
X128297299Y-34851021D01*
X128204509Y-34842903D01*
X128123043Y-34797746D01*
X128086510Y-34757172D01*
X128044104Y-34696610D01*
X128038495Y-34688599D01*
X127871401Y-34521505D01*
X127677830Y-34385965D01*
X127463663Y-34286097D01*
X127445721Y-34281289D01*
X127244848Y-34227466D01*
X127244844Y-34227465D01*
X127235408Y-34224937D01*
X127225674Y-34224085D01*
X127225672Y-34224085D01*
X127009738Y-34205193D01*
X127000000Y-34204341D01*
X126990262Y-34205193D01*
X126774328Y-34224085D01*
X126774326Y-34224085D01*
X126764592Y-34224937D01*
X126755156Y-34227465D01*
X126755152Y-34227466D01*
X126554279Y-34281289D01*
X126536337Y-34286097D01*
X126322171Y-34385965D01*
X126128599Y-34521505D01*
X125961505Y-34688599D01*
X125955896Y-34696610D01*
X125913490Y-34757172D01*
X125845369Y-34820696D01*
X125757299Y-34851021D01*
X125664509Y-34842903D01*
X125583043Y-34797746D01*
X125546510Y-34757172D01*
X125504104Y-34696610D01*
X125498495Y-34688599D01*
X125331401Y-34521505D01*
X125137830Y-34385965D01*
X124923663Y-34286097D01*
X124905721Y-34281289D01*
X124704848Y-34227466D01*
X124704844Y-34227465D01*
X124695408Y-34224937D01*
X124685674Y-34224085D01*
X124685672Y-34224085D01*
X124469738Y-34205193D01*
X124460000Y-34204341D01*
X124450262Y-34205193D01*
X124234328Y-34224085D01*
X124234326Y-34224085D01*
X124224592Y-34224937D01*
X124215156Y-34227465D01*
X124215152Y-34227466D01*
X124014279Y-34281289D01*
X123996337Y-34286097D01*
X123782171Y-34385965D01*
X123588599Y-34521505D01*
X123421505Y-34688599D01*
X123415896Y-34696610D01*
X123373490Y-34757172D01*
X123305369Y-34820696D01*
X123217299Y-34851021D01*
X123124509Y-34842903D01*
X123043043Y-34797746D01*
X123006510Y-34757172D01*
X122964104Y-34696610D01*
X122958495Y-34688599D01*
X122791401Y-34521505D01*
X122597830Y-34385965D01*
X122383663Y-34286097D01*
X122365721Y-34281289D01*
X122164848Y-34227466D01*
X122164844Y-34227465D01*
X122155408Y-34224937D01*
X122145674Y-34224085D01*
X122145672Y-34224085D01*
X121929738Y-34205193D01*
X121920000Y-34204341D01*
X121910262Y-34205193D01*
X121694328Y-34224085D01*
X121694326Y-34224085D01*
X121684592Y-34224937D01*
X121675156Y-34227465D01*
X121675152Y-34227466D01*
X121474279Y-34281289D01*
X121456337Y-34286097D01*
X121242171Y-34385965D01*
X121048599Y-34521505D01*
X120881505Y-34688599D01*
X120875896Y-34696610D01*
X120833490Y-34757172D01*
X120765369Y-34820696D01*
X120677299Y-34851021D01*
X120584509Y-34842903D01*
X120503043Y-34797746D01*
X120466510Y-34757172D01*
X120424104Y-34696610D01*
X120418495Y-34688599D01*
X120251401Y-34521505D01*
X120057830Y-34385965D01*
X119843663Y-34286097D01*
X119825721Y-34281289D01*
X119624848Y-34227466D01*
X119624844Y-34227465D01*
X119615408Y-34224937D01*
X119605674Y-34224085D01*
X119605672Y-34224085D01*
X119389738Y-34205193D01*
X119380000Y-34204341D01*
X119370262Y-34205193D01*
X119154328Y-34224085D01*
X119154326Y-34224085D01*
X119144592Y-34224937D01*
X119135156Y-34227465D01*
X119135152Y-34227466D01*
X118934279Y-34281289D01*
X118916337Y-34286097D01*
X118702171Y-34385965D01*
X118508599Y-34521505D01*
X118341505Y-34688599D01*
X118335896Y-34696610D01*
X118293490Y-34757172D01*
X118225369Y-34820696D01*
X118137299Y-34851021D01*
X118044509Y-34842903D01*
X117963043Y-34797746D01*
X117926510Y-34757172D01*
X117884104Y-34696610D01*
X117878495Y-34688599D01*
X117711401Y-34521505D01*
X117517830Y-34385965D01*
X117303663Y-34286097D01*
X117285721Y-34281289D01*
X117084848Y-34227466D01*
X117084844Y-34227465D01*
X117075408Y-34224937D01*
X117065674Y-34224085D01*
X117065672Y-34224085D01*
X116849738Y-34205193D01*
X116840000Y-34204341D01*
X116830262Y-34205193D01*
X116614328Y-34224085D01*
X116614326Y-34224085D01*
X116604592Y-34224937D01*
X116595156Y-34227465D01*
X116595152Y-34227466D01*
X116394279Y-34281289D01*
X116376337Y-34286097D01*
X116162171Y-34385965D01*
X115968599Y-34521505D01*
X115801505Y-34688599D01*
X115795896Y-34696610D01*
X115753490Y-34757172D01*
X115685369Y-34820696D01*
X115597299Y-34851021D01*
X115504509Y-34842903D01*
X115423043Y-34797746D01*
X115386510Y-34757172D01*
X115344104Y-34696610D01*
X115338495Y-34688599D01*
X115171401Y-34521505D01*
X114977830Y-34385965D01*
X114763663Y-34286097D01*
X114745721Y-34281289D01*
X114544848Y-34227466D01*
X114544844Y-34227465D01*
X114535408Y-34224937D01*
X114525674Y-34224085D01*
X114525672Y-34224085D01*
X114309738Y-34205193D01*
X114300000Y-34204341D01*
X114290262Y-34205193D01*
X114074328Y-34224085D01*
X114074326Y-34224085D01*
X114064592Y-34224937D01*
X114055156Y-34227465D01*
X114055152Y-34227466D01*
X113854279Y-34281289D01*
X113836337Y-34286097D01*
X113622171Y-34385965D01*
X113428599Y-34521505D01*
X113261505Y-34688599D01*
X113255896Y-34696610D01*
X113213490Y-34757172D01*
X113145369Y-34820696D01*
X113057299Y-34851021D01*
X112964509Y-34842903D01*
X112883043Y-34797746D01*
X112846510Y-34757172D01*
X112804104Y-34696610D01*
X112798495Y-34688599D01*
X112631401Y-34521505D01*
X112437830Y-34385965D01*
X112223663Y-34286097D01*
X112205721Y-34281289D01*
X112004848Y-34227466D01*
X112004844Y-34227465D01*
X111995408Y-34224937D01*
X111985674Y-34224085D01*
X111985672Y-34224085D01*
X111769738Y-34205193D01*
X111760000Y-34204341D01*
X111750262Y-34205193D01*
X111534328Y-34224085D01*
X111534326Y-34224085D01*
X111524592Y-34224937D01*
X111515156Y-34227465D01*
X111515152Y-34227466D01*
X111314279Y-34281289D01*
X111296337Y-34286097D01*
X111082171Y-34385965D01*
X110888599Y-34521505D01*
X110721505Y-34688599D01*
X110715896Y-34696610D01*
X110673490Y-34757172D01*
X110605369Y-34820696D01*
X110517299Y-34851021D01*
X110424509Y-34842903D01*
X110343043Y-34797746D01*
X110306510Y-34757172D01*
X110264104Y-34696610D01*
X110258495Y-34688599D01*
X110091401Y-34521505D01*
X109897830Y-34385965D01*
X109683663Y-34286097D01*
X109665721Y-34281289D01*
X109464848Y-34227466D01*
X109464844Y-34227465D01*
X109455408Y-34224937D01*
X109445674Y-34224085D01*
X109445672Y-34224085D01*
X109229738Y-34205193D01*
X109220000Y-34204341D01*
X109210262Y-34205193D01*
X108994328Y-34224085D01*
X108994326Y-34224085D01*
X108984592Y-34224937D01*
X108975156Y-34227465D01*
X108975152Y-34227466D01*
X108774279Y-34281289D01*
X108756337Y-34286097D01*
X108542171Y-34385965D01*
X108348599Y-34521505D01*
X108181505Y-34688599D01*
X108175896Y-34696610D01*
X108133490Y-34757172D01*
X108065369Y-34820696D01*
X107977299Y-34851021D01*
X107884509Y-34842903D01*
X107803043Y-34797746D01*
X107766510Y-34757172D01*
X107724104Y-34696610D01*
X107718495Y-34688599D01*
X107551401Y-34521505D01*
X107357830Y-34385965D01*
X107143663Y-34286097D01*
X107125721Y-34281289D01*
X106924848Y-34227466D01*
X106924844Y-34227465D01*
X106915408Y-34224937D01*
X106905674Y-34224085D01*
X106905672Y-34224085D01*
X106689738Y-34205193D01*
X106680000Y-34204341D01*
X106670262Y-34205193D01*
X106454328Y-34224085D01*
X106454326Y-34224085D01*
X106444592Y-34224937D01*
X106435156Y-34227465D01*
X106435152Y-34227466D01*
X106234279Y-34281289D01*
X106216337Y-34286097D01*
X106002171Y-34385965D01*
X105808599Y-34521505D01*
X105641505Y-34688599D01*
X105635896Y-34696610D01*
X105593490Y-34757172D01*
X105525369Y-34820696D01*
X105437299Y-34851021D01*
X105344509Y-34842903D01*
X105263043Y-34797746D01*
X105226510Y-34757172D01*
X105184104Y-34696610D01*
X105178495Y-34688599D01*
X105011401Y-34521505D01*
X104817830Y-34385965D01*
X104603663Y-34286097D01*
X104585721Y-34281289D01*
X104384848Y-34227466D01*
X104384844Y-34227465D01*
X104375408Y-34224937D01*
X104365674Y-34224085D01*
X104365672Y-34224085D01*
X104149738Y-34205193D01*
X104140000Y-34204341D01*
X104130262Y-34205193D01*
X103914328Y-34224085D01*
X103914326Y-34224085D01*
X103904592Y-34224937D01*
X103895156Y-34227465D01*
X103895152Y-34227466D01*
X103694279Y-34281289D01*
X103676337Y-34286097D01*
X103462171Y-34385965D01*
X103268599Y-34521505D01*
X103101505Y-34688599D01*
X103095896Y-34696610D01*
X103053490Y-34757172D01*
X102985369Y-34820696D01*
X102897299Y-34851021D01*
X102804509Y-34842903D01*
X102723043Y-34797746D01*
X102686510Y-34757172D01*
X102644104Y-34696610D01*
X102638495Y-34688599D01*
X102471401Y-34521505D01*
X102277830Y-34385965D01*
X102063663Y-34286097D01*
X102045721Y-34281289D01*
X101844848Y-34227466D01*
X101844844Y-34227465D01*
X101835408Y-34224937D01*
X101825674Y-34224085D01*
X101825672Y-34224085D01*
X101609738Y-34205193D01*
X101600000Y-34204341D01*
X101590262Y-34205193D01*
X101374328Y-34224085D01*
X101374326Y-34224085D01*
X101364592Y-34224937D01*
X101355156Y-34227465D01*
X101355152Y-34227466D01*
X101154279Y-34281289D01*
X101136337Y-34286097D01*
X100922171Y-34385965D01*
X100728599Y-34521505D01*
X100561505Y-34688599D01*
X100555898Y-34696607D01*
X100519615Y-34748425D01*
X100451493Y-34811950D01*
X100363424Y-34842275D01*
X100270633Y-34834157D01*
X100189167Y-34789000D01*
X100148053Y-34741622D01*
X100144614Y-34736307D01*
X100133428Y-34721781D01*
X99995517Y-34570220D01*
X99982111Y-34557718D01*
X99821296Y-34430715D01*
X99806033Y-34420574D01*
X99626636Y-34321542D01*
X99609915Y-34314026D01*
X99416749Y-34245622D01*
X99399033Y-34240942D01*
X99337177Y-34229924D01*
X99317717Y-34230569D01*
X99314000Y-34243445D01*
X99314000Y-35590000D01*
X99294634Y-35681109D01*
X99239885Y-35756464D01*
X99159220Y-35803037D01*
X99090000Y-35814000D01*
X95185545Y-35814000D01*
X95165151Y-35818335D01*
X95163711Y-35820829D01*
X95162001Y-35831626D01*
X95162001Y-36452030D01*
X94226500Y-36452030D01*
X94226500Y-35282456D01*
X95162000Y-35282456D01*
X95166335Y-35302850D01*
X95168829Y-35304290D01*
X95179626Y-35306000D01*
X96242456Y-35306000D01*
X96262850Y-35301665D01*
X96264290Y-35299171D01*
X96266000Y-35288374D01*
X96266000Y-35282456D01*
X96774000Y-35282456D01*
X96778335Y-35302850D01*
X96780829Y-35304290D01*
X96791626Y-35306000D01*
X98782456Y-35306000D01*
X98802850Y-35301665D01*
X98804290Y-35299171D01*
X98806000Y-35288374D01*
X98806000Y-34248531D01*
X98801951Y-34229483D01*
X98786933Y-34227905D01*
X98753301Y-34233051D01*
X98735468Y-34237300D01*
X98540683Y-34300965D01*
X98523797Y-34308063D01*
X98342032Y-34402684D01*
X98326518Y-34412454D01*
X98155298Y-34541010D01*
X98153828Y-34539052D01*
X98086214Y-34577473D01*
X97993515Y-34586575D01*
X97905129Y-34557186D01*
X97836337Y-34494388D01*
X97821975Y-34471541D01*
X97810602Y-34450769D01*
X97742476Y-34359868D01*
X97720132Y-34337524D01*
X97629228Y-34269396D01*
X97601526Y-34254229D01*
X97493357Y-34213678D01*
X97466244Y-34207231D01*
X97424108Y-34202654D01*
X97412034Y-34202000D01*
X96797544Y-34202000D01*
X96777150Y-34206335D01*
X96775710Y-34208829D01*
X96774000Y-34219626D01*
X96774000Y-35282456D01*
X96266000Y-35282456D01*
X96266000Y-34225545D01*
X96261665Y-34205151D01*
X96259171Y-34203711D01*
X96248374Y-34202001D01*
X95627970Y-34202001D01*
X95615886Y-34202655D01*
X95573761Y-34207231D01*
X95546640Y-34213679D01*
X95438474Y-34254229D01*
X95410772Y-34269396D01*
X95319868Y-34337524D01*
X95297524Y-34359868D01*
X95229396Y-34450772D01*
X95214229Y-34478474D01*
X95173678Y-34586643D01*
X95167231Y-34613756D01*
X95162654Y-34655892D01*
X95162000Y-34667966D01*
X95162000Y-35282456D01*
X94226500Y-35282456D01*
X94226500Y-33744500D01*
X94245866Y-33653391D01*
X94300615Y-33578036D01*
X94381280Y-33531463D01*
X94450500Y-33520500D01*
X160819500Y-33520500D01*
X160910609Y-33539866D01*
G37*
%TD.AperFunction*%
%TA.AperFunction,Conductor*%
G36*
X137546746Y-62150366D02*
G01*
X137622101Y-62205115D01*
X137668674Y-62285780D01*
X137677338Y-62343082D01*
X137678757Y-62342963D01*
X137695175Y-62538483D01*
X137698195Y-62549015D01*
X137698196Y-62549020D01*
X137717655Y-62616879D01*
X137749258Y-62727091D01*
X137838944Y-62901601D01*
X137883677Y-62958040D01*
X137949727Y-63041375D01*
X137960818Y-63055369D01*
X138110238Y-63182535D01*
X138281513Y-63278257D01*
X138291927Y-63281641D01*
X138291930Y-63281642D01*
X138373341Y-63308094D01*
X138468118Y-63338889D01*
X138478993Y-63340186D01*
X138478994Y-63340186D01*
X138503171Y-63343069D01*
X138591346Y-63373087D01*
X138659689Y-63436374D01*
X138696381Y-63521986D01*
X138699861Y-63546749D01*
X138710778Y-63676756D01*
X138699104Y-63769166D01*
X138650853Y-63848839D01*
X138574368Y-63901997D01*
X138487564Y-63919500D01*
X127244861Y-63919500D01*
X127153752Y-63900134D01*
X127078397Y-63845385D01*
X127031824Y-63764720D01*
X127022088Y-63672086D01*
X127050871Y-63583500D01*
X127055763Y-63575851D01*
X127059509Y-63571511D01*
X127083064Y-63530048D01*
X127136398Y-63436163D01*
X127156425Y-63400909D01*
X127218358Y-63214732D01*
X127221482Y-63190007D01*
X127235136Y-63081918D01*
X127265768Y-62993954D01*
X127329530Y-62926055D01*
X127415396Y-62889960D01*
X127440184Y-62886652D01*
X127617529Y-62873006D01*
X127617532Y-62873005D01*
X127628455Y-62872165D01*
X127639008Y-62869219D01*
X127639011Y-62869218D01*
X127806878Y-62822348D01*
X127806882Y-62822347D01*
X127817435Y-62819400D01*
X127992568Y-62730934D01*
X128106155Y-62642191D01*
X128138553Y-62616879D01*
X128138555Y-62616877D01*
X128147182Y-62610137D01*
X128199937Y-62549020D01*
X128268227Y-62469904D01*
X128275388Y-62461608D01*
X128288609Y-62438336D01*
X128366893Y-62300531D01*
X128372304Y-62291006D01*
X128375763Y-62280609D01*
X128380217Y-62270604D01*
X128382083Y-62271435D01*
X128421661Y-62203966D01*
X128497393Y-62149740D01*
X128587084Y-62131000D01*
X137455637Y-62131000D01*
X137546746Y-62150366D01*
G37*
%TD.AperFunction*%
%TA.AperFunction,Conductor*%
G36*
X123805779Y-49671262D02*
G01*
X123818803Y-49674173D01*
X123836671Y-49678167D01*
X123841982Y-49679422D01*
X123918893Y-49698599D01*
X123928421Y-49698865D01*
X123930663Y-49699176D01*
X123939636Y-49701182D01*
X123945306Y-49701499D01*
X124019589Y-49701499D01*
X124025843Y-49701586D01*
X124103611Y-49703758D01*
X124113079Y-49701952D01*
X124124348Y-49701499D01*
X128593041Y-49701499D01*
X128684150Y-49720865D01*
X128759505Y-49775614D01*
X128806078Y-49856279D01*
X128815814Y-49948913D01*
X128787031Y-50037499D01*
X128734437Y-50095912D01*
X128728711Y-50105829D01*
X128727001Y-50116626D01*
X128727001Y-50212030D01*
X128727655Y-50224114D01*
X128732231Y-50266239D01*
X128738679Y-50293360D01*
X128779229Y-50401526D01*
X128794396Y-50429228D01*
X128862524Y-50520132D01*
X128884868Y-50542476D01*
X128975772Y-50610604D01*
X129003474Y-50625771D01*
X129111643Y-50666322D01*
X129138756Y-50672769D01*
X129180892Y-50677346D01*
X129192966Y-50678000D01*
X129737456Y-50678000D01*
X129757850Y-50673665D01*
X129759290Y-50671171D01*
X129761000Y-50660374D01*
X129761000Y-50122544D01*
X129756428Y-50101036D01*
X129755241Y-50099402D01*
X129717355Y-50014311D01*
X129717355Y-49921166D01*
X129755239Y-49836074D01*
X129824459Y-49773748D01*
X129913044Y-49744964D01*
X129942713Y-49743824D01*
X129984963Y-49745004D01*
X130051254Y-49746855D01*
X130141786Y-49768757D01*
X130215584Y-49825588D01*
X130259886Y-49907522D01*
X130269000Y-49970768D01*
X130269000Y-50654455D01*
X130273335Y-50674849D01*
X130279836Y-50678602D01*
X130349056Y-50740928D01*
X130386941Y-50826020D01*
X130386941Y-50919164D01*
X130349056Y-51004256D01*
X130326228Y-51030984D01*
X130120321Y-51236891D01*
X130042203Y-51287621D01*
X129961929Y-51302499D01*
X125729870Y-51302499D01*
X125711123Y-51301713D01*
X125675892Y-51298754D01*
X125675891Y-51298754D01*
X125663805Y-51297739D01*
X125651782Y-51299343D01*
X125651781Y-51299343D01*
X125585222Y-51308222D01*
X125579796Y-51308879D01*
X125513046Y-51316131D01*
X125500988Y-51317441D01*
X125491043Y-51320788D01*
X125480638Y-51322176D01*
X125469235Y-51326326D01*
X125469236Y-51326326D01*
X125450920Y-51332992D01*
X125374310Y-51346500D01*
X124119238Y-51346500D01*
X124028129Y-51327134D01*
X123952774Y-51272385D01*
X123906201Y-51191720D01*
X123896465Y-51099086D01*
X123906691Y-51051792D01*
X123912900Y-51033128D01*
X123912901Y-51033125D01*
X123916358Y-51022732D01*
X123920625Y-50988959D01*
X123940164Y-50834283D01*
X123940949Y-50828071D01*
X123941147Y-50813874D01*
X123941254Y-50806265D01*
X123941254Y-50806256D01*
X123941341Y-50800000D01*
X123940730Y-50793766D01*
X123923263Y-50615627D01*
X123923262Y-50615624D01*
X123922194Y-50604728D01*
X123876386Y-50453004D01*
X123868649Y-50427376D01*
X123868648Y-50427373D01*
X123865484Y-50416894D01*
X123860345Y-50407229D01*
X123860343Y-50407224D01*
X123778514Y-50253327D01*
X123778513Y-50253325D01*
X123773370Y-50243653D01*
X123766445Y-50235162D01*
X123656287Y-50100094D01*
X123656286Y-50100093D01*
X123649361Y-50091602D01*
X123614137Y-50062463D01*
X123556282Y-49989471D01*
X123533117Y-49899253D01*
X123548649Y-49807413D01*
X123600193Y-49729830D01*
X123678836Y-49679919D01*
X123770981Y-49666311D01*
X123805779Y-49671262D01*
G37*
%TD.AperFunction*%
%TD*%
M02*
