%TF.GenerationSoftware,KiCad,Pcbnew,(6.0.7)*%
%TF.CreationDate,2022-12-20T14:52:23+01:00*%
%TF.ProjectId,bsmce04u-pp_GRBL_mod,62736d63-6530-4347-952d-70705f475242,rev?*%
%TF.SameCoordinates,Original*%
%TF.FileFunction,Legend,Bot*%
%TF.FilePolarity,Positive*%
%FSLAX46Y46*%
G04 Gerber Fmt 4.6, Leading zero omitted, Abs format (unit mm)*
G04 Created by KiCad (PCBNEW (6.0.7)) date 2022-12-20 14:52:23*
%MOMM*%
%LPD*%
G01*
G04 APERTURE LIST*
%TA.AperFunction,Profile*%
%ADD10C,0.100000*%
%TD*%
%ADD11C,0.150000*%
%ADD12C,0.120000*%
G04 APERTURE END LIST*
D10*
X161544000Y-33020000D02*
X161544000Y-69850000D01*
X93726000Y-69850000D02*
X93726000Y-33020000D01*
X93726000Y-33020000D02*
X161544000Y-33020000D01*
X161544000Y-69850000D02*
X93726000Y-69850000D01*
D11*
%TO.C,R3*%
X109122380Y-42378333D02*
X108646190Y-42045000D01*
X109122380Y-41806904D02*
X108122380Y-41806904D01*
X108122380Y-42187857D01*
X108170000Y-42283095D01*
X108217619Y-42330714D01*
X108312857Y-42378333D01*
X108455714Y-42378333D01*
X108550952Y-42330714D01*
X108598571Y-42283095D01*
X108646190Y-42187857D01*
X108646190Y-41806904D01*
X108122380Y-42711666D02*
X108122380Y-43330714D01*
X108503333Y-42997380D01*
X108503333Y-43140238D01*
X108550952Y-43235476D01*
X108598571Y-43283095D01*
X108693809Y-43330714D01*
X108931904Y-43330714D01*
X109027142Y-43283095D01*
X109074761Y-43235476D01*
X109122380Y-43140238D01*
X109122380Y-42854523D01*
X109074761Y-42759285D01*
X109027142Y-42711666D01*
%TO.C,R6*%
X115260380Y-42505333D02*
X114784190Y-42172000D01*
X115260380Y-41933904D02*
X114260380Y-41933904D01*
X114260380Y-42314857D01*
X114308000Y-42410095D01*
X114355619Y-42457714D01*
X114450857Y-42505333D01*
X114593714Y-42505333D01*
X114688952Y-42457714D01*
X114736571Y-42410095D01*
X114784190Y-42314857D01*
X114784190Y-41933904D01*
X114260380Y-43362476D02*
X114260380Y-43172000D01*
X114308000Y-43076761D01*
X114355619Y-43029142D01*
X114498476Y-42933904D01*
X114688952Y-42886285D01*
X115069904Y-42886285D01*
X115165142Y-42933904D01*
X115212761Y-42981523D01*
X115260380Y-43076761D01*
X115260380Y-43267238D01*
X115212761Y-43362476D01*
X115165142Y-43410095D01*
X115069904Y-43457714D01*
X114831809Y-43457714D01*
X114736571Y-43410095D01*
X114688952Y-43362476D01*
X114641333Y-43267238D01*
X114641333Y-43076761D01*
X114688952Y-42981523D01*
X114736571Y-42933904D01*
X114831809Y-42886285D01*
D12*
%TO.C,R3*%
X109580000Y-41817936D02*
X109580000Y-43272064D01*
X111400000Y-41817936D02*
X111400000Y-43272064D01*
%TO.C,R6*%
X113940000Y-41817936D02*
X113940000Y-43272064D01*
X112120000Y-41817936D02*
X112120000Y-43272064D01*
%TD*%
M02*
