%TF.GenerationSoftware,KiCad,Pcbnew,(6.0.7)*%
%TF.CreationDate,2022-12-20T14:52:23+01:00*%
%TF.ProjectId,bsmce04u-pp_GRBL_mod,62736d63-6530-4347-952d-70705f475242,rev?*%
%TF.SameCoordinates,Original*%
%TF.FileFunction,Copper,L2,Bot*%
%TF.FilePolarity,Positive*%
%FSLAX46Y46*%
G04 Gerber Fmt 4.6, Leading zero omitted, Abs format (unit mm)*
G04 Created by KiCad (PCBNEW (6.0.7)) date 2022-12-20 14:52:23*
%MOMM*%
%LPD*%
G01*
G04 APERTURE LIST*
G04 Aperture macros list*
%AMRoundRect*
0 Rectangle with rounded corners*
0 $1 Rounding radius*
0 $2 $3 $4 $5 $6 $7 $8 $9 X,Y pos of 4 corners*
0 Add a 4 corners polygon primitive as box body*
4,1,4,$2,$3,$4,$5,$6,$7,$8,$9,$2,$3,0*
0 Add four circle primitives for the rounded corners*
1,1,$1+$1,$2,$3*
1,1,$1+$1,$4,$5*
1,1,$1+$1,$6,$7*
1,1,$1+$1,$8,$9*
0 Add four rect primitives between the rounded corners*
20,1,$1+$1,$2,$3,$4,$5,0*
20,1,$1+$1,$4,$5,$6,$7,0*
20,1,$1+$1,$6,$7,$8,$9,0*
20,1,$1+$1,$8,$9,$2,$3,0*%
G04 Aperture macros list end*
%TA.AperFunction,Profile*%
%ADD10C,0.100000*%
%TD*%
%TA.AperFunction,ComponentPad*%
%ADD11R,1.700000X1.700000*%
%TD*%
%TA.AperFunction,ComponentPad*%
%ADD12O,1.700000X1.700000*%
%TD*%
%TA.AperFunction,SMDPad,CuDef*%
%ADD13RoundRect,0.250000X-0.625000X0.312500X-0.625000X-0.312500X0.625000X-0.312500X0.625000X0.312500X0*%
%TD*%
%TA.AperFunction,ViaPad*%
%ADD14C,1.000000*%
%TD*%
%TA.AperFunction,Conductor*%
%ADD15C,0.700000*%
%TD*%
%TA.AperFunction,Conductor*%
%ADD16C,0.440000*%
%TD*%
%TA.AperFunction,Conductor*%
%ADD17C,0.500000*%
%TD*%
%TA.AperFunction,Conductor*%
%ADD18C,0.400000*%
%TD*%
G04 APERTURE END LIST*
D10*
X161544000Y-33020000D02*
X161544000Y-69850000D01*
X93726000Y-69850000D02*
X93726000Y-33020000D01*
X93726000Y-33020000D02*
X161544000Y-33020000D01*
X161544000Y-69850000D02*
X93726000Y-69850000D01*
D11*
%TO.P,J4,1,Pin_1*%
%TO.N,GND*%
X155448000Y-40132000D03*
D12*
%TO.P,J4,2,Pin_2*%
%TO.N,/STlink_SWCLK*%
X155448000Y-42672000D03*
%TO.P,J4,3,Pin_3*%
%TO.N,/STlink_SWDIO*%
X155448000Y-45212000D03*
%TO.P,J4,4,Pin_4*%
%TO.N,/STlink_target3V3*%
X155448000Y-47752000D03*
%TD*%
D11*
%TO.P,J5,1,Pin_1*%
%TO.N,/STlink_target3V3*%
X159004000Y-40132000D03*
D12*
%TO.P,J5,2,Pin_2*%
%TO.N,/STlink_SWCLK*%
X159004000Y-42672000D03*
%TO.P,J5,3,Pin_3*%
%TO.N,GND*%
X159004000Y-45212000D03*
%TO.P,J5,4,Pin_4*%
%TO.N,/STlink_SWDIO*%
X159004000Y-47752000D03*
%TO.P,J5,5,Pin_5*%
%TO.N,/NRST_BP*%
X159004000Y-50292000D03*
%TO.P,J5,6,Pin_6*%
%TO.N,/STlink_SWO*%
X159004000Y-52832000D03*
%TD*%
D11*
%TO.P,J2,1,Pin_1*%
%TO.N,GND*%
X149860000Y-44328000D03*
D12*
%TO.P,J2,2,Pin_2*%
%TO.N,+5V*%
X149860000Y-41788000D03*
%TD*%
D11*
%TO.P,J3,1,Pin_1*%
%TO.N,/NRST_BP*%
X100965000Y-59055000D03*
D12*
%TO.P,J3,2,Pin_2*%
%TO.N,GND*%
X98425000Y-59055000D03*
%TO.P,J3,3,Pin_3*%
%TO.N,/NRST_bsmce04u-pp*%
X95885000Y-59055000D03*
%TD*%
D11*
%TO.P,C_BS1,1,Pin_1*%
%TO.N,/UDB_D+*%
X98425000Y-67305000D03*
D12*
%TO.P,C_BS1,2,Pin_2*%
%TO.N,/UDB_D-*%
X100965000Y-67305000D03*
%TO.P,C_BS1,3,Pin_3*%
%TO.N,/NRST_bsmce04u-pp*%
X103505000Y-67305000D03*
%TO.P,C_BS1,4,Pin_4*%
%TO.N,/Out4*%
X106045000Y-67305000D03*
%TO.P,C_BS1,5,Pin_5*%
%TO.N,/COOLANT_FLOOD_BIT*%
X108585000Y-67305000D03*
%TO.P,C_BS1,6,Pin_6*%
%TO.N,/Out2*%
X111125000Y-67305000D03*
%TO.P,C_BS1,7,Pin_7*%
%TO.N,/Out1*%
X113665000Y-67305000D03*
%TO.P,C_BS1,8,Pin_8*%
%TO.N,/In4*%
X116205000Y-67305000D03*
%TO.P,C_BS1,9,Pin_9*%
%TO.N,/In3*%
X118745000Y-67305000D03*
%TO.P,C_BS1,10,Pin_10*%
%TO.N,/In2*%
X121285000Y-67305000D03*
%TO.P,C_BS1,11,Pin_11*%
%TO.N,/CONTROL_SAFETY_DOOR_BIT*%
X123825000Y-67305000D03*
%TO.P,C_BS1,12,Pin_12*%
%TO.N,/ACM*%
X126365000Y-67305000D03*
%TO.P,C_BS1,13,Pin_13*%
%TO.N,/Motor_enable*%
X128905000Y-67305000D03*
%TO.P,C_BS1,14,Pin_14*%
%TO.N,/X_P*%
X131445000Y-67305000D03*
%TO.P,C_BS1,15,Pin_15*%
%TO.N,/X_D*%
X133985000Y-67305000D03*
%TO.P,C_BS1,16,Pin_16*%
%TO.N,/Y_P*%
X136525000Y-67305000D03*
%TO.P,C_BS1,17,Pin_17*%
%TO.N,/Y_D*%
X139065000Y-67305000D03*
%TO.P,C_BS1,18,Pin_18*%
%TO.N,/Z_P*%
X141605000Y-67305000D03*
%TO.P,C_BS1,19,Pin_19*%
%TO.N,/Z_D*%
X144145000Y-67305000D03*
%TO.P,C_BS1,20,Pin_20*%
%TO.N,/A_P*%
X146685000Y-67305000D03*
%TO.P,C_BS1,21,Pin_21*%
%TO.N,/A_D*%
X149225000Y-67305000D03*
%TD*%
D11*
%TO.P,J1,1,Pin_1*%
%TO.N,GND*%
X96520000Y-35560000D03*
D12*
%TO.P,J1,2,Pin_2*%
X99060000Y-35560000D03*
%TO.P,J1,3,Pin_3*%
%TO.N,+3V3*%
X101600000Y-35560000D03*
%TO.P,J1,4,Pin_4*%
%TO.N,/NRST_BP*%
X104140000Y-35560000D03*
%TO.P,J1,5,Pin_5*%
%TO.N,/B_LIMIT_BIT*%
X106680000Y-35560000D03*
%TO.P,J1,6,Pin_6*%
%TO.N,/C_LIMIT_BIT*%
X109220000Y-35560000D03*
%TO.P,J1,7,Pin_7*%
%TO.N,Net-(J1-Pad7)*%
X111760000Y-35560000D03*
%TO.P,J1,8,Pin_8*%
%TO.N,Net-(J1-Pad8)*%
X114300000Y-35560000D03*
%TO.P,J1,9,Pin_9*%
%TO.N,/A_D*%
X116840000Y-35560000D03*
%TO.P,J1,10,Pin_10*%
%TO.N,/Z_D*%
X119380000Y-35560000D03*
%TO.P,J1,11,Pin_11*%
%TO.N,/Y_D*%
X121920000Y-35560000D03*
%TO.P,J1,12,Pin_12*%
%TO.N,/X_D*%
X124460000Y-35560000D03*
%TO.P,J1,13,Pin_13*%
%TO.N,/A_P*%
X127000000Y-35560000D03*
%TO.P,J1,14,Pin_14*%
%TO.N,/Z_P*%
X129540000Y-35560000D03*
%TO.P,J1,15,Pin_15*%
%TO.N,/Y_P*%
X132080000Y-35560000D03*
%TO.P,J1,16,Pin_16*%
%TO.N,/X_P*%
X134620000Y-35560000D03*
%TO.P,J1,17,Pin_17*%
%TO.N,/HS541_~{OE1}*%
X137160000Y-35560000D03*
%TO.P,J1,18,Pin_18*%
%TO.N,unconnected-(J1-Pad18)*%
X139700000Y-35560000D03*
%TO.P,J1,19,Pin_19*%
%TO.N,unconnected-(J1-Pad19)*%
X142240000Y-35560000D03*
%TO.P,J1,20,Pin_20*%
%TO.N,/VBAT*%
X144780000Y-35560000D03*
%TO.P,J1,21,Pin_21*%
%TO.N,+3V3*%
X144780000Y-38100000D03*
%TO.P,J1,22,Pin_22*%
%TO.N,GND*%
X142240000Y-38100000D03*
%TO.P,J1,23,Pin_23*%
%TO.N,+5V*%
X139700000Y-38100000D03*
%TO.P,J1,24,Pin_24*%
%TO.N,/In2*%
X137160000Y-38100000D03*
%TO.P,J1,25,Pin_25*%
%TO.N,/CONTROL_SAFETY_DOOR_BIT*%
X134620000Y-38100000D03*
%TO.P,J1,26,Pin_26*%
%TO.N,/CONTROL_CYCLE_START_BIT*%
X132080000Y-38100000D03*
%TO.P,J1,27,Pin_27*%
%TO.N,/CONTROL_FEED_HOLD_BIT*%
X129540000Y-38100000D03*
%TO.P,J1,28,Pin_28*%
%TO.N,/CONTROL_RESET_BIT*%
X127000000Y-38100000D03*
%TO.P,J1,29,Pin_29*%
%TO.N,/COOLANT_FLOOD_BIT*%
X124460000Y-38100000D03*
%TO.P,J1,30,Pin_30*%
%TO.N,/COOLANT_MIST_BIT*%
X121920000Y-38100000D03*
%TO.P,J1,31,Pin_31*%
%TO.N,/STEPPERS_DISABLE_BIT*%
X119380000Y-38100000D03*
%TO.P,J1,32,Pin_32*%
%TO.N,/UDB_D+*%
X116840000Y-38100000D03*
%TO.P,J1,33,Pin_33*%
%TO.N,/UDB_D-*%
X114300000Y-38100000D03*
%TO.P,J1,34,Pin_34*%
%TO.N,/B_DIRECTION_BIT*%
X111760000Y-38100000D03*
%TO.P,J1,35,Pin_35*%
%TO.N,/B_STEP_BIT*%
X109220000Y-38100000D03*
%TO.P,J1,36,Pin_36*%
%TO.N,/ACM*%
X106680000Y-38100000D03*
%TO.P,J1,37,Pin_37*%
%TO.N,/A_LIMIT_BIT*%
X104140000Y-38100000D03*
%TO.P,J1,38,Pin_38*%
%TO.N,/In3*%
X101600000Y-38100000D03*
%TO.P,J1,39,Pin_39*%
X99060000Y-38100000D03*
%TO.P,J1,40,Pin_40*%
X96520000Y-38100000D03*
%TD*%
D13*
%TO.P,R3,1*%
%TO.N,Net-(J1-Pad7)*%
X110490000Y-41082500D03*
%TO.P,R3,2*%
%TO.N,/SPINDLE_ENABLE_BIT*%
X110490000Y-44007500D03*
%TD*%
%TO.P,R6,1*%
%TO.N,Net-(J1-Pad8)*%
X113030000Y-41082500D03*
%TO.P,R6,2*%
%TO.N,/SPINDLE_DIRECTION_BIT*%
X113030000Y-44007500D03*
%TD*%
D14*
%TO.N,/NRST_bsmce04u-pp*%
X96012000Y-64008000D03*
X103632000Y-64516000D03*
%TO.N,/COOLANT_FLOOD_BIT*%
X125222000Y-41402000D03*
X119380000Y-41402000D03*
%TO.N,/Out2*%
X115570000Y-61722000D03*
%TO.N,/Out1*%
X115951000Y-63881000D03*
%TO.N,/In3*%
X104155425Y-57658000D03*
X118618000Y-64770000D03*
%TO.N,/In2*%
X122809000Y-56388000D03*
X141732000Y-55338500D03*
%TO.N,/CONTROL_SAFETY_DOOR_BIT*%
X126238000Y-62992000D03*
X141605000Y-59055000D03*
%TO.N,/ACM*%
X111887000Y-49149000D03*
X122936000Y-50800000D03*
%TO.N,/X_P*%
X142599578Y-57945500D03*
X133096000Y-57785000D03*
%TO.N,/Y_P*%
X139700000Y-63500000D03*
X142698501Y-63500000D03*
%TO.N,/Y_D*%
X138176000Y-60217451D03*
X126492000Y-58420000D03*
%TO.N,/Z_D*%
X143764000Y-61180500D03*
X127453879Y-61882097D03*
%TO.N,/A_P*%
X146812000Y-62230000D03*
X138684000Y-62357000D03*
%TO.N,GND*%
X114679485Y-55243485D03*
X115443000Y-58928000D03*
X104635300Y-48780700D03*
X100076000Y-56388000D03*
X147320000Y-43180000D03*
X156464000Y-37084000D03*
X140462000Y-45974000D03*
X151892000Y-34290000D03*
X108204000Y-42418000D03*
X150114000Y-56388000D03*
X158496000Y-67310000D03*
X97536000Y-45466000D03*
X106953891Y-45700109D03*
X125476000Y-43434000D03*
X131826000Y-62992000D03*
X159004000Y-56642000D03*
%TO.N,+3V3*%
X139954000Y-51816000D03*
X104522277Y-59691753D03*
X142128700Y-47625000D03*
X145288000Y-64516000D03*
%TO.N,/NRST_BP*%
X123190000Y-43942000D03*
X102235000Y-48260000D03*
X126492000Y-54102000D03*
X105410000Y-43942000D03*
X148590000Y-58674000D03*
%TO.N,/SPINDLE_ENABLE_BIT*%
X113030000Y-46355000D03*
%TO.N,/SPINDLE_DIRECTION_BIT*%
X114935000Y-45085000D03*
%TO.N,/Motor_enable*%
X128524000Y-56388000D03*
%TO.N,+5V*%
X139700000Y-40640000D03*
X147320000Y-40640000D03*
%TO.N,Net-(R7-Pad2)*%
X127000000Y-47752000D03*
X127000000Y-42672000D03*
%TO.N,/HS541_~{OE1}*%
X148556500Y-36830000D03*
X152654000Y-36830000D03*
X154940000Y-52070000D03*
%TD*%
D15*
%TO.N,/UDB_D+*%
X111421106Y-54896328D02*
X111421106Y-54896327D01*
X110855418Y-56239831D02*
X110855418Y-56239830D01*
X109582624Y-56876228D02*
X109511914Y-56805518D01*
X116840000Y-50255248D02*
X116840000Y-38100000D01*
X98425000Y-67305000D02*
X98425000Y-63500000D01*
X112693900Y-53623533D02*
X112764611Y-53694244D01*
X110148312Y-56169121D02*
X110219023Y-56239832D01*
X110148312Y-56169122D02*
X110148312Y-56169121D01*
X112128212Y-54330640D02*
X112057502Y-54259930D01*
X110855418Y-55603434D02*
X110784708Y-55532724D01*
X98425000Y-63500000D02*
X100297000Y-61628000D01*
X111421106Y-54896327D02*
X111491817Y-54967038D01*
X113401006Y-53694243D02*
X116840000Y-50255248D01*
X112128213Y-54967038D02*
X112128212Y-54967037D01*
X112128212Y-54967037D02*
X112128212Y-54967036D01*
X105467248Y-61628000D02*
X109582624Y-57512624D01*
X112693900Y-53623534D02*
X112693900Y-53623533D01*
X110855419Y-56239832D02*
X110855418Y-56239831D01*
X100297000Y-61628000D02*
X105467248Y-61628000D01*
X113401007Y-53694244D02*
X113401006Y-53694243D01*
X112693899Y-53623535D02*
G75*
G03*
X112057503Y-53623535I-318198J-318196D01*
G01*
X109582650Y-56876202D02*
G75*
G02*
X109582624Y-57512624I-318250J-318198D01*
G01*
X112128250Y-54330602D02*
G75*
G02*
X112128212Y-54967036I-318250J-318198D01*
G01*
X110855418Y-56239831D02*
G75*
G02*
X110219024Y-56239831I-318197J318197D01*
G01*
X112128212Y-54967037D02*
G75*
G02*
X111491818Y-54967037I-318197J318197D01*
G01*
X109511894Y-56169102D02*
G75*
G03*
X109511914Y-56805518I318206J-318198D01*
G01*
X112057470Y-53623502D02*
G75*
G03*
X112057502Y-54259930I318230J-318198D01*
G01*
X111421105Y-54896329D02*
G75*
G03*
X110784709Y-54896329I-318198J-318196D01*
G01*
X110784682Y-54896302D02*
G75*
G03*
X110784708Y-55532724I318218J-318198D01*
G01*
X113401006Y-53694243D02*
G75*
G02*
X112764612Y-53694243I-318197J318197D01*
G01*
X110855450Y-55603402D02*
G75*
G02*
X110855418Y-56239830I-318250J-318198D01*
G01*
X110148311Y-56169123D02*
G75*
G03*
X109511915Y-56169123I-318198J-318196D01*
G01*
%TO.N,/UDB_D-*%
X114300000Y-38100000D02*
X115570000Y-36830000D01*
X118110000Y-39243000D02*
X118110000Y-50328752D01*
D16*
X117366052Y-36830000D02*
X118110000Y-37573948D01*
X115570000Y-36830000D02*
X117366052Y-36830000D01*
X118110000Y-37573948D02*
X118110000Y-39243000D01*
D15*
X105860752Y-62578000D02*
X101854000Y-62578000D01*
X118110000Y-50328752D02*
X105860752Y-62578000D01*
X101854000Y-62578000D02*
X100965000Y-63467000D01*
X100965000Y-63467000D02*
X100965000Y-67305000D01*
%TO.N,/NRST_bsmce04u-pp*%
X95885000Y-63881000D02*
X96012000Y-64008000D01*
X103505000Y-64643000D02*
X103632000Y-64516000D01*
X95885000Y-59055000D02*
X95885000Y-63881000D01*
X103505000Y-67305000D02*
X103505000Y-64643000D01*
%TO.N,/COOLANT_FLOOD_BIT*%
X119380000Y-52578000D02*
X119380000Y-41402000D01*
X124460000Y-40640000D02*
X125222000Y-41402000D01*
X124460000Y-38100000D02*
X124460000Y-40640000D01*
X108585000Y-63373000D02*
X119380000Y-52578000D01*
X108585000Y-67305000D02*
X108585000Y-63373000D01*
%TO.N,/Out2*%
X111125000Y-67305000D02*
X111125000Y-64008000D01*
X111125000Y-64008000D02*
X113411000Y-61722000D01*
X113411000Y-61722000D02*
X115570000Y-61722000D01*
%TO.N,/Out1*%
X114427000Y-63881000D02*
X113665000Y-64643000D01*
X115951000Y-63881000D02*
X114427000Y-63881000D01*
X113665000Y-64643000D02*
X113665000Y-67305000D01*
%TO.N,/In3*%
X118618000Y-64770000D02*
X118618000Y-67178000D01*
X101600000Y-43815000D02*
X105791000Y-48006000D01*
X118618000Y-67178000D02*
X118745000Y-67305000D01*
X101600000Y-38100000D02*
X101600000Y-43815000D01*
X105791000Y-48006000D02*
X105791000Y-56022425D01*
X105791000Y-56022425D02*
X104155425Y-57658000D01*
X96520000Y-38100000D02*
X101600000Y-38100000D01*
%TO.N,/In2*%
X121285000Y-67305000D02*
X121285000Y-57912000D01*
X137160000Y-50766500D02*
X141732000Y-55338500D01*
X121285000Y-57912000D02*
X122809000Y-56388000D01*
X137160000Y-38100000D02*
X137160000Y-50766500D01*
%TO.N,/CONTROL_SAFETY_DOOR_BIT*%
X123825000Y-67305000D02*
X123825000Y-65405000D01*
X134620000Y-52067017D02*
X141605000Y-59052017D01*
X134620000Y-38100000D02*
X134620000Y-52067017D01*
X123825000Y-65405000D02*
X126238000Y-62992000D01*
X141605000Y-59052017D02*
X141605000Y-59055000D01*
%TO.N,/ACM*%
X106680000Y-38100000D02*
X106680000Y-43942000D01*
X122936000Y-50800000D02*
X122936000Y-52324000D01*
X128016000Y-57404000D02*
X128016000Y-60960000D01*
X122936000Y-52324000D02*
X128016000Y-57404000D01*
X106680000Y-43942000D02*
X111887000Y-49149000D01*
X128524000Y-61468000D02*
X128524000Y-62992000D01*
X126365000Y-65151000D02*
X126365000Y-67305000D01*
X128524000Y-62992000D02*
X126365000Y-65151000D01*
X128016000Y-60960000D02*
X128524000Y-61468000D01*
%TO.N,/X_P*%
X134620000Y-59436000D02*
X134620000Y-64130000D01*
D16*
X135890000Y-39497000D02*
X135890000Y-36830000D01*
D15*
X133096000Y-57912000D02*
X134620000Y-59436000D01*
X134620000Y-64130000D02*
X131445000Y-67305000D01*
X135890000Y-51014218D02*
X142660782Y-57785000D01*
X134620000Y-35560000D02*
X135890000Y-36830000D01*
X133096000Y-57785000D02*
X133096000Y-57912000D01*
X135890000Y-39497000D02*
X135890000Y-51014218D01*
%TO.N,/X_D*%
X124460000Y-35560000D02*
X125730000Y-36830000D01*
D16*
X125730000Y-36830000D02*
X125730000Y-37211000D01*
D15*
X130473001Y-53381915D02*
X135636000Y-58544914D01*
X125730000Y-39370000D02*
X128259499Y-41899499D01*
X135636000Y-65654000D02*
X133985000Y-67305000D01*
X135636000Y-58544914D02*
X135636000Y-65654000D01*
X128259499Y-41899499D02*
X128259499Y-51041413D01*
X130473001Y-53254914D02*
X130473001Y-53381915D01*
D16*
X125730000Y-37211000D02*
X125730000Y-39370000D01*
D15*
X128259499Y-51041413D02*
X130473001Y-53254914D01*
%TO.N,/Y_P*%
X140335000Y-59563000D02*
X142698501Y-61926501D01*
X136525000Y-67305000D02*
X139700000Y-64130000D01*
X133350000Y-51561999D02*
X133720499Y-51932499D01*
X133350000Y-39370000D02*
X133350000Y-51561999D01*
X132080000Y-35560000D02*
X133350000Y-36830000D01*
X140335000Y-59054103D02*
X140335000Y-59563000D01*
D16*
X133350000Y-36830000D02*
X133350000Y-37465000D01*
X133350000Y-37465000D02*
X133350000Y-39370000D01*
D15*
X142698501Y-61926501D02*
X142698501Y-63500000D01*
X133720499Y-52439602D02*
X140335000Y-59054103D01*
X139700000Y-64130000D02*
X139700000Y-63500000D01*
X133720499Y-51932499D02*
X133720499Y-52439602D01*
D16*
%TO.N,/Y_D*%
X123190000Y-36830000D02*
X123190000Y-37211000D01*
X123190000Y-39497000D02*
X123190000Y-39624000D01*
X123190000Y-37211000D02*
X123190000Y-39497000D01*
D15*
X140749500Y-62790951D02*
X140749500Y-65620500D01*
X124758001Y-56686001D02*
X124758001Y-55580697D01*
X124758001Y-55580697D02*
X121412000Y-52234696D01*
X121666000Y-41148000D02*
X123190000Y-39624000D01*
X140749500Y-65620500D02*
X139065000Y-67305000D01*
X126492000Y-58420000D02*
X124758001Y-56686001D01*
X121412000Y-41148000D02*
X121666000Y-41148000D01*
X121920000Y-35560000D02*
X123190000Y-36830000D01*
X121412000Y-52234696D02*
X121412000Y-41148000D01*
X138176000Y-60217451D02*
X140749500Y-62790951D01*
%TO.N,/Z_P*%
X141649001Y-62401001D02*
X141649001Y-67260999D01*
X129540000Y-35560000D02*
X130810000Y-36830000D01*
X139225500Y-59216689D02*
X139225500Y-59977500D01*
X130810000Y-50801189D02*
X139225500Y-59216689D01*
X141649001Y-67260999D02*
X141605000Y-67305000D01*
D16*
X130810000Y-36830000D02*
X130810000Y-39370000D01*
D15*
X139225500Y-59977500D02*
X141649001Y-62401001D01*
X130810000Y-39370000D02*
X130810000Y-50801189D01*
%TO.N,/Z_D*%
X123858500Y-58074587D02*
X127453879Y-61669966D01*
X120512499Y-39888501D02*
X120512499Y-52607282D01*
D16*
X120650000Y-36830000D02*
X120650000Y-37465000D01*
D15*
X143764000Y-66924000D02*
X144145000Y-67305000D01*
X123858500Y-55953282D02*
X123858500Y-58074587D01*
X120650000Y-39751000D02*
X120512499Y-39888501D01*
X127453879Y-61669966D02*
X127453879Y-61882097D01*
X119380000Y-35560000D02*
X120650000Y-36830000D01*
D16*
X120650000Y-37465000D02*
X120650000Y-39116000D01*
X120650000Y-39116000D02*
X120650000Y-39751000D01*
D15*
X120512499Y-52607282D02*
X123858500Y-55953282D01*
X143764000Y-61180500D02*
X143764000Y-66924000D01*
D16*
%TO.N,/A_P*%
X128270000Y-36830000D02*
X128270000Y-39497000D01*
D15*
X128270000Y-39497000D02*
X129159000Y-40386000D01*
X136652000Y-58161827D02*
X136652000Y-60325000D01*
X146812000Y-62230000D02*
X146812000Y-67178000D01*
X129159000Y-50668828D02*
X136652000Y-58161827D01*
X136652000Y-60325000D02*
X138684000Y-62357000D01*
X146812000Y-67178000D02*
X146685000Y-67305000D01*
X127000000Y-35560000D02*
X128270000Y-36830000D01*
X129159000Y-40386000D02*
X129159000Y-50668828D01*
%TO.N,/A_D*%
X150114000Y-34036000D02*
X150114000Y-38100000D01*
X118364000Y-34036000D02*
X150114000Y-34036000D01*
X147066000Y-38862000D02*
X143256000Y-42672000D01*
X143256000Y-53594000D02*
X146558000Y-56896000D01*
X116840000Y-35560000D02*
X118364000Y-34036000D01*
X143256000Y-42672000D02*
X143256000Y-53594000D01*
X146558000Y-56896000D02*
X146558000Y-59944000D01*
X149352000Y-38862000D02*
X147066000Y-38862000D01*
X149352000Y-62738000D02*
X149225000Y-62865000D01*
X150114000Y-38100000D02*
X149352000Y-38862000D01*
X149225000Y-62865000D02*
X149225000Y-67305000D01*
X146558000Y-59944000D02*
X149352000Y-62738000D01*
%TO.N,GND*%
X99288600Y-43434000D02*
X104635300Y-48780700D01*
X140208000Y-42164000D02*
X140208000Y-45720000D01*
X142240000Y-38100000D02*
X142240000Y-40132000D01*
X100076000Y-56388000D02*
X98425000Y-56388000D01*
X94488000Y-35814000D02*
X94488000Y-40640000D01*
X94488000Y-40640000D02*
X97282000Y-43434000D01*
X96520000Y-35560000D02*
X99060000Y-35560000D01*
X148468000Y-44328000D02*
X147320000Y-43180000D01*
X98425000Y-56388000D02*
X98425000Y-59055000D01*
D17*
X140716000Y-45974000D02*
X140462000Y-45974000D01*
D15*
X94742000Y-35560000D02*
X96520000Y-35560000D01*
X149860000Y-44328000D02*
X148468000Y-44328000D01*
X94488000Y-35814000D02*
X94742000Y-35560000D01*
X140208000Y-45720000D02*
X140462000Y-45974000D01*
X142240000Y-40132000D02*
X140208000Y-42164000D01*
X97282000Y-43434000D02*
X99288600Y-43434000D01*
%TO.N,+3V3*%
X142128700Y-41910000D02*
X144780000Y-39258700D01*
X144780000Y-38100000D02*
X144780000Y-39258700D01*
X106714623Y-57499407D02*
X104522277Y-59691753D01*
X142128700Y-41910000D02*
X142128700Y-47625000D01*
D16*
X102870000Y-36830000D02*
X102870000Y-39370000D01*
D15*
X145288000Y-56935782D02*
X140168218Y-51816000D01*
X102870000Y-43561000D02*
X106714623Y-47405623D01*
X145288000Y-64516000D02*
X145288000Y-56935782D01*
X102870000Y-39370000D02*
X102870000Y-43561000D01*
X140168218Y-51816000D02*
X139954000Y-51816000D01*
X106714623Y-47405623D02*
X106714623Y-57499407D01*
X139954000Y-51816000D02*
X139954000Y-49799700D01*
X139954000Y-49799700D02*
X142128700Y-47625000D01*
X101600000Y-35560000D02*
X102870000Y-36830000D01*
%TO.N,/NRST_BP*%
X150622000Y-58674000D02*
X159004000Y-50292000D01*
X123190000Y-43942000D02*
X123190000Y-48768000D01*
X102235000Y-57785000D02*
X100965000Y-59055000D01*
X123190000Y-48768000D02*
X123190000Y-49276000D01*
X105410000Y-39370000D02*
X105410000Y-43942000D01*
D16*
X105410000Y-36830000D02*
X105410000Y-39370000D01*
D15*
X124714000Y-50800000D02*
X124714000Y-52324000D01*
X104140000Y-35560000D02*
X105410000Y-36830000D01*
X123190000Y-49276000D02*
X124714000Y-50800000D01*
X148590000Y-58674000D02*
X150622000Y-58674000D01*
X124714000Y-52324000D02*
X126492000Y-54102000D01*
X102235000Y-48260000D02*
X102235000Y-57785000D01*
%TO.N,/SPINDLE_ENABLE_BIT*%
X110490000Y-44007500D02*
X112837500Y-46355000D01*
X112837500Y-46355000D02*
X113030000Y-46355000D01*
%TO.N,/SPINDLE_DIRECTION_BIT*%
X114107500Y-45085000D02*
X114935000Y-45085000D01*
X113030000Y-44007500D02*
X114107500Y-45085000D01*
%TO.N,/Motor_enable*%
X129540000Y-66670000D02*
X128905000Y-67305000D01*
X129540000Y-57404000D02*
X129540000Y-66670000D01*
X128524000Y-56388000D02*
X129540000Y-57404000D01*
%TO.N,+5V*%
X139700000Y-38100000D02*
X139700000Y-40640000D01*
X148712000Y-40640000D02*
X149860000Y-41788000D01*
X147320000Y-40640000D02*
X148712000Y-40640000D01*
%TO.N,Net-(J1-Pad7)*%
X110490000Y-41082500D02*
X110490000Y-39116000D01*
X111760000Y-35560000D02*
X110490000Y-36830000D01*
D18*
X110490000Y-36830000D02*
X110490000Y-39116000D01*
D16*
%TO.N,Net-(J1-Pad8)*%
X113030000Y-37084000D02*
X113030000Y-39243000D01*
D15*
X114300000Y-35560000D02*
X113030000Y-36830000D01*
X113030000Y-41082500D02*
X113030000Y-39243000D01*
X113030000Y-36830000D02*
X113030000Y-37084000D01*
%TO.N,Net-(R7-Pad2)*%
X127000000Y-42672000D02*
X127000000Y-47752000D01*
%TO.N,/HS541_~{OE1}*%
X154940000Y-52070000D02*
X152400000Y-49530000D01*
D16*
X138684000Y-36830000D02*
X145542000Y-36830000D01*
X138430000Y-36830000D02*
X138684000Y-36830000D01*
X138176000Y-36576000D02*
X138176000Y-36830000D01*
D15*
X152400000Y-37084000D02*
X152654000Y-36830000D01*
X137160000Y-35560000D02*
X138176000Y-36576000D01*
X152400000Y-49530000D02*
X152400000Y-37084000D01*
D16*
X138176000Y-36576000D02*
X138430000Y-36830000D01*
D15*
X145542000Y-36830000D02*
X148556500Y-36830000D01*
%TO.N,/STlink_SWCLK*%
X155448000Y-42672000D02*
X159004000Y-42672000D01*
%TO.N,/STlink_SWDIO*%
X155448000Y-45212000D02*
X156464000Y-45212000D01*
X156464000Y-45212000D02*
X159004000Y-47752000D01*
%TO.N,/STlink_target3V3*%
X153924000Y-35560000D02*
X159004000Y-35560000D01*
X153924000Y-46228000D02*
X153924000Y-35560000D01*
X159004000Y-35560000D02*
X159004000Y-40132000D01*
X155448000Y-47752000D02*
X153924000Y-46228000D01*
%TD*%
%TA.AperFunction,Conductor*%
%TO.N,GND*%
G36*
X117227037Y-33539866D02*
G01*
X117302392Y-33594615D01*
X117348965Y-33675280D01*
X117358701Y-33767914D01*
X117329918Y-33856500D01*
X117294320Y-33902892D01*
X117054432Y-34142780D01*
X116976314Y-34193510D01*
X116876516Y-34207535D01*
X116849749Y-34205193D01*
X116849738Y-34205193D01*
X116840000Y-34204341D01*
X116830262Y-34205193D01*
X116614328Y-34224085D01*
X116614326Y-34224085D01*
X116604592Y-34224937D01*
X116595156Y-34227465D01*
X116595152Y-34227466D01*
X116394279Y-34281289D01*
X116376337Y-34286097D01*
X116162171Y-34385965D01*
X115968599Y-34521505D01*
X115801505Y-34688599D01*
X115761079Y-34746334D01*
X115753490Y-34757172D01*
X115685369Y-34820696D01*
X115597299Y-34851021D01*
X115504509Y-34842903D01*
X115423043Y-34797746D01*
X115386510Y-34757172D01*
X115378921Y-34746334D01*
X115338495Y-34688599D01*
X115171401Y-34521505D01*
X114977830Y-34385965D01*
X114763663Y-34286097D01*
X114745721Y-34281289D01*
X114544848Y-34227466D01*
X114544844Y-34227465D01*
X114535408Y-34224937D01*
X114525674Y-34224085D01*
X114525672Y-34224085D01*
X114309738Y-34205193D01*
X114300000Y-34204341D01*
X114290262Y-34205193D01*
X114074328Y-34224085D01*
X114074326Y-34224085D01*
X114064592Y-34224937D01*
X114055156Y-34227465D01*
X114055152Y-34227466D01*
X113854279Y-34281289D01*
X113836337Y-34286097D01*
X113622171Y-34385965D01*
X113428599Y-34521505D01*
X113261505Y-34688599D01*
X113221079Y-34746334D01*
X113213490Y-34757172D01*
X113145369Y-34820696D01*
X113057299Y-34851021D01*
X112964509Y-34842903D01*
X112883043Y-34797746D01*
X112846510Y-34757172D01*
X112838921Y-34746334D01*
X112798495Y-34688599D01*
X112631401Y-34521505D01*
X112437830Y-34385965D01*
X112223663Y-34286097D01*
X112205721Y-34281289D01*
X112004848Y-34227466D01*
X112004844Y-34227465D01*
X111995408Y-34224937D01*
X111985674Y-34224085D01*
X111985672Y-34224085D01*
X111769738Y-34205193D01*
X111760000Y-34204341D01*
X111750262Y-34205193D01*
X111534328Y-34224085D01*
X111534326Y-34224085D01*
X111524592Y-34224937D01*
X111515156Y-34227465D01*
X111515152Y-34227466D01*
X111314279Y-34281289D01*
X111296337Y-34286097D01*
X111082171Y-34385965D01*
X110888599Y-34521505D01*
X110721505Y-34688599D01*
X110681079Y-34746334D01*
X110673490Y-34757172D01*
X110605369Y-34820696D01*
X110517299Y-34851021D01*
X110424509Y-34842903D01*
X110343043Y-34797746D01*
X110306510Y-34757172D01*
X110298921Y-34746334D01*
X110258495Y-34688599D01*
X110091401Y-34521505D01*
X109897830Y-34385965D01*
X109683663Y-34286097D01*
X109665721Y-34281289D01*
X109464848Y-34227466D01*
X109464844Y-34227465D01*
X109455408Y-34224937D01*
X109445674Y-34224085D01*
X109445672Y-34224085D01*
X109229738Y-34205193D01*
X109220000Y-34204341D01*
X109210262Y-34205193D01*
X108994328Y-34224085D01*
X108994326Y-34224085D01*
X108984592Y-34224937D01*
X108975156Y-34227465D01*
X108975152Y-34227466D01*
X108774279Y-34281289D01*
X108756337Y-34286097D01*
X108542171Y-34385965D01*
X108348599Y-34521505D01*
X108181505Y-34688599D01*
X108141079Y-34746334D01*
X108133490Y-34757172D01*
X108065369Y-34820696D01*
X107977299Y-34851021D01*
X107884509Y-34842903D01*
X107803043Y-34797746D01*
X107766510Y-34757172D01*
X107758921Y-34746334D01*
X107718495Y-34688599D01*
X107551401Y-34521505D01*
X107357830Y-34385965D01*
X107143663Y-34286097D01*
X107125721Y-34281289D01*
X106924848Y-34227466D01*
X106924844Y-34227465D01*
X106915408Y-34224937D01*
X106905674Y-34224085D01*
X106905672Y-34224085D01*
X106689738Y-34205193D01*
X106680000Y-34204341D01*
X106670262Y-34205193D01*
X106454328Y-34224085D01*
X106454326Y-34224085D01*
X106444592Y-34224937D01*
X106435156Y-34227465D01*
X106435152Y-34227466D01*
X106234279Y-34281289D01*
X106216337Y-34286097D01*
X106002171Y-34385965D01*
X105808599Y-34521505D01*
X105641505Y-34688599D01*
X105601079Y-34746334D01*
X105593490Y-34757172D01*
X105525369Y-34820696D01*
X105437299Y-34851021D01*
X105344509Y-34842903D01*
X105263043Y-34797746D01*
X105226510Y-34757172D01*
X105218921Y-34746334D01*
X105178495Y-34688599D01*
X105011401Y-34521505D01*
X104817830Y-34385965D01*
X104603663Y-34286097D01*
X104585721Y-34281289D01*
X104384848Y-34227466D01*
X104384844Y-34227465D01*
X104375408Y-34224937D01*
X104365674Y-34224085D01*
X104365672Y-34224085D01*
X104149738Y-34205193D01*
X104140000Y-34204341D01*
X104130262Y-34205193D01*
X103914328Y-34224085D01*
X103914326Y-34224085D01*
X103904592Y-34224937D01*
X103895156Y-34227465D01*
X103895152Y-34227466D01*
X103694279Y-34281289D01*
X103676337Y-34286097D01*
X103462171Y-34385965D01*
X103268599Y-34521505D01*
X103101505Y-34688599D01*
X103061079Y-34746334D01*
X103053490Y-34757172D01*
X102985369Y-34820696D01*
X102897299Y-34851021D01*
X102804509Y-34842903D01*
X102723043Y-34797746D01*
X102686510Y-34757172D01*
X102678921Y-34746334D01*
X102638495Y-34688599D01*
X102471401Y-34521505D01*
X102277830Y-34385965D01*
X102063663Y-34286097D01*
X102045721Y-34281289D01*
X101844848Y-34227466D01*
X101844844Y-34227465D01*
X101835408Y-34224937D01*
X101825674Y-34224085D01*
X101825672Y-34224085D01*
X101609738Y-34205193D01*
X101600000Y-34204341D01*
X101590262Y-34205193D01*
X101374328Y-34224085D01*
X101374326Y-34224085D01*
X101364592Y-34224937D01*
X101355156Y-34227465D01*
X101355152Y-34227466D01*
X101154279Y-34281289D01*
X101136337Y-34286097D01*
X100922171Y-34385965D01*
X100728599Y-34521505D01*
X100561505Y-34688599D01*
X100522084Y-34744899D01*
X100519615Y-34748425D01*
X100451493Y-34811950D01*
X100363424Y-34842275D01*
X100270633Y-34834157D01*
X100189167Y-34789000D01*
X100148053Y-34741622D01*
X100144614Y-34736307D01*
X100133428Y-34721781D01*
X99995517Y-34570220D01*
X99982111Y-34557718D01*
X99821296Y-34430715D01*
X99806033Y-34420574D01*
X99626636Y-34321542D01*
X99609915Y-34314026D01*
X99416749Y-34245622D01*
X99399033Y-34240942D01*
X99337177Y-34229924D01*
X99317717Y-34230569D01*
X99314000Y-34243445D01*
X99314000Y-35590000D01*
X99294634Y-35681109D01*
X99239885Y-35756464D01*
X99159220Y-35803037D01*
X99090000Y-35814000D01*
X95185545Y-35814000D01*
X95165151Y-35818335D01*
X95163711Y-35820829D01*
X95162001Y-35831626D01*
X95162001Y-36452030D01*
X95162655Y-36464114D01*
X95167231Y-36506239D01*
X95173679Y-36533360D01*
X95214229Y-36641526D01*
X95229396Y-36669228D01*
X95297524Y-36760132D01*
X95319868Y-36782476D01*
X95410770Y-36850603D01*
X95438585Y-36865832D01*
X95509199Y-36926573D01*
X95549003Y-37010784D01*
X95551114Y-37103904D01*
X95515167Y-37189833D01*
X95489402Y-37220702D01*
X95481505Y-37228599D01*
X95345965Y-37422171D01*
X95246097Y-37636337D01*
X95243566Y-37645783D01*
X95189919Y-37846000D01*
X95184937Y-37864592D01*
X95164341Y-38100000D01*
X95165193Y-38109738D01*
X95183370Y-38317493D01*
X95184937Y-38335408D01*
X95187465Y-38344844D01*
X95187466Y-38344848D01*
X95198284Y-38385221D01*
X95246097Y-38563663D01*
X95345965Y-38777829D01*
X95481505Y-38971401D01*
X95648599Y-39138495D01*
X95842170Y-39274035D01*
X96056337Y-39373903D01*
X96065783Y-39376434D01*
X96275152Y-39432534D01*
X96275156Y-39432535D01*
X96284592Y-39435063D01*
X96294326Y-39435915D01*
X96294328Y-39435915D01*
X96510262Y-39454807D01*
X96520000Y-39455659D01*
X96529738Y-39454807D01*
X96745672Y-39435915D01*
X96745674Y-39435915D01*
X96755408Y-39435063D01*
X96764844Y-39432535D01*
X96764848Y-39432534D01*
X96974217Y-39376434D01*
X96983663Y-39373903D01*
X97197830Y-39274035D01*
X97391401Y-39138495D01*
X97513788Y-39016108D01*
X97591906Y-38965378D01*
X97672180Y-38950500D01*
X97907820Y-38950500D01*
X97998929Y-38969866D01*
X98066212Y-39016108D01*
X98188599Y-39138495D01*
X98382170Y-39274035D01*
X98596337Y-39373903D01*
X98605783Y-39376434D01*
X98815152Y-39432534D01*
X98815156Y-39432535D01*
X98824592Y-39435063D01*
X98834326Y-39435915D01*
X98834328Y-39435915D01*
X99050262Y-39454807D01*
X99060000Y-39455659D01*
X99069738Y-39454807D01*
X99285672Y-39435915D01*
X99285674Y-39435915D01*
X99295408Y-39435063D01*
X99304844Y-39432535D01*
X99304848Y-39432534D01*
X99514217Y-39376434D01*
X99523663Y-39373903D01*
X99737830Y-39274035D01*
X99931401Y-39138495D01*
X100053788Y-39016108D01*
X100131906Y-38965378D01*
X100212180Y-38950500D01*
X100447820Y-38950500D01*
X100538929Y-38969866D01*
X100606212Y-39016108D01*
X100683892Y-39093788D01*
X100734622Y-39171906D01*
X100749500Y-39252180D01*
X100749500Y-43769833D01*
X100748714Y-43788577D01*
X100744740Y-43835902D01*
X100753084Y-43898436D01*
X100755221Y-43914452D01*
X100755879Y-43919886D01*
X100762006Y-43976283D01*
X100764442Y-43998709D01*
X100767791Y-44008661D01*
X100769180Y-44019069D01*
X100773329Y-44030469D01*
X100773330Y-44030472D01*
X100796293Y-44093563D01*
X100798102Y-44098726D01*
X100823383Y-44173848D01*
X100828791Y-44182848D01*
X100832382Y-44192715D01*
X100838879Y-44202952D01*
X100838883Y-44202961D01*
X100874851Y-44259637D01*
X100877726Y-44264291D01*
X100918557Y-44332244D01*
X100925101Y-44339164D01*
X100926476Y-44340982D01*
X100931398Y-44348738D01*
X100935183Y-44352972D01*
X100987739Y-44405528D01*
X100992099Y-44410012D01*
X101045524Y-44466507D01*
X101053495Y-44471924D01*
X101061778Y-44479567D01*
X102990852Y-46408640D01*
X104874892Y-48292680D01*
X104925622Y-48370798D01*
X104940500Y-48451072D01*
X104940500Y-55577352D01*
X104921134Y-55668461D01*
X104874892Y-55735744D01*
X103969336Y-56641301D01*
X103891219Y-56692031D01*
X103874193Y-56697794D01*
X103778818Y-56725864D01*
X103769115Y-56730937D01*
X103769114Y-56730937D01*
X103615450Y-56811271D01*
X103604937Y-56816767D01*
X103452025Y-56939711D01*
X103450217Y-56937462D01*
X103387575Y-56977213D01*
X103295429Y-56990818D01*
X103205717Y-56965767D01*
X103133949Y-56906393D01*
X103092536Y-56822961D01*
X103085500Y-56767260D01*
X103085500Y-48847662D01*
X103104866Y-48756553D01*
X103114733Y-48737019D01*
X103124776Y-48719339D01*
X103153425Y-48668909D01*
X103215358Y-48482732D01*
X103218550Y-48457470D01*
X103235597Y-48322520D01*
X103239949Y-48288071D01*
X103240341Y-48260000D01*
X103235994Y-48215663D01*
X103222263Y-48075627D01*
X103222262Y-48075624D01*
X103221194Y-48064728D01*
X103164484Y-47876894D01*
X103159345Y-47867229D01*
X103159343Y-47867224D01*
X103077514Y-47713327D01*
X103077513Y-47713325D01*
X103072370Y-47703653D01*
X103000627Y-47615687D01*
X102955287Y-47560094D01*
X102955286Y-47560093D01*
X102948361Y-47551602D01*
X102894630Y-47507152D01*
X102805624Y-47433520D01*
X102805621Y-47433518D01*
X102797180Y-47426535D01*
X102697607Y-47372696D01*
X102634225Y-47338425D01*
X102634222Y-47338424D01*
X102624585Y-47333213D01*
X102476461Y-47287361D01*
X102447619Y-47278433D01*
X102447618Y-47278433D01*
X102437152Y-47275193D01*
X102242019Y-47254683D01*
X102231108Y-47255676D01*
X102231104Y-47255676D01*
X102057527Y-47271473D01*
X102057525Y-47271473D01*
X102046618Y-47272466D01*
X102036109Y-47275559D01*
X101868904Y-47324770D01*
X101868900Y-47324772D01*
X101858393Y-47327864D01*
X101764899Y-47376742D01*
X101718968Y-47400754D01*
X101684512Y-47418767D01*
X101531600Y-47541711D01*
X101405480Y-47692016D01*
X101310956Y-47863954D01*
X101251628Y-48050978D01*
X101250408Y-48061858D01*
X101250407Y-48061861D01*
X101232421Y-48222213D01*
X101229757Y-48245963D01*
X101246175Y-48441483D01*
X101249195Y-48452015D01*
X101249196Y-48452020D01*
X101277720Y-48551493D01*
X101300258Y-48630091D01*
X101318892Y-48666348D01*
X101359729Y-48745809D01*
X101384151Y-48835695D01*
X101384500Y-48848199D01*
X101384500Y-57339927D01*
X101365134Y-57431036D01*
X101318892Y-57498319D01*
X101178319Y-57638892D01*
X101100201Y-57689622D01*
X101019927Y-57704500D01*
X100131667Y-57704501D01*
X100067624Y-57704501D01*
X100061604Y-57705155D01*
X100061602Y-57705155D01*
X100020385Y-57709632D01*
X100020384Y-57709632D01*
X100006420Y-57711149D01*
X99993267Y-57716080D01*
X99993266Y-57716080D01*
X99887119Y-57755872D01*
X99887118Y-57755873D01*
X99872176Y-57761474D01*
X99859407Y-57771044D01*
X99859405Y-57771045D01*
X99777051Y-57832767D01*
X99757454Y-57847454D01*
X99747881Y-57860227D01*
X99737039Y-57874693D01*
X99671474Y-57962176D01*
X99666831Y-57974560D01*
X99607308Y-58043762D01*
X99523098Y-58083568D01*
X99429977Y-58085681D01*
X99344048Y-58049736D01*
X99332737Y-58041367D01*
X99186288Y-57925710D01*
X99171033Y-57915574D01*
X98991636Y-57816542D01*
X98974915Y-57809026D01*
X98781749Y-57740622D01*
X98764033Y-57735942D01*
X98702177Y-57724924D01*
X98682717Y-57725569D01*
X98679000Y-57738445D01*
X98679000Y-60368088D01*
X98682922Y-60386538D01*
X98702404Y-60388363D01*
X98717118Y-60385235D01*
X98913396Y-60326349D01*
X98930455Y-60319663D01*
X99114484Y-60229508D01*
X99130220Y-60220127D01*
X99297048Y-60101131D01*
X99311053Y-60089296D01*
X99313855Y-60086504D01*
X99315998Y-60085117D01*
X99318072Y-60083365D01*
X99318296Y-60083631D01*
X99392059Y-60035908D01*
X99484082Y-60021495D01*
X99574011Y-60045758D01*
X99646297Y-60104500D01*
X99666604Y-60134832D01*
X99671474Y-60147824D01*
X99757454Y-60262546D01*
X99770227Y-60272119D01*
X99859405Y-60338955D01*
X99859407Y-60338956D01*
X99872176Y-60348526D01*
X99887118Y-60354127D01*
X99887119Y-60354128D01*
X99917135Y-60365380D01*
X100003886Y-60397901D01*
X100006420Y-60398851D01*
X100006266Y-60399263D01*
X100080903Y-60434662D01*
X100141550Y-60505357D01*
X100168200Y-60594608D01*
X100156245Y-60686982D01*
X100107751Y-60766507D01*
X100031104Y-60819433D01*
X100021535Y-60823166D01*
X100018430Y-60824296D01*
X100013274Y-60826102D01*
X99938152Y-60851383D01*
X99929152Y-60856791D01*
X99919285Y-60860382D01*
X99909048Y-60866879D01*
X99909039Y-60866883D01*
X99852363Y-60902851D01*
X99847709Y-60905726D01*
X99779756Y-60946557D01*
X99772836Y-60953101D01*
X99771018Y-60954476D01*
X99763262Y-60959398D01*
X99759028Y-60963183D01*
X99706472Y-61015739D01*
X99701988Y-61020099D01*
X99645493Y-61073524D01*
X99640076Y-61081495D01*
X99632433Y-61089778D01*
X97855543Y-62866669D01*
X97841733Y-62879367D01*
X97814732Y-62902184D01*
X97814729Y-62902187D01*
X97805460Y-62910020D01*
X97794875Y-62923865D01*
X97757309Y-62972998D01*
X97753932Y-62977305D01*
X97716533Y-63023820D01*
X97704269Y-63039073D01*
X97699599Y-63048480D01*
X97693223Y-63056820D01*
X97683456Y-63077766D01*
X97659724Y-63128659D01*
X97657357Y-63133578D01*
X97622105Y-63204593D01*
X97619565Y-63214779D01*
X97615127Y-63224297D01*
X97604219Y-63273098D01*
X97597837Y-63301651D01*
X97596577Y-63306981D01*
X97577400Y-63383894D01*
X97577134Y-63393422D01*
X97576823Y-63395664D01*
X97574817Y-63404637D01*
X97574500Y-63410307D01*
X97574500Y-63484589D01*
X97574413Y-63490843D01*
X97572241Y-63568611D01*
X97574047Y-63578079D01*
X97574500Y-63589348D01*
X97574500Y-65765383D01*
X97555134Y-65856492D01*
X97500385Y-65931847D01*
X97429133Y-65975127D01*
X97332176Y-66011474D01*
X97319407Y-66021044D01*
X97319405Y-66021045D01*
X97230227Y-66087881D01*
X97217454Y-66097454D01*
X97207881Y-66110227D01*
X97152368Y-66184298D01*
X97131474Y-66212176D01*
X97125873Y-66227118D01*
X97125872Y-66227119D01*
X97094348Y-66311212D01*
X97081149Y-66346420D01*
X97074500Y-66407623D01*
X97074501Y-68202376D01*
X97081149Y-68263580D01*
X97086080Y-68276733D01*
X97086080Y-68276734D01*
X97098634Y-68310221D01*
X97131474Y-68397824D01*
X97141044Y-68410593D01*
X97141045Y-68410595D01*
X97188133Y-68473423D01*
X97217454Y-68512546D01*
X97230227Y-68522119D01*
X97319405Y-68588955D01*
X97319407Y-68588956D01*
X97332176Y-68598526D01*
X97347118Y-68604127D01*
X97347119Y-68604128D01*
X97453268Y-68643921D01*
X97453271Y-68643922D01*
X97466420Y-68648851D01*
X97480379Y-68650367D01*
X97480381Y-68650368D01*
X97495060Y-68651962D01*
X97527623Y-68655500D01*
X98424703Y-68655500D01*
X99322376Y-68655499D01*
X99328396Y-68654845D01*
X99328398Y-68654845D01*
X99369615Y-68650368D01*
X99369616Y-68650368D01*
X99383580Y-68648851D01*
X99404750Y-68640915D01*
X99502881Y-68604128D01*
X99502882Y-68604127D01*
X99517824Y-68598526D01*
X99530593Y-68588956D01*
X99530595Y-68588955D01*
X99619773Y-68522119D01*
X99632546Y-68512546D01*
X99654563Y-68483169D01*
X99708953Y-68410598D01*
X99708955Y-68410595D01*
X99718526Y-68397824D01*
X99724130Y-68382876D01*
X99725246Y-68380837D01*
X99785985Y-68310221D01*
X99870195Y-68270415D01*
X99963316Y-68268302D01*
X100049245Y-68304246D01*
X100080119Y-68330015D01*
X100093599Y-68343495D01*
X100287170Y-68479035D01*
X100501337Y-68578903D01*
X100510783Y-68581434D01*
X100720152Y-68637534D01*
X100720156Y-68637535D01*
X100729592Y-68640063D01*
X100739326Y-68640915D01*
X100739328Y-68640915D01*
X100955262Y-68659807D01*
X100965000Y-68660659D01*
X100974738Y-68659807D01*
X101190672Y-68640915D01*
X101190674Y-68640915D01*
X101200408Y-68640063D01*
X101209844Y-68637535D01*
X101209848Y-68637534D01*
X101419217Y-68581434D01*
X101428663Y-68578903D01*
X101642830Y-68479035D01*
X101836401Y-68343495D01*
X102003495Y-68176401D01*
X102051510Y-68107828D01*
X102119631Y-68044304D01*
X102207701Y-68013979D01*
X102300491Y-68022097D01*
X102381957Y-68067254D01*
X102418489Y-68107827D01*
X102466505Y-68176401D01*
X102633599Y-68343495D01*
X102827170Y-68479035D01*
X103041337Y-68578903D01*
X103050783Y-68581434D01*
X103260152Y-68637534D01*
X103260156Y-68637535D01*
X103269592Y-68640063D01*
X103279326Y-68640915D01*
X103279328Y-68640915D01*
X103495262Y-68659807D01*
X103505000Y-68660659D01*
X103514738Y-68659807D01*
X103730672Y-68640915D01*
X103730674Y-68640915D01*
X103740408Y-68640063D01*
X103749844Y-68637535D01*
X103749848Y-68637534D01*
X103959217Y-68581434D01*
X103968663Y-68578903D01*
X104182830Y-68479035D01*
X104376401Y-68343495D01*
X104543495Y-68176401D01*
X104591510Y-68107828D01*
X104659631Y-68044304D01*
X104747701Y-68013979D01*
X104840491Y-68022097D01*
X104921957Y-68067254D01*
X104958489Y-68107827D01*
X105006505Y-68176401D01*
X105173599Y-68343495D01*
X105367170Y-68479035D01*
X105581337Y-68578903D01*
X105590783Y-68581434D01*
X105800152Y-68637534D01*
X105800156Y-68637535D01*
X105809592Y-68640063D01*
X105819326Y-68640915D01*
X105819328Y-68640915D01*
X106035262Y-68659807D01*
X106045000Y-68660659D01*
X106054738Y-68659807D01*
X106270672Y-68640915D01*
X106270674Y-68640915D01*
X106280408Y-68640063D01*
X106289844Y-68637535D01*
X106289848Y-68637534D01*
X106499217Y-68581434D01*
X106508663Y-68578903D01*
X106722830Y-68479035D01*
X106916401Y-68343495D01*
X107083495Y-68176401D01*
X107131510Y-68107828D01*
X107199631Y-68044304D01*
X107287701Y-68013979D01*
X107380491Y-68022097D01*
X107461957Y-68067254D01*
X107498489Y-68107827D01*
X107546505Y-68176401D01*
X107713599Y-68343495D01*
X107907170Y-68479035D01*
X108121337Y-68578903D01*
X108130783Y-68581434D01*
X108340152Y-68637534D01*
X108340156Y-68637535D01*
X108349592Y-68640063D01*
X108359326Y-68640915D01*
X108359328Y-68640915D01*
X108575262Y-68659807D01*
X108585000Y-68660659D01*
X108594738Y-68659807D01*
X108810672Y-68640915D01*
X108810674Y-68640915D01*
X108820408Y-68640063D01*
X108829844Y-68637535D01*
X108829848Y-68637534D01*
X109039217Y-68581434D01*
X109048663Y-68578903D01*
X109262830Y-68479035D01*
X109456401Y-68343495D01*
X109623495Y-68176401D01*
X109671510Y-68107828D01*
X109739631Y-68044304D01*
X109827701Y-68013979D01*
X109920491Y-68022097D01*
X110001957Y-68067254D01*
X110038489Y-68107827D01*
X110086505Y-68176401D01*
X110253599Y-68343495D01*
X110447170Y-68479035D01*
X110661337Y-68578903D01*
X110670783Y-68581434D01*
X110880152Y-68637534D01*
X110880156Y-68637535D01*
X110889592Y-68640063D01*
X110899326Y-68640915D01*
X110899328Y-68640915D01*
X111115262Y-68659807D01*
X111125000Y-68660659D01*
X111134738Y-68659807D01*
X111350672Y-68640915D01*
X111350674Y-68640915D01*
X111360408Y-68640063D01*
X111369844Y-68637535D01*
X111369848Y-68637534D01*
X111579217Y-68581434D01*
X111588663Y-68578903D01*
X111802830Y-68479035D01*
X111996401Y-68343495D01*
X112163495Y-68176401D01*
X112211510Y-68107828D01*
X112279631Y-68044304D01*
X112367701Y-68013979D01*
X112460491Y-68022097D01*
X112541957Y-68067254D01*
X112578489Y-68107827D01*
X112626505Y-68176401D01*
X112793599Y-68343495D01*
X112987170Y-68479035D01*
X113201337Y-68578903D01*
X113210783Y-68581434D01*
X113420152Y-68637534D01*
X113420156Y-68637535D01*
X113429592Y-68640063D01*
X113439326Y-68640915D01*
X113439328Y-68640915D01*
X113655262Y-68659807D01*
X113665000Y-68660659D01*
X113674738Y-68659807D01*
X113890672Y-68640915D01*
X113890674Y-68640915D01*
X113900408Y-68640063D01*
X113909844Y-68637535D01*
X113909848Y-68637534D01*
X114119217Y-68581434D01*
X114128663Y-68578903D01*
X114342830Y-68479035D01*
X114536401Y-68343495D01*
X114703495Y-68176401D01*
X114751510Y-68107828D01*
X114819631Y-68044304D01*
X114907701Y-68013979D01*
X115000491Y-68022097D01*
X115081957Y-68067254D01*
X115118489Y-68107827D01*
X115166505Y-68176401D01*
X115333599Y-68343495D01*
X115527170Y-68479035D01*
X115741337Y-68578903D01*
X115750783Y-68581434D01*
X115960152Y-68637534D01*
X115960156Y-68637535D01*
X115969592Y-68640063D01*
X115979326Y-68640915D01*
X115979328Y-68640915D01*
X116195262Y-68659807D01*
X116205000Y-68660659D01*
X116214738Y-68659807D01*
X116430672Y-68640915D01*
X116430674Y-68640915D01*
X116440408Y-68640063D01*
X116449844Y-68637535D01*
X116449848Y-68637534D01*
X116659217Y-68581434D01*
X116668663Y-68578903D01*
X116882830Y-68479035D01*
X117076401Y-68343495D01*
X117243495Y-68176401D01*
X117291510Y-68107828D01*
X117359631Y-68044304D01*
X117447701Y-68013979D01*
X117540491Y-68022097D01*
X117621957Y-68067254D01*
X117658489Y-68107827D01*
X117706505Y-68176401D01*
X117873599Y-68343495D01*
X118067170Y-68479035D01*
X118281337Y-68578903D01*
X118290783Y-68581434D01*
X118500152Y-68637534D01*
X118500156Y-68637535D01*
X118509592Y-68640063D01*
X118519326Y-68640915D01*
X118519328Y-68640915D01*
X118735262Y-68659807D01*
X118745000Y-68660659D01*
X118754738Y-68659807D01*
X118970672Y-68640915D01*
X118970674Y-68640915D01*
X118980408Y-68640063D01*
X118989844Y-68637535D01*
X118989848Y-68637534D01*
X119199217Y-68581434D01*
X119208663Y-68578903D01*
X119422830Y-68479035D01*
X119616401Y-68343495D01*
X119783495Y-68176401D01*
X119831510Y-68107828D01*
X119899631Y-68044304D01*
X119987701Y-68013979D01*
X120080491Y-68022097D01*
X120161957Y-68067254D01*
X120198489Y-68107827D01*
X120246505Y-68176401D01*
X120413599Y-68343495D01*
X120607170Y-68479035D01*
X120821337Y-68578903D01*
X120830783Y-68581434D01*
X121040152Y-68637534D01*
X121040156Y-68637535D01*
X121049592Y-68640063D01*
X121059326Y-68640915D01*
X121059328Y-68640915D01*
X121275262Y-68659807D01*
X121285000Y-68660659D01*
X121294738Y-68659807D01*
X121510672Y-68640915D01*
X121510674Y-68640915D01*
X121520408Y-68640063D01*
X121529844Y-68637535D01*
X121529848Y-68637534D01*
X121739217Y-68581434D01*
X121748663Y-68578903D01*
X121962830Y-68479035D01*
X122156401Y-68343495D01*
X122323495Y-68176401D01*
X122371510Y-68107828D01*
X122439631Y-68044304D01*
X122527701Y-68013979D01*
X122620491Y-68022097D01*
X122701957Y-68067254D01*
X122738489Y-68107827D01*
X122786505Y-68176401D01*
X122953599Y-68343495D01*
X123147170Y-68479035D01*
X123361337Y-68578903D01*
X123370783Y-68581434D01*
X123580152Y-68637534D01*
X123580156Y-68637535D01*
X123589592Y-68640063D01*
X123599326Y-68640915D01*
X123599328Y-68640915D01*
X123815262Y-68659807D01*
X123825000Y-68660659D01*
X123834738Y-68659807D01*
X124050672Y-68640915D01*
X124050674Y-68640915D01*
X124060408Y-68640063D01*
X124069844Y-68637535D01*
X124069848Y-68637534D01*
X124279217Y-68581434D01*
X124288663Y-68578903D01*
X124502830Y-68479035D01*
X124696401Y-68343495D01*
X124863495Y-68176401D01*
X124911510Y-68107828D01*
X124979631Y-68044304D01*
X125067701Y-68013979D01*
X125160491Y-68022097D01*
X125241957Y-68067254D01*
X125278489Y-68107827D01*
X125326505Y-68176401D01*
X125493599Y-68343495D01*
X125687170Y-68479035D01*
X125901337Y-68578903D01*
X125910783Y-68581434D01*
X126120152Y-68637534D01*
X126120156Y-68637535D01*
X126129592Y-68640063D01*
X126139326Y-68640915D01*
X126139328Y-68640915D01*
X126355262Y-68659807D01*
X126365000Y-68660659D01*
X126374738Y-68659807D01*
X126590672Y-68640915D01*
X126590674Y-68640915D01*
X126600408Y-68640063D01*
X126609844Y-68637535D01*
X126609848Y-68637534D01*
X126819217Y-68581434D01*
X126828663Y-68578903D01*
X127042830Y-68479035D01*
X127236401Y-68343495D01*
X127403495Y-68176401D01*
X127451510Y-68107828D01*
X127519631Y-68044304D01*
X127607701Y-68013979D01*
X127700491Y-68022097D01*
X127781957Y-68067254D01*
X127818489Y-68107827D01*
X127866505Y-68176401D01*
X128033599Y-68343495D01*
X128227170Y-68479035D01*
X128441337Y-68578903D01*
X128450783Y-68581434D01*
X128660152Y-68637534D01*
X128660156Y-68637535D01*
X128669592Y-68640063D01*
X128679326Y-68640915D01*
X128679328Y-68640915D01*
X128895262Y-68659807D01*
X128905000Y-68660659D01*
X128914738Y-68659807D01*
X129130672Y-68640915D01*
X129130674Y-68640915D01*
X129140408Y-68640063D01*
X129149844Y-68637535D01*
X129149848Y-68637534D01*
X129359217Y-68581434D01*
X129368663Y-68578903D01*
X129582830Y-68479035D01*
X129776401Y-68343495D01*
X129943495Y-68176401D01*
X129991510Y-68107828D01*
X130059631Y-68044304D01*
X130147701Y-68013979D01*
X130240491Y-68022097D01*
X130321957Y-68067254D01*
X130358489Y-68107827D01*
X130406505Y-68176401D01*
X130573599Y-68343495D01*
X130767170Y-68479035D01*
X130981337Y-68578903D01*
X130990783Y-68581434D01*
X131200152Y-68637534D01*
X131200156Y-68637535D01*
X131209592Y-68640063D01*
X131219326Y-68640915D01*
X131219328Y-68640915D01*
X131435262Y-68659807D01*
X131445000Y-68660659D01*
X131454738Y-68659807D01*
X131670672Y-68640915D01*
X131670674Y-68640915D01*
X131680408Y-68640063D01*
X131689844Y-68637535D01*
X131689848Y-68637534D01*
X131899217Y-68581434D01*
X131908663Y-68578903D01*
X132122830Y-68479035D01*
X132316401Y-68343495D01*
X132483495Y-68176401D01*
X132531510Y-68107828D01*
X132599631Y-68044304D01*
X132687701Y-68013979D01*
X132780491Y-68022097D01*
X132861957Y-68067254D01*
X132898489Y-68107827D01*
X132946505Y-68176401D01*
X133113599Y-68343495D01*
X133307170Y-68479035D01*
X133521337Y-68578903D01*
X133530783Y-68581434D01*
X133740152Y-68637534D01*
X133740156Y-68637535D01*
X133749592Y-68640063D01*
X133759326Y-68640915D01*
X133759328Y-68640915D01*
X133975262Y-68659807D01*
X133985000Y-68660659D01*
X133994738Y-68659807D01*
X134210672Y-68640915D01*
X134210674Y-68640915D01*
X134220408Y-68640063D01*
X134229844Y-68637535D01*
X134229848Y-68637534D01*
X134439217Y-68581434D01*
X134448663Y-68578903D01*
X134662830Y-68479035D01*
X134856401Y-68343495D01*
X135023495Y-68176401D01*
X135071510Y-68107828D01*
X135139631Y-68044304D01*
X135227701Y-68013979D01*
X135320491Y-68022097D01*
X135401957Y-68067254D01*
X135438489Y-68107827D01*
X135486505Y-68176401D01*
X135653599Y-68343495D01*
X135847170Y-68479035D01*
X136061337Y-68578903D01*
X136070783Y-68581434D01*
X136280152Y-68637534D01*
X136280156Y-68637535D01*
X136289592Y-68640063D01*
X136299326Y-68640915D01*
X136299328Y-68640915D01*
X136515262Y-68659807D01*
X136525000Y-68660659D01*
X136534738Y-68659807D01*
X136750672Y-68640915D01*
X136750674Y-68640915D01*
X136760408Y-68640063D01*
X136769844Y-68637535D01*
X136769848Y-68637534D01*
X136979217Y-68581434D01*
X136988663Y-68578903D01*
X137202830Y-68479035D01*
X137396401Y-68343495D01*
X137563495Y-68176401D01*
X137611510Y-68107828D01*
X137679631Y-68044304D01*
X137767701Y-68013979D01*
X137860491Y-68022097D01*
X137941957Y-68067254D01*
X137978489Y-68107827D01*
X138026505Y-68176401D01*
X138193599Y-68343495D01*
X138387170Y-68479035D01*
X138601337Y-68578903D01*
X138610783Y-68581434D01*
X138820152Y-68637534D01*
X138820156Y-68637535D01*
X138829592Y-68640063D01*
X138839326Y-68640915D01*
X138839328Y-68640915D01*
X139055262Y-68659807D01*
X139065000Y-68660659D01*
X139074738Y-68659807D01*
X139290672Y-68640915D01*
X139290674Y-68640915D01*
X139300408Y-68640063D01*
X139309844Y-68637535D01*
X139309848Y-68637534D01*
X139519217Y-68581434D01*
X139528663Y-68578903D01*
X139742830Y-68479035D01*
X139936401Y-68343495D01*
X140103495Y-68176401D01*
X140151510Y-68107828D01*
X140219631Y-68044304D01*
X140307701Y-68013979D01*
X140400491Y-68022097D01*
X140481957Y-68067254D01*
X140518489Y-68107827D01*
X140566505Y-68176401D01*
X140733599Y-68343495D01*
X140927170Y-68479035D01*
X141141337Y-68578903D01*
X141150783Y-68581434D01*
X141360152Y-68637534D01*
X141360156Y-68637535D01*
X141369592Y-68640063D01*
X141379326Y-68640915D01*
X141379328Y-68640915D01*
X141595262Y-68659807D01*
X141605000Y-68660659D01*
X141614738Y-68659807D01*
X141830672Y-68640915D01*
X141830674Y-68640915D01*
X141840408Y-68640063D01*
X141849844Y-68637535D01*
X141849848Y-68637534D01*
X142059217Y-68581434D01*
X142068663Y-68578903D01*
X142282830Y-68479035D01*
X142476401Y-68343495D01*
X142643495Y-68176401D01*
X142691510Y-68107828D01*
X142759631Y-68044304D01*
X142847701Y-68013979D01*
X142940491Y-68022097D01*
X143021957Y-68067254D01*
X143058489Y-68107827D01*
X143106505Y-68176401D01*
X143273599Y-68343495D01*
X143467170Y-68479035D01*
X143681337Y-68578903D01*
X143690783Y-68581434D01*
X143900152Y-68637534D01*
X143900156Y-68637535D01*
X143909592Y-68640063D01*
X143919326Y-68640915D01*
X143919328Y-68640915D01*
X144135262Y-68659807D01*
X144145000Y-68660659D01*
X144154738Y-68659807D01*
X144370672Y-68640915D01*
X144370674Y-68640915D01*
X144380408Y-68640063D01*
X144389844Y-68637535D01*
X144389848Y-68637534D01*
X144599217Y-68581434D01*
X144608663Y-68578903D01*
X144822830Y-68479035D01*
X145016401Y-68343495D01*
X145183495Y-68176401D01*
X145231510Y-68107828D01*
X145299631Y-68044304D01*
X145387701Y-68013979D01*
X145480491Y-68022097D01*
X145561957Y-68067254D01*
X145598489Y-68107827D01*
X145646505Y-68176401D01*
X145813599Y-68343495D01*
X146007170Y-68479035D01*
X146221337Y-68578903D01*
X146230783Y-68581434D01*
X146440152Y-68637534D01*
X146440156Y-68637535D01*
X146449592Y-68640063D01*
X146459326Y-68640915D01*
X146459328Y-68640915D01*
X146675262Y-68659807D01*
X146685000Y-68660659D01*
X146694738Y-68659807D01*
X146910672Y-68640915D01*
X146910674Y-68640915D01*
X146920408Y-68640063D01*
X146929844Y-68637535D01*
X146929848Y-68637534D01*
X147139217Y-68581434D01*
X147148663Y-68578903D01*
X147362830Y-68479035D01*
X147556401Y-68343495D01*
X147723495Y-68176401D01*
X147771510Y-68107828D01*
X147839631Y-68044304D01*
X147927701Y-68013979D01*
X148020491Y-68022097D01*
X148101957Y-68067254D01*
X148138489Y-68107827D01*
X148186505Y-68176401D01*
X148353599Y-68343495D01*
X148547170Y-68479035D01*
X148761337Y-68578903D01*
X148770783Y-68581434D01*
X148980152Y-68637534D01*
X148980156Y-68637535D01*
X148989592Y-68640063D01*
X148999326Y-68640915D01*
X148999328Y-68640915D01*
X149215262Y-68659807D01*
X149225000Y-68660659D01*
X149234738Y-68659807D01*
X149450672Y-68640915D01*
X149450674Y-68640915D01*
X149460408Y-68640063D01*
X149469844Y-68637535D01*
X149469848Y-68637534D01*
X149679217Y-68581434D01*
X149688663Y-68578903D01*
X149902830Y-68479035D01*
X150096401Y-68343495D01*
X150263495Y-68176401D01*
X150399035Y-67982829D01*
X150498903Y-67768663D01*
X150560063Y-67540408D01*
X150580659Y-67305000D01*
X150560063Y-67069592D01*
X150498903Y-66841337D01*
X150399035Y-66627171D01*
X150263495Y-66433599D01*
X150141108Y-66311212D01*
X150090378Y-66233094D01*
X150075500Y-66152820D01*
X150075500Y-63245887D01*
X150098851Y-63146307D01*
X150100468Y-63143051D01*
X150106338Y-63132010D01*
X150108242Y-63128659D01*
X150137153Y-63077766D01*
X150140740Y-63066179D01*
X150145428Y-63055345D01*
X150149504Y-63044268D01*
X150154895Y-63033407D01*
X150169992Y-62972854D01*
X150173341Y-62960861D01*
X150191797Y-62901240D01*
X150192812Y-62889153D01*
X150195060Y-62877587D01*
X150196664Y-62865881D01*
X150199600Y-62854106D01*
X150200618Y-62817662D01*
X150201342Y-62791742D01*
X150202041Y-62779254D01*
X150206245Y-62729191D01*
X150206245Y-62729186D01*
X150207260Y-62717098D01*
X150205655Y-62705072D01*
X150205367Y-62693278D01*
X150204420Y-62681513D01*
X150204759Y-62669389D01*
X150193072Y-62608123D01*
X150191072Y-62595776D01*
X150189816Y-62586361D01*
X150182820Y-62533931D01*
X150178671Y-62522531D01*
X150175857Y-62511075D01*
X150172406Y-62499787D01*
X150170133Y-62487872D01*
X150156810Y-62456786D01*
X150145559Y-62430537D01*
X150140964Y-62418933D01*
X150119618Y-62360285D01*
X150113119Y-62350045D01*
X150107920Y-62339478D01*
X150102116Y-62329177D01*
X150097336Y-62318025D01*
X150061020Y-62267299D01*
X150054027Y-62256932D01*
X150025523Y-62212017D01*
X150020602Y-62204262D01*
X150016817Y-62200028D01*
X150014597Y-62197808D01*
X150012445Y-62195532D01*
X150012678Y-62195311D01*
X150005167Y-62186455D01*
X150004914Y-62186681D01*
X149996833Y-62177644D01*
X149989766Y-62167772D01*
X149941871Y-62124647D01*
X149933365Y-62116576D01*
X148704286Y-60887497D01*
X147474108Y-59657320D01*
X147423378Y-59579202D01*
X147408500Y-59498928D01*
X147408500Y-59437355D01*
X147427866Y-59346246D01*
X147482615Y-59270891D01*
X147563280Y-59224318D01*
X147655914Y-59214582D01*
X147744500Y-59243365D01*
X147808048Y-59298219D01*
X147854877Y-59357303D01*
X147866818Y-59372369D01*
X148016238Y-59499535D01*
X148187513Y-59595257D01*
X148197927Y-59598641D01*
X148197930Y-59598642D01*
X148333856Y-59642807D01*
X148374118Y-59655889D01*
X148568946Y-59679121D01*
X148685233Y-59670173D01*
X148753650Y-59664909D01*
X148753653Y-59664908D01*
X148764576Y-59664068D01*
X148775129Y-59661122D01*
X148775132Y-59661121D01*
X148859066Y-59637686D01*
X148953556Y-59611303D01*
X149077766Y-59548560D01*
X149167818Y-59524767D01*
X149178760Y-59524500D01*
X150576833Y-59524500D01*
X150595577Y-59525286D01*
X150630811Y-59528245D01*
X150630814Y-59528245D01*
X150642902Y-59529260D01*
X150721489Y-59518775D01*
X150726868Y-59518123D01*
X150752060Y-59515386D01*
X150793654Y-59510868D01*
X150793657Y-59510867D01*
X150805709Y-59509558D01*
X150815661Y-59506209D01*
X150826069Y-59504820D01*
X150837469Y-59500671D01*
X150837472Y-59500670D01*
X150900563Y-59477707D01*
X150905727Y-59475898D01*
X150916436Y-59472294D01*
X150980848Y-59450617D01*
X150989848Y-59445209D01*
X150999715Y-59441618D01*
X151009952Y-59435121D01*
X151009961Y-59435117D01*
X151066637Y-59399149D01*
X151071291Y-59396274D01*
X151128851Y-59361688D01*
X151128852Y-59361687D01*
X151139244Y-59355443D01*
X151146164Y-59348899D01*
X151147982Y-59347524D01*
X151155738Y-59342602D01*
X151159972Y-59338817D01*
X151212528Y-59286261D01*
X151217012Y-59281901D01*
X151264694Y-59236810D01*
X151273507Y-59228476D01*
X151278924Y-59220505D01*
X151286567Y-59212222D01*
X157344392Y-53154397D01*
X157422510Y-53103667D01*
X157514507Y-53089096D01*
X157604478Y-53113204D01*
X157676865Y-53171821D01*
X157719152Y-53254816D01*
X157727564Y-53286212D01*
X157727566Y-53286217D01*
X157730097Y-53295663D01*
X157829965Y-53509829D01*
X157965505Y-53703401D01*
X158132599Y-53870495D01*
X158203138Y-53919887D01*
X158284600Y-53976927D01*
X158326170Y-54006035D01*
X158540337Y-54105903D01*
X158549783Y-54108434D01*
X158759152Y-54164534D01*
X158759156Y-54164535D01*
X158768592Y-54167063D01*
X158778326Y-54167915D01*
X158778328Y-54167915D01*
X158994262Y-54186807D01*
X159004000Y-54187659D01*
X159013738Y-54186807D01*
X159229672Y-54167915D01*
X159229674Y-54167915D01*
X159239408Y-54167063D01*
X159248844Y-54164535D01*
X159248848Y-54164534D01*
X159458217Y-54108434D01*
X159467663Y-54105903D01*
X159681830Y-54006035D01*
X159723401Y-53976927D01*
X159804862Y-53919887D01*
X159875401Y-53870495D01*
X160042495Y-53703401D01*
X160178035Y-53509829D01*
X160277903Y-53295663D01*
X160292359Y-53241712D01*
X160336534Y-53076848D01*
X160336535Y-53076844D01*
X160339063Y-53067408D01*
X160343498Y-53016724D01*
X160358807Y-52841738D01*
X160359659Y-52832000D01*
X160353764Y-52764624D01*
X160339915Y-52606328D01*
X160339915Y-52606326D01*
X160339063Y-52596592D01*
X160321886Y-52532483D01*
X160280434Y-52377783D01*
X160277903Y-52368337D01*
X160178035Y-52154171D01*
X160042495Y-51960599D01*
X159875401Y-51793505D01*
X159806827Y-51745489D01*
X159743304Y-51677368D01*
X159712980Y-51589298D01*
X159721098Y-51496508D01*
X159766256Y-51415042D01*
X159806826Y-51378512D01*
X159875401Y-51330495D01*
X160042495Y-51163401D01*
X160178035Y-50969829D01*
X160277903Y-50755663D01*
X160294122Y-50695133D01*
X160336534Y-50536848D01*
X160336535Y-50536844D01*
X160339063Y-50527408D01*
X160359659Y-50292000D01*
X160347252Y-50150189D01*
X160339915Y-50066328D01*
X160339915Y-50066326D01*
X160339063Y-50056592D01*
X160336377Y-50046565D01*
X160280434Y-49837783D01*
X160277903Y-49828337D01*
X160178035Y-49614171D01*
X160169059Y-49601351D01*
X160113033Y-49521338D01*
X160042495Y-49420599D01*
X159875401Y-49253505D01*
X159806827Y-49205489D01*
X159743304Y-49137368D01*
X159712980Y-49049298D01*
X159721098Y-48956508D01*
X159766256Y-48875042D01*
X159806826Y-48838512D01*
X159875401Y-48790495D01*
X160042495Y-48623401D01*
X160178035Y-48429829D01*
X160277903Y-48215663D01*
X160300295Y-48132093D01*
X160336534Y-47996848D01*
X160336535Y-47996844D01*
X160339063Y-47987408D01*
X160359659Y-47752000D01*
X160354411Y-47692016D01*
X160339915Y-47526328D01*
X160339915Y-47526326D01*
X160339063Y-47516592D01*
X160318371Y-47439365D01*
X160280434Y-47297783D01*
X160277903Y-47288337D01*
X160178035Y-47074171D01*
X160168442Y-47060470D01*
X160098782Y-46960986D01*
X160042495Y-46880599D01*
X159875401Y-46713505D01*
X159813198Y-46669950D01*
X159749675Y-46601830D01*
X159719350Y-46513760D01*
X159727468Y-46420970D01*
X159772625Y-46339504D01*
X159811603Y-46304099D01*
X159876048Y-46258131D01*
X159890049Y-46246300D01*
X160035206Y-46101648D01*
X160047075Y-46087701D01*
X160166657Y-45921285D01*
X160176096Y-45905577D01*
X160266889Y-45721870D01*
X160273638Y-45704824D01*
X160333207Y-45508762D01*
X160337080Y-45490847D01*
X160337278Y-45489340D01*
X160335806Y-45470634D01*
X160315325Y-45466000D01*
X158974000Y-45466000D01*
X158882891Y-45446634D01*
X158807536Y-45391885D01*
X158760963Y-45311220D01*
X158750000Y-45242000D01*
X158750000Y-45182000D01*
X158769366Y-45090891D01*
X158824115Y-45015536D01*
X158904780Y-44968963D01*
X158974000Y-44958000D01*
X160316915Y-44958000D01*
X160335963Y-44953951D01*
X160336989Y-44944186D01*
X160296195Y-44781782D01*
X160290289Y-44764431D01*
X160208576Y-44576504D01*
X160199920Y-44560361D01*
X160088611Y-44388303D01*
X160077428Y-44373781D01*
X159939517Y-44222220D01*
X159926111Y-44209718D01*
X159803492Y-44112880D01*
X159743994Y-44041215D01*
X159718789Y-43951546D01*
X159732235Y-43859377D01*
X159782007Y-43780645D01*
X159813837Y-43753603D01*
X159875401Y-43710495D01*
X160042495Y-43543401D01*
X160178035Y-43349829D01*
X160277903Y-43135663D01*
X160298791Y-43057708D01*
X160336534Y-42916848D01*
X160336535Y-42916844D01*
X160339063Y-42907408D01*
X160359659Y-42672000D01*
X160339063Y-42436592D01*
X160331167Y-42407121D01*
X160280434Y-42217783D01*
X160277903Y-42208337D01*
X160178035Y-41994171D01*
X160169171Y-41981511D01*
X160075337Y-41847503D01*
X160042495Y-41800599D01*
X160029015Y-41787119D01*
X159978285Y-41709001D01*
X159963714Y-41617004D01*
X159987822Y-41527033D01*
X160046439Y-41454646D01*
X160079837Y-41432246D01*
X160081876Y-41431130D01*
X160096824Y-41425526D01*
X160109595Y-41415955D01*
X160109598Y-41415953D01*
X160198773Y-41349119D01*
X160211546Y-41339546D01*
X160232053Y-41312184D01*
X160287955Y-41237595D01*
X160287956Y-41237593D01*
X160297526Y-41224824D01*
X160322860Y-41157244D01*
X160342921Y-41103732D01*
X160342922Y-41103729D01*
X160347851Y-41090580D01*
X160354500Y-41029377D01*
X160354499Y-39234624D01*
X160347851Y-39173420D01*
X160336861Y-39144104D01*
X160303128Y-39054119D01*
X160303127Y-39054118D01*
X160297526Y-39039176D01*
X160280238Y-39016108D01*
X160221119Y-38937227D01*
X160211546Y-38924454D01*
X160182691Y-38902828D01*
X160109595Y-38848045D01*
X160109593Y-38848044D01*
X160096824Y-38838474D01*
X159999868Y-38802127D01*
X159921358Y-38752015D01*
X159870015Y-38674299D01*
X159854500Y-38592383D01*
X159854500Y-35648406D01*
X159855861Y-35631855D01*
X159855522Y-35631836D01*
X159856199Y-35619728D01*
X159858181Y-35607756D01*
X159857251Y-35590000D01*
X159854807Y-35543375D01*
X159854500Y-35531652D01*
X159854500Y-35513836D01*
X159852777Y-35497977D01*
X159851774Y-35485505D01*
X159849145Y-35435332D01*
X159849145Y-35435330D01*
X159848510Y-35423219D01*
X159845289Y-35411525D01*
X159843403Y-35399882D01*
X159840868Y-35388354D01*
X159839558Y-35376291D01*
X159835688Y-35364792D01*
X159835687Y-35364787D01*
X159819664Y-35317177D01*
X159816005Y-35305211D01*
X159802660Y-35256761D01*
X159802660Y-35256760D01*
X159799438Y-35245064D01*
X159793778Y-35234329D01*
X159789433Y-35223356D01*
X159784486Y-35212650D01*
X159780617Y-35201152D01*
X159748476Y-35147660D01*
X159742358Y-35136803D01*
X159713254Y-35081602D01*
X159705420Y-35072332D01*
X159698819Y-35062545D01*
X159691690Y-35053153D01*
X159685443Y-35042756D01*
X159677112Y-35033946D01*
X159677108Y-35033941D01*
X159642581Y-34997430D01*
X159634242Y-34988104D01*
X159601810Y-34949726D01*
X159593980Y-34940460D01*
X159584341Y-34933090D01*
X159575818Y-34924974D01*
X159566818Y-34917314D01*
X159558476Y-34908493D01*
X159506859Y-34873414D01*
X159496770Y-34866138D01*
X159447180Y-34828223D01*
X159436192Y-34823099D01*
X159426103Y-34816989D01*
X159415671Y-34811442D01*
X159405640Y-34804625D01*
X159394376Y-34800120D01*
X159394371Y-34800117D01*
X159347721Y-34781459D01*
X159336247Y-34776494D01*
X159279703Y-34750127D01*
X159267858Y-34747479D01*
X159256691Y-34743678D01*
X159245331Y-34740506D01*
X159234065Y-34736000D01*
X159222096Y-34734018D01*
X159222094Y-34734018D01*
X159172525Y-34725812D01*
X159160247Y-34723425D01*
X159108337Y-34711822D01*
X159108327Y-34711821D01*
X159099363Y-34709817D01*
X159093693Y-34709500D01*
X159090571Y-34709500D01*
X159087443Y-34709413D01*
X159087452Y-34709093D01*
X159075855Y-34708139D01*
X159075836Y-34708478D01*
X159063728Y-34707801D01*
X159051756Y-34705819D01*
X159039639Y-34706454D01*
X159039638Y-34706454D01*
X158987375Y-34709193D01*
X158975652Y-34709500D01*
X154012406Y-34709500D01*
X153995855Y-34708139D01*
X153995836Y-34708478D01*
X153983728Y-34707801D01*
X153971756Y-34705819D01*
X153959639Y-34706454D01*
X153959638Y-34706454D01*
X153907375Y-34709193D01*
X153895652Y-34709500D01*
X153877836Y-34709500D01*
X153871829Y-34710153D01*
X153871822Y-34710153D01*
X153861977Y-34711223D01*
X153849505Y-34712226D01*
X153799332Y-34714855D01*
X153799330Y-34714855D01*
X153787219Y-34715490D01*
X153775525Y-34718711D01*
X153763882Y-34720597D01*
X153752354Y-34723132D01*
X153740291Y-34724442D01*
X153728792Y-34728312D01*
X153728787Y-34728313D01*
X153681177Y-34744336D01*
X153669214Y-34747994D01*
X153652021Y-34752730D01*
X153620761Y-34761340D01*
X153620760Y-34761340D01*
X153609064Y-34764562D01*
X153598329Y-34770222D01*
X153587356Y-34774567D01*
X153576650Y-34779514D01*
X153565152Y-34783383D01*
X153511660Y-34815524D01*
X153500803Y-34821642D01*
X153445602Y-34850746D01*
X153436332Y-34858580D01*
X153426545Y-34865181D01*
X153417153Y-34872310D01*
X153406756Y-34878557D01*
X153397946Y-34886888D01*
X153397941Y-34886892D01*
X153361430Y-34921419D01*
X153352111Y-34929752D01*
X153304460Y-34970020D01*
X153297090Y-34979659D01*
X153288974Y-34988182D01*
X153281314Y-34997182D01*
X153272493Y-35005524D01*
X153237414Y-35057141D01*
X153230138Y-35067230D01*
X153192223Y-35116820D01*
X153187099Y-35127808D01*
X153180989Y-35137897D01*
X153175442Y-35148329D01*
X153168625Y-35158360D01*
X153164120Y-35169624D01*
X153164117Y-35169629D01*
X153145459Y-35216279D01*
X153140494Y-35227753D01*
X153114127Y-35284297D01*
X153111479Y-35296142D01*
X153107678Y-35307309D01*
X153104506Y-35318669D01*
X153100000Y-35329935D01*
X153098018Y-35341904D01*
X153098018Y-35341906D01*
X153089812Y-35391475D01*
X153087425Y-35403753D01*
X153075822Y-35455663D01*
X153075821Y-35455673D01*
X153073817Y-35464637D01*
X153073500Y-35470307D01*
X153073500Y-35473429D01*
X153073413Y-35476557D01*
X153073093Y-35476548D01*
X153072139Y-35488145D01*
X153072478Y-35488164D01*
X153071801Y-35500272D01*
X153069819Y-35512244D01*
X153070454Y-35524361D01*
X153070454Y-35524362D01*
X153073193Y-35576625D01*
X153073500Y-35588348D01*
X153073500Y-35619260D01*
X153054134Y-35710369D01*
X152999385Y-35785724D01*
X152918720Y-35832297D01*
X152826086Y-35842033D01*
X152661019Y-35824683D01*
X152650108Y-35825676D01*
X152650104Y-35825676D01*
X152476527Y-35841473D01*
X152476525Y-35841473D01*
X152465618Y-35842466D01*
X152455109Y-35845559D01*
X152287904Y-35894770D01*
X152287902Y-35894771D01*
X152277393Y-35897864D01*
X152228494Y-35923428D01*
X152122084Y-35979058D01*
X152103512Y-35988767D01*
X151950600Y-36111711D01*
X151824480Y-36262016D01*
X151819204Y-36271613D01*
X151819202Y-36271616D01*
X151791364Y-36322254D01*
X151729956Y-36433954D01*
X151726646Y-36444390D01*
X151726645Y-36444391D01*
X151685292Y-36574752D01*
X151670628Y-36620978D01*
X151670218Y-36624637D01*
X151656114Y-36666788D01*
X151634724Y-36712659D01*
X151632357Y-36717578D01*
X151597105Y-36788593D01*
X151594565Y-36798779D01*
X151590127Y-36808297D01*
X151578177Y-36861760D01*
X151572837Y-36885651D01*
X151571577Y-36890981D01*
X151552400Y-36967894D01*
X151552134Y-36977422D01*
X151551823Y-36979664D01*
X151549817Y-36988637D01*
X151549500Y-36994307D01*
X151549500Y-37068589D01*
X151549413Y-37074843D01*
X151547241Y-37152611D01*
X151549047Y-37162079D01*
X151549500Y-37173348D01*
X151549500Y-41205188D01*
X151530134Y-41296297D01*
X151475385Y-41371652D01*
X151394720Y-41418225D01*
X151302086Y-41427961D01*
X151213500Y-41399178D01*
X151144280Y-41336852D01*
X151122487Y-41299855D01*
X151072745Y-41193185D01*
X151034035Y-41110171D01*
X150898495Y-40916599D01*
X150731401Y-40749505D01*
X150575012Y-40640000D01*
X150545845Y-40619577D01*
X150545844Y-40619576D01*
X150537830Y-40613965D01*
X150323663Y-40514097D01*
X150242270Y-40492288D01*
X150104848Y-40455466D01*
X150104844Y-40455465D01*
X150095408Y-40452937D01*
X150085674Y-40452085D01*
X150085672Y-40452085D01*
X149869738Y-40433193D01*
X149860000Y-40432341D01*
X149850262Y-40433193D01*
X149850251Y-40433193D01*
X149823484Y-40435535D01*
X149731034Y-40424185D01*
X149645568Y-40370780D01*
X149358140Y-40083352D01*
X149307410Y-40005234D01*
X149292839Y-39913237D01*
X149316947Y-39823266D01*
X149375564Y-39750879D01*
X149458557Y-39708593D01*
X149492338Y-39702270D01*
X149523655Y-39698868D01*
X149523659Y-39698867D01*
X149535709Y-39697558D01*
X149545661Y-39694209D01*
X149556069Y-39692820D01*
X149567469Y-39688671D01*
X149567472Y-39688670D01*
X149630563Y-39665707D01*
X149635727Y-39663898D01*
X149699354Y-39642485D01*
X149710848Y-39638617D01*
X149719848Y-39633209D01*
X149729715Y-39629618D01*
X149739952Y-39623121D01*
X149739961Y-39623117D01*
X149796637Y-39587149D01*
X149801291Y-39584274D01*
X149858851Y-39549688D01*
X149858852Y-39549687D01*
X149869244Y-39543443D01*
X149876164Y-39536899D01*
X149877982Y-39535524D01*
X149885738Y-39530602D01*
X149889972Y-39526817D01*
X149942527Y-39474262D01*
X149947011Y-39469902D01*
X149973004Y-39445321D01*
X150003507Y-39416476D01*
X150008924Y-39408505D01*
X150016567Y-39400222D01*
X150341029Y-39075759D01*
X150683457Y-38733331D01*
X150697267Y-38720633D01*
X150724268Y-38697816D01*
X150724271Y-38697813D01*
X150733540Y-38689980D01*
X150756982Y-38659319D01*
X150781691Y-38627002D01*
X150785068Y-38622695D01*
X150827129Y-38570382D01*
X150827129Y-38570381D01*
X150834731Y-38560927D01*
X150839401Y-38551520D01*
X150845777Y-38543180D01*
X150879276Y-38471341D01*
X150881649Y-38466409D01*
X150916895Y-38395407D01*
X150919435Y-38385221D01*
X150923873Y-38375703D01*
X150941163Y-38298349D01*
X150942423Y-38293019D01*
X150958666Y-38227873D01*
X150961600Y-38216106D01*
X150961866Y-38206578D01*
X150962177Y-38204336D01*
X150964183Y-38195363D01*
X150964500Y-38189693D01*
X150964500Y-38115411D01*
X150964587Y-38109157D01*
X150965115Y-38090262D01*
X150966759Y-38031389D01*
X150964953Y-38021921D01*
X150964500Y-38010652D01*
X150964500Y-34124406D01*
X150965861Y-34107855D01*
X150965522Y-34107836D01*
X150966199Y-34095728D01*
X150968181Y-34083756D01*
X150964807Y-34019375D01*
X150964500Y-34007652D01*
X150964500Y-33989836D01*
X150962777Y-33973977D01*
X150961774Y-33961505D01*
X150959145Y-33911332D01*
X150959145Y-33911330D01*
X150958510Y-33899219D01*
X150955289Y-33887525D01*
X150953403Y-33875882D01*
X150950868Y-33864354D01*
X150949558Y-33852291D01*
X150937327Y-33815948D01*
X150926621Y-33723421D01*
X150954474Y-33634539D01*
X151016072Y-33564670D01*
X151100762Y-33525895D01*
X151149627Y-33520500D01*
X160819500Y-33520500D01*
X160910609Y-33539866D01*
X160985964Y-33594615D01*
X161032537Y-33675280D01*
X161043500Y-33744500D01*
X161043500Y-69125500D01*
X161024134Y-69216609D01*
X160969385Y-69291964D01*
X160888720Y-69338537D01*
X160819500Y-69349500D01*
X94450500Y-69349500D01*
X94359391Y-69330134D01*
X94284036Y-69275385D01*
X94237463Y-69194720D01*
X94226500Y-69125500D01*
X94226500Y-59704291D01*
X94245866Y-59613182D01*
X94300615Y-59537827D01*
X94381280Y-59491254D01*
X94473914Y-59481518D01*
X94562500Y-59510301D01*
X94631720Y-59572627D01*
X94653513Y-59609624D01*
X94710965Y-59732829D01*
X94846505Y-59926401D01*
X94968892Y-60048788D01*
X95019622Y-60126906D01*
X95034500Y-60207180D01*
X95034500Y-63752951D01*
X95030175Y-63794102D01*
X95028628Y-63798978D01*
X95027407Y-63809864D01*
X95010896Y-63957067D01*
X95006757Y-63993963D01*
X95023175Y-64189483D01*
X95026195Y-64200015D01*
X95026196Y-64200020D01*
X95046739Y-64271659D01*
X95077258Y-64378091D01*
X95166944Y-64552601D01*
X95288818Y-64706369D01*
X95438238Y-64833535D01*
X95609513Y-64929257D01*
X95619927Y-64932641D01*
X95619930Y-64932642D01*
X95771426Y-64981866D01*
X95796118Y-64989889D01*
X95990946Y-65013121D01*
X96107233Y-65004173D01*
X96175650Y-64998909D01*
X96175653Y-64998908D01*
X96186576Y-64998068D01*
X96197129Y-64995122D01*
X96197132Y-64995121D01*
X96364999Y-64948251D01*
X96365003Y-64948250D01*
X96375556Y-64945303D01*
X96550689Y-64856837D01*
X96669815Y-64763766D01*
X96696674Y-64742782D01*
X96696676Y-64742780D01*
X96705303Y-64736040D01*
X96720089Y-64718911D01*
X96826348Y-64595807D01*
X96833509Y-64587511D01*
X96842400Y-64571861D01*
X96925015Y-64426432D01*
X96930425Y-64416909D01*
X96992358Y-64230732D01*
X96996535Y-64197673D01*
X97013359Y-64064488D01*
X97016949Y-64036071D01*
X97017341Y-64008000D01*
X97013549Y-63969327D01*
X96999263Y-63823627D01*
X96999262Y-63823624D01*
X96998194Y-63812728D01*
X96956686Y-63675246D01*
X96944649Y-63635376D01*
X96944648Y-63635373D01*
X96941484Y-63624894D01*
X96936345Y-63615229D01*
X96936343Y-63615224D01*
X96854514Y-63461327D01*
X96854513Y-63461325D01*
X96849370Y-63451653D01*
X96825821Y-63422779D01*
X96785912Y-63373845D01*
X96743336Y-63291000D01*
X96735500Y-63232271D01*
X96735500Y-60207180D01*
X96754866Y-60116071D01*
X96801108Y-60048788D01*
X96923495Y-59926401D01*
X96964830Y-59867368D01*
X97032951Y-59803844D01*
X97121020Y-59773519D01*
X97213810Y-59781636D01*
X97295277Y-59826793D01*
X97329079Y-59863553D01*
X97331412Y-59866741D01*
X97465583Y-60021632D01*
X97478674Y-60034451D01*
X97636339Y-60165347D01*
X97651350Y-60175858D01*
X97828283Y-60279250D01*
X97844803Y-60287165D01*
X98036248Y-60360270D01*
X98053838Y-60365380D01*
X98147931Y-60384523D01*
X98167401Y-60384354D01*
X98171000Y-60372938D01*
X98171000Y-57743531D01*
X98166951Y-57724483D01*
X98151933Y-57722905D01*
X98118301Y-57728051D01*
X98100468Y-57732300D01*
X97905683Y-57795965D01*
X97888797Y-57803063D01*
X97707032Y-57897684D01*
X97691518Y-57907454D01*
X97527652Y-58030489D01*
X97513949Y-58042654D01*
X97372366Y-58190812D01*
X97360841Y-58205045D01*
X97335073Y-58242819D01*
X97267732Y-58307171D01*
X97180040Y-58338569D01*
X97087157Y-58331585D01*
X97005146Y-58287426D01*
X96966538Y-58245072D01*
X96923495Y-58183599D01*
X96756401Y-58016505D01*
X96586707Y-57897684D01*
X96570845Y-57886577D01*
X96570844Y-57886576D01*
X96562830Y-57880965D01*
X96348663Y-57781097D01*
X96274133Y-57761127D01*
X96129848Y-57722466D01*
X96129844Y-57722465D01*
X96120408Y-57719937D01*
X96110674Y-57719085D01*
X96110672Y-57719085D01*
X95894738Y-57700193D01*
X95885000Y-57699341D01*
X95875262Y-57700193D01*
X95659328Y-57719085D01*
X95659326Y-57719085D01*
X95649592Y-57719937D01*
X95640156Y-57722465D01*
X95640152Y-57722466D01*
X95495867Y-57761127D01*
X95421337Y-57781097D01*
X95207171Y-57880965D01*
X95199157Y-57886576D01*
X95199156Y-57886577D01*
X95175926Y-57902843D01*
X95013599Y-58016505D01*
X94846505Y-58183599D01*
X94785388Y-58270883D01*
X94719246Y-58365345D01*
X94710965Y-58377171D01*
X94681710Y-58439908D01*
X94653513Y-58500376D01*
X94597457Y-58574764D01*
X94515990Y-58619922D01*
X94423200Y-58628039D01*
X94335131Y-58597714D01*
X94267009Y-58534189D01*
X94230615Y-58448449D01*
X94226500Y-58405709D01*
X94226500Y-52202200D01*
X95688747Y-52202200D01*
X95726129Y-52486149D01*
X95736141Y-52522747D01*
X95799688Y-52755038D01*
X95799691Y-52755045D01*
X95801702Y-52762398D01*
X95914068Y-53025835D01*
X95917981Y-53032374D01*
X95917983Y-53032377D01*
X96036255Y-53229995D01*
X96061146Y-53271585D01*
X96089775Y-53307320D01*
X96235454Y-53489158D01*
X96235458Y-53489163D01*
X96240215Y-53495100D01*
X96245731Y-53500334D01*
X96245736Y-53500340D01*
X96365155Y-53613664D01*
X96447962Y-53692245D01*
X96680543Y-53859371D01*
X96762774Y-53902910D01*
X96926900Y-53989811D01*
X96926906Y-53989814D01*
X96933653Y-53993386D01*
X97202610Y-54091810D01*
X97210059Y-54093434D01*
X97210062Y-54093435D01*
X97267246Y-54105903D01*
X97482436Y-54152822D01*
X97490034Y-54153420D01*
X97490041Y-54153421D01*
X97613285Y-54163120D01*
X97707053Y-54170500D01*
X97861992Y-54170500D01*
X97865786Y-54170241D01*
X97865796Y-54170241D01*
X97988479Y-54161877D01*
X98075737Y-54155928D01*
X98230844Y-54123807D01*
X98348723Y-54099396D01*
X98348730Y-54099394D01*
X98356186Y-54097850D01*
X98363364Y-54095308D01*
X98363368Y-54095307D01*
X98563012Y-54024609D01*
X98626158Y-54002248D01*
X98829032Y-53897537D01*
X98873881Y-53874389D01*
X98873883Y-53874388D01*
X98880658Y-53870891D01*
X99114976Y-53706209D01*
X99120560Y-53701020D01*
X99120565Y-53701016D01*
X99319187Y-53516445D01*
X99319190Y-53516442D01*
X99324776Y-53511251D01*
X99337996Y-53495100D01*
X99450506Y-53357640D01*
X99506177Y-53289623D01*
X99655820Y-53045427D01*
X99770938Y-52783182D01*
X99849400Y-52507739D01*
X99889754Y-52224196D01*
X99890114Y-52155520D01*
X99890732Y-52037320D01*
X99891253Y-51937800D01*
X99853871Y-51653851D01*
X99815026Y-51511856D01*
X99780312Y-51384962D01*
X99780309Y-51384955D01*
X99778298Y-51377602D01*
X99665932Y-51114165D01*
X99654207Y-51094573D01*
X99522773Y-50874963D01*
X99522772Y-50874962D01*
X99518854Y-50868415D01*
X99447298Y-50779098D01*
X99344546Y-50650842D01*
X99344542Y-50650837D01*
X99339785Y-50644900D01*
X99334269Y-50639666D01*
X99334264Y-50639660D01*
X99137569Y-50453004D01*
X99132038Y-50447755D01*
X98899457Y-50280629D01*
X98756596Y-50204988D01*
X98653100Y-50150189D01*
X98653094Y-50150186D01*
X98646347Y-50146614D01*
X98377390Y-50048190D01*
X98369941Y-50046566D01*
X98369938Y-50046565D01*
X98169098Y-50002775D01*
X98097564Y-49987178D01*
X98089966Y-49986580D01*
X98089959Y-49986579D01*
X97966715Y-49976880D01*
X97872947Y-49969500D01*
X97718008Y-49969500D01*
X97714214Y-49969759D01*
X97714204Y-49969759D01*
X97591521Y-49978123D01*
X97504263Y-49984072D01*
X97374336Y-50010979D01*
X97231277Y-50040604D01*
X97231270Y-50040606D01*
X97223814Y-50042150D01*
X97216636Y-50044692D01*
X97216632Y-50044693D01*
X97098909Y-50086381D01*
X96953842Y-50137752D01*
X96699342Y-50269109D01*
X96465024Y-50433791D01*
X96459440Y-50438980D01*
X96459435Y-50438984D01*
X96290540Y-50595931D01*
X96255224Y-50628749D01*
X96250395Y-50634649D01*
X96250393Y-50634651D01*
X96237141Y-50650842D01*
X96073823Y-50850377D01*
X95924180Y-51094573D01*
X95809062Y-51356818D01*
X95730600Y-51632261D01*
X95690246Y-51915804D01*
X95690206Y-51923427D01*
X95690206Y-51923428D01*
X95689970Y-51968610D01*
X95688747Y-52202200D01*
X94226500Y-52202200D01*
X94226500Y-35282456D01*
X95162000Y-35282456D01*
X95166335Y-35302850D01*
X95168829Y-35304290D01*
X95179626Y-35306000D01*
X96242456Y-35306000D01*
X96262850Y-35301665D01*
X96264290Y-35299171D01*
X96266000Y-35288374D01*
X96266000Y-35282456D01*
X96774000Y-35282456D01*
X96778335Y-35302850D01*
X96780829Y-35304290D01*
X96791626Y-35306000D01*
X98782456Y-35306000D01*
X98802850Y-35301665D01*
X98804290Y-35299171D01*
X98806000Y-35288374D01*
X98806000Y-34248531D01*
X98801951Y-34229483D01*
X98786933Y-34227905D01*
X98753301Y-34233051D01*
X98735468Y-34237300D01*
X98540683Y-34300965D01*
X98523797Y-34308063D01*
X98342032Y-34402684D01*
X98326518Y-34412454D01*
X98155298Y-34541010D01*
X98153828Y-34539052D01*
X98086214Y-34577473D01*
X97993515Y-34586575D01*
X97905129Y-34557186D01*
X97836337Y-34494388D01*
X97821975Y-34471541D01*
X97810602Y-34450769D01*
X97742476Y-34359868D01*
X97720132Y-34337524D01*
X97629228Y-34269396D01*
X97601526Y-34254229D01*
X97493357Y-34213678D01*
X97466244Y-34207231D01*
X97424108Y-34202654D01*
X97412034Y-34202000D01*
X96797544Y-34202000D01*
X96777150Y-34206335D01*
X96775710Y-34208829D01*
X96774000Y-34219626D01*
X96774000Y-35282456D01*
X96266000Y-35282456D01*
X96266000Y-34225545D01*
X96261665Y-34205151D01*
X96259171Y-34203711D01*
X96248374Y-34202001D01*
X95627970Y-34202001D01*
X95615886Y-34202655D01*
X95573761Y-34207231D01*
X95546640Y-34213679D01*
X95438474Y-34254229D01*
X95410772Y-34269396D01*
X95319868Y-34337524D01*
X95297524Y-34359868D01*
X95229396Y-34450772D01*
X95214229Y-34478474D01*
X95173678Y-34586643D01*
X95167231Y-34613756D01*
X95162654Y-34655892D01*
X95162000Y-34667966D01*
X95162000Y-35282456D01*
X94226500Y-35282456D01*
X94226500Y-33744500D01*
X94245866Y-33653391D01*
X94300615Y-33578036D01*
X94381280Y-33531463D01*
X94450500Y-33520500D01*
X117135928Y-33520500D01*
X117227037Y-33539866D01*
G37*
%TD.AperFunction*%
%TA.AperFunction,Conductor*%
G36*
X118407194Y-51453239D02*
G01*
X118479581Y-51511856D01*
X118521867Y-51594849D01*
X118529500Y-51652824D01*
X118529500Y-52132927D01*
X118510134Y-52224036D01*
X118463892Y-52291319D01*
X108015543Y-62739669D01*
X108001733Y-62752367D01*
X107974732Y-62775184D01*
X107974729Y-62775187D01*
X107965460Y-62783020D01*
X107942018Y-62813681D01*
X107917309Y-62845998D01*
X107913932Y-62850305D01*
X107877037Y-62896193D01*
X107864269Y-62912073D01*
X107859599Y-62921480D01*
X107853223Y-62929820D01*
X107839418Y-62959425D01*
X107819724Y-63001659D01*
X107817357Y-63006578D01*
X107782105Y-63077593D01*
X107779565Y-63087779D01*
X107775127Y-63097297D01*
X107761397Y-63158726D01*
X107757837Y-63174651D01*
X107756577Y-63179981D01*
X107756129Y-63181779D01*
X107737400Y-63256894D01*
X107737134Y-63266422D01*
X107736823Y-63268664D01*
X107734817Y-63277637D01*
X107734500Y-63283307D01*
X107734500Y-63357589D01*
X107734413Y-63363843D01*
X107732241Y-63441611D01*
X107734047Y-63451079D01*
X107734500Y-63462348D01*
X107734500Y-66152820D01*
X107715134Y-66243929D01*
X107668892Y-66311212D01*
X107546505Y-66433599D01*
X107540896Y-66441610D01*
X107498490Y-66502172D01*
X107430369Y-66565696D01*
X107342299Y-66596021D01*
X107249509Y-66587903D01*
X107168043Y-66542746D01*
X107131510Y-66502172D01*
X107089104Y-66441610D01*
X107083495Y-66433599D01*
X106916401Y-66266505D01*
X106722830Y-66130965D01*
X106508663Y-66031097D01*
X106426520Y-66009087D01*
X106289848Y-65972466D01*
X106289844Y-65972465D01*
X106280408Y-65969937D01*
X106270674Y-65969085D01*
X106270672Y-65969085D01*
X106054738Y-65950193D01*
X106045000Y-65949341D01*
X106035262Y-65950193D01*
X105819328Y-65969085D01*
X105819326Y-65969085D01*
X105809592Y-65969937D01*
X105800156Y-65972465D01*
X105800152Y-65972466D01*
X105663480Y-66009087D01*
X105581337Y-66031097D01*
X105367171Y-66130965D01*
X105173599Y-66266505D01*
X105006505Y-66433599D01*
X105000896Y-66441610D01*
X104958490Y-66502172D01*
X104890369Y-66565696D01*
X104802299Y-66596021D01*
X104709509Y-66587903D01*
X104628043Y-66542746D01*
X104591510Y-66502172D01*
X104549104Y-66441610D01*
X104543495Y-66433599D01*
X104421108Y-66311212D01*
X104370378Y-66233094D01*
X104355500Y-66152820D01*
X104355500Y-65292360D01*
X104374866Y-65201251D01*
X104409934Y-65145993D01*
X104415029Y-65140091D01*
X104453509Y-65095511D01*
X104487945Y-65034894D01*
X104529343Y-64962020D01*
X104550425Y-64924909D01*
X104612358Y-64738732D01*
X104613746Y-64727749D01*
X104635871Y-64552601D01*
X104636949Y-64544071D01*
X104637341Y-64516000D01*
X104636730Y-64509766D01*
X104619263Y-64331627D01*
X104619262Y-64331624D01*
X104618194Y-64320728D01*
X104579892Y-64193865D01*
X104564649Y-64143376D01*
X104564648Y-64143373D01*
X104561484Y-64132894D01*
X104556345Y-64123229D01*
X104556343Y-64123224D01*
X104474514Y-63969327D01*
X104474513Y-63969325D01*
X104469370Y-63959653D01*
X104345361Y-63807602D01*
X104344177Y-63806622D01*
X104296114Y-63732045D01*
X104281864Y-63639997D01*
X104306285Y-63550111D01*
X104365155Y-63477929D01*
X104448294Y-63435932D01*
X104505515Y-63428500D01*
X105815585Y-63428500D01*
X105834329Y-63429286D01*
X105869563Y-63432245D01*
X105869566Y-63432245D01*
X105881654Y-63433260D01*
X105960241Y-63422775D01*
X105965620Y-63422123D01*
X105990812Y-63419386D01*
X106032406Y-63414868D01*
X106032409Y-63414867D01*
X106044461Y-63413558D01*
X106054413Y-63410209D01*
X106064821Y-63408820D01*
X106076221Y-63404671D01*
X106076224Y-63404670D01*
X106139315Y-63381707D01*
X106144479Y-63379898D01*
X106162465Y-63373845D01*
X106219600Y-63354617D01*
X106228600Y-63349209D01*
X106238467Y-63345618D01*
X106248704Y-63339121D01*
X106248713Y-63339117D01*
X106305389Y-63303149D01*
X106310043Y-63300274D01*
X106367603Y-63265688D01*
X106367604Y-63265687D01*
X106377996Y-63259443D01*
X106384916Y-63252899D01*
X106386734Y-63251524D01*
X106394490Y-63246602D01*
X106398724Y-63242817D01*
X106451280Y-63190261D01*
X106455764Y-63185901D01*
X106484501Y-63158726D01*
X106512259Y-63132476D01*
X106517676Y-63124505D01*
X106525319Y-63116222D01*
X112327357Y-57314184D01*
X118147108Y-51494432D01*
X118225226Y-51443702D01*
X118317223Y-51429131D01*
X118407194Y-51453239D01*
G37*
%TD.AperFunction*%
%TA.AperFunction,Conductor*%
G36*
X120033303Y-53346379D02*
G01*
X120089998Y-53387569D01*
X122082071Y-55379642D01*
X122132801Y-55457760D01*
X122147372Y-55549757D01*
X122123264Y-55639728D01*
X122095277Y-55682014D01*
X121979480Y-55820016D01*
X121974204Y-55829613D01*
X121974202Y-55829616D01*
X121933742Y-55903213D01*
X121884956Y-55991954D01*
X121881645Y-56002392D01*
X121846968Y-56111705D01*
X121800960Y-56192693D01*
X121791846Y-56202365D01*
X120715543Y-57278669D01*
X120701733Y-57291367D01*
X120674732Y-57314184D01*
X120674729Y-57314187D01*
X120665460Y-57322020D01*
X120658087Y-57331664D01*
X120617309Y-57384998D01*
X120613932Y-57389305D01*
X120571871Y-57441618D01*
X120564269Y-57451073D01*
X120559599Y-57460480D01*
X120553223Y-57468820D01*
X120539468Y-57498319D01*
X120519724Y-57540659D01*
X120517357Y-57545578D01*
X120482105Y-57616593D01*
X120479565Y-57626779D01*
X120475127Y-57636297D01*
X120461036Y-57699341D01*
X120457837Y-57713651D01*
X120456577Y-57718981D01*
X120437400Y-57795894D01*
X120437134Y-57805422D01*
X120436823Y-57807664D01*
X120434817Y-57816637D01*
X120434500Y-57822307D01*
X120434500Y-57896589D01*
X120434413Y-57902843D01*
X120432241Y-57980611D01*
X120434047Y-57990079D01*
X120434500Y-58001348D01*
X120434500Y-66152820D01*
X120415134Y-66243929D01*
X120368892Y-66311212D01*
X120246505Y-66433599D01*
X120240896Y-66441610D01*
X120198490Y-66502172D01*
X120130369Y-66565696D01*
X120042299Y-66596021D01*
X119949509Y-66587903D01*
X119868043Y-66542746D01*
X119831510Y-66502172D01*
X119789104Y-66441610D01*
X119783495Y-66433599D01*
X119616401Y-66266505D01*
X119564019Y-66229827D01*
X119500495Y-66161706D01*
X119470170Y-66073637D01*
X119468500Y-66046337D01*
X119468500Y-65357662D01*
X119487866Y-65266553D01*
X119497733Y-65247019D01*
X119531015Y-65188432D01*
X119536425Y-65178909D01*
X119598358Y-64992732D01*
X119602535Y-64959673D01*
X119619366Y-64826435D01*
X119622949Y-64798071D01*
X119623341Y-64770000D01*
X119621465Y-64750866D01*
X119605263Y-64585627D01*
X119605262Y-64585624D01*
X119604194Y-64574728D01*
X119569710Y-64460511D01*
X119550649Y-64397376D01*
X119550648Y-64397373D01*
X119547484Y-64386894D01*
X119542345Y-64377229D01*
X119542343Y-64377224D01*
X119460514Y-64223327D01*
X119460513Y-64223325D01*
X119455370Y-64213653D01*
X119379238Y-64120305D01*
X119338287Y-64070094D01*
X119338286Y-64070093D01*
X119331361Y-64061602D01*
X119274140Y-64014265D01*
X119188624Y-63943520D01*
X119188621Y-63943518D01*
X119180180Y-63936535D01*
X119089057Y-63887265D01*
X119017225Y-63848425D01*
X119017222Y-63848424D01*
X119007585Y-63843213D01*
X118930299Y-63819289D01*
X118830619Y-63788433D01*
X118830618Y-63788433D01*
X118820152Y-63785193D01*
X118625019Y-63764683D01*
X118614108Y-63765676D01*
X118614104Y-63765676D01*
X118440527Y-63781473D01*
X118440525Y-63781473D01*
X118429618Y-63782466D01*
X118419109Y-63785559D01*
X118251904Y-63834770D01*
X118251900Y-63834772D01*
X118241393Y-63837864D01*
X118170806Y-63874766D01*
X118084016Y-63920139D01*
X118067512Y-63928767D01*
X117914600Y-64051711D01*
X117788480Y-64202016D01*
X117693956Y-64373954D01*
X117690646Y-64384390D01*
X117690645Y-64384391D01*
X117680330Y-64416909D01*
X117634628Y-64560978D01*
X117633408Y-64571858D01*
X117633407Y-64571861D01*
X117614690Y-64738732D01*
X117612757Y-64755963D01*
X117629175Y-64951483D01*
X117632195Y-64962015D01*
X117632196Y-64962020D01*
X117659041Y-65055637D01*
X117683258Y-65140091D01*
X117724126Y-65219611D01*
X117742729Y-65255809D01*
X117767151Y-65345695D01*
X117767500Y-65358199D01*
X117767500Y-66280705D01*
X117748134Y-66371814D01*
X117715094Y-66424690D01*
X117713425Y-66426679D01*
X117706505Y-66433599D01*
X117700896Y-66441610D01*
X117700892Y-66441615D01*
X117658490Y-66502172D01*
X117590369Y-66565696D01*
X117502299Y-66596021D01*
X117409509Y-66587903D01*
X117328043Y-66542746D01*
X117291510Y-66502172D01*
X117249104Y-66441610D01*
X117243495Y-66433599D01*
X117076401Y-66266505D01*
X116882830Y-66130965D01*
X116668663Y-66031097D01*
X116586520Y-66009087D01*
X116449848Y-65972466D01*
X116449844Y-65972465D01*
X116440408Y-65969937D01*
X116430674Y-65969085D01*
X116430672Y-65969085D01*
X116214738Y-65950193D01*
X116205000Y-65949341D01*
X116195262Y-65950193D01*
X115979328Y-65969085D01*
X115979326Y-65969085D01*
X115969592Y-65969937D01*
X115960156Y-65972465D01*
X115960152Y-65972466D01*
X115823480Y-66009087D01*
X115741337Y-66031097D01*
X115527171Y-66130965D01*
X115333599Y-66266505D01*
X115166505Y-66433599D01*
X115160896Y-66441610D01*
X115118490Y-66502172D01*
X115050369Y-66565696D01*
X114962299Y-66596021D01*
X114869509Y-66587903D01*
X114788043Y-66542746D01*
X114751510Y-66502172D01*
X114709104Y-66441610D01*
X114703495Y-66433599D01*
X114581108Y-66311212D01*
X114530378Y-66233094D01*
X114515500Y-66152820D01*
X114515500Y-65088073D01*
X114534866Y-64996964D01*
X114581107Y-64929682D01*
X114713679Y-64797109D01*
X114791797Y-64746378D01*
X114872072Y-64731500D01*
X115363560Y-64731500D01*
X115454669Y-64750866D01*
X115472840Y-64759965D01*
X115529815Y-64791807D01*
X115548513Y-64802257D01*
X115558927Y-64805641D01*
X115558930Y-64805642D01*
X115644776Y-64833535D01*
X115735118Y-64862889D01*
X115929946Y-64886121D01*
X116046233Y-64877173D01*
X116114650Y-64871909D01*
X116114653Y-64871908D01*
X116125576Y-64871068D01*
X116136129Y-64868122D01*
X116136132Y-64868121D01*
X116303999Y-64821251D01*
X116304003Y-64821250D01*
X116314556Y-64818303D01*
X116489689Y-64729837D01*
X116566996Y-64669438D01*
X116635674Y-64615782D01*
X116635676Y-64615780D01*
X116644303Y-64609040D01*
X116655726Y-64595807D01*
X116746996Y-64490068D01*
X116772509Y-64460511D01*
X116780002Y-64447322D01*
X116864015Y-64299432D01*
X116869425Y-64289909D01*
X116931358Y-64103732D01*
X116935608Y-64070094D01*
X116952090Y-63939621D01*
X116955949Y-63909071D01*
X116956341Y-63881000D01*
X116955730Y-63874766D01*
X116938263Y-63696627D01*
X116938262Y-63696624D01*
X116937194Y-63685728D01*
X116898892Y-63558865D01*
X116883649Y-63508376D01*
X116883648Y-63508373D01*
X116880484Y-63497894D01*
X116875345Y-63488229D01*
X116875343Y-63488224D01*
X116793514Y-63334327D01*
X116793513Y-63334325D01*
X116788370Y-63324653D01*
X116768487Y-63300274D01*
X116671287Y-63181094D01*
X116671286Y-63181093D01*
X116664361Y-63172602D01*
X116621867Y-63137448D01*
X116521624Y-63054520D01*
X116521621Y-63054518D01*
X116513180Y-63047535D01*
X116423245Y-62998907D01*
X116350225Y-62959425D01*
X116350222Y-62959424D01*
X116340585Y-62954213D01*
X116232354Y-62920710D01*
X116151046Y-62875269D01*
X116095251Y-62800685D01*
X116074615Y-62709855D01*
X116092707Y-62618485D01*
X116146398Y-62542372D01*
X116160686Y-62530213D01*
X116254670Y-62456786D01*
X116254677Y-62456779D01*
X116263303Y-62450040D01*
X116280138Y-62430537D01*
X116358737Y-62339478D01*
X116391509Y-62301511D01*
X116488425Y-62130909D01*
X116550358Y-61944732D01*
X116574949Y-61750071D01*
X116575341Y-61722000D01*
X116574730Y-61715766D01*
X116557263Y-61537627D01*
X116557262Y-61537624D01*
X116556194Y-61526728D01*
X116527839Y-61432811D01*
X116502649Y-61349376D01*
X116502648Y-61349373D01*
X116499484Y-61338894D01*
X116494345Y-61329229D01*
X116494343Y-61329224D01*
X116412514Y-61175327D01*
X116412513Y-61175325D01*
X116407370Y-61165653D01*
X116283361Y-61013602D01*
X116225098Y-60965403D01*
X116140624Y-60895520D01*
X116140621Y-60895518D01*
X116132180Y-60888535D01*
X116016713Y-60826102D01*
X115969225Y-60800425D01*
X115969222Y-60800424D01*
X115959585Y-60795213D01*
X115772152Y-60737193D01*
X115577019Y-60716683D01*
X115566108Y-60717676D01*
X115566104Y-60717676D01*
X115392527Y-60733473D01*
X115392525Y-60733473D01*
X115381618Y-60734466D01*
X115193393Y-60789864D01*
X115183684Y-60794940D01*
X115183681Y-60794941D01*
X115085997Y-60846009D01*
X114996283Y-60871058D01*
X114982218Y-60871500D01*
X113456167Y-60871500D01*
X113437423Y-60870714D01*
X113402189Y-60867755D01*
X113402186Y-60867755D01*
X113390098Y-60866740D01*
X113311511Y-60877225D01*
X113306132Y-60877877D01*
X113280940Y-60880614D01*
X113239346Y-60885132D01*
X113239343Y-60885133D01*
X113227291Y-60886442D01*
X113217339Y-60889791D01*
X113206931Y-60891180D01*
X113195531Y-60895329D01*
X113195528Y-60895330D01*
X113132437Y-60918293D01*
X113127274Y-60920102D01*
X113052152Y-60945383D01*
X113043152Y-60950791D01*
X113033285Y-60954382D01*
X113023048Y-60960879D01*
X113023039Y-60960883D01*
X112966363Y-60996851D01*
X112961709Y-60999726D01*
X112893756Y-61040557D01*
X112886836Y-61047101D01*
X112885018Y-61048476D01*
X112877262Y-61053398D01*
X112873028Y-61057183D01*
X112820472Y-61109739D01*
X112815988Y-61114099D01*
X112759493Y-61167524D01*
X112754076Y-61175495D01*
X112746433Y-61183778D01*
X110555543Y-63374669D01*
X110541733Y-63387367D01*
X110514732Y-63410184D01*
X110514729Y-63410187D01*
X110505460Y-63418020D01*
X110482641Y-63447866D01*
X110457309Y-63480998D01*
X110453932Y-63485305D01*
X110411871Y-63537618D01*
X110404269Y-63547073D01*
X110399599Y-63556480D01*
X110393223Y-63564820D01*
X110381786Y-63589348D01*
X110359724Y-63636659D01*
X110357357Y-63641578D01*
X110322105Y-63712593D01*
X110319565Y-63722779D01*
X110315127Y-63732297D01*
X110307929Y-63764500D01*
X110297837Y-63809651D01*
X110296577Y-63814981D01*
X110277400Y-63891894D01*
X110277134Y-63901422D01*
X110276823Y-63903664D01*
X110274817Y-63912637D01*
X110274500Y-63918307D01*
X110274500Y-63992589D01*
X110274413Y-63998843D01*
X110272241Y-64076611D01*
X110274047Y-64086079D01*
X110274500Y-64097348D01*
X110274500Y-66152820D01*
X110255134Y-66243929D01*
X110208892Y-66311212D01*
X110086505Y-66433599D01*
X110080896Y-66441610D01*
X110038490Y-66502172D01*
X109970369Y-66565696D01*
X109882299Y-66596021D01*
X109789509Y-66587903D01*
X109708043Y-66542746D01*
X109671510Y-66502172D01*
X109629104Y-66441610D01*
X109623495Y-66433599D01*
X109501108Y-66311212D01*
X109450378Y-66233094D01*
X109435500Y-66152820D01*
X109435500Y-63818073D01*
X109454866Y-63726964D01*
X109501108Y-63659681D01*
X119773217Y-53387572D01*
X119851335Y-53336842D01*
X119943332Y-53322271D01*
X120033303Y-53346379D01*
G37*
%TD.AperFunction*%
%TA.AperFunction,Conductor*%
G36*
X123519240Y-40716442D02*
G01*
X123591627Y-40775059D01*
X123626386Y-40845087D01*
X123629180Y-40844070D01*
X123656293Y-40918563D01*
X123658102Y-40923726D01*
X123683383Y-40998848D01*
X123688791Y-41007848D01*
X123692382Y-41017715D01*
X123698879Y-41027952D01*
X123698883Y-41027961D01*
X123734851Y-41084637D01*
X123737726Y-41089291D01*
X123755600Y-41119037D01*
X123778557Y-41157244D01*
X123785101Y-41164164D01*
X123786476Y-41165982D01*
X123791398Y-41173738D01*
X123795183Y-41177972D01*
X123847738Y-41230527D01*
X123852098Y-41235011D01*
X123905524Y-41291507D01*
X123913495Y-41296924D01*
X123921778Y-41304567D01*
X124205271Y-41588060D01*
X124256001Y-41666178D01*
X124262201Y-41684708D01*
X124281350Y-41751486D01*
X124287258Y-41772091D01*
X124292266Y-41781836D01*
X124292267Y-41781838D01*
X124328448Y-41852238D01*
X124376944Y-41946601D01*
X124421674Y-42003037D01*
X124485773Y-42083910D01*
X124498818Y-42100369D01*
X124648238Y-42227535D01*
X124819513Y-42323257D01*
X124829927Y-42326641D01*
X124829930Y-42326642D01*
X124965871Y-42370812D01*
X125006118Y-42383889D01*
X125200946Y-42407121D01*
X125317233Y-42398173D01*
X125385650Y-42392909D01*
X125385653Y-42392908D01*
X125396576Y-42392068D01*
X125407129Y-42389122D01*
X125407132Y-42389121D01*
X125574999Y-42342251D01*
X125575003Y-42342250D01*
X125585556Y-42339303D01*
X125687446Y-42287835D01*
X125777499Y-42264041D01*
X125869446Y-42278933D01*
X125947386Y-42329936D01*
X125997843Y-42408230D01*
X126012093Y-42500278D01*
X126011046Y-42512742D01*
X125994757Y-42657963D01*
X126011175Y-42853483D01*
X126065258Y-43042091D01*
X126103205Y-43115928D01*
X126124729Y-43157809D01*
X126149151Y-43247695D01*
X126149500Y-43260199D01*
X126149500Y-47164664D01*
X126130134Y-47255773D01*
X126121794Y-47272575D01*
X126075956Y-47355954D01*
X126016628Y-47542978D01*
X125994757Y-47737963D01*
X126011175Y-47933483D01*
X126065258Y-48122091D01*
X126154944Y-48296601D01*
X126161748Y-48305185D01*
X126269077Y-48440602D01*
X126276818Y-48450369D01*
X126426238Y-48577535D01*
X126597513Y-48673257D01*
X126607927Y-48676641D01*
X126607930Y-48676642D01*
X126773703Y-48730505D01*
X126784118Y-48733889D01*
X126978946Y-48757121D01*
X127167815Y-48742588D01*
X127260140Y-48754907D01*
X127339473Y-48803713D01*
X127392097Y-48880568D01*
X127408999Y-48965928D01*
X127408999Y-50996246D01*
X127408213Y-51014990D01*
X127404239Y-51062315D01*
X127414720Y-51140865D01*
X127415376Y-51146281D01*
X127416509Y-51156710D01*
X127422180Y-51208909D01*
X127423941Y-51225122D01*
X127427290Y-51235074D01*
X127428679Y-51245482D01*
X127432828Y-51256882D01*
X127432829Y-51256885D01*
X127455792Y-51319976D01*
X127457601Y-51325139D01*
X127482882Y-51400261D01*
X127488290Y-51409261D01*
X127491881Y-51419128D01*
X127498378Y-51429365D01*
X127498382Y-51429374D01*
X127534350Y-51486050D01*
X127537225Y-51490704D01*
X127578056Y-51558657D01*
X127584600Y-51565577D01*
X127585975Y-51567395D01*
X127590897Y-51575151D01*
X127594682Y-51579385D01*
X127647237Y-51631940D01*
X127651597Y-51636424D01*
X127705023Y-51692920D01*
X127712994Y-51698337D01*
X127721277Y-51705980D01*
X129169696Y-53154397D01*
X129628963Y-53613664D01*
X129679693Y-53691781D01*
X129682862Y-53700584D01*
X129696384Y-53740763D01*
X129701792Y-53749763D01*
X129705383Y-53759630D01*
X129711880Y-53769867D01*
X129711884Y-53769876D01*
X129747852Y-53826552D01*
X129750727Y-53831206D01*
X129774573Y-53870891D01*
X129791558Y-53899159D01*
X129798102Y-53906079D01*
X129799477Y-53907897D01*
X129804399Y-53915653D01*
X129808184Y-53919887D01*
X129860740Y-53972443D01*
X129865100Y-53976927D01*
X129918525Y-54033422D01*
X129926496Y-54038839D01*
X129934779Y-54046482D01*
X132527822Y-56639525D01*
X132578552Y-56717643D01*
X132593123Y-56809640D01*
X132569015Y-56899611D01*
X132509789Y-56972489D01*
X132392600Y-57066711D01*
X132385555Y-57075107D01*
X132274294Y-57207704D01*
X132266480Y-57217016D01*
X132261204Y-57226613D01*
X132261202Y-57226616D01*
X132198909Y-57339927D01*
X132171956Y-57388954D01*
X132168646Y-57399390D01*
X132168645Y-57399391D01*
X132151204Y-57454372D01*
X132112628Y-57575978D01*
X132111408Y-57586858D01*
X132111407Y-57586861D01*
X132093452Y-57746939D01*
X132090757Y-57770963D01*
X132107175Y-57966483D01*
X132110195Y-57977015D01*
X132110196Y-57977020D01*
X132136922Y-58070221D01*
X132161258Y-58155091D01*
X132250944Y-58329601D01*
X132277788Y-58363470D01*
X132358242Y-58464978D01*
X132372818Y-58483369D01*
X132522238Y-58610535D01*
X132531802Y-58615880D01*
X132652676Y-58683434D01*
X132701788Y-58720577D01*
X133703892Y-59722681D01*
X133754622Y-59800799D01*
X133769500Y-59881073D01*
X133769500Y-63684927D01*
X133750134Y-63776036D01*
X133703892Y-63843319D01*
X132679091Y-64868121D01*
X131659432Y-65887780D01*
X131581314Y-65938510D01*
X131481516Y-65952535D01*
X131454749Y-65950193D01*
X131454738Y-65950193D01*
X131445000Y-65949341D01*
X131435262Y-65950193D01*
X131219328Y-65969085D01*
X131219326Y-65969085D01*
X131209592Y-65969937D01*
X131200156Y-65972465D01*
X131200152Y-65972466D01*
X131063480Y-66009087D01*
X130981337Y-66031097D01*
X130767171Y-66130965D01*
X130759157Y-66136576D01*
X130759156Y-66136577D01*
X130742981Y-66147903D01*
X130657241Y-66184298D01*
X130564111Y-66182672D01*
X130479693Y-66143307D01*
X130418585Y-66073010D01*
X130391352Y-65983936D01*
X130390500Y-65964413D01*
X130390500Y-57449167D01*
X130391286Y-57430423D01*
X130394245Y-57395189D01*
X130394245Y-57395186D01*
X130395260Y-57383098D01*
X130384775Y-57304511D01*
X130384121Y-57299114D01*
X130383280Y-57291367D01*
X130380084Y-57261954D01*
X130376868Y-57232346D01*
X130376867Y-57232343D01*
X130375558Y-57220291D01*
X130372209Y-57210339D01*
X130370820Y-57199931D01*
X130359761Y-57169546D01*
X130343707Y-57125437D01*
X130341898Y-57120273D01*
X130320485Y-57056646D01*
X130316617Y-57045152D01*
X130311209Y-57036152D01*
X130307618Y-57026285D01*
X130301121Y-57016048D01*
X130301117Y-57016039D01*
X130265149Y-56959363D01*
X130262274Y-56954709D01*
X130227688Y-56897149D01*
X130227687Y-56897148D01*
X130221443Y-56886756D01*
X130214899Y-56879836D01*
X130213524Y-56878018D01*
X130208602Y-56870262D01*
X130204817Y-56866028D01*
X130152262Y-56813473D01*
X130147902Y-56808989D01*
X130130998Y-56791114D01*
X130094476Y-56752493D01*
X130086505Y-56747076D01*
X130078222Y-56739433D01*
X129540758Y-56201970D01*
X129490028Y-56123853D01*
X129484710Y-56108321D01*
X129456649Y-56015377D01*
X129453484Y-56004894D01*
X129361370Y-55831653D01*
X129292663Y-55747409D01*
X129244287Y-55688094D01*
X129244286Y-55688093D01*
X129237361Y-55679602D01*
X129189161Y-55639728D01*
X129094624Y-55561520D01*
X129094621Y-55561518D01*
X129086180Y-55554535D01*
X129010256Y-55513483D01*
X128923225Y-55466425D01*
X128923222Y-55466424D01*
X128913585Y-55461213D01*
X128726152Y-55403193D01*
X128531019Y-55382683D01*
X128520108Y-55383676D01*
X128520104Y-55383676D01*
X128346527Y-55399473D01*
X128346525Y-55399473D01*
X128335618Y-55400466D01*
X128325109Y-55403559D01*
X128157904Y-55452770D01*
X128157900Y-55452772D01*
X128147393Y-55455864D01*
X127973512Y-55546767D01*
X127820600Y-55669711D01*
X127813558Y-55678103D01*
X127809922Y-55681664D01*
X127731278Y-55731574D01*
X127639133Y-55745182D01*
X127549420Y-55720135D01*
X127494807Y-55680018D01*
X127060914Y-55246125D01*
X127010184Y-55168008D01*
X126995613Y-55076011D01*
X127019721Y-54986040D01*
X127081398Y-54911219D01*
X127176674Y-54836782D01*
X127176676Y-54836780D01*
X127185303Y-54830040D01*
X127313509Y-54681511D01*
X127410425Y-54510909D01*
X127472358Y-54324732D01*
X127475853Y-54297071D01*
X127493617Y-54156447D01*
X127496949Y-54130071D01*
X127497143Y-54116149D01*
X127497254Y-54108265D01*
X127497254Y-54108256D01*
X127497341Y-54102000D01*
X127492127Y-54048821D01*
X127479263Y-53917627D01*
X127479262Y-53917624D01*
X127478194Y-53906728D01*
X127436876Y-53769876D01*
X127424649Y-53729376D01*
X127424648Y-53729373D01*
X127421484Y-53718894D01*
X127416345Y-53709229D01*
X127416343Y-53709224D01*
X127334514Y-53555327D01*
X127334513Y-53555325D01*
X127329370Y-53545653D01*
X127205361Y-53393602D01*
X127117444Y-53320871D01*
X127062624Y-53275520D01*
X127062621Y-53275518D01*
X127054180Y-53268535D01*
X126978256Y-53227483D01*
X126891225Y-53180425D01*
X126891222Y-53180424D01*
X126881585Y-53175213D01*
X126770036Y-53140683D01*
X126688728Y-53095242D01*
X126677882Y-53085093D01*
X125630108Y-52037320D01*
X125579378Y-51959203D01*
X125564500Y-51878928D01*
X125564500Y-50845155D01*
X125565286Y-50826411D01*
X125568244Y-50791189D01*
X125568244Y-50791186D01*
X125569259Y-50779098D01*
X125558781Y-50700565D01*
X125558123Y-50695133D01*
X125550868Y-50628347D01*
X125550867Y-50628344D01*
X125549558Y-50616291D01*
X125546209Y-50606339D01*
X125544820Y-50595931D01*
X125517683Y-50521373D01*
X125515915Y-50516325D01*
X125490617Y-50441152D01*
X125485210Y-50432154D01*
X125481618Y-50422284D01*
X125439109Y-50355303D01*
X125436299Y-50350752D01*
X125395443Y-50282756D01*
X125388902Y-50275838D01*
X125387527Y-50274020D01*
X125382602Y-50266261D01*
X125378817Y-50262028D01*
X125326261Y-50209472D01*
X125321901Y-50204988D01*
X125276810Y-50157306D01*
X125268476Y-50148493D01*
X125260505Y-50143076D01*
X125252222Y-50135433D01*
X124679716Y-49562927D01*
X124106108Y-48989320D01*
X124055378Y-48911203D01*
X124040500Y-48830928D01*
X124040500Y-44529662D01*
X124059866Y-44438553D01*
X124069733Y-44419019D01*
X124103015Y-44360432D01*
X124108425Y-44350909D01*
X124170358Y-44164732D01*
X124171858Y-44152864D01*
X124188759Y-44019069D01*
X124194949Y-43970071D01*
X124195341Y-43942000D01*
X124193173Y-43919886D01*
X124177263Y-43757627D01*
X124177262Y-43757624D01*
X124176194Y-43746728D01*
X124143782Y-43639374D01*
X124122649Y-43569376D01*
X124122648Y-43569373D01*
X124119484Y-43558894D01*
X124114345Y-43549229D01*
X124114343Y-43549224D01*
X124032514Y-43395327D01*
X124032513Y-43395325D01*
X124027370Y-43385653D01*
X123903361Y-43233602D01*
X123858152Y-43196202D01*
X123760624Y-43115520D01*
X123760621Y-43115518D01*
X123752180Y-43108535D01*
X123629295Y-43042091D01*
X123589225Y-43020425D01*
X123589222Y-43020424D01*
X123579585Y-43015213D01*
X123392152Y-42957193D01*
X123197019Y-42936683D01*
X123186108Y-42937676D01*
X123186104Y-42937676D01*
X123012527Y-42953473D01*
X123012525Y-42953473D01*
X123001618Y-42954466D01*
X122991109Y-42957559D01*
X122823904Y-43006770D01*
X122823900Y-43006772D01*
X122813393Y-43009864D01*
X122751749Y-43042091D01*
X122650178Y-43095191D01*
X122639512Y-43100767D01*
X122629851Y-43108535D01*
X122626857Y-43110942D01*
X122622732Y-43113025D01*
X122621810Y-43113629D01*
X122621742Y-43113526D01*
X122543717Y-43152937D01*
X122450684Y-43157486D01*
X122363843Y-43123802D01*
X122298211Y-43057708D01*
X122265136Y-42970634D01*
X122262500Y-42936368D01*
X122262500Y-41847503D01*
X122281866Y-41756394D01*
X122313340Y-41706417D01*
X122317507Y-41702476D01*
X122322927Y-41694501D01*
X122330567Y-41686222D01*
X123259154Y-40757635D01*
X123337272Y-40706905D01*
X123429269Y-40692334D01*
X123519240Y-40716442D01*
G37*
%TD.AperFunction*%
%TA.AperFunction,Conductor*%
G36*
X146338325Y-41011357D02*
G01*
X146410712Y-41069974D01*
X146435860Y-41108552D01*
X146474944Y-41184601D01*
X146514898Y-41235011D01*
X146589919Y-41329664D01*
X146596818Y-41338369D01*
X146746238Y-41465535D01*
X146917513Y-41561257D01*
X146927927Y-41564641D01*
X146927930Y-41564642D01*
X147092100Y-41617984D01*
X147104118Y-41621889D01*
X147298946Y-41645121D01*
X147421395Y-41635699D01*
X147483650Y-41630909D01*
X147483653Y-41630908D01*
X147494576Y-41630068D01*
X147505129Y-41627122D01*
X147505132Y-41627121D01*
X147645029Y-41588060D01*
X147683556Y-41577303D01*
X147807766Y-41514560D01*
X147897818Y-41490767D01*
X147908760Y-41490500D01*
X148266927Y-41490500D01*
X148358036Y-41509866D01*
X148425319Y-41556108D01*
X148442780Y-41573569D01*
X148493510Y-41651687D01*
X148507535Y-41751486D01*
X148505193Y-41778252D01*
X148505193Y-41778262D01*
X148504341Y-41788000D01*
X148505193Y-41797738D01*
X148520259Y-41969934D01*
X148524937Y-42023408D01*
X148527465Y-42032844D01*
X148527466Y-42032848D01*
X148572113Y-42199473D01*
X148586097Y-42251663D01*
X148685965Y-42465829D01*
X148821505Y-42659401D01*
X148829402Y-42667298D01*
X148829943Y-42668132D01*
X148834708Y-42673810D01*
X148834011Y-42674395D01*
X148880132Y-42745416D01*
X148894703Y-42837413D01*
X148870595Y-42927384D01*
X148811978Y-42999771D01*
X148778585Y-43022168D01*
X148750770Y-43037397D01*
X148659868Y-43105524D01*
X148637524Y-43127868D01*
X148569396Y-43218772D01*
X148554229Y-43246474D01*
X148513678Y-43354643D01*
X148507231Y-43381756D01*
X148502654Y-43423892D01*
X148502000Y-43435966D01*
X148502000Y-44050456D01*
X148506335Y-44070850D01*
X148508829Y-44072290D01*
X148519626Y-44074000D01*
X149890000Y-44074000D01*
X149981109Y-44093366D01*
X150056464Y-44148115D01*
X150103037Y-44228780D01*
X150114000Y-44298000D01*
X150114000Y-45662455D01*
X150118335Y-45682849D01*
X150120829Y-45684289D01*
X150131626Y-45685999D01*
X150752030Y-45685999D01*
X150764114Y-45685345D01*
X150806239Y-45680769D01*
X150833360Y-45674321D01*
X150941526Y-45633771D01*
X150969228Y-45618604D01*
X151060132Y-45550476D01*
X151082476Y-45528132D01*
X151146253Y-45443034D01*
X151216390Y-45381741D01*
X151305392Y-45354275D01*
X151397872Y-45365384D01*
X151477838Y-45413148D01*
X151531463Y-45489307D01*
X151549500Y-45577371D01*
X151549500Y-49484833D01*
X151548714Y-49503577D01*
X151546882Y-49525399D01*
X151544740Y-49550902D01*
X151553182Y-49614171D01*
X151555221Y-49629452D01*
X151555877Y-49634868D01*
X151557924Y-49653715D01*
X151561777Y-49689175D01*
X151564442Y-49713709D01*
X151567791Y-49723661D01*
X151569180Y-49734069D01*
X151573329Y-49745469D01*
X151573330Y-49745472D01*
X151596293Y-49808563D01*
X151598102Y-49813726D01*
X151623383Y-49888848D01*
X151628791Y-49897848D01*
X151632382Y-49907715D01*
X151638879Y-49917952D01*
X151638883Y-49917961D01*
X151674851Y-49974637D01*
X151677726Y-49979291D01*
X151683442Y-49988803D01*
X151718557Y-50047244D01*
X151725101Y-50054164D01*
X151726476Y-50055982D01*
X151731398Y-50063738D01*
X151735183Y-50067972D01*
X151787739Y-50120528D01*
X151792099Y-50125012D01*
X151845524Y-50181507D01*
X151853495Y-50186924D01*
X151861778Y-50194567D01*
X153923271Y-52256060D01*
X153974001Y-52334178D01*
X153980201Y-52352707D01*
X154005258Y-52440091D01*
X154010266Y-52449836D01*
X154010267Y-52449838D01*
X154040024Y-52507739D01*
X154094944Y-52614601D01*
X154216818Y-52768369D01*
X154366238Y-52895535D01*
X154537513Y-52991257D01*
X154547934Y-52994643D01*
X154615889Y-53016724D01*
X154696554Y-53063297D01*
X154751302Y-53138653D01*
X154770667Y-53229762D01*
X154751300Y-53320871D01*
X154705059Y-53388152D01*
X150335320Y-57757892D01*
X150257202Y-57808622D01*
X150176928Y-57823500D01*
X149177355Y-57823500D01*
X149086246Y-57804134D01*
X149070815Y-57796541D01*
X149069619Y-57795894D01*
X149037571Y-57778566D01*
X148989225Y-57752425D01*
X148989222Y-57752424D01*
X148979585Y-57747213D01*
X148888382Y-57718981D01*
X148802619Y-57692433D01*
X148802618Y-57692433D01*
X148792152Y-57689193D01*
X148597019Y-57668683D01*
X148586108Y-57669676D01*
X148586104Y-57669676D01*
X148412527Y-57685473D01*
X148412525Y-57685473D01*
X148401618Y-57686466D01*
X148391109Y-57689559D01*
X148223904Y-57738770D01*
X148223900Y-57738772D01*
X148213393Y-57741864D01*
X148143189Y-57778566D01*
X148056016Y-57824139D01*
X148039512Y-57832767D01*
X147886600Y-57955711D01*
X147804093Y-58054039D01*
X147730696Y-58111384D01*
X147640319Y-58133918D01*
X147548589Y-58117745D01*
X147471369Y-58065659D01*
X147422009Y-57986669D01*
X147408500Y-57910055D01*
X147408500Y-56941167D01*
X147409286Y-56922423D01*
X147412245Y-56887189D01*
X147412245Y-56887186D01*
X147413260Y-56875098D01*
X147402775Y-56796511D01*
X147402121Y-56791114D01*
X147394868Y-56724346D01*
X147394867Y-56724343D01*
X147393558Y-56712291D01*
X147390209Y-56702339D01*
X147388820Y-56691931D01*
X147384670Y-56680528D01*
X147361707Y-56617437D01*
X147359898Y-56612273D01*
X147338485Y-56548646D01*
X147334617Y-56537152D01*
X147329209Y-56528152D01*
X147325618Y-56518285D01*
X147319121Y-56508048D01*
X147319117Y-56508039D01*
X147283149Y-56451363D01*
X147280274Y-56446709D01*
X147245688Y-56389149D01*
X147245687Y-56389148D01*
X147239443Y-56378756D01*
X147232899Y-56371836D01*
X147231524Y-56370018D01*
X147226602Y-56362262D01*
X147222817Y-56358028D01*
X147170261Y-56305472D01*
X147165901Y-56300988D01*
X147120810Y-56253306D01*
X147112476Y-56244493D01*
X147104505Y-56239076D01*
X147096222Y-56231433D01*
X144172108Y-53307320D01*
X144121378Y-53229202D01*
X144106500Y-53148928D01*
X144106500Y-52202200D01*
X145853747Y-52202200D01*
X145891129Y-52486149D01*
X145901141Y-52522747D01*
X145964688Y-52755038D01*
X145964691Y-52755045D01*
X145966702Y-52762398D01*
X146079068Y-53025835D01*
X146082981Y-53032374D01*
X146082983Y-53032377D01*
X146201255Y-53229995D01*
X146226146Y-53271585D01*
X146254775Y-53307320D01*
X146400454Y-53489158D01*
X146400458Y-53489163D01*
X146405215Y-53495100D01*
X146410731Y-53500334D01*
X146410736Y-53500340D01*
X146530155Y-53613664D01*
X146612962Y-53692245D01*
X146845543Y-53859371D01*
X146927774Y-53902910D01*
X147091900Y-53989811D01*
X147091906Y-53989814D01*
X147098653Y-53993386D01*
X147367610Y-54091810D01*
X147375059Y-54093434D01*
X147375062Y-54093435D01*
X147432246Y-54105903D01*
X147647436Y-54152822D01*
X147655034Y-54153420D01*
X147655041Y-54153421D01*
X147778285Y-54163120D01*
X147872053Y-54170500D01*
X148026992Y-54170500D01*
X148030786Y-54170241D01*
X148030796Y-54170241D01*
X148153479Y-54161877D01*
X148240737Y-54155928D01*
X148395844Y-54123807D01*
X148513723Y-54099396D01*
X148513730Y-54099394D01*
X148521186Y-54097850D01*
X148528364Y-54095308D01*
X148528368Y-54095307D01*
X148728012Y-54024609D01*
X148791158Y-54002248D01*
X148994032Y-53897537D01*
X149038881Y-53874389D01*
X149038883Y-53874388D01*
X149045658Y-53870891D01*
X149279976Y-53706209D01*
X149285560Y-53701020D01*
X149285565Y-53701016D01*
X149484187Y-53516445D01*
X149484190Y-53516442D01*
X149489776Y-53511251D01*
X149502996Y-53495100D01*
X149615506Y-53357640D01*
X149671177Y-53289623D01*
X149820820Y-53045427D01*
X149935938Y-52783182D01*
X150014400Y-52507739D01*
X150054754Y-52224196D01*
X150055114Y-52155520D01*
X150055732Y-52037320D01*
X150056253Y-51937800D01*
X150018871Y-51653851D01*
X149980026Y-51511856D01*
X149945312Y-51384962D01*
X149945309Y-51384955D01*
X149943298Y-51377602D01*
X149830932Y-51114165D01*
X149819207Y-51094573D01*
X149687773Y-50874963D01*
X149687772Y-50874962D01*
X149683854Y-50868415D01*
X149612298Y-50779098D01*
X149509546Y-50650842D01*
X149509542Y-50650837D01*
X149504785Y-50644900D01*
X149499269Y-50639666D01*
X149499264Y-50639660D01*
X149302569Y-50453004D01*
X149297038Y-50447755D01*
X149064457Y-50280629D01*
X148921596Y-50204988D01*
X148818100Y-50150189D01*
X148818094Y-50150186D01*
X148811347Y-50146614D01*
X148542390Y-50048190D01*
X148534941Y-50046566D01*
X148534938Y-50046565D01*
X148334098Y-50002775D01*
X148262564Y-49987178D01*
X148254966Y-49986580D01*
X148254959Y-49986579D01*
X148131715Y-49976880D01*
X148037947Y-49969500D01*
X147883008Y-49969500D01*
X147879214Y-49969759D01*
X147879204Y-49969759D01*
X147756521Y-49978123D01*
X147669263Y-49984072D01*
X147539336Y-50010979D01*
X147396277Y-50040604D01*
X147396270Y-50040606D01*
X147388814Y-50042150D01*
X147381636Y-50044692D01*
X147381632Y-50044693D01*
X147263909Y-50086381D01*
X147118842Y-50137752D01*
X146864342Y-50269109D01*
X146630024Y-50433791D01*
X146624440Y-50438980D01*
X146624435Y-50438984D01*
X146455540Y-50595931D01*
X146420224Y-50628749D01*
X146415395Y-50634649D01*
X146415393Y-50634651D01*
X146402141Y-50650842D01*
X146238823Y-50850377D01*
X146089180Y-51094573D01*
X145974062Y-51356818D01*
X145895600Y-51632261D01*
X145855246Y-51915804D01*
X145855206Y-51923427D01*
X145855206Y-51923428D01*
X145854970Y-51968610D01*
X145853747Y-52202200D01*
X144106500Y-52202200D01*
X144106500Y-45220030D01*
X148502001Y-45220030D01*
X148502655Y-45232114D01*
X148507231Y-45274239D01*
X148513679Y-45301360D01*
X148554229Y-45409526D01*
X148569396Y-45437228D01*
X148637524Y-45528132D01*
X148659868Y-45550476D01*
X148750772Y-45618604D01*
X148778474Y-45633771D01*
X148886643Y-45674322D01*
X148913756Y-45680769D01*
X148955892Y-45685346D01*
X148967966Y-45686000D01*
X149582456Y-45686000D01*
X149602850Y-45681665D01*
X149604290Y-45679171D01*
X149606000Y-45668374D01*
X149606000Y-44605544D01*
X149601665Y-44585150D01*
X149599171Y-44583710D01*
X149588374Y-44582000D01*
X148525545Y-44582000D01*
X148505151Y-44586335D01*
X148503711Y-44588829D01*
X148502001Y-44599626D01*
X148502001Y-45220030D01*
X144106500Y-45220030D01*
X144106500Y-43117073D01*
X144125866Y-43025964D01*
X144172108Y-42958681D01*
X146078239Y-41052550D01*
X146156357Y-41001820D01*
X146248354Y-40987249D01*
X146338325Y-41011357D01*
G37*
%TD.AperFunction*%
%TA.AperFunction,Conductor*%
G36*
X106267536Y-44738146D02*
G01*
X106300669Y-44765458D01*
X110870271Y-49335059D01*
X110921001Y-49413177D01*
X110927200Y-49431704D01*
X110952258Y-49519091D01*
X111041944Y-49693601D01*
X111083056Y-49745472D01*
X111148734Y-49828337D01*
X111163818Y-49847369D01*
X111313238Y-49974535D01*
X111484513Y-50070257D01*
X111494927Y-50073641D01*
X111494930Y-50073642D01*
X111660703Y-50127505D01*
X111671118Y-50130889D01*
X111865946Y-50154121D01*
X111982233Y-50145173D01*
X112050650Y-50139909D01*
X112050653Y-50139908D01*
X112061576Y-50139068D01*
X112072129Y-50136122D01*
X112072132Y-50136121D01*
X112239999Y-50089251D01*
X112240003Y-50089250D01*
X112250556Y-50086303D01*
X112425689Y-49997837D01*
X112553670Y-49897848D01*
X112571674Y-49883782D01*
X112571676Y-49883780D01*
X112580303Y-49877040D01*
X112588224Y-49867864D01*
X112701348Y-49736807D01*
X112708509Y-49728511D01*
X112723465Y-49702185D01*
X112800015Y-49567432D01*
X112805425Y-49557909D01*
X112867358Y-49371732D01*
X112870334Y-49348180D01*
X112886606Y-49219364D01*
X112891949Y-49177071D01*
X112892341Y-49149000D01*
X112891730Y-49142766D01*
X112874263Y-48964627D01*
X112874262Y-48964624D01*
X112873194Y-48953728D01*
X112824972Y-48794008D01*
X112819649Y-48776376D01*
X112819648Y-48776373D01*
X112816484Y-48765894D01*
X112811345Y-48756229D01*
X112811343Y-48756224D01*
X112729514Y-48602327D01*
X112729513Y-48602325D01*
X112724370Y-48592653D01*
X112600361Y-48440602D01*
X112500860Y-48358288D01*
X112457624Y-48322520D01*
X112457621Y-48322518D01*
X112449180Y-48315535D01*
X112358057Y-48266265D01*
X112286225Y-48227425D01*
X112286222Y-48227424D01*
X112276585Y-48222213D01*
X112165036Y-48187683D01*
X112083728Y-48142242D01*
X112072882Y-48132093D01*
X109316475Y-45375686D01*
X109265745Y-45297568D01*
X109251174Y-45205571D01*
X109275282Y-45115600D01*
X109333899Y-45043213D01*
X109416892Y-45000927D01*
X109509908Y-44996052D01*
X109545006Y-45006803D01*
X109545666Y-45004814D01*
X109711772Y-45059910D01*
X109815134Y-45070500D01*
X110257427Y-45070500D01*
X110348536Y-45089866D01*
X110415819Y-45136108D01*
X112197334Y-46917623D01*
X112214490Y-46936879D01*
X112260984Y-46995540D01*
X112306818Y-47053369D01*
X112456238Y-47180535D01*
X112627513Y-47276257D01*
X112637927Y-47279641D01*
X112637930Y-47279642D01*
X112803703Y-47333505D01*
X112814118Y-47336889D01*
X113008946Y-47360121D01*
X113125233Y-47351173D01*
X113193650Y-47345909D01*
X113193653Y-47345908D01*
X113204576Y-47345068D01*
X113215129Y-47342122D01*
X113215132Y-47342121D01*
X113382999Y-47295251D01*
X113383003Y-47295250D01*
X113393556Y-47292303D01*
X113568689Y-47203837D01*
X113723303Y-47083040D01*
X113730959Y-47074171D01*
X113822336Y-46968309D01*
X113851509Y-46934511D01*
X113876795Y-46890001D01*
X113943015Y-46773432D01*
X113948425Y-46763909D01*
X114010358Y-46577732D01*
X114018440Y-46513760D01*
X114031719Y-46408640D01*
X114034949Y-46383071D01*
X114035341Y-46355000D01*
X114018315Y-46181359D01*
X114028698Y-46088795D01*
X114075832Y-46008457D01*
X114151567Y-45954235D01*
X114241246Y-45935500D01*
X114347560Y-45935500D01*
X114438669Y-45954866D01*
X114456840Y-45963965D01*
X114503621Y-45990110D01*
X114532513Y-46006257D01*
X114542927Y-46009641D01*
X114542930Y-46009642D01*
X114708703Y-46063505D01*
X114719118Y-46066889D01*
X114913946Y-46090121D01*
X115030233Y-46081173D01*
X115098650Y-46075909D01*
X115098653Y-46075908D01*
X115109576Y-46075068D01*
X115120129Y-46072122D01*
X115120132Y-46072121D01*
X115287999Y-46025251D01*
X115288003Y-46025250D01*
X115298556Y-46022303D01*
X115473689Y-45933837D01*
X115627594Y-45813594D01*
X115711310Y-45772764D01*
X115804397Y-45769513D01*
X115890759Y-45804406D01*
X115955463Y-45871408D01*
X115987320Y-45958935D01*
X115989500Y-45990110D01*
X115989500Y-49810175D01*
X115970134Y-49901284D01*
X115923892Y-49968567D01*
X115197327Y-50695133D01*
X113794390Y-52098071D01*
X113176394Y-52716067D01*
X113098276Y-52766797D01*
X113006279Y-52781368D01*
X112932281Y-52764624D01*
X112815053Y-52716067D01*
X112778821Y-52701059D01*
X112579774Y-52653272D01*
X112570996Y-52652581D01*
X112570995Y-52652581D01*
X112384481Y-52637902D01*
X112375701Y-52637211D01*
X112366921Y-52637902D01*
X112180407Y-52652581D01*
X112180406Y-52652581D01*
X112171628Y-52653272D01*
X111972581Y-52701059D01*
X111936349Y-52716067D01*
X111813876Y-52766797D01*
X111783459Y-52779396D01*
X111775955Y-52783994D01*
X111775952Y-52783996D01*
X111697618Y-52832000D01*
X111608921Y-52886354D01*
X111482132Y-52994643D01*
X111474671Y-53001015D01*
X111470181Y-53004748D01*
X111452793Y-53018829D01*
X111452782Y-53018842D01*
X111452764Y-53018857D01*
X111447373Y-53025515D01*
X111447372Y-53025516D01*
X111439756Y-53034922D01*
X111436009Y-53039427D01*
X111337826Y-53154397D01*
X111320264Y-53174962D01*
X111315663Y-53182471D01*
X111246307Y-53295663D01*
X111213314Y-53349508D01*
X111134986Y-53538636D01*
X111087208Y-53737689D01*
X111086884Y-53741808D01*
X111054138Y-53827123D01*
X110988277Y-53892988D01*
X110902956Y-53925742D01*
X110898834Y-53926066D01*
X110699787Y-53973853D01*
X110625087Y-54004795D01*
X110539619Y-54040197D01*
X110510665Y-54052190D01*
X110503161Y-54056788D01*
X110503158Y-54056790D01*
X110429760Y-54101769D01*
X110336127Y-54159148D01*
X110329437Y-54164862D01*
X110201877Y-54273809D01*
X110197387Y-54277542D01*
X110179999Y-54291623D01*
X110179991Y-54291632D01*
X110179982Y-54291640D01*
X110166833Y-54307880D01*
X110163082Y-54312391D01*
X110152543Y-54324732D01*
X110047483Y-54447749D01*
X110042883Y-54455255D01*
X110042883Y-54455256D01*
X110008782Y-54510909D01*
X109940530Y-54622294D01*
X109862199Y-54811423D01*
X109857730Y-54830040D01*
X109820284Y-54986040D01*
X109814418Y-55010476D01*
X109814094Y-55014596D01*
X109781351Y-55099912D01*
X109715492Y-55165779D01*
X109630163Y-55198536D01*
X109626040Y-55198860D01*
X109426993Y-55246647D01*
X109237871Y-55324984D01*
X109230367Y-55329582D01*
X109230364Y-55329584D01*
X109070841Y-55427341D01*
X109063333Y-55431942D01*
X109056636Y-55437661D01*
X109056637Y-55437661D01*
X108929111Y-55546578D01*
X108924609Y-55550322D01*
X108916328Y-55557029D01*
X108907199Y-55564422D01*
X108899811Y-55573546D01*
X108893801Y-55580968D01*
X108890069Y-55585455D01*
X108774704Y-55720536D01*
X108770102Y-55728046D01*
X108697864Y-55845933D01*
X108667747Y-55895081D01*
X108645280Y-55949323D01*
X108592778Y-56076081D01*
X108592776Y-56076087D01*
X108589412Y-56084209D01*
X108541629Y-56283263D01*
X108533989Y-56380378D01*
X108528771Y-56446709D01*
X108525574Y-56487341D01*
X108528274Y-56521629D01*
X108540785Y-56680528D01*
X108541642Y-56691418D01*
X108556099Y-56751625D01*
X108584586Y-56870262D01*
X108589438Y-56890469D01*
X108592805Y-56898596D01*
X108592806Y-56898600D01*
X108652996Y-57043895D01*
X108669974Y-57135479D01*
X108648234Y-57226051D01*
X108604443Y-57288017D01*
X107897055Y-57995405D01*
X107818937Y-58046135D01*
X107726940Y-58060706D01*
X107636969Y-58036598D01*
X107564582Y-57977981D01*
X107522296Y-57894988D01*
X107517421Y-57801972D01*
X107523585Y-57777063D01*
X107524496Y-57775110D01*
X107527142Y-57763274D01*
X107527143Y-57763270D01*
X107541797Y-57697713D01*
X107543055Y-57692388D01*
X107543745Y-57689622D01*
X107562222Y-57615514D01*
X107562488Y-57605994D01*
X107562800Y-57603744D01*
X107564806Y-57594770D01*
X107565123Y-57589100D01*
X107565123Y-57514783D01*
X107565210Y-57508529D01*
X107566552Y-57460480D01*
X107567381Y-57430796D01*
X107565575Y-57421331D01*
X107565123Y-57410072D01*
X107565123Y-47450790D01*
X107565909Y-47432046D01*
X107568868Y-47396812D01*
X107568868Y-47396809D01*
X107569883Y-47384721D01*
X107559398Y-47306134D01*
X107558744Y-47300737D01*
X107551491Y-47233969D01*
X107551490Y-47233966D01*
X107550181Y-47221914D01*
X107546832Y-47211962D01*
X107545443Y-47201554D01*
X107537793Y-47180535D01*
X107518330Y-47127060D01*
X107516521Y-47121896D01*
X107504116Y-47085036D01*
X107491240Y-47046775D01*
X107485832Y-47037775D01*
X107482241Y-47027908D01*
X107475744Y-47017671D01*
X107475740Y-47017662D01*
X107439772Y-46960986D01*
X107436897Y-46956332D01*
X107402311Y-46898772D01*
X107402310Y-46898771D01*
X107396066Y-46888379D01*
X107389522Y-46881459D01*
X107388147Y-46879641D01*
X107383225Y-46871885D01*
X107379440Y-46867651D01*
X107326884Y-46815095D01*
X107322524Y-46810611D01*
X107277433Y-46762929D01*
X107269099Y-46754116D01*
X107261128Y-46748699D01*
X107252845Y-46741056D01*
X105738260Y-45226471D01*
X105687530Y-45148353D01*
X105672959Y-45056356D01*
X105697067Y-44966385D01*
X105755684Y-44893998D01*
X105795655Y-44868140D01*
X105938913Y-44795775D01*
X105948689Y-44790837D01*
X105957317Y-44784096D01*
X105957325Y-44784091D01*
X106004369Y-44747336D01*
X106088086Y-44706504D01*
X106181174Y-44703253D01*
X106267536Y-44738146D01*
G37*
%TD.AperFunction*%
%TA.AperFunction,Conductor*%
G36*
X142361109Y-37865366D02*
G01*
X142436464Y-37920115D01*
X142483037Y-38000780D01*
X142494000Y-38070000D01*
X142494000Y-39413088D01*
X142497922Y-39431538D01*
X142517404Y-39433363D01*
X142532118Y-39430235D01*
X142728396Y-39371349D01*
X142745455Y-39364663D01*
X142929479Y-39274511D01*
X142949368Y-39262654D01*
X143037543Y-39232636D01*
X143130304Y-39241077D01*
X143211613Y-39286517D01*
X143267409Y-39361101D01*
X143288046Y-39451930D01*
X143269955Y-39543301D01*
X143222460Y-39613452D01*
X141559243Y-41276669D01*
X141545433Y-41289367D01*
X141518432Y-41312184D01*
X141518429Y-41312187D01*
X141509160Y-41320020D01*
X141501787Y-41329664D01*
X141461009Y-41382998D01*
X141457632Y-41387305D01*
X141424944Y-41427961D01*
X141407969Y-41449073D01*
X141403299Y-41458480D01*
X141396923Y-41466820D01*
X141386864Y-41488391D01*
X141363424Y-41538659D01*
X141361057Y-41543578D01*
X141325805Y-41614593D01*
X141323265Y-41624779D01*
X141318827Y-41634297D01*
X141316182Y-41646132D01*
X141301537Y-41711651D01*
X141300277Y-41716981D01*
X141281100Y-41793894D01*
X141280834Y-41803422D01*
X141280523Y-41805664D01*
X141278517Y-41814637D01*
X141278200Y-41820307D01*
X141278200Y-41894589D01*
X141278113Y-41900843D01*
X141275941Y-41978611D01*
X141277747Y-41988079D01*
X141278200Y-41999348D01*
X141278200Y-47037664D01*
X141258834Y-47128773D01*
X141250494Y-47145575D01*
X141204656Y-47228954D01*
X141196131Y-47255829D01*
X141166668Y-47348705D01*
X141120660Y-47429693D01*
X141111546Y-47439365D01*
X139384543Y-49166369D01*
X139370733Y-49179067D01*
X139343732Y-49201884D01*
X139343729Y-49201887D01*
X139334460Y-49209720D01*
X139327087Y-49219364D01*
X139286309Y-49272698D01*
X139282932Y-49277005D01*
X139240871Y-49329318D01*
X139233269Y-49338773D01*
X139228599Y-49348180D01*
X139222223Y-49356520D01*
X139217098Y-49367511D01*
X139188724Y-49428359D01*
X139186357Y-49433278D01*
X139151105Y-49504293D01*
X139148565Y-49514479D01*
X139144127Y-49523997D01*
X139134419Y-49567432D01*
X139126837Y-49601351D01*
X139125577Y-49606681D01*
X139106400Y-49683594D01*
X139106134Y-49693122D01*
X139105823Y-49695364D01*
X139103817Y-49704337D01*
X139103500Y-49710007D01*
X139103500Y-49784289D01*
X139103413Y-49790543D01*
X139101241Y-49868311D01*
X139103047Y-49877779D01*
X139103500Y-49889048D01*
X139103500Y-50966428D01*
X139084134Y-51057537D01*
X139029385Y-51132892D01*
X138948720Y-51179465D01*
X138856086Y-51189201D01*
X138767500Y-51160418D01*
X138721108Y-51124820D01*
X138076108Y-50479820D01*
X138025378Y-50401702D01*
X138010500Y-50321428D01*
X138010500Y-39252180D01*
X138029866Y-39161071D01*
X138076108Y-39093788D01*
X138198495Y-38971401D01*
X138246510Y-38902828D01*
X138314631Y-38839304D01*
X138402701Y-38808979D01*
X138495491Y-38817097D01*
X138576957Y-38862254D01*
X138613489Y-38902827D01*
X138661505Y-38971401D01*
X138783892Y-39093788D01*
X138834622Y-39171906D01*
X138849500Y-39252180D01*
X138849500Y-40052664D01*
X138830134Y-40143773D01*
X138821794Y-40160575D01*
X138775956Y-40243954D01*
X138772646Y-40254390D01*
X138772645Y-40254391D01*
X138757969Y-40300655D01*
X138716628Y-40430978D01*
X138715408Y-40441858D01*
X138715407Y-40441861D01*
X138696566Y-40609831D01*
X138694757Y-40625963D01*
X138711175Y-40821483D01*
X138714195Y-40832015D01*
X138714196Y-40832020D01*
X138739749Y-40921130D01*
X138765258Y-41010091D01*
X138854944Y-41184601D01*
X138894898Y-41235011D01*
X138969919Y-41329664D01*
X138976818Y-41338369D01*
X139126238Y-41465535D01*
X139297513Y-41561257D01*
X139307927Y-41564641D01*
X139307930Y-41564642D01*
X139472100Y-41617984D01*
X139484118Y-41621889D01*
X139678946Y-41645121D01*
X139801395Y-41635699D01*
X139863650Y-41630909D01*
X139863653Y-41630908D01*
X139874576Y-41630068D01*
X139885129Y-41627122D01*
X139885132Y-41627121D01*
X140052999Y-41580251D01*
X140053003Y-41580250D01*
X140063556Y-41577303D01*
X140238689Y-41488837D01*
X140368645Y-41387305D01*
X140384674Y-41374782D01*
X140384676Y-41374780D01*
X140393303Y-41368040D01*
X140417899Y-41339546D01*
X140488723Y-41257495D01*
X140521509Y-41219511D01*
X140536465Y-41193185D01*
X140596817Y-41086946D01*
X140618425Y-41048909D01*
X140680358Y-40862732D01*
X140684031Y-40833661D01*
X140704164Y-40674283D01*
X140704949Y-40668071D01*
X140705341Y-40640000D01*
X140704730Y-40633766D01*
X140687263Y-40455627D01*
X140687262Y-40455624D01*
X140686194Y-40444728D01*
X140655563Y-40343271D01*
X140632649Y-40267376D01*
X140632648Y-40267373D01*
X140629484Y-40256894D01*
X140576720Y-40157659D01*
X140551046Y-40068124D01*
X140550500Y-40052498D01*
X140550500Y-39252180D01*
X140569866Y-39161071D01*
X140616108Y-39093788D01*
X140738495Y-38971401D01*
X140779830Y-38912368D01*
X140847951Y-38848844D01*
X140936020Y-38818519D01*
X141028810Y-38826636D01*
X141110277Y-38871793D01*
X141144079Y-38908553D01*
X141146412Y-38911741D01*
X141280583Y-39066632D01*
X141293674Y-39079451D01*
X141451339Y-39210347D01*
X141466350Y-39220858D01*
X141643283Y-39324250D01*
X141659803Y-39332165D01*
X141851248Y-39405270D01*
X141868838Y-39410380D01*
X141962931Y-39429523D01*
X141982401Y-39429354D01*
X141986000Y-39417938D01*
X141986000Y-38070000D01*
X142005366Y-37978891D01*
X142060115Y-37903536D01*
X142140780Y-37856963D01*
X142210000Y-37846000D01*
X142270000Y-37846000D01*
X142361109Y-37865366D01*
G37*
%TD.AperFunction*%
%TA.AperFunction,Conductor*%
G36*
X115635491Y-38817097D02*
G01*
X115716957Y-38862254D01*
X115753489Y-38902827D01*
X115801505Y-38971401D01*
X115923892Y-39093788D01*
X115974622Y-39171906D01*
X115989500Y-39252180D01*
X115989500Y-44182793D01*
X115970134Y-44273902D01*
X115915385Y-44349257D01*
X115834720Y-44395830D01*
X115742086Y-44405566D01*
X115653500Y-44376783D01*
X115622723Y-44355392D01*
X115497180Y-44251535D01*
X115419841Y-44209718D01*
X115334225Y-44163425D01*
X115334222Y-44163424D01*
X115324585Y-44158213D01*
X115137152Y-44100193D01*
X114942019Y-44079683D01*
X114931108Y-44080676D01*
X114931104Y-44080676D01*
X114757527Y-44096473D01*
X114757525Y-44096473D01*
X114746618Y-44097466D01*
X114692744Y-44113322D01*
X114599876Y-44120468D01*
X114512128Y-44089223D01*
X114444675Y-44024990D01*
X114409180Y-43938873D01*
X114405500Y-43898436D01*
X114405500Y-43645134D01*
X114394641Y-43540481D01*
X114380111Y-43496928D01*
X114343375Y-43386816D01*
X114343374Y-43386813D01*
X114339256Y-43374471D01*
X114247166Y-43225655D01*
X114123311Y-43102016D01*
X113974334Y-43010186D01*
X113808228Y-42955090D01*
X113704866Y-42944500D01*
X112355134Y-42944500D01*
X112250481Y-42955359D01*
X112238859Y-42959236D01*
X112238856Y-42959237D01*
X112096816Y-43006625D01*
X112096813Y-43006626D01*
X112084471Y-43010744D01*
X112073407Y-43017590D01*
X112073406Y-43017591D01*
X112008578Y-43057708D01*
X111935655Y-43102834D01*
X111926459Y-43112046D01*
X111918453Y-43120066D01*
X111840380Y-43170864D01*
X111748395Y-43185515D01*
X111658403Y-43161486D01*
X111601669Y-43120342D01*
X111594339Y-43113025D01*
X111583311Y-43102016D01*
X111434334Y-43010186D01*
X111268228Y-42955090D01*
X111164866Y-42944500D01*
X109815134Y-42944500D01*
X109710481Y-42955359D01*
X109698859Y-42959236D01*
X109698856Y-42959237D01*
X109556816Y-43006625D01*
X109556813Y-43006626D01*
X109544471Y-43010744D01*
X109533407Y-43017590D01*
X109533406Y-43017591D01*
X109468578Y-43057708D01*
X109395655Y-43102834D01*
X109386459Y-43112046D01*
X109375461Y-43123063D01*
X109272016Y-43226689D01*
X109180186Y-43375666D01*
X109125090Y-43541772D01*
X109114500Y-43645134D01*
X109114500Y-44369866D01*
X109125359Y-44474519D01*
X109172335Y-44615323D01*
X109180377Y-44639428D01*
X109190840Y-44731983D01*
X109162753Y-44820791D01*
X109100973Y-44890498D01*
X109016181Y-44929051D01*
X108923039Y-44929782D01*
X108837653Y-44892566D01*
X108809498Y-44868710D01*
X107596108Y-43655320D01*
X107545378Y-43577202D01*
X107530500Y-43496928D01*
X107530500Y-39252180D01*
X107549866Y-39161071D01*
X107596108Y-39093788D01*
X107718495Y-38971401D01*
X107766510Y-38902828D01*
X107834631Y-38839304D01*
X107922701Y-38808979D01*
X108015491Y-38817097D01*
X108096957Y-38862254D01*
X108133489Y-38902827D01*
X108181505Y-38971401D01*
X108348599Y-39138495D01*
X108542170Y-39274035D01*
X108756337Y-39373903D01*
X108765783Y-39376434D01*
X108975152Y-39432534D01*
X108975156Y-39432535D01*
X108984592Y-39435063D01*
X108994326Y-39435915D01*
X108994328Y-39435915D01*
X109210262Y-39454807D01*
X109220000Y-39455659D01*
X109229738Y-39454807D01*
X109395977Y-39440263D01*
X109488427Y-39451615D01*
X109568268Y-39499588D01*
X109621693Y-39575887D01*
X109639500Y-39663411D01*
X109639500Y-39902133D01*
X109620134Y-39993242D01*
X109565385Y-40068597D01*
X109533372Y-40092612D01*
X109395655Y-40177834D01*
X109386459Y-40187046D01*
X109361621Y-40211927D01*
X109272016Y-40301689D01*
X109180186Y-40450666D01*
X109125090Y-40616772D01*
X109114500Y-40720134D01*
X109114500Y-41444866D01*
X109125359Y-41549519D01*
X109129236Y-41561141D01*
X109129237Y-41561144D01*
X109175372Y-41699426D01*
X109180744Y-41715529D01*
X109187590Y-41726593D01*
X109187591Y-41726594D01*
X109229108Y-41793685D01*
X109272834Y-41864345D01*
X109396689Y-41987984D01*
X109545666Y-42079814D01*
X109711772Y-42134910D01*
X109815134Y-42145500D01*
X111164866Y-42145500D01*
X111269519Y-42134641D01*
X111281141Y-42130764D01*
X111281144Y-42130763D01*
X111423184Y-42083375D01*
X111423187Y-42083374D01*
X111435529Y-42079256D01*
X111525779Y-42023408D01*
X111573277Y-41994015D01*
X111584345Y-41987166D01*
X111601547Y-41969934D01*
X111679620Y-41919136D01*
X111771605Y-41904485D01*
X111861597Y-41928514D01*
X111918331Y-41969658D01*
X111936689Y-41987984D01*
X112085666Y-42079814D01*
X112251772Y-42134910D01*
X112355134Y-42145500D01*
X113704866Y-42145500D01*
X113809519Y-42134641D01*
X113821141Y-42130764D01*
X113821144Y-42130763D01*
X113963184Y-42083375D01*
X113963187Y-42083374D01*
X113975529Y-42079256D01*
X114065779Y-42023408D01*
X114113277Y-41994015D01*
X114124345Y-41987166D01*
X114141823Y-41969658D01*
X114238794Y-41872517D01*
X114247984Y-41863311D01*
X114339814Y-41714334D01*
X114394910Y-41548228D01*
X114405500Y-41444866D01*
X114405500Y-40720134D01*
X114394641Y-40615481D01*
X114360817Y-40514097D01*
X114343375Y-40461816D01*
X114343374Y-40461813D01*
X114339256Y-40449471D01*
X114329835Y-40434246D01*
X114254015Y-40311723D01*
X114247166Y-40300655D01*
X114123311Y-40177016D01*
X114112237Y-40170190D01*
X114112232Y-40170186D01*
X113986961Y-40092968D01*
X113919564Y-40028675D01*
X113884145Y-39942528D01*
X113880500Y-39902284D01*
X113880500Y-39663411D01*
X113899866Y-39572302D01*
X113954615Y-39496947D01*
X114035280Y-39450374D01*
X114124023Y-39440263D01*
X114290262Y-39454807D01*
X114300000Y-39455659D01*
X114309738Y-39454807D01*
X114525672Y-39435915D01*
X114525674Y-39435915D01*
X114535408Y-39435063D01*
X114544844Y-39432535D01*
X114544848Y-39432534D01*
X114754217Y-39376434D01*
X114763663Y-39373903D01*
X114977830Y-39274035D01*
X115171401Y-39138495D01*
X115338495Y-38971401D01*
X115386510Y-38902828D01*
X115454631Y-38839304D01*
X115542701Y-38808979D01*
X115635491Y-38817097D01*
G37*
%TD.AperFunction*%
%TA.AperFunction,Conductor*%
G36*
X158020609Y-36429866D02*
G01*
X158095964Y-36484615D01*
X158142537Y-36565280D01*
X158153500Y-36634500D01*
X158153500Y-38592383D01*
X158134134Y-38683492D01*
X158079385Y-38758847D01*
X158008133Y-38802127D01*
X157911176Y-38838474D01*
X157898407Y-38848044D01*
X157898405Y-38848045D01*
X157825309Y-38902828D01*
X157796454Y-38924454D01*
X157786881Y-38937227D01*
X157727763Y-39016108D01*
X157710474Y-39039176D01*
X157704873Y-39054118D01*
X157704872Y-39054119D01*
X157665690Y-39158640D01*
X157660149Y-39173420D01*
X157653500Y-39234623D01*
X157653501Y-41029376D01*
X157660149Y-41090580D01*
X157665080Y-41103733D01*
X157665080Y-41103734D01*
X157665689Y-41105357D01*
X157710474Y-41224824D01*
X157720044Y-41237593D01*
X157720045Y-41237595D01*
X157775947Y-41312184D01*
X157796454Y-41339546D01*
X157901476Y-41418256D01*
X157962765Y-41488391D01*
X157990231Y-41577394D01*
X157979121Y-41669873D01*
X157931357Y-41749839D01*
X157855197Y-41803464D01*
X157767135Y-41821500D01*
X156697371Y-41821500D01*
X156606262Y-41802134D01*
X156530907Y-41747385D01*
X156484334Y-41666720D01*
X156474598Y-41574086D01*
X156503381Y-41485500D01*
X156563034Y-41418253D01*
X156648132Y-41354476D01*
X156670476Y-41332132D01*
X156738604Y-41241228D01*
X156753771Y-41213526D01*
X156794322Y-41105357D01*
X156800769Y-41078244D01*
X156805346Y-41036108D01*
X156806000Y-41024034D01*
X156806000Y-40409544D01*
X156801665Y-40389150D01*
X156799171Y-40387710D01*
X156788374Y-40386000D01*
X155418000Y-40386000D01*
X155326891Y-40366634D01*
X155251536Y-40311885D01*
X155204963Y-40231220D01*
X155194000Y-40162000D01*
X155194000Y-39854456D01*
X155702000Y-39854456D01*
X155706335Y-39874850D01*
X155708829Y-39876290D01*
X155719626Y-39878000D01*
X156782455Y-39878000D01*
X156802849Y-39873665D01*
X156804289Y-39871171D01*
X156805999Y-39860374D01*
X156805999Y-39239970D01*
X156805345Y-39227886D01*
X156800769Y-39185761D01*
X156794321Y-39158640D01*
X156753771Y-39050474D01*
X156738604Y-39022772D01*
X156670476Y-38931868D01*
X156648132Y-38909524D01*
X156557228Y-38841396D01*
X156529526Y-38826229D01*
X156421357Y-38785678D01*
X156394244Y-38779231D01*
X156352108Y-38774654D01*
X156340034Y-38774000D01*
X155725544Y-38774000D01*
X155705150Y-38778335D01*
X155703710Y-38780829D01*
X155702000Y-38791626D01*
X155702000Y-39854456D01*
X155194000Y-39854456D01*
X155194000Y-38797545D01*
X155189665Y-38777151D01*
X155187171Y-38775711D01*
X155176374Y-38774001D01*
X154998500Y-38774001D01*
X154907391Y-38754635D01*
X154832036Y-38699886D01*
X154785463Y-38619221D01*
X154774500Y-38550001D01*
X154774500Y-36634500D01*
X154793866Y-36543391D01*
X154848615Y-36468036D01*
X154929280Y-36421463D01*
X154998500Y-36410500D01*
X157929500Y-36410500D01*
X158020609Y-36429866D01*
G37*
%TD.AperFunction*%
%TD*%
M02*
