G04 #@! TF.GenerationSoftware,KiCad,Pcbnew,(5.1.9)-1*
G04 #@! TF.CreationDate,2021-08-13T11:54:40+02:00*
G04 #@! TF.ProjectId,7805,37383035-2e6b-4696-9361-645f70636258,rev?*
G04 #@! TF.SameCoordinates,Original*
G04 #@! TF.FileFunction,Copper,L2,Bot*
G04 #@! TF.FilePolarity,Positive*
%FSLAX46Y46*%
G04 Gerber Fmt 4.6, Leading zero omitted, Abs format (unit mm)*
G04 Created by KiCad (PCBNEW (5.1.9)-1) date 2021-08-13 11:54:40*
%MOMM*%
%LPD*%
G01*
G04 APERTURE LIST*
G04 #@! TA.AperFunction,ComponentPad*
%ADD10O,1.800000X3.600000*%
G04 #@! TD*
G04 #@! TA.AperFunction,ComponentPad*
%ADD11R,1.905000X2.000000*%
G04 #@! TD*
G04 #@! TA.AperFunction,ComponentPad*
%ADD12O,1.905000X2.000000*%
G04 #@! TD*
G04 #@! TA.AperFunction,ComponentPad*
%ADD13C,2.400000*%
G04 #@! TD*
G04 #@! TA.AperFunction,ComponentPad*
%ADD14O,2.400000X2.400000*%
G04 #@! TD*
G04 #@! TA.AperFunction,ComponentPad*
%ADD15C,5.600000*%
G04 #@! TD*
G04 #@! TA.AperFunction,Conductor*
%ADD16C,1.000000*%
G04 #@! TD*
G04 #@! TA.AperFunction,Conductor*
%ADD17C,0.254000*%
G04 #@! TD*
G04 #@! TA.AperFunction,Conductor*
%ADD18C,0.100000*%
G04 #@! TD*
G04 APERTURE END LIST*
G04 #@! TA.AperFunction,ComponentPad*
G36*
G01*
X144997600Y-89484800D02*
X144997600Y-86384800D01*
G75*
G02*
X145247600Y-86134800I250000J0D01*
G01*
X146547600Y-86134800D01*
G75*
G02*
X146797600Y-86384800I0J-250000D01*
G01*
X146797600Y-89484800D01*
G75*
G02*
X146547600Y-89734800I-250000J0D01*
G01*
X145247600Y-89734800D01*
G75*
G02*
X144997600Y-89484800I0J250000D01*
G01*
G37*
G04 #@! TD.AperFunction*
D10*
X149707600Y-87934800D03*
X153517600Y-87934800D03*
D11*
X147167600Y-73050400D03*
D12*
X149707600Y-73050400D03*
X152247600Y-73050400D03*
D13*
X153517600Y-82296000D03*
D14*
X153517600Y-77216000D03*
D15*
X149733000Y-47980600D03*
X149733000Y-96672400D03*
D16*
X145897600Y-78562200D02*
X145897600Y-87934800D01*
X147167600Y-73050400D02*
X147167600Y-77292200D01*
X147167600Y-77292200D02*
X145897600Y-78562200D01*
X153517600Y-82296000D02*
X153517600Y-87934800D01*
X153550401Y-77310199D02*
X153517600Y-77343000D01*
X153550401Y-77183199D02*
X153517600Y-77216000D01*
X152247600Y-75946000D02*
X153517600Y-77216000D01*
X152247600Y-73050400D02*
X152247600Y-75946000D01*
X149707600Y-85134800D02*
X149707600Y-73050400D01*
X149707600Y-87934800D02*
X149707600Y-85134800D01*
D17*
X146867823Y-46055908D02*
X146547388Y-46651859D01*
X146349374Y-47298873D01*
X146281390Y-47972084D01*
X146346051Y-48645623D01*
X146540870Y-49293606D01*
X146858361Y-49891130D01*
X146867823Y-49905292D01*
X147316519Y-50217476D01*
X149553395Y-47980600D01*
X149539253Y-47966458D01*
X149718858Y-47786853D01*
X149733000Y-47800995D01*
X149747143Y-47786853D01*
X149926748Y-47966458D01*
X149912605Y-47980600D01*
X152149481Y-50217476D01*
X152598177Y-49905292D01*
X152918612Y-49309341D01*
X153116626Y-48662327D01*
X153184610Y-47989116D01*
X153119949Y-47315577D01*
X152925130Y-46667594D01*
X152607639Y-46070070D01*
X152598177Y-46055908D01*
X152493388Y-45983000D01*
X155642200Y-45983000D01*
X155642201Y-76264497D01*
X155579760Y-76113752D01*
X155325099Y-75732624D01*
X155000976Y-75408501D01*
X154619848Y-75153840D01*
X154196361Y-74978426D01*
X153874600Y-74914423D01*
X153874600Y-74393329D01*
X153985006Y-74258798D01*
X154178103Y-73897539D01*
X154297011Y-73505552D01*
X154327100Y-73200051D01*
X154327100Y-72900748D01*
X154297011Y-72595247D01*
X154178103Y-72203260D01*
X153985006Y-71842002D01*
X153725143Y-71525357D01*
X153408498Y-71265494D01*
X153047239Y-71072397D01*
X152655252Y-70953489D01*
X152247600Y-70913339D01*
X151839947Y-70953489D01*
X151447960Y-71072397D01*
X151086702Y-71265494D01*
X150770057Y-71525357D01*
X150618649Y-71709849D01*
X150574523Y-71674431D01*
X150298694Y-71530829D01*
X150080580Y-71459837D01*
X149834600Y-71579806D01*
X149834600Y-72923400D01*
X149854600Y-72923400D01*
X149854600Y-73177400D01*
X149834600Y-73177400D01*
X149834600Y-74520994D01*
X150080580Y-74640963D01*
X150298694Y-74569971D01*
X150574523Y-74426369D01*
X150618649Y-74390951D01*
X150620600Y-74393329D01*
X150620601Y-75866076D01*
X150612729Y-75946000D01*
X150620601Y-76025925D01*
X150642578Y-76249053D01*
X150644143Y-76264947D01*
X150737176Y-76571638D01*
X150888254Y-76854285D01*
X151040622Y-77039947D01*
X151040626Y-77039951D01*
X151091572Y-77102029D01*
X151153649Y-77152975D01*
X151190600Y-77189925D01*
X151190600Y-77445189D01*
X151280026Y-77894761D01*
X151455440Y-78318248D01*
X151710101Y-78699376D01*
X152034224Y-79023499D01*
X152415352Y-79278160D01*
X152838839Y-79453574D01*
X153288411Y-79543000D01*
X153746789Y-79543000D01*
X154196361Y-79453574D01*
X154619848Y-79278160D01*
X155000976Y-79023499D01*
X155325099Y-78699376D01*
X155579760Y-78318248D01*
X155642201Y-78167503D01*
X155642201Y-81344497D01*
X155579760Y-81193752D01*
X155325099Y-80812624D01*
X155000976Y-80488501D01*
X154619848Y-80233840D01*
X154196361Y-80058426D01*
X153746789Y-79969000D01*
X153288411Y-79969000D01*
X152838839Y-80058426D01*
X152415352Y-80233840D01*
X152034224Y-80488501D01*
X151710101Y-80812624D01*
X151455440Y-81193752D01*
X151280026Y-81617239D01*
X151190600Y-82066811D01*
X151190600Y-82525189D01*
X151280026Y-82974761D01*
X151455440Y-83398248D01*
X151710101Y-83779376D01*
X151890600Y-83959875D01*
X151890601Y-85822127D01*
X151824057Y-85903211D01*
X151635836Y-86255349D01*
X151519930Y-86637440D01*
X151490600Y-86935230D01*
X151490600Y-88934371D01*
X151519931Y-89232161D01*
X151635837Y-89614252D01*
X151824058Y-89966389D01*
X152077361Y-90275040D01*
X152386012Y-90528343D01*
X152738149Y-90716564D01*
X153120240Y-90832470D01*
X153517600Y-90871607D01*
X153914961Y-90832470D01*
X154297052Y-90716564D01*
X154649189Y-90528343D01*
X154957840Y-90275040D01*
X155211143Y-89966389D01*
X155399364Y-89614252D01*
X155515270Y-89232161D01*
X155544600Y-88934370D01*
X155544600Y-86935229D01*
X155515270Y-86637439D01*
X155399364Y-86255348D01*
X155211143Y-85903211D01*
X155144600Y-85822128D01*
X155144600Y-83959875D01*
X155325099Y-83779376D01*
X155579760Y-83398248D01*
X155642201Y-83247503D01*
X155642201Y-98720800D01*
X152420374Y-98720800D01*
X152598177Y-98597092D01*
X152918612Y-98001141D01*
X153116626Y-97354127D01*
X153184610Y-96680916D01*
X153119949Y-96007377D01*
X152925130Y-95359394D01*
X152607639Y-94761870D01*
X152598177Y-94747708D01*
X152149481Y-94435524D01*
X149912605Y-96672400D01*
X149926748Y-96686543D01*
X149747143Y-96866148D01*
X149733000Y-96852005D01*
X149718858Y-96866148D01*
X149539253Y-96686543D01*
X149553395Y-96672400D01*
X147316519Y-94435524D01*
X146867823Y-94747708D01*
X146547388Y-95343659D01*
X146349374Y-95990673D01*
X146281390Y-96663884D01*
X146346051Y-97337423D01*
X146540870Y-97985406D01*
X146858361Y-98582930D01*
X146867823Y-98597092D01*
X147045626Y-98720800D01*
X143622204Y-98720800D01*
X143628416Y-94255919D01*
X147496124Y-94255919D01*
X149733000Y-96492795D01*
X151969876Y-94255919D01*
X151657692Y-93807223D01*
X151061741Y-93486788D01*
X150414727Y-93288774D01*
X149741516Y-93220790D01*
X149067977Y-93285451D01*
X148419994Y-93480270D01*
X147822470Y-93797761D01*
X147808308Y-93807223D01*
X147496124Y-94255919D01*
X143628416Y-94255919D01*
X143639368Y-86384800D01*
X143865147Y-86384800D01*
X143865147Y-89484800D01*
X143891710Y-89754503D01*
X143970380Y-90013842D01*
X144098132Y-90252850D01*
X144270058Y-90462342D01*
X144479550Y-90634268D01*
X144718558Y-90762020D01*
X144977897Y-90840690D01*
X145247600Y-90867253D01*
X146547600Y-90867253D01*
X146817303Y-90840690D01*
X147076642Y-90762020D01*
X147315650Y-90634268D01*
X147525142Y-90462342D01*
X147697068Y-90252850D01*
X147824820Y-90013842D01*
X147903490Y-89754503D01*
X147930053Y-89484800D01*
X147930053Y-88061800D01*
X148172600Y-88061800D01*
X148172600Y-88961800D01*
X148226871Y-89258823D01*
X148338046Y-89539551D01*
X148501852Y-89793196D01*
X148711994Y-90010010D01*
X148960396Y-90181662D01*
X149237513Y-90301555D01*
X149342860Y-90325836D01*
X149580600Y-90205178D01*
X149580600Y-88061800D01*
X149834600Y-88061800D01*
X149834600Y-90205178D01*
X150072340Y-90325836D01*
X150177687Y-90301555D01*
X150454804Y-90181662D01*
X150703206Y-90010010D01*
X150913348Y-89793196D01*
X151077154Y-89539551D01*
X151188329Y-89258823D01*
X151242600Y-88961800D01*
X151242600Y-88061800D01*
X149834600Y-88061800D01*
X149580600Y-88061800D01*
X148172600Y-88061800D01*
X147930053Y-88061800D01*
X147930053Y-86907800D01*
X148172600Y-86907800D01*
X148172600Y-87807800D01*
X149580600Y-87807800D01*
X149580600Y-85664422D01*
X149834600Y-85664422D01*
X149834600Y-87807800D01*
X151242600Y-87807800D01*
X151242600Y-86907800D01*
X151188329Y-86610777D01*
X151077154Y-86330049D01*
X150913348Y-86076404D01*
X150703206Y-85859590D01*
X150454804Y-85687938D01*
X150177687Y-85568045D01*
X150072340Y-85543764D01*
X149834600Y-85664422D01*
X149580600Y-85664422D01*
X149342860Y-85543764D01*
X149237513Y-85568045D01*
X148960396Y-85687938D01*
X148711994Y-85859590D01*
X148501852Y-86076404D01*
X148338046Y-86330049D01*
X148226871Y-86610777D01*
X148172600Y-86907800D01*
X147930053Y-86907800D01*
X147930053Y-86384800D01*
X147903490Y-86115097D01*
X147824820Y-85855758D01*
X147697068Y-85616750D01*
X147525142Y-85407258D01*
X147524600Y-85406813D01*
X147524600Y-79236125D01*
X148261551Y-78499175D01*
X148323629Y-78448229D01*
X148374575Y-78386151D01*
X148374578Y-78386148D01*
X148526946Y-78200486D01*
X148678024Y-77917840D01*
X148685025Y-77894761D01*
X148771058Y-77611148D01*
X148794600Y-77372125D01*
X148794600Y-77372115D01*
X148802471Y-77292201D01*
X148794600Y-77212286D01*
X148794600Y-74954788D01*
X148920865Y-74851165D01*
X149061700Y-74679557D01*
X149119717Y-74571016D01*
X149334620Y-74640963D01*
X149580600Y-74520994D01*
X149580600Y-73177400D01*
X149560600Y-73177400D01*
X149560600Y-72923400D01*
X149580600Y-72923400D01*
X149580600Y-71579806D01*
X149334620Y-71459837D01*
X149119717Y-71529784D01*
X149061700Y-71421243D01*
X148920865Y-71249635D01*
X148749257Y-71108800D01*
X148553471Y-71004150D01*
X148341031Y-70939707D01*
X148120100Y-70917947D01*
X146215100Y-70917947D01*
X145994169Y-70939707D01*
X145781729Y-71004150D01*
X145585943Y-71108800D01*
X145414335Y-71249635D01*
X145273500Y-71421243D01*
X145168850Y-71617029D01*
X145104407Y-71829469D01*
X145082647Y-72050400D01*
X145082647Y-74050400D01*
X145104407Y-74271331D01*
X145168850Y-74483771D01*
X145273500Y-74679557D01*
X145414335Y-74851165D01*
X145540600Y-74954788D01*
X145540601Y-76618274D01*
X144803654Y-77355221D01*
X144741571Y-77406171D01*
X144538254Y-77653915D01*
X144387175Y-77936563D01*
X144294142Y-78243253D01*
X144270600Y-78482276D01*
X144270600Y-78482286D01*
X144262729Y-78562200D01*
X144270600Y-78642115D01*
X144270601Y-85406813D01*
X144270058Y-85407258D01*
X144098132Y-85616750D01*
X143970380Y-85855758D01*
X143891710Y-86115097D01*
X143865147Y-86384800D01*
X143639368Y-86384800D01*
X143681498Y-56107040D01*
X146830600Y-56107040D01*
X146830600Y-56673760D01*
X146941161Y-57229590D01*
X147158035Y-57753171D01*
X147472888Y-58224381D01*
X147873619Y-58625112D01*
X148344829Y-58939965D01*
X148868410Y-59156839D01*
X149424240Y-59267400D01*
X149990960Y-59267400D01*
X150546790Y-59156839D01*
X151070371Y-58939965D01*
X151541581Y-58625112D01*
X151942312Y-58224381D01*
X152257165Y-57753171D01*
X152474039Y-57229590D01*
X152584600Y-56673760D01*
X152584600Y-56107040D01*
X152474039Y-55551210D01*
X152257165Y-55027629D01*
X151942312Y-54556419D01*
X151541581Y-54155688D01*
X151070371Y-53840835D01*
X150546790Y-53623961D01*
X149990960Y-53513400D01*
X149424240Y-53513400D01*
X148868410Y-53623961D01*
X148344829Y-53840835D01*
X147873619Y-54155688D01*
X147472888Y-54556419D01*
X147158035Y-55027629D01*
X146941161Y-55551210D01*
X146830600Y-56107040D01*
X143681498Y-56107040D01*
X143689443Y-50397081D01*
X147496124Y-50397081D01*
X147808308Y-50845777D01*
X148404259Y-51166212D01*
X149051273Y-51364226D01*
X149724484Y-51432210D01*
X150398023Y-51367549D01*
X151046006Y-51172730D01*
X151643530Y-50855239D01*
X151657692Y-50845777D01*
X151969876Y-50397081D01*
X149733000Y-48160205D01*
X147496124Y-50397081D01*
X143689443Y-50397081D01*
X143695586Y-45983000D01*
X146972612Y-45983000D01*
X146867823Y-46055908D01*
G04 #@! TA.AperFunction,Conductor*
D18*
G36*
X146867823Y-46055908D02*
G01*
X146547388Y-46651859D01*
X146349374Y-47298873D01*
X146281390Y-47972084D01*
X146346051Y-48645623D01*
X146540870Y-49293606D01*
X146858361Y-49891130D01*
X146867823Y-49905292D01*
X147316519Y-50217476D01*
X149553395Y-47980600D01*
X149539253Y-47966458D01*
X149718858Y-47786853D01*
X149733000Y-47800995D01*
X149747143Y-47786853D01*
X149926748Y-47966458D01*
X149912605Y-47980600D01*
X152149481Y-50217476D01*
X152598177Y-49905292D01*
X152918612Y-49309341D01*
X153116626Y-48662327D01*
X153184610Y-47989116D01*
X153119949Y-47315577D01*
X152925130Y-46667594D01*
X152607639Y-46070070D01*
X152598177Y-46055908D01*
X152493388Y-45983000D01*
X155642200Y-45983000D01*
X155642201Y-76264497D01*
X155579760Y-76113752D01*
X155325099Y-75732624D01*
X155000976Y-75408501D01*
X154619848Y-75153840D01*
X154196361Y-74978426D01*
X153874600Y-74914423D01*
X153874600Y-74393329D01*
X153985006Y-74258798D01*
X154178103Y-73897539D01*
X154297011Y-73505552D01*
X154327100Y-73200051D01*
X154327100Y-72900748D01*
X154297011Y-72595247D01*
X154178103Y-72203260D01*
X153985006Y-71842002D01*
X153725143Y-71525357D01*
X153408498Y-71265494D01*
X153047239Y-71072397D01*
X152655252Y-70953489D01*
X152247600Y-70913339D01*
X151839947Y-70953489D01*
X151447960Y-71072397D01*
X151086702Y-71265494D01*
X150770057Y-71525357D01*
X150618649Y-71709849D01*
X150574523Y-71674431D01*
X150298694Y-71530829D01*
X150080580Y-71459837D01*
X149834600Y-71579806D01*
X149834600Y-72923400D01*
X149854600Y-72923400D01*
X149854600Y-73177400D01*
X149834600Y-73177400D01*
X149834600Y-74520994D01*
X150080580Y-74640963D01*
X150298694Y-74569971D01*
X150574523Y-74426369D01*
X150618649Y-74390951D01*
X150620600Y-74393329D01*
X150620601Y-75866076D01*
X150612729Y-75946000D01*
X150620601Y-76025925D01*
X150642578Y-76249053D01*
X150644143Y-76264947D01*
X150737176Y-76571638D01*
X150888254Y-76854285D01*
X151040622Y-77039947D01*
X151040626Y-77039951D01*
X151091572Y-77102029D01*
X151153649Y-77152975D01*
X151190600Y-77189925D01*
X151190600Y-77445189D01*
X151280026Y-77894761D01*
X151455440Y-78318248D01*
X151710101Y-78699376D01*
X152034224Y-79023499D01*
X152415352Y-79278160D01*
X152838839Y-79453574D01*
X153288411Y-79543000D01*
X153746789Y-79543000D01*
X154196361Y-79453574D01*
X154619848Y-79278160D01*
X155000976Y-79023499D01*
X155325099Y-78699376D01*
X155579760Y-78318248D01*
X155642201Y-78167503D01*
X155642201Y-81344497D01*
X155579760Y-81193752D01*
X155325099Y-80812624D01*
X155000976Y-80488501D01*
X154619848Y-80233840D01*
X154196361Y-80058426D01*
X153746789Y-79969000D01*
X153288411Y-79969000D01*
X152838839Y-80058426D01*
X152415352Y-80233840D01*
X152034224Y-80488501D01*
X151710101Y-80812624D01*
X151455440Y-81193752D01*
X151280026Y-81617239D01*
X151190600Y-82066811D01*
X151190600Y-82525189D01*
X151280026Y-82974761D01*
X151455440Y-83398248D01*
X151710101Y-83779376D01*
X151890600Y-83959875D01*
X151890601Y-85822127D01*
X151824057Y-85903211D01*
X151635836Y-86255349D01*
X151519930Y-86637440D01*
X151490600Y-86935230D01*
X151490600Y-88934371D01*
X151519931Y-89232161D01*
X151635837Y-89614252D01*
X151824058Y-89966389D01*
X152077361Y-90275040D01*
X152386012Y-90528343D01*
X152738149Y-90716564D01*
X153120240Y-90832470D01*
X153517600Y-90871607D01*
X153914961Y-90832470D01*
X154297052Y-90716564D01*
X154649189Y-90528343D01*
X154957840Y-90275040D01*
X155211143Y-89966389D01*
X155399364Y-89614252D01*
X155515270Y-89232161D01*
X155544600Y-88934370D01*
X155544600Y-86935229D01*
X155515270Y-86637439D01*
X155399364Y-86255348D01*
X155211143Y-85903211D01*
X155144600Y-85822128D01*
X155144600Y-83959875D01*
X155325099Y-83779376D01*
X155579760Y-83398248D01*
X155642201Y-83247503D01*
X155642201Y-98720800D01*
X152420374Y-98720800D01*
X152598177Y-98597092D01*
X152918612Y-98001141D01*
X153116626Y-97354127D01*
X153184610Y-96680916D01*
X153119949Y-96007377D01*
X152925130Y-95359394D01*
X152607639Y-94761870D01*
X152598177Y-94747708D01*
X152149481Y-94435524D01*
X149912605Y-96672400D01*
X149926748Y-96686543D01*
X149747143Y-96866148D01*
X149733000Y-96852005D01*
X149718858Y-96866148D01*
X149539253Y-96686543D01*
X149553395Y-96672400D01*
X147316519Y-94435524D01*
X146867823Y-94747708D01*
X146547388Y-95343659D01*
X146349374Y-95990673D01*
X146281390Y-96663884D01*
X146346051Y-97337423D01*
X146540870Y-97985406D01*
X146858361Y-98582930D01*
X146867823Y-98597092D01*
X147045626Y-98720800D01*
X143622204Y-98720800D01*
X143628416Y-94255919D01*
X147496124Y-94255919D01*
X149733000Y-96492795D01*
X151969876Y-94255919D01*
X151657692Y-93807223D01*
X151061741Y-93486788D01*
X150414727Y-93288774D01*
X149741516Y-93220790D01*
X149067977Y-93285451D01*
X148419994Y-93480270D01*
X147822470Y-93797761D01*
X147808308Y-93807223D01*
X147496124Y-94255919D01*
X143628416Y-94255919D01*
X143639368Y-86384800D01*
X143865147Y-86384800D01*
X143865147Y-89484800D01*
X143891710Y-89754503D01*
X143970380Y-90013842D01*
X144098132Y-90252850D01*
X144270058Y-90462342D01*
X144479550Y-90634268D01*
X144718558Y-90762020D01*
X144977897Y-90840690D01*
X145247600Y-90867253D01*
X146547600Y-90867253D01*
X146817303Y-90840690D01*
X147076642Y-90762020D01*
X147315650Y-90634268D01*
X147525142Y-90462342D01*
X147697068Y-90252850D01*
X147824820Y-90013842D01*
X147903490Y-89754503D01*
X147930053Y-89484800D01*
X147930053Y-88061800D01*
X148172600Y-88061800D01*
X148172600Y-88961800D01*
X148226871Y-89258823D01*
X148338046Y-89539551D01*
X148501852Y-89793196D01*
X148711994Y-90010010D01*
X148960396Y-90181662D01*
X149237513Y-90301555D01*
X149342860Y-90325836D01*
X149580600Y-90205178D01*
X149580600Y-88061800D01*
X149834600Y-88061800D01*
X149834600Y-90205178D01*
X150072340Y-90325836D01*
X150177687Y-90301555D01*
X150454804Y-90181662D01*
X150703206Y-90010010D01*
X150913348Y-89793196D01*
X151077154Y-89539551D01*
X151188329Y-89258823D01*
X151242600Y-88961800D01*
X151242600Y-88061800D01*
X149834600Y-88061800D01*
X149580600Y-88061800D01*
X148172600Y-88061800D01*
X147930053Y-88061800D01*
X147930053Y-86907800D01*
X148172600Y-86907800D01*
X148172600Y-87807800D01*
X149580600Y-87807800D01*
X149580600Y-85664422D01*
X149834600Y-85664422D01*
X149834600Y-87807800D01*
X151242600Y-87807800D01*
X151242600Y-86907800D01*
X151188329Y-86610777D01*
X151077154Y-86330049D01*
X150913348Y-86076404D01*
X150703206Y-85859590D01*
X150454804Y-85687938D01*
X150177687Y-85568045D01*
X150072340Y-85543764D01*
X149834600Y-85664422D01*
X149580600Y-85664422D01*
X149342860Y-85543764D01*
X149237513Y-85568045D01*
X148960396Y-85687938D01*
X148711994Y-85859590D01*
X148501852Y-86076404D01*
X148338046Y-86330049D01*
X148226871Y-86610777D01*
X148172600Y-86907800D01*
X147930053Y-86907800D01*
X147930053Y-86384800D01*
X147903490Y-86115097D01*
X147824820Y-85855758D01*
X147697068Y-85616750D01*
X147525142Y-85407258D01*
X147524600Y-85406813D01*
X147524600Y-79236125D01*
X148261551Y-78499175D01*
X148323629Y-78448229D01*
X148374575Y-78386151D01*
X148374578Y-78386148D01*
X148526946Y-78200486D01*
X148678024Y-77917840D01*
X148685025Y-77894761D01*
X148771058Y-77611148D01*
X148794600Y-77372125D01*
X148794600Y-77372115D01*
X148802471Y-77292201D01*
X148794600Y-77212286D01*
X148794600Y-74954788D01*
X148920865Y-74851165D01*
X149061700Y-74679557D01*
X149119717Y-74571016D01*
X149334620Y-74640963D01*
X149580600Y-74520994D01*
X149580600Y-73177400D01*
X149560600Y-73177400D01*
X149560600Y-72923400D01*
X149580600Y-72923400D01*
X149580600Y-71579806D01*
X149334620Y-71459837D01*
X149119717Y-71529784D01*
X149061700Y-71421243D01*
X148920865Y-71249635D01*
X148749257Y-71108800D01*
X148553471Y-71004150D01*
X148341031Y-70939707D01*
X148120100Y-70917947D01*
X146215100Y-70917947D01*
X145994169Y-70939707D01*
X145781729Y-71004150D01*
X145585943Y-71108800D01*
X145414335Y-71249635D01*
X145273500Y-71421243D01*
X145168850Y-71617029D01*
X145104407Y-71829469D01*
X145082647Y-72050400D01*
X145082647Y-74050400D01*
X145104407Y-74271331D01*
X145168850Y-74483771D01*
X145273500Y-74679557D01*
X145414335Y-74851165D01*
X145540600Y-74954788D01*
X145540601Y-76618274D01*
X144803654Y-77355221D01*
X144741571Y-77406171D01*
X144538254Y-77653915D01*
X144387175Y-77936563D01*
X144294142Y-78243253D01*
X144270600Y-78482276D01*
X144270600Y-78482286D01*
X144262729Y-78562200D01*
X144270600Y-78642115D01*
X144270601Y-85406813D01*
X144270058Y-85407258D01*
X144098132Y-85616750D01*
X143970380Y-85855758D01*
X143891710Y-86115097D01*
X143865147Y-86384800D01*
X143639368Y-86384800D01*
X143681498Y-56107040D01*
X146830600Y-56107040D01*
X146830600Y-56673760D01*
X146941161Y-57229590D01*
X147158035Y-57753171D01*
X147472888Y-58224381D01*
X147873619Y-58625112D01*
X148344829Y-58939965D01*
X148868410Y-59156839D01*
X149424240Y-59267400D01*
X149990960Y-59267400D01*
X150546790Y-59156839D01*
X151070371Y-58939965D01*
X151541581Y-58625112D01*
X151942312Y-58224381D01*
X152257165Y-57753171D01*
X152474039Y-57229590D01*
X152584600Y-56673760D01*
X152584600Y-56107040D01*
X152474039Y-55551210D01*
X152257165Y-55027629D01*
X151942312Y-54556419D01*
X151541581Y-54155688D01*
X151070371Y-53840835D01*
X150546790Y-53623961D01*
X149990960Y-53513400D01*
X149424240Y-53513400D01*
X148868410Y-53623961D01*
X148344829Y-53840835D01*
X147873619Y-54155688D01*
X147472888Y-54556419D01*
X147158035Y-55027629D01*
X146941161Y-55551210D01*
X146830600Y-56107040D01*
X143681498Y-56107040D01*
X143689443Y-50397081D01*
X147496124Y-50397081D01*
X147808308Y-50845777D01*
X148404259Y-51166212D01*
X149051273Y-51364226D01*
X149724484Y-51432210D01*
X150398023Y-51367549D01*
X151046006Y-51172730D01*
X151643530Y-50855239D01*
X151657692Y-50845777D01*
X151969876Y-50397081D01*
X149733000Y-48160205D01*
X147496124Y-50397081D01*
X143689443Y-50397081D01*
X143695586Y-45983000D01*
X146972612Y-45983000D01*
X146867823Y-46055908D01*
G37*
G04 #@! TD.AperFunction*
M02*
