%TF.GenerationSoftware,KiCad,Pcbnew,(6.0.7)*%
%TF.CreationDate,2022-12-20T14:52:23+01:00*%
%TF.ProjectId,bsmce04u-pp_GRBL_mod,62736d63-6530-4347-952d-70705f475242,rev?*%
%TF.SameCoordinates,Original*%
%TF.FileFunction,Legend,Top*%
%TF.FilePolarity,Positive*%
%FSLAX46Y46*%
G04 Gerber Fmt 4.6, Leading zero omitted, Abs format (unit mm)*
G04 Created by KiCad (PCBNEW (6.0.7)) date 2022-12-20 14:52:23*
%MOMM*%
%LPD*%
G01*
G04 APERTURE LIST*
%TA.AperFunction,Profile*%
%ADD10C,0.100000*%
%TD*%
%ADD11C,0.150000*%
%ADD12C,0.120000*%
G04 APERTURE END LIST*
D10*
X161544000Y-33020000D02*
X161544000Y-69850000D01*
X93726000Y-69850000D02*
X93726000Y-33020000D01*
X93726000Y-33020000D02*
X161544000Y-33020000D01*
X161544000Y-69850000D02*
X93726000Y-69850000D01*
D11*
X98633595Y-40922380D02*
X98633595Y-39922380D01*
X98633595Y-40303333D02*
X98728833Y-40255714D01*
X98919309Y-40255714D01*
X99014547Y-40303333D01*
X99062166Y-40350952D01*
X99109785Y-40446190D01*
X99109785Y-40731904D01*
X99062166Y-40827142D01*
X99014547Y-40874761D01*
X98919309Y-40922380D01*
X98728833Y-40922380D01*
X98633595Y-40874761D01*
X99490738Y-40874761D02*
X99585976Y-40922380D01*
X99776452Y-40922380D01*
X99871690Y-40874761D01*
X99919309Y-40779523D01*
X99919309Y-40731904D01*
X99871690Y-40636666D01*
X99776452Y-40589047D01*
X99633595Y-40589047D01*
X99538357Y-40541428D01*
X99490738Y-40446190D01*
X99490738Y-40398571D01*
X99538357Y-40303333D01*
X99633595Y-40255714D01*
X99776452Y-40255714D01*
X99871690Y-40303333D01*
X100347880Y-40922380D02*
X100347880Y-40255714D01*
X100347880Y-40350952D02*
X100395500Y-40303333D01*
X100490738Y-40255714D01*
X100633595Y-40255714D01*
X100728833Y-40303333D01*
X100776452Y-40398571D01*
X100776452Y-40922380D01*
X100776452Y-40398571D02*
X100824071Y-40303333D01*
X100919309Y-40255714D01*
X101062166Y-40255714D01*
X101157404Y-40303333D01*
X101205023Y-40398571D01*
X101205023Y-40922380D01*
X102109785Y-40874761D02*
X102014547Y-40922380D01*
X101824071Y-40922380D01*
X101728833Y-40874761D01*
X101681214Y-40827142D01*
X101633595Y-40731904D01*
X101633595Y-40446190D01*
X101681214Y-40350952D01*
X101728833Y-40303333D01*
X101824071Y-40255714D01*
X102014547Y-40255714D01*
X102109785Y-40303333D01*
X102919309Y-40874761D02*
X102824071Y-40922380D01*
X102633595Y-40922380D01*
X102538357Y-40874761D01*
X102490738Y-40779523D01*
X102490738Y-40398571D01*
X102538357Y-40303333D01*
X102633595Y-40255714D01*
X102824071Y-40255714D01*
X102919309Y-40303333D01*
X102966928Y-40398571D01*
X102966928Y-40493809D01*
X102490738Y-40589047D01*
X103585976Y-39922380D02*
X103681214Y-39922380D01*
X103776452Y-39970000D01*
X103824071Y-40017619D01*
X103871690Y-40112857D01*
X103919309Y-40303333D01*
X103919309Y-40541428D01*
X103871690Y-40731904D01*
X103824071Y-40827142D01*
X103776452Y-40874761D01*
X103681214Y-40922380D01*
X103585976Y-40922380D01*
X103490738Y-40874761D01*
X103443119Y-40827142D01*
X103395500Y-40731904D01*
X103347880Y-40541428D01*
X103347880Y-40303333D01*
X103395500Y-40112857D01*
X103443119Y-40017619D01*
X103490738Y-39970000D01*
X103585976Y-39922380D01*
X104776452Y-40255714D02*
X104776452Y-40922380D01*
X104538357Y-39874761D02*
X104300261Y-40589047D01*
X104919309Y-40589047D01*
X105728833Y-40255714D02*
X105728833Y-40922380D01*
X105300261Y-40255714D02*
X105300261Y-40779523D01*
X105347880Y-40874761D01*
X105443119Y-40922380D01*
X105585976Y-40922380D01*
X105681214Y-40874761D01*
X105728833Y-40827142D01*
X106205023Y-40541428D02*
X106966928Y-40541428D01*
X107443119Y-40255714D02*
X107443119Y-41255714D01*
X107443119Y-40303333D02*
X107538357Y-40255714D01*
X107728833Y-40255714D01*
X107824071Y-40303333D01*
X107871690Y-40350952D01*
X107919309Y-40446190D01*
X107919309Y-40731904D01*
X107871690Y-40827142D01*
X107824071Y-40874761D01*
X107728833Y-40922380D01*
X107538357Y-40922380D01*
X107443119Y-40874761D01*
X108347880Y-40255714D02*
X108347880Y-41255714D01*
X108347880Y-40303333D02*
X108443119Y-40255714D01*
X108633595Y-40255714D01*
X108728833Y-40303333D01*
X108776452Y-40350952D01*
X108824071Y-40446190D01*
X108824071Y-40731904D01*
X108776452Y-40827142D01*
X108728833Y-40874761D01*
X108633595Y-40922380D01*
X108443119Y-40922380D01*
X108347880Y-40874761D01*
X110014547Y-40922380D02*
X110014547Y-39922380D01*
X110014547Y-40303333D02*
X110109785Y-40255714D01*
X110300261Y-40255714D01*
X110395500Y-40303333D01*
X110443119Y-40350952D01*
X110490738Y-40446190D01*
X110490738Y-40731904D01*
X110443119Y-40827142D01*
X110395500Y-40874761D01*
X110300261Y-40922380D01*
X110109785Y-40922380D01*
X110014547Y-40874761D01*
X111062166Y-40922380D02*
X110966928Y-40874761D01*
X110919309Y-40779523D01*
X110919309Y-39922380D01*
X111871690Y-40255714D02*
X111871690Y-40922380D01*
X111443119Y-40255714D02*
X111443119Y-40779523D01*
X111490738Y-40874761D01*
X111585976Y-40922380D01*
X111728833Y-40922380D01*
X111824071Y-40874761D01*
X111871690Y-40827142D01*
X112728833Y-40874761D02*
X112633595Y-40922380D01*
X112443119Y-40922380D01*
X112347880Y-40874761D01*
X112300261Y-40779523D01*
X112300261Y-40398571D01*
X112347880Y-40303333D01*
X112443119Y-40255714D01*
X112633595Y-40255714D01*
X112728833Y-40303333D01*
X112776452Y-40398571D01*
X112776452Y-40493809D01*
X112300261Y-40589047D01*
X113205023Y-40255714D02*
X113205023Y-41255714D01*
X113205023Y-40303333D02*
X113300261Y-40255714D01*
X113490738Y-40255714D01*
X113585976Y-40303333D01*
X113633595Y-40350952D01*
X113681214Y-40446190D01*
X113681214Y-40731904D01*
X113633595Y-40827142D01*
X113585976Y-40874761D01*
X113490738Y-40922380D01*
X113300261Y-40922380D01*
X113205023Y-40874761D01*
X114109785Y-40922380D02*
X114109785Y-40255714D01*
X114109785Y-39922380D02*
X114062166Y-39970000D01*
X114109785Y-40017619D01*
X114157404Y-39970000D01*
X114109785Y-39922380D01*
X114109785Y-40017619D01*
X114728833Y-40922380D02*
X114633595Y-40874761D01*
X114585976Y-40779523D01*
X114585976Y-39922380D01*
X115252642Y-40922380D02*
X115157404Y-40874761D01*
X115109785Y-40779523D01*
X115109785Y-39922380D01*
X99062166Y-41865714D02*
X99062166Y-42675238D01*
X99014547Y-42770476D01*
X98966928Y-42818095D01*
X98871690Y-42865714D01*
X98728833Y-42865714D01*
X98633595Y-42818095D01*
X99062166Y-42484761D02*
X98966928Y-42532380D01*
X98776452Y-42532380D01*
X98681214Y-42484761D01*
X98633595Y-42437142D01*
X98585976Y-42341904D01*
X98585976Y-42056190D01*
X98633595Y-41960952D01*
X98681214Y-41913333D01*
X98776452Y-41865714D01*
X98966928Y-41865714D01*
X99062166Y-41913333D01*
X99538357Y-42532380D02*
X99538357Y-41865714D01*
X99538357Y-42056190D02*
X99585976Y-41960952D01*
X99633595Y-41913333D01*
X99728833Y-41865714D01*
X99824071Y-41865714D01*
X100157404Y-42532380D02*
X100157404Y-41532380D01*
X100157404Y-41913333D02*
X100252642Y-41865714D01*
X100443119Y-41865714D01*
X100538357Y-41913333D01*
X100585976Y-41960952D01*
X100633595Y-42056190D01*
X100633595Y-42341904D01*
X100585976Y-42437142D01*
X100538357Y-42484761D01*
X100443119Y-42532380D01*
X100252642Y-42532380D01*
X100157404Y-42484761D01*
X101205023Y-42532380D02*
X101109785Y-42484761D01*
X101062166Y-42389523D01*
X101062166Y-41532380D01*
X102347880Y-42532380D02*
X102347880Y-41865714D01*
X102347880Y-41960952D02*
X102395500Y-41913333D01*
X102490738Y-41865714D01*
X102633595Y-41865714D01*
X102728833Y-41913333D01*
X102776452Y-42008571D01*
X102776452Y-42532380D01*
X102776452Y-42008571D02*
X102824071Y-41913333D01*
X102919309Y-41865714D01*
X103062166Y-41865714D01*
X103157404Y-41913333D01*
X103205023Y-42008571D01*
X103205023Y-42532380D01*
X103824071Y-42532380D02*
X103728833Y-42484761D01*
X103681214Y-42437142D01*
X103633595Y-42341904D01*
X103633595Y-42056190D01*
X103681214Y-41960952D01*
X103728833Y-41913333D01*
X103824071Y-41865714D01*
X103966928Y-41865714D01*
X104062166Y-41913333D01*
X104109785Y-41960952D01*
X104157404Y-42056190D01*
X104157404Y-42341904D01*
X104109785Y-42437142D01*
X104062166Y-42484761D01*
X103966928Y-42532380D01*
X103824071Y-42532380D01*
X105014547Y-42532380D02*
X105014547Y-41532380D01*
X105014547Y-42484761D02*
X104919309Y-42532380D01*
X104728833Y-42532380D01*
X104633595Y-42484761D01*
X104585976Y-42437142D01*
X104538357Y-42341904D01*
X104538357Y-42056190D01*
X104585976Y-41960952D01*
X104633595Y-41913333D01*
X104728833Y-41865714D01*
X104919309Y-41865714D01*
X105014547Y-41913333D01*
X105490738Y-42437142D02*
X105538357Y-42484761D01*
X105490738Y-42532380D01*
X105443119Y-42484761D01*
X105490738Y-42437142D01*
X105490738Y-42532380D01*
%TO.C,R8*%
X157212380Y-56239166D02*
X156736190Y-56572500D01*
X157212380Y-56810595D02*
X156212380Y-56810595D01*
X156212380Y-56429642D01*
X156260000Y-56334404D01*
X156307619Y-56286785D01*
X156402857Y-56239166D01*
X156545714Y-56239166D01*
X156640952Y-56286785D01*
X156688571Y-56334404D01*
X156736190Y-56429642D01*
X156736190Y-56810595D01*
X156640952Y-55667738D02*
X156593333Y-55762976D01*
X156545714Y-55810595D01*
X156450476Y-55858214D01*
X156402857Y-55858214D01*
X156307619Y-55810595D01*
X156260000Y-55762976D01*
X156212380Y-55667738D01*
X156212380Y-55477261D01*
X156260000Y-55382023D01*
X156307619Y-55334404D01*
X156402857Y-55286785D01*
X156450476Y-55286785D01*
X156545714Y-55334404D01*
X156593333Y-55382023D01*
X156640952Y-55477261D01*
X156640952Y-55667738D01*
X156688571Y-55762976D01*
X156736190Y-55810595D01*
X156831428Y-55858214D01*
X157021904Y-55858214D01*
X157117142Y-55810595D01*
X157164761Y-55762976D01*
X157212380Y-55667738D01*
X157212380Y-55477261D01*
X157164761Y-55382023D01*
X157117142Y-55334404D01*
X157021904Y-55286785D01*
X156831428Y-55286785D01*
X156736190Y-55334404D01*
X156688571Y-55382023D01*
X156640952Y-55477261D01*
%TO.C,Q1*%
X108489761Y-55297619D02*
X108394523Y-55250000D01*
X108299285Y-55154761D01*
X108156428Y-55011904D01*
X108061190Y-54964285D01*
X107965952Y-54964285D01*
X108013571Y-55202380D02*
X107918333Y-55154761D01*
X107823095Y-55059523D01*
X107775476Y-54869047D01*
X107775476Y-54535714D01*
X107823095Y-54345238D01*
X107918333Y-54250000D01*
X108013571Y-54202380D01*
X108204047Y-54202380D01*
X108299285Y-54250000D01*
X108394523Y-54345238D01*
X108442142Y-54535714D01*
X108442142Y-54869047D01*
X108394523Y-55059523D01*
X108299285Y-55154761D01*
X108204047Y-55202380D01*
X108013571Y-55202380D01*
X109394523Y-55202380D02*
X108823095Y-55202380D01*
X109108809Y-55202380D02*
X109108809Y-54202380D01*
X109013571Y-54345238D01*
X108918333Y-54440476D01*
X108823095Y-54488095D01*
%TO.C,J4*%
X155114666Y-37254380D02*
X155114666Y-37968666D01*
X155067047Y-38111523D01*
X154971809Y-38206761D01*
X154828952Y-38254380D01*
X154733714Y-38254380D01*
X156019428Y-37587714D02*
X156019428Y-38254380D01*
X155781333Y-37206761D02*
X155543238Y-37921047D01*
X156162285Y-37921047D01*
%TO.C,J5*%
X158670666Y-37254380D02*
X158670666Y-37968666D01*
X158623047Y-38111523D01*
X158527809Y-38206761D01*
X158384952Y-38254380D01*
X158289714Y-38254380D01*
X159623047Y-37254380D02*
X159146857Y-37254380D01*
X159099238Y-37730571D01*
X159146857Y-37682952D01*
X159242095Y-37635333D01*
X159480190Y-37635333D01*
X159575428Y-37682952D01*
X159623047Y-37730571D01*
X159670666Y-37825809D01*
X159670666Y-38063904D01*
X159623047Y-38159142D01*
X159575428Y-38206761D01*
X159480190Y-38254380D01*
X159242095Y-38254380D01*
X159146857Y-38206761D01*
X159099238Y-38159142D01*
%TO.C,Q4*%
X118649761Y-65177619D02*
X118554523Y-65130000D01*
X118459285Y-65034761D01*
X118316428Y-64891904D01*
X118221190Y-64844285D01*
X118125952Y-64844285D01*
X118173571Y-65082380D02*
X118078333Y-65034761D01*
X117983095Y-64939523D01*
X117935476Y-64749047D01*
X117935476Y-64415714D01*
X117983095Y-64225238D01*
X118078333Y-64130000D01*
X118173571Y-64082380D01*
X118364047Y-64082380D01*
X118459285Y-64130000D01*
X118554523Y-64225238D01*
X118602142Y-64415714D01*
X118602142Y-64749047D01*
X118554523Y-64939523D01*
X118459285Y-65034761D01*
X118364047Y-65082380D01*
X118173571Y-65082380D01*
X119459285Y-64415714D02*
X119459285Y-65082380D01*
X119221190Y-64034761D02*
X118983095Y-64749047D01*
X119602142Y-64749047D01*
%TO.C,R5*%
X125462380Y-61954166D02*
X124986190Y-62287500D01*
X125462380Y-62525595D02*
X124462380Y-62525595D01*
X124462380Y-62144642D01*
X124510000Y-62049404D01*
X124557619Y-62001785D01*
X124652857Y-61954166D01*
X124795714Y-61954166D01*
X124890952Y-62001785D01*
X124938571Y-62049404D01*
X124986190Y-62144642D01*
X124986190Y-62525595D01*
X124462380Y-61049404D02*
X124462380Y-61525595D01*
X124938571Y-61573214D01*
X124890952Y-61525595D01*
X124843333Y-61430357D01*
X124843333Y-61192261D01*
X124890952Y-61097023D01*
X124938571Y-61049404D01*
X125033809Y-61001785D01*
X125271904Y-61001785D01*
X125367142Y-61049404D01*
X125414761Y-61097023D01*
X125462380Y-61192261D01*
X125462380Y-61430357D01*
X125414761Y-61525595D01*
X125367142Y-61573214D01*
%TO.C,J2*%
X149526666Y-46110380D02*
X149526666Y-46824666D01*
X149479047Y-46967523D01*
X149383809Y-47062761D01*
X149240952Y-47110380D01*
X149145714Y-47110380D01*
X149955238Y-46205619D02*
X150002857Y-46158000D01*
X150098095Y-46110380D01*
X150336190Y-46110380D01*
X150431428Y-46158000D01*
X150479047Y-46205619D01*
X150526666Y-46300857D01*
X150526666Y-46396095D01*
X150479047Y-46538952D01*
X149907619Y-47110380D01*
X150526666Y-47110380D01*
%TO.C,Q3*%
X108489761Y-65177619D02*
X108394523Y-65130000D01*
X108299285Y-65034761D01*
X108156428Y-64891904D01*
X108061190Y-64844285D01*
X107965952Y-64844285D01*
X108013571Y-65082380D02*
X107918333Y-65034761D01*
X107823095Y-64939523D01*
X107775476Y-64749047D01*
X107775476Y-64415714D01*
X107823095Y-64225238D01*
X107918333Y-64130000D01*
X108013571Y-64082380D01*
X108204047Y-64082380D01*
X108299285Y-64130000D01*
X108394523Y-64225238D01*
X108442142Y-64415714D01*
X108442142Y-64749047D01*
X108394523Y-64939523D01*
X108299285Y-65034761D01*
X108204047Y-65082380D01*
X108013571Y-65082380D01*
X108775476Y-64082380D02*
X109394523Y-64082380D01*
X109061190Y-64463333D01*
X109204047Y-64463333D01*
X109299285Y-64510952D01*
X109346904Y-64558571D01*
X109394523Y-64653809D01*
X109394523Y-64891904D01*
X109346904Y-64987142D01*
X109299285Y-65034761D01*
X109204047Y-65082380D01*
X108918333Y-65082380D01*
X108823095Y-65034761D01*
X108775476Y-64987142D01*
%TO.C,J3*%
X103187380Y-59388333D02*
X103901666Y-59388333D01*
X104044523Y-59435952D01*
X104139761Y-59531190D01*
X104187380Y-59674047D01*
X104187380Y-59769285D01*
X103187380Y-59007380D02*
X103187380Y-58388333D01*
X103568333Y-58721666D01*
X103568333Y-58578809D01*
X103615952Y-58483571D01*
X103663571Y-58435952D01*
X103758809Y-58388333D01*
X103996904Y-58388333D01*
X104092142Y-58435952D01*
X104139761Y-58483571D01*
X104187380Y-58578809D01*
X104187380Y-58864523D01*
X104139761Y-58959761D01*
X104092142Y-59007380D01*
%TO.C,R9*%
X160260380Y-62589166D02*
X159784190Y-62922500D01*
X160260380Y-63160595D02*
X159260380Y-63160595D01*
X159260380Y-62779642D01*
X159308000Y-62684404D01*
X159355619Y-62636785D01*
X159450857Y-62589166D01*
X159593714Y-62589166D01*
X159688952Y-62636785D01*
X159736571Y-62684404D01*
X159784190Y-62779642D01*
X159784190Y-63160595D01*
X160260380Y-62112976D02*
X160260380Y-61922500D01*
X160212761Y-61827261D01*
X160165142Y-61779642D01*
X160022285Y-61684404D01*
X159831809Y-61636785D01*
X159450857Y-61636785D01*
X159355619Y-61684404D01*
X159308000Y-61732023D01*
X159260380Y-61827261D01*
X159260380Y-62017738D01*
X159308000Y-62112976D01*
X159355619Y-62160595D01*
X159450857Y-62208214D01*
X159688952Y-62208214D01*
X159784190Y-62160595D01*
X159831809Y-62112976D01*
X159879428Y-62017738D01*
X159879428Y-61827261D01*
X159831809Y-61732023D01*
X159784190Y-61684404D01*
X159688952Y-61636785D01*
%TO.C,U2*%
X140208095Y-47077380D02*
X140208095Y-47886904D01*
X140255714Y-47982142D01*
X140303333Y-48029761D01*
X140398571Y-48077380D01*
X140589047Y-48077380D01*
X140684285Y-48029761D01*
X140731904Y-47982142D01*
X140779523Y-47886904D01*
X140779523Y-47077380D01*
X141208095Y-47172619D02*
X141255714Y-47125000D01*
X141350952Y-47077380D01*
X141589047Y-47077380D01*
X141684285Y-47125000D01*
X141731904Y-47172619D01*
X141779523Y-47267857D01*
X141779523Y-47363095D01*
X141731904Y-47505952D01*
X141160476Y-48077380D01*
X141779523Y-48077380D01*
%TO.C,C_BS1*%
X96452142Y-68828809D02*
X96499761Y-68876428D01*
X96547380Y-69019285D01*
X96547380Y-69114523D01*
X96499761Y-69257380D01*
X96404523Y-69352619D01*
X96309285Y-69400238D01*
X96118809Y-69447857D01*
X95975952Y-69447857D01*
X95785476Y-69400238D01*
X95690238Y-69352619D01*
X95595000Y-69257380D01*
X95547380Y-69114523D01*
X95547380Y-69019285D01*
X95595000Y-68876428D01*
X95642619Y-68828809D01*
X96642619Y-68638333D02*
X96642619Y-67876428D01*
X96023571Y-67305000D02*
X96071190Y-67162142D01*
X96118809Y-67114523D01*
X96214047Y-67066904D01*
X96356904Y-67066904D01*
X96452142Y-67114523D01*
X96499761Y-67162142D01*
X96547380Y-67257380D01*
X96547380Y-67638333D01*
X95547380Y-67638333D01*
X95547380Y-67305000D01*
X95595000Y-67209761D01*
X95642619Y-67162142D01*
X95737857Y-67114523D01*
X95833095Y-67114523D01*
X95928333Y-67162142D01*
X95975952Y-67209761D01*
X96023571Y-67305000D01*
X96023571Y-67638333D01*
X96499761Y-66685952D02*
X96547380Y-66543095D01*
X96547380Y-66305000D01*
X96499761Y-66209761D01*
X96452142Y-66162142D01*
X96356904Y-66114523D01*
X96261666Y-66114523D01*
X96166428Y-66162142D01*
X96118809Y-66209761D01*
X96071190Y-66305000D01*
X96023571Y-66495476D01*
X95975952Y-66590714D01*
X95928333Y-66638333D01*
X95833095Y-66685952D01*
X95737857Y-66685952D01*
X95642619Y-66638333D01*
X95595000Y-66590714D01*
X95547380Y-66495476D01*
X95547380Y-66257380D01*
X95595000Y-66114523D01*
X96547380Y-65162142D02*
X96547380Y-65733571D01*
X96547380Y-65447857D02*
X95547380Y-65447857D01*
X95690238Y-65543095D01*
X95785476Y-65638333D01*
X95833095Y-65733571D01*
%TO.C,Q2*%
X118649761Y-55297619D02*
X118554523Y-55250000D01*
X118459285Y-55154761D01*
X118316428Y-55011904D01*
X118221190Y-54964285D01*
X118125952Y-54964285D01*
X118173571Y-55202380D02*
X118078333Y-55154761D01*
X117983095Y-55059523D01*
X117935476Y-54869047D01*
X117935476Y-54535714D01*
X117983095Y-54345238D01*
X118078333Y-54250000D01*
X118173571Y-54202380D01*
X118364047Y-54202380D01*
X118459285Y-54250000D01*
X118554523Y-54345238D01*
X118602142Y-54535714D01*
X118602142Y-54869047D01*
X118554523Y-55059523D01*
X118459285Y-55154761D01*
X118364047Y-55202380D01*
X118173571Y-55202380D01*
X118983095Y-54297619D02*
X119030714Y-54250000D01*
X119125952Y-54202380D01*
X119364047Y-54202380D01*
X119459285Y-54250000D01*
X119506904Y-54297619D01*
X119554523Y-54392857D01*
X119554523Y-54488095D01*
X119506904Y-54630952D01*
X118935476Y-55202380D01*
X119554523Y-55202380D01*
%TO.C,H2*%
X97028095Y-48322380D02*
X97028095Y-47322380D01*
X97028095Y-47798571D02*
X97599523Y-47798571D01*
X97599523Y-48322380D02*
X97599523Y-47322380D01*
X98028095Y-47417619D02*
X98075714Y-47370000D01*
X98170952Y-47322380D01*
X98409047Y-47322380D01*
X98504285Y-47370000D01*
X98551904Y-47417619D01*
X98599523Y-47512857D01*
X98599523Y-47608095D01*
X98551904Y-47750952D01*
X97980476Y-48322380D01*
X98599523Y-48322380D01*
%TO.C,R1*%
X108418333Y-50617380D02*
X108085000Y-50141190D01*
X107846904Y-50617380D02*
X107846904Y-49617380D01*
X108227857Y-49617380D01*
X108323095Y-49665000D01*
X108370714Y-49712619D01*
X108418333Y-49807857D01*
X108418333Y-49950714D01*
X108370714Y-50045952D01*
X108323095Y-50093571D01*
X108227857Y-50141190D01*
X107846904Y-50141190D01*
X109370714Y-50617380D02*
X108799285Y-50617380D01*
X109085000Y-50617380D02*
X109085000Y-49617380D01*
X108989761Y-49760238D01*
X108894523Y-49855476D01*
X108799285Y-49903095D01*
%TO.C,R4*%
X114667380Y-61954166D02*
X114191190Y-62287500D01*
X114667380Y-62525595D02*
X113667380Y-62525595D01*
X113667380Y-62144642D01*
X113715000Y-62049404D01*
X113762619Y-62001785D01*
X113857857Y-61954166D01*
X114000714Y-61954166D01*
X114095952Y-62001785D01*
X114143571Y-62049404D01*
X114191190Y-62144642D01*
X114191190Y-62525595D01*
X114000714Y-61097023D02*
X114667380Y-61097023D01*
X113619761Y-61335119D02*
X114334047Y-61573214D01*
X114334047Y-60954166D01*
%TO.C,H1*%
X147193095Y-48322380D02*
X147193095Y-47322380D01*
X147193095Y-47798571D02*
X147764523Y-47798571D01*
X147764523Y-48322380D02*
X147764523Y-47322380D01*
X148764523Y-48322380D02*
X148193095Y-48322380D01*
X148478809Y-48322380D02*
X148478809Y-47322380D01*
X148383571Y-47465238D01*
X148288333Y-47560476D01*
X148193095Y-47608095D01*
%TO.C,R2*%
X118578333Y-50617380D02*
X118245000Y-50141190D01*
X118006904Y-50617380D02*
X118006904Y-49617380D01*
X118387857Y-49617380D01*
X118483095Y-49665000D01*
X118530714Y-49712619D01*
X118578333Y-49807857D01*
X118578333Y-49950714D01*
X118530714Y-50045952D01*
X118483095Y-50093571D01*
X118387857Y-50141190D01*
X118006904Y-50141190D01*
X118959285Y-49712619D02*
X119006904Y-49665000D01*
X119102142Y-49617380D01*
X119340238Y-49617380D01*
X119435476Y-49665000D01*
X119483095Y-49712619D01*
X119530714Y-49807857D01*
X119530714Y-49903095D01*
X119483095Y-50045952D01*
X118911666Y-50617380D01*
X119530714Y-50617380D01*
%TO.C,Q5*%
X155347619Y-62071238D02*
X155300000Y-62166476D01*
X155204761Y-62261714D01*
X155061904Y-62404571D01*
X155014285Y-62499809D01*
X155014285Y-62595047D01*
X155252380Y-62547428D02*
X155204761Y-62642666D01*
X155109523Y-62737904D01*
X154919047Y-62785523D01*
X154585714Y-62785523D01*
X154395238Y-62737904D01*
X154300000Y-62642666D01*
X154252380Y-62547428D01*
X154252380Y-62356952D01*
X154300000Y-62261714D01*
X154395238Y-62166476D01*
X154585714Y-62118857D01*
X154919047Y-62118857D01*
X155109523Y-62166476D01*
X155204761Y-62261714D01*
X155252380Y-62356952D01*
X155252380Y-62547428D01*
X154252380Y-61214095D02*
X154252380Y-61690285D01*
X154728571Y-61737904D01*
X154680952Y-61690285D01*
X154633333Y-61595047D01*
X154633333Y-61356952D01*
X154680952Y-61261714D01*
X154728571Y-61214095D01*
X154823809Y-61166476D01*
X155061904Y-61166476D01*
X155157142Y-61214095D01*
X155204761Y-61261714D01*
X155252380Y-61356952D01*
X155252380Y-61595047D01*
X155204761Y-61690285D01*
X155157142Y-61737904D01*
%TO.C,U1*%
X136953095Y-45532380D02*
X136953095Y-46341904D01*
X137000714Y-46437142D01*
X137048333Y-46484761D01*
X137143571Y-46532380D01*
X137334047Y-46532380D01*
X137429285Y-46484761D01*
X137476904Y-46437142D01*
X137524523Y-46341904D01*
X137524523Y-45532380D01*
X138524523Y-46532380D02*
X137953095Y-46532380D01*
X138238809Y-46532380D02*
X138238809Y-45532380D01*
X138143571Y-45675238D01*
X138048333Y-45770476D01*
X137953095Y-45818095D01*
%TO.C,U3*%
X130603095Y-45447380D02*
X130603095Y-46256904D01*
X130650714Y-46352142D01*
X130698333Y-46399761D01*
X130793571Y-46447380D01*
X130984047Y-46447380D01*
X131079285Y-46399761D01*
X131126904Y-46352142D01*
X131174523Y-46256904D01*
X131174523Y-45447380D01*
X131555476Y-45447380D02*
X132174523Y-45447380D01*
X131841190Y-45828333D01*
X131984047Y-45828333D01*
X132079285Y-45875952D01*
X132126904Y-45923571D01*
X132174523Y-46018809D01*
X132174523Y-46256904D01*
X132126904Y-46352142D01*
X132079285Y-46399761D01*
X131984047Y-46447380D01*
X131698333Y-46447380D01*
X131603095Y-46399761D01*
X131555476Y-46352142D01*
%TO.C,R7*%
X131278333Y-44817380D02*
X130945000Y-44341190D01*
X130706904Y-44817380D02*
X130706904Y-43817380D01*
X131087857Y-43817380D01*
X131183095Y-43865000D01*
X131230714Y-43912619D01*
X131278333Y-44007857D01*
X131278333Y-44150714D01*
X131230714Y-44245952D01*
X131183095Y-44293571D01*
X131087857Y-44341190D01*
X130706904Y-44341190D01*
X131611666Y-43817380D02*
X132278333Y-43817380D01*
X131849761Y-44817380D01*
%TO.C,J1*%
X96186666Y-39838380D02*
X96186666Y-40552666D01*
X96139047Y-40695523D01*
X96043809Y-40790761D01*
X95900952Y-40838380D01*
X95805714Y-40838380D01*
X97186666Y-40838380D02*
X96615238Y-40838380D01*
X96900952Y-40838380D02*
X96900952Y-39838380D01*
X96805714Y-39981238D01*
X96710476Y-40076476D01*
X96615238Y-40124095D01*
D12*
%TO.C,R8*%
X155850000Y-55345436D02*
X155850000Y-56799564D01*
X154030000Y-55345436D02*
X154030000Y-56799564D01*
%TO.C,Q1*%
X108585000Y-58710000D02*
X109235000Y-58710000D01*
X108585000Y-55590000D02*
X106910000Y-55590000D01*
X108585000Y-58710000D02*
X107935000Y-58710000D01*
X108585000Y-55590000D02*
X109235000Y-55590000D01*
%TO.C,J4*%
X154118000Y-40132000D02*
X154118000Y-38802000D01*
X156778000Y-41402000D02*
X156778000Y-49082000D01*
X154118000Y-41402000D02*
X156778000Y-41402000D01*
X154118000Y-49082000D02*
X156778000Y-49082000D01*
X154118000Y-41402000D02*
X154118000Y-49082000D01*
X154118000Y-38802000D02*
X155448000Y-38802000D01*
%TO.C,J5*%
X157674000Y-38802000D02*
X159004000Y-38802000D01*
X157674000Y-40132000D02*
X157674000Y-38802000D01*
X157674000Y-54162000D02*
X160334000Y-54162000D01*
X160334000Y-41402000D02*
X160334000Y-54162000D01*
X157674000Y-41402000D02*
X157674000Y-54162000D01*
X157674000Y-41402000D02*
X160334000Y-41402000D01*
%TO.C,Q4*%
X118745000Y-60670000D02*
X118095000Y-60670000D01*
X118745000Y-63790000D02*
X120420000Y-63790000D01*
X118745000Y-63790000D02*
X118095000Y-63790000D01*
X118745000Y-60670000D02*
X119395000Y-60670000D01*
%TO.C,R5*%
X124100000Y-61060436D02*
X124100000Y-62514564D01*
X122280000Y-61060436D02*
X122280000Y-62514564D01*
%TO.C,J2*%
X151190000Y-40458000D02*
X148530000Y-40458000D01*
X151190000Y-43058000D02*
X151190000Y-40458000D01*
X151190000Y-43058000D02*
X148530000Y-43058000D01*
X151190000Y-44328000D02*
X151190000Y-45658000D01*
X148530000Y-43058000D02*
X148530000Y-40458000D01*
X151190000Y-45658000D02*
X149860000Y-45658000D01*
%TO.C,Q3*%
X108585000Y-60670000D02*
X107935000Y-60670000D01*
X108585000Y-60670000D02*
X109235000Y-60670000D01*
X108585000Y-63790000D02*
X110260000Y-63790000D01*
X108585000Y-63790000D02*
X107935000Y-63790000D01*
%TO.C,J3*%
X99695000Y-57725000D02*
X94555000Y-57725000D01*
X102295000Y-60385000D02*
X100965000Y-60385000D01*
X94555000Y-57725000D02*
X94555000Y-60385000D01*
X99695000Y-60385000D02*
X94555000Y-60385000D01*
X99695000Y-57725000D02*
X99695000Y-60385000D01*
X102295000Y-59055000D02*
X102295000Y-60385000D01*
%TO.C,R9*%
X158898000Y-61695436D02*
X158898000Y-63149564D01*
X157078000Y-61695436D02*
X157078000Y-63149564D01*
%TO.C,U2*%
X136895000Y-50505000D02*
X138695000Y-50505000D01*
X138695000Y-47285000D02*
X136245000Y-47285000D01*
%TO.C,C_BS1*%
X99695000Y-68635000D02*
X150555000Y-68635000D01*
X150555000Y-68635000D02*
X150555000Y-65975000D01*
X98425000Y-68635000D02*
X97095000Y-68635000D01*
X99695000Y-65975000D02*
X150555000Y-65975000D01*
X97095000Y-68635000D02*
X97095000Y-67305000D01*
X99695000Y-68635000D02*
X99695000Y-65975000D01*
%TO.C,Q2*%
X118745000Y-58710000D02*
X118095000Y-58710000D01*
X118745000Y-55590000D02*
X117070000Y-55590000D01*
X118745000Y-55590000D02*
X119395000Y-55590000D01*
X118745000Y-58710000D02*
X119395000Y-58710000D01*
%TO.C,R1*%
X109312064Y-51160000D02*
X107857936Y-51160000D01*
X109312064Y-52980000D02*
X107857936Y-52980000D01*
%TO.C,R4*%
X111485000Y-61060436D02*
X111485000Y-62514564D01*
X113305000Y-61060436D02*
X113305000Y-62514564D01*
%TO.C,R2*%
X119664564Y-52980000D02*
X118210436Y-52980000D01*
X119664564Y-51160000D02*
X118210436Y-51160000D01*
%TO.C,Q5*%
X153960000Y-61976000D02*
X153960000Y-62626000D01*
X150840000Y-61976000D02*
X150840000Y-62626000D01*
X150840000Y-61976000D02*
X150840000Y-61326000D01*
X153960000Y-61976000D02*
X153960000Y-60301000D01*
%TO.C,U1*%
X138615000Y-41570000D02*
X136815000Y-41570000D01*
X136815000Y-44790000D02*
X139265000Y-44790000D01*
%TO.C,U3*%
X130465000Y-50505000D02*
X132265000Y-50505000D01*
X132265000Y-47285000D02*
X129815000Y-47285000D01*
%TO.C,R7*%
X132172064Y-43455000D02*
X130717936Y-43455000D01*
X132172064Y-41635000D02*
X130717936Y-41635000D01*
%TO.C,J1*%
X95190000Y-39430000D02*
X146110000Y-39430000D01*
X97790000Y-36830000D02*
X97790000Y-34230000D01*
X146110000Y-39430000D02*
X146110000Y-34230000D01*
X95190000Y-39430000D02*
X95190000Y-36830000D01*
X95190000Y-34230000D02*
X96520000Y-34230000D01*
X95190000Y-36830000D02*
X97790000Y-36830000D01*
X97790000Y-34230000D02*
X146110000Y-34230000D01*
X95190000Y-35560000D02*
X95190000Y-34230000D01*
%TD*%
M02*
